G04 #@! TF.GenerationSoftware,KiCad,Pcbnew,(5.0.2)-1*
G04 #@! TF.CreationDate,2019-03-06T23:20:24-07:00*
G04 #@! TF.ProjectId,Sensor_Board,53656e73-6f72-45f4-926f-6172642e6b69,rev?*
G04 #@! TF.SameCoordinates,Original*
G04 #@! TF.FileFunction,Copper,L1,Top*
G04 #@! TF.FilePolarity,Positive*
%FSLAX46Y46*%
G04 Gerber Fmt 4.6, Leading zero omitted, Abs format (unit mm)*
G04 Created by KiCad (PCBNEW (5.0.2)-1) date 2019-03-06 11:20:24 PM*
%MOMM*%
%LPD*%
G01*
G04 APERTURE LIST*
G04 #@! TA.AperFunction,SMDPad,CuDef*
%ADD10R,0.800000X1.500000*%
G04 #@! TD*
G04 #@! TA.AperFunction,SMDPad,CuDef*
%ADD11R,1.400000X1.900000*%
G04 #@! TD*
G04 #@! TA.AperFunction,SMDPad,CuDef*
%ADD12R,1.900000X1.400000*%
G04 #@! TD*
G04 #@! TA.AperFunction,ComponentPad*
%ADD13R,1.700000X1.700000*%
G04 #@! TD*
G04 #@! TA.AperFunction,ComponentPad*
%ADD14O,1.700000X1.700000*%
G04 #@! TD*
G04 #@! TA.AperFunction,SMDPad,CuDef*
%ADD15R,0.750000X0.800000*%
G04 #@! TD*
G04 #@! TA.AperFunction,SMDPad,CuDef*
%ADD16R,0.800000X0.750000*%
G04 #@! TD*
G04 #@! TA.AperFunction,ComponentPad*
%ADD17C,1.500000*%
G04 #@! TD*
G04 #@! TA.AperFunction,SMDPad,CuDef*
%ADD18R,0.500000X0.900000*%
G04 #@! TD*
G04 #@! TA.AperFunction,SMDPad,CuDef*
%ADD19R,0.900000X0.500000*%
G04 #@! TD*
G04 #@! TA.AperFunction,BGAPad,CuDef*
%ADD20C,1.500000*%
G04 #@! TD*
G04 #@! TA.AperFunction,SMDPad,CuDef*
%ADD21R,0.230000X0.350000*%
G04 #@! TD*
G04 #@! TA.AperFunction,SMDPad,CuDef*
%ADD22R,0.350000X0.230000*%
G04 #@! TD*
G04 #@! TA.AperFunction,SMDPad,CuDef*
%ADD23R,0.550000X0.950000*%
G04 #@! TD*
G04 #@! TA.AperFunction,SMDPad,CuDef*
%ADD24R,0.600000X0.950000*%
G04 #@! TD*
G04 #@! TA.AperFunction,SMDPad,CuDef*
%ADD25R,0.950000X0.600000*%
G04 #@! TD*
G04 #@! TA.AperFunction,ViaPad*
%ADD26C,0.800000*%
G04 #@! TD*
G04 #@! TA.AperFunction,Conductor*
%ADD27C,0.200000*%
G04 #@! TD*
G04 #@! TA.AperFunction,Conductor*
%ADD28C,0.250000*%
G04 #@! TD*
G04 #@! TA.AperFunction,Conductor*
%ADD29C,0.254000*%
G04 #@! TD*
G04 APERTURE END LIST*
D10*
G04 #@! TO.P,J1,1*
G04 #@! TO.N,Net-(J1-Pad1)*
X103836000Y-89884000D03*
G04 #@! TO.P,J1,2*
G04 #@! TO.N,SD1_~CS*
X104936000Y-90284000D03*
G04 #@! TO.P,J1,3*
G04 #@! TO.N,SPI3_MOSI*
X106036000Y-89884000D03*
G04 #@! TO.P,J1,4*
G04 #@! TO.N,+3V3*
X107136000Y-89684000D03*
G04 #@! TO.P,J1,5*
G04 #@! TO.N,SPI3_SCK*
X108236000Y-89884000D03*
G04 #@! TO.P,J1,6*
G04 #@! TO.N,GND*
X109336000Y-89684000D03*
G04 #@! TO.P,J1,7*
G04 #@! TO.N,SPI3_MISO*
X110436000Y-89884000D03*
G04 #@! TO.P,J1,8*
G04 #@! TO.N,Net-(J1-Pad8)*
X111536000Y-89884000D03*
D11*
G04 #@! TO.P,J1,9*
G04 #@! TO.N,GND*
X112326000Y-87034000D03*
D12*
G04 #@! TO.P,J1,10*
G04 #@! TO.N,N/C*
X110726000Y-100184000D03*
G04 #@! TO.P,J1,11*
X105026000Y-100184000D03*
D11*
G04 #@! TO.P,J1,12*
X99176000Y-86034000D03*
G04 #@! TD*
D13*
G04 #@! TO.P,J3,1*
G04 #@! TO.N,ACC_~CS*
X100076000Y-118364000D03*
D14*
G04 #@! TO.P,J3,2*
G04 #@! TO.N,SPI2_SCK*
X102616000Y-118364000D03*
G04 #@! TO.P,J3,3*
G04 #@! TO.N,SPI2_MISO*
X105156000Y-118364000D03*
G04 #@! TO.P,J3,4*
G04 #@! TO.N,SPI2_MOSI*
X107696000Y-118364000D03*
G04 #@! TO.P,J3,5*
G04 #@! TO.N,BARO_~CS*
X110236000Y-118364000D03*
G04 #@! TO.P,J3,6*
G04 #@! TO.N,GND*
X112776000Y-118364000D03*
G04 #@! TD*
D13*
G04 #@! TO.P,J2,1*
G04 #@! TO.N,+3V3*
X84836000Y-95504000D03*
D14*
G04 #@! TO.P,J2,2*
G04 #@! TO.N,AG_~CS*
X84836000Y-98044000D03*
G04 #@! TO.P,J2,3*
G04 #@! TO.N,SPI1_SCK*
X84836000Y-100584000D03*
G04 #@! TO.P,J2,4*
G04 #@! TO.N,SPI1_MISO*
X84836000Y-103124000D03*
G04 #@! TO.P,J2,5*
G04 #@! TO.N,SPI1_MOSI*
X84836000Y-105664000D03*
G04 #@! TO.P,J2,6*
G04 #@! TO.N,MAG_~CS*
X84836000Y-108204000D03*
G04 #@! TO.P,J2,7*
G04 #@! TO.N,UART3_TX*
X84836000Y-110744000D03*
G04 #@! TO.P,J2,8*
G04 #@! TO.N,UART3_RX*
X84836000Y-113284000D03*
G04 #@! TD*
D15*
G04 #@! TO.P,C1,2*
G04 #@! TO.N,GND*
X98044000Y-103632000D03*
G04 #@! TO.P,C1,1*
G04 #@! TO.N,Net-(C1-Pad1)*
X98044000Y-102132000D03*
G04 #@! TD*
D16*
G04 #@! TO.P,C2,1*
G04 #@! TO.N,Net-(C2-Pad1)*
X95504000Y-100076000D03*
G04 #@! TO.P,C2,2*
G04 #@! TO.N,GND*
X97004000Y-100076000D03*
G04 #@! TD*
G04 #@! TO.P,C3,2*
G04 #@! TO.N,GND*
X111276000Y-106172000D03*
G04 #@! TO.P,C3,1*
G04 #@! TO.N,+3V3*
X112776000Y-106172000D03*
G04 #@! TD*
G04 #@! TO.P,C4,2*
G04 #@! TO.N,GND*
X97028000Y-97028000D03*
G04 #@! TO.P,C4,1*
G04 #@! TO.N,+3V3*
X95528000Y-97028000D03*
G04 #@! TD*
G04 #@! TO.P,C5,1*
G04 #@! TO.N,+3V3*
X91972000Y-97028000D03*
G04 #@! TO.P,C5,2*
G04 #@! TO.N,GND*
X93472000Y-97028000D03*
G04 #@! TD*
G04 #@! TO.P,C6,2*
G04 #@! TO.N,GND*
X93472000Y-100076000D03*
G04 #@! TO.P,C6,1*
G04 #@! TO.N,+3V3*
X91972000Y-100076000D03*
G04 #@! TD*
G04 #@! TO.P,C7,1*
G04 #@! TO.N,+3V3*
X117880000Y-102108000D03*
G04 #@! TO.P,C7,2*
G04 #@! TO.N,GND*
X119380000Y-102108000D03*
G04 #@! TD*
G04 #@! TO.P,C8,1*
G04 #@! TO.N,+3V3*
X105156000Y-103124000D03*
G04 #@! TO.P,C8,2*
G04 #@! TO.N,GND*
X103656000Y-103124000D03*
G04 #@! TD*
G04 #@! TO.P,C9,2*
G04 #@! TO.N,GND*
X103656000Y-106172000D03*
G04 #@! TO.P,C9,1*
G04 #@! TO.N,+3V3*
X105156000Y-106172000D03*
G04 #@! TD*
G04 #@! TO.P,C10,1*
G04 #@! TO.N,+3V3*
X100100000Y-106172000D03*
G04 #@! TO.P,C10,2*
G04 #@! TO.N,GND*
X101600000Y-106172000D03*
G04 #@! TD*
G04 #@! TO.P,C11,1*
G04 #@! TO.N,+3V3*
X117880000Y-105156000D03*
G04 #@! TO.P,C11,2*
G04 #@! TO.N,GND*
X119380000Y-105156000D03*
G04 #@! TD*
D14*
G04 #@! TO.P,J4,6*
G04 #@! TO.N,SD1_~CS*
X126492000Y-113792000D03*
G04 #@! TO.P,J4,5*
G04 #@! TO.N,SPI3_SCK*
X126492000Y-111252000D03*
G04 #@! TO.P,J4,4*
G04 #@! TO.N,SPI3_MISO*
X126492000Y-108712000D03*
G04 #@! TO.P,J4,3*
G04 #@! TO.N,SPI3_MOSI*
X126492000Y-106172000D03*
G04 #@! TO.P,J4,2*
G04 #@! TO.N,SD2_~CS*
X126492000Y-103632000D03*
D13*
G04 #@! TO.P,J4,1*
G04 #@! TO.N,GND*
X126492000Y-101092000D03*
G04 #@! TD*
D17*
G04 #@! TO.P,J5,1*
G04 #@! TO.N,+3V3*
X118412000Y-91216000D03*
G04 #@! TO.P,J5,2*
G04 #@! TO.N,GND*
X121412000Y-91216000D03*
G04 #@! TO.P,J5,4*
G04 #@! TO.N,SPI3_MOSI*
X118412000Y-94216000D03*
G04 #@! TO.P,J5,5*
G04 #@! TO.N,SPI3_MISO*
X121412000Y-94216000D03*
G04 #@! TO.P,J5,6*
G04 #@! TO.N,SD2_~CS*
X124412000Y-94216000D03*
G04 #@! TO.P,J5,3*
G04 #@! TO.N,SPI3_SCK*
X124412000Y-91216000D03*
G04 #@! TD*
D18*
G04 #@! TO.P,R1,2*
G04 #@! TO.N,AG_~CS*
X94488000Y-108712000D03*
G04 #@! TO.P,R1,1*
G04 #@! TO.N,+3V3*
X92988000Y-108712000D03*
G04 #@! TD*
D19*
G04 #@! TO.P,R2,1*
G04 #@! TO.N,+3V3*
X114808000Y-109752000D03*
G04 #@! TO.P,R2,2*
G04 #@! TO.N,BARO_~CS*
X114808000Y-111252000D03*
G04 #@! TD*
D18*
G04 #@! TO.P,R3,1*
G04 #@! TO.N,+3V3*
X92988000Y-111760000D03*
G04 #@! TO.P,R3,2*
G04 #@! TO.N,MAG_~CS*
X94488000Y-111760000D03*
G04 #@! TD*
G04 #@! TO.P,R4,2*
G04 #@! TO.N,SD1_~CS*
X119864000Y-115316000D03*
G04 #@! TO.P,R4,1*
G04 #@! TO.N,+3V3*
X118364000Y-115316000D03*
G04 #@! TD*
G04 #@! TO.P,R5,2*
G04 #@! TO.N,SD2_~CS*
X119622000Y-99060000D03*
G04 #@! TO.P,R5,1*
G04 #@! TO.N,+3V3*
X118122000Y-99060000D03*
G04 #@! TD*
D20*
G04 #@! TO.P,TP1,1*
G04 #@! TO.N,SPI2_SCK*
X103632000Y-114300000D03*
G04 #@! TD*
G04 #@! TO.P,TP2,1*
G04 #@! TO.N,SPI2_MOSI*
X109728000Y-114300000D03*
G04 #@! TD*
G04 #@! TO.P,TP3,1*
G04 #@! TO.N,SPI2_MISO*
X106680000Y-114300000D03*
G04 #@! TD*
G04 #@! TO.P,TP4,1*
G04 #@! TO.N,BARO_~CS*
X112776000Y-114300000D03*
G04 #@! TD*
G04 #@! TO.P,TP5,1*
G04 #@! TO.N,SPI1_SCK*
X88900000Y-97028000D03*
G04 #@! TD*
G04 #@! TO.P,TP6,1*
G04 #@! TO.N,SPI1_MOSI*
X88900000Y-101092000D03*
G04 #@! TD*
G04 #@! TO.P,TP7,1*
G04 #@! TO.N,SPI1_MISO*
X88900000Y-105156000D03*
G04 #@! TD*
G04 #@! TO.P,TP8,1*
G04 #@! TO.N,AG_~CS*
X88900000Y-109220000D03*
G04 #@! TD*
G04 #@! TO.P,TP9,1*
G04 #@! TO.N,MAG_~CS*
X88900000Y-113284000D03*
G04 #@! TD*
G04 #@! TO.P,TP10,1*
G04 #@! TO.N,SPI3_SCK*
X122428000Y-111252000D03*
G04 #@! TD*
G04 #@! TO.P,TP11,1*
G04 #@! TO.N,SPI3_MOSI*
X122428000Y-103124000D03*
G04 #@! TD*
G04 #@! TO.P,TP12,1*
G04 #@! TO.N,SPI3_MISO*
X122428000Y-107188000D03*
G04 #@! TD*
G04 #@! TO.P,TP13,1*
G04 #@! TO.N,SD1_~CS*
X122428000Y-115316000D03*
G04 #@! TD*
G04 #@! TO.P,TP14,1*
G04 #@! TO.N,ACC_~CS*
X100076000Y-114300000D03*
G04 #@! TD*
G04 #@! TO.P,TP15,1*
G04 #@! TO.N,SD2_~CS*
X122428000Y-99060000D03*
G04 #@! TD*
D21*
G04 #@! TO.P,U1,13*
G04 #@! TO.N,Net-(U1-Pad13)*
X95993000Y-105873000D03*
G04 #@! TO.P,U1,12*
G04 #@! TO.N,Net-(U1-Pad12)*
X95563000Y-105873000D03*
G04 #@! TO.P,U1,11*
G04 #@! TO.N,Net-(U1-Pad11)*
X95133000Y-105873000D03*
G04 #@! TO.P,U1,10*
G04 #@! TO.N,Net-(U1-Pad10)*
X94703000Y-105873000D03*
G04 #@! TO.P,U1,9*
G04 #@! TO.N,Net-(U1-Pad9)*
X94273000Y-105873000D03*
G04 #@! TO.P,U1,8*
G04 #@! TO.N,MAG_~CS*
X93843000Y-105873000D03*
G04 #@! TO.P,U1,7*
G04 #@! TO.N,AG_~CS*
X93413000Y-105873000D03*
G04 #@! TO.P,U1,6*
G04 #@! TO.N,SPI1_MISO*
X92983000Y-105873000D03*
G04 #@! TO.P,U1,18*
G04 #@! TO.N,GND*
X95993000Y-103423000D03*
G04 #@! TO.P,U1,19*
X95563000Y-103423000D03*
G04 #@! TO.P,U1,20*
X95133000Y-103423000D03*
G04 #@! TO.P,U1,21*
G04 #@! TO.N,Net-(C1-Pad1)*
X94703000Y-103423000D03*
G04 #@! TO.P,U1,22*
G04 #@! TO.N,+3V3*
X94273000Y-103423000D03*
G04 #@! TO.P,U1,23*
X93843000Y-103423000D03*
G04 #@! TO.P,U1,24*
G04 #@! TO.N,Net-(C2-Pad1)*
X93413000Y-103423000D03*
D22*
G04 #@! TO.P,U1,14*
G04 #@! TO.N,GND*
X95963000Y-105293000D03*
G04 #@! TO.P,U1,5*
G04 #@! TO.N,SPI1_MISO*
X93013000Y-105293000D03*
G04 #@! TO.P,U1,15*
G04 #@! TO.N,GND*
X95963000Y-104863000D03*
G04 #@! TO.P,U1,4*
G04 #@! TO.N,SPI1_MOSI*
X93013000Y-104863000D03*
G04 #@! TO.P,U1,16*
G04 #@! TO.N,GND*
X95963000Y-104433000D03*
G04 #@! TO.P,U1,3*
G04 #@! TO.N,+3V3*
X93013000Y-104433000D03*
G04 #@! TO.P,U1,17*
G04 #@! TO.N,GND*
X95963000Y-104003000D03*
G04 #@! TO.P,U1,2*
G04 #@! TO.N,SPI1_SCK*
X93013000Y-104003000D03*
D21*
G04 #@! TO.P,U1,1*
G04 #@! TO.N,+3V3*
X92983000Y-103423000D03*
G04 #@! TD*
D23*
G04 #@! TO.P,U2,5*
G04 #@! TO.N,BARO_~CS*
X108712000Y-110236000D03*
G04 #@! TO.P,U2,6*
G04 #@! TO.N,SPI2_MISO*
X109962000Y-110236000D03*
G04 #@! TO.P,U2,7*
G04 #@! TO.N,SPI2_MOSI*
X111212000Y-110236000D03*
G04 #@! TO.P,U2,8*
G04 #@! TO.N,SPI2_SCK*
X112462000Y-110236000D03*
G04 #@! TO.P,U2,3*
G04 #@! TO.N,GND*
X109962000Y-108086000D03*
G04 #@! TO.P,U2,2*
X111212000Y-108086000D03*
G04 #@! TO.P,U2,1*
G04 #@! TO.N,+3V3*
X112462000Y-108086000D03*
G04 #@! TO.P,U2,4*
G04 #@! TO.N,BARO_~CS*
X108712000Y-108086000D03*
G04 #@! TD*
D24*
G04 #@! TO.P,U3,1*
G04 #@! TO.N,+3V3*
X104108000Y-108220000D03*
G04 #@! TO.P,U3,2*
G04 #@! TO.N,GND*
X103308000Y-108220000D03*
G04 #@! TO.P,U3,3*
G04 #@! TO.N,N/C*
X102508000Y-108220000D03*
G04 #@! TO.P,U3,4*
G04 #@! TO.N,GND*
X101708000Y-108220000D03*
G04 #@! TO.P,U3,5*
X100908000Y-108220000D03*
G04 #@! TO.P,U3,6*
G04 #@! TO.N,+3V3*
X100108000Y-108220000D03*
D25*
G04 #@! TO.P,U3,7*
G04 #@! TO.N,ACC_~CS*
X100108000Y-109220000D03*
D24*
G04 #@! TO.P,U3,8*
G04 #@! TO.N,Net-(U3-Pad8)*
X100108000Y-110220000D03*
G04 #@! TO.P,U3,9*
G04 #@! TO.N,Net-(U3-Pad9)*
X100908000Y-110220000D03*
G04 #@! TO.P,U3,10*
G04 #@! TO.N,N/C*
X101708000Y-110220000D03*
G04 #@! TO.P,U3,11*
X102508000Y-110220000D03*
G04 #@! TO.P,U3,12*
G04 #@! TO.N,SPI2_MISO*
X103308000Y-110220000D03*
G04 #@! TO.P,U3,13*
G04 #@! TO.N,SPI2_MOSI*
X104108000Y-110220000D03*
D25*
G04 #@! TO.P,U3,14*
G04 #@! TO.N,SPI2_SCK*
X104108000Y-109220000D03*
G04 #@! TD*
D26*
G04 #@! TO.N,GND*
X93980000Y-95504000D03*
X96520000Y-95504000D03*
X99568000Y-102616000D03*
X117856000Y-87884000D03*
X101600000Y-104648000D03*
X103124000Y-101600000D03*
X112268000Y-104648000D03*
X119380000Y-107188000D03*
X113792000Y-85344000D03*
G04 #@! TO.N,+3V3*
X91440000Y-104648000D03*
X91948000Y-107696000D03*
X94488000Y-102108000D03*
X98552000Y-105664000D03*
X91948000Y-111760000D03*
X91440000Y-114300000D03*
X109220000Y-103124000D03*
X112268000Y-102108000D03*
X114300000Y-107696000D03*
X117348000Y-106680000D03*
X118364000Y-110236000D03*
X116840000Y-112776000D03*
X116840000Y-97536000D03*
X116840000Y-92456000D03*
X113792000Y-101600000D03*
X115316000Y-100076000D03*
G04 #@! TO.N,SPI3_SCK*
X120904000Y-109728000D03*
X122428000Y-92964000D03*
X110744000Y-91948000D03*
X122936000Y-89408000D03*
G04 #@! TO.N,SPI3_MISO*
X120904000Y-105664000D03*
X121560487Y-96465048D03*
G04 #@! TO.N,SPI1_MOSI*
X86868000Y-101092000D03*
X86360000Y-104140000D03*
G04 #@! TO.N,SPI2_SCK*
X112268000Y-111760000D03*
X103632000Y-119380000D03*
G04 #@! TO.N,SPI2_MISO*
X108712000Y-111760000D03*
X107696000Y-113284000D03*
G04 #@! TO.N,BARO_~CS*
X106680000Y-109920000D03*
X106680000Y-108520000D03*
G04 #@! TO.N,SD2_~CS*
X119380000Y-96520000D03*
X123702653Y-92714653D03*
G04 #@! TD*
D27*
G04 #@! TO.N,GND*
X95963000Y-105293000D02*
X95963000Y-104863000D01*
X95963000Y-104863000D02*
X95963000Y-104433000D01*
X95963000Y-104433000D02*
X95963000Y-104003000D01*
X97673000Y-104003000D02*
X98044000Y-103632000D01*
X95963000Y-104003000D02*
X97673000Y-104003000D01*
X97028000Y-100052000D02*
X97004000Y-100076000D01*
X97028000Y-97028000D02*
X97028000Y-100052000D01*
X95133000Y-103423000D02*
X95563000Y-103423000D01*
X95563000Y-103423000D02*
X95993000Y-103423000D01*
X93472000Y-100076000D02*
X93472000Y-97028000D01*
X93472000Y-97028000D02*
X93472000Y-96012000D01*
X93472000Y-96012000D02*
X93980000Y-95504000D01*
X96520000Y-95504000D02*
X97028000Y-96012000D01*
X97028000Y-96012000D02*
X97028000Y-97028000D01*
X95963000Y-103453000D02*
X95993000Y-103423000D01*
X95963000Y-104003000D02*
X95963000Y-103453000D01*
X109962000Y-108086000D02*
X111212000Y-108086000D01*
X98044000Y-103632000D02*
X98552000Y-103632000D01*
X98552000Y-103632000D02*
X99568000Y-102616000D01*
X121412000Y-91216000D02*
X118080000Y-87884000D01*
X118080000Y-87884000D02*
X117856000Y-87884000D01*
D28*
X100908000Y-108220000D02*
X101708000Y-108220000D01*
X101708000Y-106280000D02*
X101600000Y-106172000D01*
X101708000Y-108220000D02*
X101708000Y-106280000D01*
X101600000Y-106172000D02*
X101600000Y-104648000D01*
X103656000Y-106172000D02*
X103656000Y-103124000D01*
X103656000Y-103124000D02*
X103656000Y-102132000D01*
X103656000Y-102132000D02*
X103124000Y-101600000D01*
X103308000Y-106520000D02*
X103656000Y-106172000D01*
X103308000Y-108220000D02*
X103308000Y-106520000D01*
X111212000Y-106236000D02*
X111276000Y-106172000D01*
X111212000Y-108086000D02*
X111212000Y-106236000D01*
X111276000Y-106172000D02*
X111276000Y-105640000D01*
X111276000Y-105640000D02*
X112268000Y-104648000D01*
X119380000Y-102108000D02*
X119380000Y-105156000D01*
X119380000Y-105156000D02*
X119380000Y-107188000D01*
X111376000Y-87034000D02*
X112326000Y-87034000D01*
X110986000Y-87034000D02*
X111376000Y-87034000D01*
X109336000Y-88684000D02*
X110986000Y-87034000D01*
X109336000Y-89684000D02*
X109336000Y-88684000D01*
X113276000Y-87034000D02*
X113792000Y-86518000D01*
X112326000Y-87034000D02*
X113276000Y-87034000D01*
X113792000Y-86518000D02*
X113792000Y-85344000D01*
D27*
G04 #@! TO.N,Net-(C1-Pad1)*
X97469000Y-102132000D02*
X98044000Y-102132000D01*
X95619000Y-102132000D02*
X97469000Y-102132000D01*
X94703000Y-103048000D02*
X95619000Y-102132000D01*
X94703000Y-103423000D02*
X94703000Y-103048000D01*
G04 #@! TO.N,Net-(C2-Pad1)*
X95479000Y-100076000D02*
X95504000Y-100076000D01*
X93413000Y-102142000D02*
X95479000Y-100076000D01*
X93413000Y-103423000D02*
X93413000Y-102142000D01*
G04 #@! TO.N,+3V3*
X92983000Y-103423000D02*
X92983000Y-102635000D01*
X91972000Y-101624000D02*
X91972000Y-100076000D01*
X92983000Y-102635000D02*
X91972000Y-101624000D01*
X91972000Y-100076000D02*
X91972000Y-97028000D01*
X93013000Y-104433000D02*
X91655000Y-104433000D01*
X91655000Y-104433000D02*
X91440000Y-104648000D01*
X91972000Y-107696000D02*
X92988000Y-108712000D01*
X91948000Y-107696000D02*
X91972000Y-107696000D01*
X93843000Y-103423000D02*
X94273000Y-103423000D01*
X94273000Y-103423000D02*
X94273000Y-102323000D01*
X94273000Y-102323000D02*
X94488000Y-102108000D01*
X93843000Y-103798000D02*
X93843000Y-103423000D01*
X93843000Y-103978000D02*
X93843000Y-103798000D01*
X93388000Y-104433000D02*
X93843000Y-103978000D01*
X93013000Y-104433000D02*
X93388000Y-104433000D01*
D28*
X92988000Y-111760000D02*
X91948000Y-111760000D01*
X99060000Y-106172000D02*
X98552000Y-105664000D01*
X100100000Y-106172000D02*
X99060000Y-106172000D01*
X105156000Y-106172000D02*
X106172000Y-106172000D01*
X106172000Y-106172000D02*
X109220000Y-103124000D01*
X112462000Y-108086000D02*
X113910000Y-108086000D01*
X113910000Y-108086000D02*
X114300000Y-107696000D01*
X117348000Y-106680000D02*
X118364000Y-107696000D01*
X118364000Y-107696000D02*
X118364000Y-110236000D01*
X118122000Y-99060000D02*
X118122000Y-98818000D01*
X118122000Y-98818000D02*
X116840000Y-97536000D01*
X118080000Y-91216000D02*
X118412000Y-91216000D01*
X116840000Y-92456000D02*
X118080000Y-91216000D01*
X112268000Y-102108000D02*
X113284000Y-102108000D01*
X113284000Y-102108000D02*
X113792000Y-101600000D01*
G04 #@! TO.N,SD1_~CS*
X123952000Y-113792000D02*
X126492000Y-113792000D01*
X122428000Y-115316000D02*
X123952000Y-113792000D01*
X121367340Y-115316000D02*
X119864000Y-115316000D01*
X122428000Y-115316000D02*
X121367340Y-115316000D01*
X119864000Y-114616000D02*
X117348000Y-112100000D01*
X119864000Y-115316000D02*
X119864000Y-114616000D01*
X117348000Y-112100000D02*
X117348000Y-108712000D01*
X116274010Y-107638010D02*
X116274010Y-102558010D01*
X117348000Y-108712000D02*
X116274010Y-107638010D01*
X116274010Y-102558010D02*
X110744000Y-97028000D01*
X110744000Y-97028000D02*
X108204000Y-97028000D01*
X104936000Y-93760000D02*
X104936000Y-90284000D01*
X108204000Y-97028000D02*
X104936000Y-93760000D01*
G04 #@! TO.N,SPI3_MOSI*
X125476000Y-106172000D02*
X126492000Y-106172000D01*
X122428000Y-103124000D02*
X125476000Y-106172000D01*
X119161999Y-94965999D02*
X118412000Y-94216000D01*
X120396000Y-96200000D02*
X119161999Y-94965999D01*
X120396000Y-101092000D02*
X120396000Y-96200000D01*
X122428000Y-103124000D02*
X120396000Y-101092000D01*
X117351340Y-94216000D02*
X118412000Y-94216000D01*
X109368000Y-94216000D02*
X117351340Y-94216000D01*
X106036000Y-90884000D02*
X109368000Y-94216000D01*
X106036000Y-89884000D02*
X106036000Y-90884000D01*
G04 #@! TO.N,SPI3_SCK*
X122428000Y-111252000D02*
X126492000Y-111252000D01*
X122428000Y-111252000D02*
X120904000Y-109728000D01*
X124176000Y-91216000D02*
X124412000Y-91216000D01*
X122428000Y-92964000D02*
X124176000Y-91216000D01*
X109950000Y-91948000D02*
X110744000Y-91948000D01*
X108236000Y-89884000D02*
X108236000Y-90234000D01*
X108236000Y-90234000D02*
X109950000Y-91948000D01*
X124412000Y-89868000D02*
X124412000Y-91216000D01*
X122936000Y-89408000D02*
X123952000Y-89408000D01*
X123952000Y-89408000D02*
X124412000Y-89868000D01*
G04 #@! TO.N,SPI3_MISO*
X123952000Y-108712000D02*
X126492000Y-108712000D01*
X122428000Y-107188000D02*
X123952000Y-108712000D01*
X122428000Y-107188000D02*
X120904000Y-105664000D01*
X121560487Y-94364487D02*
X121412000Y-94216000D01*
X121560487Y-96465048D02*
X121560487Y-94364487D01*
X110436000Y-90519002D02*
X113388998Y-93472000D01*
X110436000Y-89884000D02*
X110436000Y-90519002D01*
X116897002Y-93472000D02*
X117405002Y-92964000D01*
X113388998Y-93472000D02*
X116897002Y-93472000D01*
X120160000Y-92964000D02*
X121412000Y-94216000D01*
X117405002Y-92964000D02*
X120160000Y-92964000D01*
D27*
G04 #@! TO.N,AG_~CS*
X94488000Y-108512000D02*
X94488000Y-108712000D01*
X93413000Y-107437000D02*
X94488000Y-108512000D01*
X93413000Y-105873000D02*
X93413000Y-107437000D01*
X94488000Y-108712000D02*
X94488000Y-109728000D01*
X94488000Y-109728000D02*
X93980000Y-110236000D01*
X89916000Y-110236000D02*
X88900000Y-109220000D01*
X93980000Y-110236000D02*
X89916000Y-110236000D01*
D28*
X84271999Y-106839001D02*
X83312000Y-105879002D01*
X88900000Y-109220000D02*
X86519001Y-106839001D01*
X86519001Y-106839001D02*
X84271999Y-106839001D01*
X83312000Y-99568000D02*
X84836000Y-98044000D01*
X83312000Y-105879002D02*
X83312000Y-99568000D01*
D27*
G04 #@! TO.N,SPI1_SCK*
X89916000Y-99568000D02*
X89916000Y-98044000D01*
X92638000Y-104003000D02*
X92267000Y-103632000D01*
X92267000Y-103632000D02*
X91440000Y-103632000D01*
X91440000Y-103632000D02*
X90932000Y-103124000D01*
X89916000Y-98044000D02*
X88900000Y-97028000D01*
X90932000Y-103124000D02*
X90932000Y-100584000D01*
X90932000Y-100584000D02*
X89916000Y-99568000D01*
X93013000Y-104003000D02*
X92638000Y-104003000D01*
D28*
X87839340Y-97028000D02*
X86868000Y-97999340D01*
X88900000Y-97028000D02*
X87839340Y-97028000D01*
X86868000Y-98552000D02*
X84836000Y-100584000D01*
X86868000Y-97999340D02*
X86868000Y-98552000D01*
D27*
G04 #@! TO.N,SPI1_MISO*
X92983000Y-105323000D02*
X92983000Y-105873000D01*
X93013000Y-105293000D02*
X92983000Y-105323000D01*
X92983000Y-105933000D02*
X92236000Y-106680000D01*
X92983000Y-105873000D02*
X92983000Y-105933000D01*
X92236000Y-106680000D02*
X90424000Y-106680000D01*
X90424000Y-106680000D02*
X88900000Y-105156000D01*
D28*
X86868000Y-103124000D02*
X84836000Y-103124000D01*
X88900000Y-105156000D02*
X86868000Y-103124000D01*
D27*
G04 #@! TO.N,SPI1_MOSI*
X93013000Y-104863000D02*
X92638000Y-104863000D01*
X90424000Y-102616000D02*
X88900000Y-101092000D01*
X90424000Y-105156000D02*
X90424000Y-102616000D01*
X90932000Y-105664000D02*
X90424000Y-105156000D01*
X91837000Y-105664000D02*
X90932000Y-105664000D01*
X92638000Y-104863000D02*
X91837000Y-105664000D01*
D28*
X88900000Y-101092000D02*
X86868000Y-101092000D01*
X86360000Y-104140000D02*
X84836000Y-105664000D01*
D27*
G04 #@! TO.N,MAG_~CS*
X93843000Y-106248000D02*
X95504000Y-107909000D01*
X93843000Y-105873000D02*
X93843000Y-106248000D01*
X94488000Y-111110000D02*
X94488000Y-111760000D01*
X95504000Y-110094000D02*
X94488000Y-111110000D01*
X95504000Y-107909000D02*
X95504000Y-110094000D01*
D28*
X85685999Y-109053999D02*
X84836000Y-108204000D01*
X88150001Y-111518001D02*
X85685999Y-109053999D01*
X88150001Y-112534001D02*
X88150001Y-111518001D01*
X88900000Y-113284000D02*
X88150001Y-112534001D01*
X93980000Y-113284000D02*
X88900000Y-113284000D01*
X94488000Y-111760000D02*
X94488000Y-112776000D01*
X94488000Y-112776000D02*
X93980000Y-113284000D01*
G04 #@! TO.N,ACC_~CS*
X100076000Y-114300000D02*
X100076000Y-118364000D01*
X100076000Y-113239340D02*
X98552000Y-111715340D01*
X100076000Y-114300000D02*
X100076000Y-113239340D01*
X99383000Y-109220000D02*
X100108000Y-109220000D01*
X98552000Y-110051000D02*
X99383000Y-109220000D01*
X98552000Y-111715340D02*
X98552000Y-110051000D01*
D27*
G04 #@! TO.N,SPI2_SCK*
X104783000Y-109220000D02*
X104108000Y-109220000D01*
X111646000Y-109220000D02*
X104783000Y-109220000D01*
X112462000Y-110036000D02*
X111646000Y-109220000D01*
X112462000Y-110236000D02*
X112462000Y-110036000D01*
D28*
X102616000Y-115316000D02*
X102616000Y-118364000D01*
X103632000Y-114300000D02*
X102616000Y-115316000D01*
X112462000Y-110236000D02*
X112462000Y-111566000D01*
X112462000Y-111566000D02*
X112268000Y-111760000D01*
X103632000Y-119380000D02*
X102616000Y-118364000D01*
D27*
G04 #@! TO.N,SPI2_MISO*
X108712000Y-111686000D02*
X108712000Y-111760000D01*
X109962000Y-110236000D02*
X109962000Y-110436000D01*
X109962000Y-110436000D02*
X108712000Y-111686000D01*
X107696000Y-113284000D02*
X106680000Y-114300000D01*
D28*
X106680000Y-116840000D02*
X105156000Y-118364000D01*
X106680000Y-114300000D02*
X106680000Y-116840000D01*
X103308000Y-110945000D02*
X103308000Y-110220000D01*
X105913001Y-113550001D02*
X103308000Y-110945000D01*
X105930001Y-113550001D02*
X105913001Y-113550001D01*
X106680000Y-114300000D02*
X105930001Y-113550001D01*
G04 #@! TO.N,SPI2_MOSI*
X109728000Y-116332000D02*
X107696000Y-118364000D01*
X109728000Y-114300000D02*
X109728000Y-116332000D01*
X104658000Y-110220000D02*
X104108000Y-110220000D01*
X105705002Y-110220000D02*
X104658000Y-110220000D01*
X108978001Y-113492999D02*
X105705002Y-110220000D01*
X108978001Y-113550001D02*
X108978001Y-113492999D01*
X109728000Y-114300000D02*
X108978001Y-113550001D01*
X111212000Y-112816000D02*
X111212000Y-110236000D01*
X109728000Y-114300000D02*
X111212000Y-112816000D01*
G04 #@! TO.N,BARO_~CS*
X110236000Y-116840000D02*
X110236000Y-118364000D01*
X112776000Y-114300000D02*
X110236000Y-116840000D01*
X114808000Y-112268000D02*
X114808000Y-111252000D01*
X112776000Y-114300000D02*
X114808000Y-112268000D01*
X108712000Y-110236000D02*
X106996000Y-110236000D01*
X106996000Y-110236000D02*
X106680000Y-109920000D01*
X107079999Y-108120001D02*
X107104001Y-108120001D01*
X106680000Y-108520000D02*
X107079999Y-108120001D01*
X107138002Y-108086000D02*
X108712000Y-108086000D01*
X107104001Y-108120001D02*
X107138002Y-108086000D01*
X115824000Y-110236000D02*
X114808000Y-111252000D01*
X115824000Y-106172000D02*
X115824000Y-110236000D01*
X108830000Y-108086000D02*
X109220000Y-107696000D01*
X108712000Y-108086000D02*
X108830000Y-108086000D01*
X109220000Y-107696000D02*
X109220000Y-105156000D01*
X109220000Y-105156000D02*
X110453001Y-103922999D01*
X110453001Y-103922999D02*
X113574999Y-103922999D01*
X113574999Y-103922999D02*
X115824000Y-106172000D01*
G04 #@! TO.N,SD2_~CS*
X125939340Y-103632000D02*
X126492000Y-103632000D01*
X122428000Y-100120660D02*
X125939340Y-103632000D01*
X122428000Y-99060000D02*
X122428000Y-100120660D01*
X124412000Y-97076000D02*
X124412000Y-94216000D01*
X122428000Y-99060000D02*
X124412000Y-97076000D01*
X119622000Y-99060000D02*
X119622000Y-96762000D01*
X119622000Y-96762000D02*
X119380000Y-96520000D01*
X123702653Y-93506653D02*
X124412000Y-94216000D01*
X123702653Y-92714653D02*
X123702653Y-93506653D01*
G04 #@! TD*
D29*
G04 #@! TO.N,+3V3*
G36*
X97828560Y-85084000D02*
X97828560Y-86984000D01*
X97877843Y-87231765D01*
X98018191Y-87441809D01*
X98228235Y-87582157D01*
X98476000Y-87631440D01*
X99876000Y-87631440D01*
X100123765Y-87582157D01*
X100333809Y-87441809D01*
X100474157Y-87231765D01*
X100523440Y-86984000D01*
X100523440Y-85084000D01*
X100519263Y-85063000D01*
X112788118Y-85063000D01*
X112757000Y-85138126D01*
X112757000Y-85436560D01*
X111626000Y-85436560D01*
X111378235Y-85485843D01*
X111168191Y-85626191D01*
X111027843Y-85836235D01*
X110978560Y-86084000D01*
X110978560Y-86260592D01*
X110911152Y-86274000D01*
X110911148Y-86274000D01*
X110689463Y-86318096D01*
X110689461Y-86318097D01*
X110689462Y-86318097D01*
X110501526Y-86443671D01*
X110501524Y-86443673D01*
X110438071Y-86486071D01*
X110395673Y-86549524D01*
X108851528Y-88093671D01*
X108788072Y-88136071D01*
X108745672Y-88199527D01*
X108745671Y-88199528D01*
X108627450Y-88376459D01*
X108478191Y-88476191D01*
X108471263Y-88486560D01*
X107986585Y-88486560D01*
X107895699Y-88395673D01*
X107662310Y-88299000D01*
X107421750Y-88299000D01*
X107263000Y-88457750D01*
X107263000Y-88848585D01*
X107237843Y-88886235D01*
X107188560Y-89134000D01*
X107188560Y-89831000D01*
X107083440Y-89831000D01*
X107083440Y-89134000D01*
X107034157Y-88886235D01*
X107009000Y-88848585D01*
X107009000Y-88457750D01*
X106850250Y-88299000D01*
X106609690Y-88299000D01*
X106376301Y-88395673D01*
X106285415Y-88486560D01*
X105636000Y-88486560D01*
X105388235Y-88535843D01*
X105178191Y-88676191D01*
X105037843Y-88886235D01*
X105037778Y-88886560D01*
X104834222Y-88886560D01*
X104834157Y-88886235D01*
X104693809Y-88676191D01*
X104483765Y-88535843D01*
X104236000Y-88486560D01*
X103436000Y-88486560D01*
X103188235Y-88535843D01*
X102978191Y-88676191D01*
X102837843Y-88886235D01*
X102788560Y-89134000D01*
X102788560Y-90634000D01*
X102837843Y-90881765D01*
X102978191Y-91091809D01*
X103188235Y-91232157D01*
X103436000Y-91281440D01*
X103937778Y-91281440D01*
X103937843Y-91281765D01*
X104078191Y-91491809D01*
X104176001Y-91557164D01*
X104176000Y-93685153D01*
X104161112Y-93760000D01*
X104176000Y-93834847D01*
X104176000Y-93834851D01*
X104220096Y-94056536D01*
X104388071Y-94307929D01*
X104451530Y-94350331D01*
X107613670Y-97512472D01*
X107656071Y-97575929D01*
X107907463Y-97743904D01*
X108129148Y-97788000D01*
X108129153Y-97788000D01*
X108204000Y-97802888D01*
X108278847Y-97788000D01*
X110429199Y-97788000D01*
X111477759Y-98836560D01*
X109776000Y-98836560D01*
X109528235Y-98885843D01*
X109318191Y-99026191D01*
X109177843Y-99236235D01*
X109128560Y-99484000D01*
X109128560Y-100884000D01*
X109177843Y-101131765D01*
X109318191Y-101341809D01*
X109528235Y-101482157D01*
X109776000Y-101531440D01*
X111676000Y-101531440D01*
X111923765Y-101482157D01*
X112133809Y-101341809D01*
X112274157Y-101131765D01*
X112323440Y-100884000D01*
X112323440Y-99682241D01*
X115514011Y-102872813D01*
X115514011Y-104787209D01*
X114165330Y-103438529D01*
X114122928Y-103375070D01*
X113871536Y-103207095D01*
X113649851Y-103162999D01*
X113649846Y-103162999D01*
X113574999Y-103148111D01*
X113500152Y-103162999D01*
X110527849Y-103162999D01*
X110453001Y-103148111D01*
X110378153Y-103162999D01*
X110378149Y-103162999D01*
X110210297Y-103196387D01*
X110156463Y-103207095D01*
X110032623Y-103289843D01*
X109905072Y-103375070D01*
X109862672Y-103438526D01*
X108735528Y-104565671D01*
X108672072Y-104608071D01*
X108629672Y-104671527D01*
X108629671Y-104671528D01*
X108504097Y-104859463D01*
X108445112Y-105156000D01*
X108460001Y-105230852D01*
X108460000Y-106963560D01*
X108437000Y-106963560D01*
X108189235Y-107012843D01*
X107979191Y-107153191D01*
X107863723Y-107326000D01*
X107212850Y-107326000D01*
X107138002Y-107311112D01*
X107063154Y-107326000D01*
X107063150Y-107326000D01*
X106841465Y-107370096D01*
X106793596Y-107402081D01*
X106783462Y-107404097D01*
X106662382Y-107485000D01*
X106474126Y-107485000D01*
X106093720Y-107642569D01*
X105802569Y-107933720D01*
X105645000Y-108314126D01*
X105645000Y-108485000D01*
X105056050Y-108485000D01*
X105040809Y-108462191D01*
X104916138Y-108378888D01*
X104884250Y-108347000D01*
X104868415Y-108347000D01*
X104830765Y-108321843D01*
X104583000Y-108272560D01*
X104255440Y-108272560D01*
X104255440Y-108093000D01*
X104884250Y-108093000D01*
X105043000Y-107934250D01*
X105043000Y-107618691D01*
X104946327Y-107385302D01*
X104767699Y-107206673D01*
X104708133Y-107182000D01*
X104870250Y-107182000D01*
X105029000Y-107023250D01*
X105029000Y-106299000D01*
X105283000Y-106299000D01*
X105283000Y-107023250D01*
X105441750Y-107182000D01*
X105682309Y-107182000D01*
X105915698Y-107085327D01*
X106094327Y-106906699D01*
X106191000Y-106673310D01*
X106191000Y-106457750D01*
X106032250Y-106299000D01*
X105283000Y-106299000D01*
X105029000Y-106299000D01*
X105009000Y-106299000D01*
X105009000Y-106045000D01*
X105029000Y-106045000D01*
X105029000Y-105320750D01*
X105283000Y-105320750D01*
X105283000Y-106045000D01*
X106032250Y-106045000D01*
X106191000Y-105886250D01*
X106191000Y-105670690D01*
X106094327Y-105437301D01*
X105915698Y-105258673D01*
X105682309Y-105162000D01*
X105441750Y-105162000D01*
X105283000Y-105320750D01*
X105029000Y-105320750D01*
X104870250Y-105162000D01*
X104629691Y-105162000D01*
X104416000Y-105250514D01*
X104416000Y-104045486D01*
X104629691Y-104134000D01*
X104870250Y-104134000D01*
X105029000Y-103975250D01*
X105029000Y-103251000D01*
X105283000Y-103251000D01*
X105283000Y-103975250D01*
X105441750Y-104134000D01*
X105682309Y-104134000D01*
X105915698Y-104037327D01*
X106094327Y-103858699D01*
X106191000Y-103625310D01*
X106191000Y-103409750D01*
X106032250Y-103251000D01*
X105283000Y-103251000D01*
X105029000Y-103251000D01*
X105009000Y-103251000D01*
X105009000Y-102997000D01*
X105029000Y-102997000D01*
X105029000Y-102272750D01*
X105283000Y-102272750D01*
X105283000Y-102997000D01*
X106032250Y-102997000D01*
X106191000Y-102838250D01*
X106191000Y-102622690D01*
X106094327Y-102389301D01*
X105915698Y-102210673D01*
X105682309Y-102114000D01*
X105441750Y-102114000D01*
X105283000Y-102272750D01*
X105029000Y-102272750D01*
X104870250Y-102114000D01*
X104629691Y-102114000D01*
X104416940Y-102202125D01*
X104430888Y-102132000D01*
X104416000Y-102057152D01*
X104416000Y-102057148D01*
X104371904Y-101835463D01*
X104203929Y-101584071D01*
X104159000Y-101554050D01*
X104159000Y-101531440D01*
X105976000Y-101531440D01*
X106223765Y-101482157D01*
X106433809Y-101341809D01*
X106574157Y-101131765D01*
X106623440Y-100884000D01*
X106623440Y-99484000D01*
X106574157Y-99236235D01*
X106433809Y-99026191D01*
X106223765Y-98885843D01*
X105976000Y-98836560D01*
X104076000Y-98836560D01*
X103828235Y-98885843D01*
X103618191Y-99026191D01*
X103477843Y-99236235D01*
X103428560Y-99484000D01*
X103428560Y-100605877D01*
X103329874Y-100565000D01*
X102918126Y-100565000D01*
X102537720Y-100722569D01*
X102246569Y-101013720D01*
X102089000Y-101394126D01*
X102089000Y-101805874D01*
X102246569Y-102186280D01*
X102537720Y-102477431D01*
X102653074Y-102525212D01*
X102608560Y-102749000D01*
X102608560Y-103499000D01*
X102657843Y-103746765D01*
X102798191Y-103956809D01*
X102896001Y-104022164D01*
X102896000Y-105273836D01*
X102798191Y-105339191D01*
X102657843Y-105549235D01*
X102628000Y-105699267D01*
X102598157Y-105549235D01*
X102457809Y-105339191D01*
X102406682Y-105305029D01*
X102477431Y-105234280D01*
X102635000Y-104853874D01*
X102635000Y-104442126D01*
X102477431Y-104061720D01*
X102186280Y-103770569D01*
X101805874Y-103613000D01*
X101394126Y-103613000D01*
X101013720Y-103770569D01*
X100722569Y-104061720D01*
X100565000Y-104442126D01*
X100565000Y-104853874D01*
X100706365Y-105195160D01*
X100626309Y-105162000D01*
X100385750Y-105162000D01*
X100227000Y-105320750D01*
X100227000Y-106045000D01*
X100247000Y-106045000D01*
X100247000Y-106299000D01*
X100227000Y-106299000D01*
X100227000Y-107023250D01*
X100353750Y-107150000D01*
X100350205Y-107153545D01*
X100150191Y-107287191D01*
X100009843Y-107497235D01*
X99981000Y-107642240D01*
X99981000Y-107268750D01*
X99854250Y-107142000D01*
X99973000Y-107023250D01*
X99973000Y-106299000D01*
X99223750Y-106299000D01*
X99065000Y-106457750D01*
X99065000Y-106673310D01*
X99161673Y-106906699D01*
X99340302Y-107085327D01*
X99540779Y-107168367D01*
X99448301Y-107206673D01*
X99269673Y-107385302D01*
X99173000Y-107618691D01*
X99173000Y-107934250D01*
X99331750Y-108093000D01*
X99960560Y-108093000D01*
X99960560Y-108272560D01*
X99633000Y-108272560D01*
X99385235Y-108321843D01*
X99347585Y-108347000D01*
X99331750Y-108347000D01*
X99299862Y-108378888D01*
X99175191Y-108462191D01*
X99156499Y-108490165D01*
X99086463Y-108504096D01*
X99067844Y-108516537D01*
X98898526Y-108629671D01*
X98898524Y-108629673D01*
X98835071Y-108672071D01*
X98792673Y-108735525D01*
X98067527Y-109460671D01*
X98004072Y-109503071D01*
X97961672Y-109566527D01*
X97961671Y-109566528D01*
X97836097Y-109754463D01*
X97777112Y-110051000D01*
X97792001Y-110125851D01*
X97792000Y-111640493D01*
X97777112Y-111715340D01*
X97792000Y-111790187D01*
X97792000Y-111790191D01*
X97836096Y-112011876D01*
X98004071Y-112263269D01*
X98067530Y-112305671D01*
X99089585Y-113327728D01*
X98901853Y-113515460D01*
X98691000Y-114024506D01*
X98691000Y-114575494D01*
X98901853Y-115084540D01*
X99291460Y-115474147D01*
X99316000Y-115484312D01*
X99316001Y-116866560D01*
X99226000Y-116866560D01*
X98978235Y-116915843D01*
X98768191Y-117056191D01*
X98627843Y-117266235D01*
X98578560Y-117514000D01*
X98578560Y-119214000D01*
X98627843Y-119461765D01*
X98760969Y-119661000D01*
X83539000Y-119661000D01*
X83539000Y-114015831D01*
X83765375Y-114354625D01*
X84256582Y-114682839D01*
X84689744Y-114769000D01*
X84982256Y-114769000D01*
X85415418Y-114682839D01*
X85906625Y-114354625D01*
X86234839Y-113863418D01*
X86350092Y-113284000D01*
X86234839Y-112704582D01*
X85906625Y-112213375D01*
X85608239Y-112014000D01*
X85906625Y-111814625D01*
X86234839Y-111323418D01*
X86341980Y-110784782D01*
X87390002Y-111832804D01*
X87390001Y-112459153D01*
X87375113Y-112534001D01*
X87390001Y-112608848D01*
X87390001Y-112608852D01*
X87434097Y-112830537D01*
X87529546Y-112973388D01*
X87515000Y-113008506D01*
X87515000Y-113559494D01*
X87725853Y-114068540D01*
X88115460Y-114458147D01*
X88624506Y-114669000D01*
X89175494Y-114669000D01*
X89684540Y-114458147D01*
X90074147Y-114068540D01*
X90084312Y-114044000D01*
X93905153Y-114044000D01*
X93980000Y-114058888D01*
X94054847Y-114044000D01*
X94054852Y-114044000D01*
X94276537Y-113999904D01*
X94527929Y-113831929D01*
X94570330Y-113768471D01*
X94972475Y-113366328D01*
X95035929Y-113323929D01*
X95078327Y-113260476D01*
X95078329Y-113260474D01*
X95197628Y-113081930D01*
X95203904Y-113072537D01*
X95248000Y-112850852D01*
X95248000Y-112850848D01*
X95262888Y-112776001D01*
X95248000Y-112701154D01*
X95248000Y-112589700D01*
X95336157Y-112457765D01*
X95385440Y-112210000D01*
X95385440Y-111310000D01*
X95375818Y-111261628D01*
X95972537Y-110664910D01*
X96033905Y-110623905D01*
X96196354Y-110380783D01*
X96239000Y-110166388D01*
X96239000Y-110166384D01*
X96253398Y-110094000D01*
X96239000Y-110021616D01*
X96239000Y-107981388D01*
X96253399Y-107909000D01*
X96214384Y-107712861D01*
X96196354Y-107622217D01*
X96033905Y-107379095D01*
X95972538Y-107338091D01*
X95316301Y-106681854D01*
X95348000Y-106675549D01*
X95448000Y-106695440D01*
X95678000Y-106695440D01*
X95778000Y-106675549D01*
X95878000Y-106695440D01*
X96108000Y-106695440D01*
X96355765Y-106646157D01*
X96565809Y-106505809D01*
X96706157Y-106295765D01*
X96755440Y-106048000D01*
X96755440Y-105698000D01*
X96750008Y-105670690D01*
X99065000Y-105670690D01*
X99065000Y-105886250D01*
X99223750Y-106045000D01*
X99973000Y-106045000D01*
X99973000Y-105320750D01*
X99814250Y-105162000D01*
X99573691Y-105162000D01*
X99340302Y-105258673D01*
X99161673Y-105437301D01*
X99065000Y-105670690D01*
X96750008Y-105670690D01*
X96741598Y-105628411D01*
X96785440Y-105408000D01*
X96785440Y-105178000D01*
X96765549Y-105078000D01*
X96785440Y-104978000D01*
X96785440Y-104748000D01*
X96783451Y-104738000D01*
X97600616Y-104738000D01*
X97673000Y-104752398D01*
X97745384Y-104738000D01*
X97745388Y-104738000D01*
X97959783Y-104695354D01*
X97983600Y-104679440D01*
X98419000Y-104679440D01*
X98666765Y-104630157D01*
X98876809Y-104489809D01*
X99017157Y-104279765D01*
X99034269Y-104193734D01*
X99081905Y-104161905D01*
X99122911Y-104100535D01*
X99572446Y-103651000D01*
X99773874Y-103651000D01*
X100154280Y-103493431D01*
X100445431Y-103202280D01*
X100603000Y-102821874D01*
X100603000Y-102410126D01*
X100445431Y-102029720D01*
X100154280Y-101738569D01*
X99773874Y-101581000D01*
X99362126Y-101581000D01*
X99061198Y-101705648D01*
X99017157Y-101484235D01*
X98876809Y-101274191D01*
X98666765Y-101133843D01*
X98419000Y-101084560D01*
X97669000Y-101084560D01*
X97421235Y-101133843D01*
X97211191Y-101274191D01*
X97129132Y-101397000D01*
X95691388Y-101397000D01*
X95619000Y-101382601D01*
X95546612Y-101397000D01*
X95332217Y-101439646D01*
X95089095Y-101602095D01*
X95048090Y-101663463D01*
X94234465Y-102477089D01*
X94173095Y-102518095D01*
X94148000Y-102555652D01*
X94148000Y-102446446D01*
X95496007Y-101098440D01*
X95904000Y-101098440D01*
X96151765Y-101049157D01*
X96254000Y-100980845D01*
X96356235Y-101049157D01*
X96604000Y-101098440D01*
X97404000Y-101098440D01*
X97651765Y-101049157D01*
X97861809Y-100908809D01*
X98002157Y-100698765D01*
X98051440Y-100451000D01*
X98051440Y-99701000D01*
X98002157Y-99453235D01*
X97861809Y-99243191D01*
X97763000Y-99177168D01*
X97763000Y-97942868D01*
X97885809Y-97860809D01*
X98026157Y-97650765D01*
X98075440Y-97403000D01*
X98075440Y-96653000D01*
X98026157Y-96405235D01*
X97885809Y-96195191D01*
X97763000Y-96113132D01*
X97763000Y-96084383D01*
X97777398Y-96011999D01*
X97763000Y-95939613D01*
X97763000Y-95939612D01*
X97720354Y-95725217D01*
X97557905Y-95482095D01*
X97555000Y-95480154D01*
X97555000Y-95298126D01*
X97397431Y-94917720D01*
X97106280Y-94626569D01*
X96725874Y-94469000D01*
X96314126Y-94469000D01*
X95933720Y-94626569D01*
X95642569Y-94917720D01*
X95485000Y-95298126D01*
X95485000Y-95709874D01*
X95642569Y-96090280D01*
X95692020Y-96139731D01*
X95655000Y-96176750D01*
X95655000Y-96901000D01*
X95675000Y-96901000D01*
X95675000Y-97155000D01*
X95655000Y-97155000D01*
X95655000Y-97879250D01*
X95813750Y-98038000D01*
X96054309Y-98038000D01*
X96287698Y-97941327D01*
X96288898Y-97940127D01*
X96293000Y-97942868D01*
X96293001Y-99145095D01*
X96254000Y-99171155D01*
X96151765Y-99102843D01*
X95904000Y-99053560D01*
X95104000Y-99053560D01*
X94856235Y-99102843D01*
X94646191Y-99243191D01*
X94505843Y-99453235D01*
X94488000Y-99542939D01*
X94470157Y-99453235D01*
X94329809Y-99243191D01*
X94207000Y-99161132D01*
X94207000Y-97942868D01*
X94329809Y-97860809D01*
X94470157Y-97650765D01*
X94493889Y-97531456D01*
X94589673Y-97762699D01*
X94768302Y-97941327D01*
X95001691Y-98038000D01*
X95242250Y-98038000D01*
X95401000Y-97879250D01*
X95401000Y-97155000D01*
X95381000Y-97155000D01*
X95381000Y-96901000D01*
X95401000Y-96901000D01*
X95401000Y-96176750D01*
X95242250Y-96018000D01*
X95001691Y-96018000D01*
X94863694Y-96075160D01*
X95015000Y-95709874D01*
X95015000Y-95298126D01*
X94857431Y-94917720D01*
X94566280Y-94626569D01*
X94185874Y-94469000D01*
X93774126Y-94469000D01*
X93393720Y-94626569D01*
X93102569Y-94917720D01*
X92945000Y-95298126D01*
X92945000Y-95480155D01*
X92942096Y-95482095D01*
X92901092Y-95543462D01*
X92901091Y-95543463D01*
X92779646Y-95725218D01*
X92722602Y-96012000D01*
X92737001Y-96084389D01*
X92737001Y-96113131D01*
X92732898Y-96115873D01*
X92731698Y-96114673D01*
X92498309Y-96018000D01*
X92257750Y-96018000D01*
X92099000Y-96176750D01*
X92099000Y-96901000D01*
X92119000Y-96901000D01*
X92119000Y-97155000D01*
X92099000Y-97155000D01*
X92099000Y-97879250D01*
X92257750Y-98038000D01*
X92498309Y-98038000D01*
X92731698Y-97941327D01*
X92732898Y-97940127D01*
X92737001Y-97942868D01*
X92737000Y-99161132D01*
X92732898Y-99163873D01*
X92731698Y-99162673D01*
X92498309Y-99066000D01*
X92257750Y-99066000D01*
X92099000Y-99224750D01*
X92099000Y-99949000D01*
X92119000Y-99949000D01*
X92119000Y-100203000D01*
X92099000Y-100203000D01*
X92099000Y-100927250D01*
X92257750Y-101086000D01*
X92498309Y-101086000D01*
X92731698Y-100989327D01*
X92732898Y-100988127D01*
X92824235Y-101049157D01*
X93072000Y-101098440D01*
X93417114Y-101098440D01*
X92944463Y-101571091D01*
X92883096Y-101612095D01*
X92842092Y-101673462D01*
X92842091Y-101673463D01*
X92720646Y-101855218D01*
X92663602Y-102142000D01*
X92678001Y-102214389D01*
X92678001Y-102639381D01*
X92508302Y-102709673D01*
X92329673Y-102888301D01*
X92327083Y-102894553D01*
X92267000Y-102882602D01*
X92194616Y-102897000D01*
X91744447Y-102897000D01*
X91667000Y-102819554D01*
X91667000Y-101086000D01*
X91686250Y-101086000D01*
X91845000Y-100927250D01*
X91845000Y-100203000D01*
X91825000Y-100203000D01*
X91825000Y-99949000D01*
X91845000Y-99949000D01*
X91845000Y-99224750D01*
X91686250Y-99066000D01*
X91445691Y-99066000D01*
X91212302Y-99162673D01*
X91033673Y-99341301D01*
X90944362Y-99556916D01*
X90651000Y-99263554D01*
X90651000Y-98116384D01*
X90665398Y-98044000D01*
X90651000Y-97971616D01*
X90651000Y-97971612D01*
X90608354Y-97757217D01*
X90445905Y-97514095D01*
X90384537Y-97473090D01*
X90264480Y-97353033D01*
X90280751Y-97313750D01*
X90937000Y-97313750D01*
X90937000Y-97529310D01*
X91033673Y-97762699D01*
X91212302Y-97941327D01*
X91445691Y-98038000D01*
X91686250Y-98038000D01*
X91845000Y-97879250D01*
X91845000Y-97155000D01*
X91095750Y-97155000D01*
X90937000Y-97313750D01*
X90280751Y-97313750D01*
X90285000Y-97303494D01*
X90285000Y-96752506D01*
X90191465Y-96526690D01*
X90937000Y-96526690D01*
X90937000Y-96742250D01*
X91095750Y-96901000D01*
X91845000Y-96901000D01*
X91845000Y-96176750D01*
X91686250Y-96018000D01*
X91445691Y-96018000D01*
X91212302Y-96114673D01*
X91033673Y-96293301D01*
X90937000Y-96526690D01*
X90191465Y-96526690D01*
X90074147Y-96243460D01*
X89684540Y-95853853D01*
X89175494Y-95643000D01*
X88624506Y-95643000D01*
X88115460Y-95853853D01*
X87725853Y-96243460D01*
X87711306Y-96278578D01*
X87542803Y-96312096D01*
X87291411Y-96480071D01*
X87249011Y-96543527D01*
X86383530Y-97409009D01*
X86320071Y-97451411D01*
X86252373Y-97552729D01*
X86234839Y-97464582D01*
X85906625Y-96973375D01*
X85884967Y-96958904D01*
X86045698Y-96892327D01*
X86224327Y-96713699D01*
X86321000Y-96480310D01*
X86321000Y-95789750D01*
X86162250Y-95631000D01*
X84963000Y-95631000D01*
X84963000Y-95651000D01*
X84709000Y-95651000D01*
X84709000Y-95631000D01*
X84689000Y-95631000D01*
X84689000Y-95377000D01*
X84709000Y-95377000D01*
X84709000Y-94177750D01*
X84963000Y-94177750D01*
X84963000Y-95377000D01*
X86162250Y-95377000D01*
X86321000Y-95218250D01*
X86321000Y-94527690D01*
X86224327Y-94294301D01*
X86045698Y-94115673D01*
X85812309Y-94019000D01*
X85121750Y-94019000D01*
X84963000Y-94177750D01*
X84709000Y-94177750D01*
X84550250Y-94019000D01*
X83859691Y-94019000D01*
X83626302Y-94115673D01*
X83539000Y-94202975D01*
X83539000Y-85063000D01*
X97832737Y-85063000D01*
X97828560Y-85084000D01*
X97828560Y-85084000D01*
G37*
X97828560Y-85084000D02*
X97828560Y-86984000D01*
X97877843Y-87231765D01*
X98018191Y-87441809D01*
X98228235Y-87582157D01*
X98476000Y-87631440D01*
X99876000Y-87631440D01*
X100123765Y-87582157D01*
X100333809Y-87441809D01*
X100474157Y-87231765D01*
X100523440Y-86984000D01*
X100523440Y-85084000D01*
X100519263Y-85063000D01*
X112788118Y-85063000D01*
X112757000Y-85138126D01*
X112757000Y-85436560D01*
X111626000Y-85436560D01*
X111378235Y-85485843D01*
X111168191Y-85626191D01*
X111027843Y-85836235D01*
X110978560Y-86084000D01*
X110978560Y-86260592D01*
X110911152Y-86274000D01*
X110911148Y-86274000D01*
X110689463Y-86318096D01*
X110689461Y-86318097D01*
X110689462Y-86318097D01*
X110501526Y-86443671D01*
X110501524Y-86443673D01*
X110438071Y-86486071D01*
X110395673Y-86549524D01*
X108851528Y-88093671D01*
X108788072Y-88136071D01*
X108745672Y-88199527D01*
X108745671Y-88199528D01*
X108627450Y-88376459D01*
X108478191Y-88476191D01*
X108471263Y-88486560D01*
X107986585Y-88486560D01*
X107895699Y-88395673D01*
X107662310Y-88299000D01*
X107421750Y-88299000D01*
X107263000Y-88457750D01*
X107263000Y-88848585D01*
X107237843Y-88886235D01*
X107188560Y-89134000D01*
X107188560Y-89831000D01*
X107083440Y-89831000D01*
X107083440Y-89134000D01*
X107034157Y-88886235D01*
X107009000Y-88848585D01*
X107009000Y-88457750D01*
X106850250Y-88299000D01*
X106609690Y-88299000D01*
X106376301Y-88395673D01*
X106285415Y-88486560D01*
X105636000Y-88486560D01*
X105388235Y-88535843D01*
X105178191Y-88676191D01*
X105037843Y-88886235D01*
X105037778Y-88886560D01*
X104834222Y-88886560D01*
X104834157Y-88886235D01*
X104693809Y-88676191D01*
X104483765Y-88535843D01*
X104236000Y-88486560D01*
X103436000Y-88486560D01*
X103188235Y-88535843D01*
X102978191Y-88676191D01*
X102837843Y-88886235D01*
X102788560Y-89134000D01*
X102788560Y-90634000D01*
X102837843Y-90881765D01*
X102978191Y-91091809D01*
X103188235Y-91232157D01*
X103436000Y-91281440D01*
X103937778Y-91281440D01*
X103937843Y-91281765D01*
X104078191Y-91491809D01*
X104176001Y-91557164D01*
X104176000Y-93685153D01*
X104161112Y-93760000D01*
X104176000Y-93834847D01*
X104176000Y-93834851D01*
X104220096Y-94056536D01*
X104388071Y-94307929D01*
X104451530Y-94350331D01*
X107613670Y-97512472D01*
X107656071Y-97575929D01*
X107907463Y-97743904D01*
X108129148Y-97788000D01*
X108129153Y-97788000D01*
X108204000Y-97802888D01*
X108278847Y-97788000D01*
X110429199Y-97788000D01*
X111477759Y-98836560D01*
X109776000Y-98836560D01*
X109528235Y-98885843D01*
X109318191Y-99026191D01*
X109177843Y-99236235D01*
X109128560Y-99484000D01*
X109128560Y-100884000D01*
X109177843Y-101131765D01*
X109318191Y-101341809D01*
X109528235Y-101482157D01*
X109776000Y-101531440D01*
X111676000Y-101531440D01*
X111923765Y-101482157D01*
X112133809Y-101341809D01*
X112274157Y-101131765D01*
X112323440Y-100884000D01*
X112323440Y-99682241D01*
X115514011Y-102872813D01*
X115514011Y-104787209D01*
X114165330Y-103438529D01*
X114122928Y-103375070D01*
X113871536Y-103207095D01*
X113649851Y-103162999D01*
X113649846Y-103162999D01*
X113574999Y-103148111D01*
X113500152Y-103162999D01*
X110527849Y-103162999D01*
X110453001Y-103148111D01*
X110378153Y-103162999D01*
X110378149Y-103162999D01*
X110210297Y-103196387D01*
X110156463Y-103207095D01*
X110032623Y-103289843D01*
X109905072Y-103375070D01*
X109862672Y-103438526D01*
X108735528Y-104565671D01*
X108672072Y-104608071D01*
X108629672Y-104671527D01*
X108629671Y-104671528D01*
X108504097Y-104859463D01*
X108445112Y-105156000D01*
X108460001Y-105230852D01*
X108460000Y-106963560D01*
X108437000Y-106963560D01*
X108189235Y-107012843D01*
X107979191Y-107153191D01*
X107863723Y-107326000D01*
X107212850Y-107326000D01*
X107138002Y-107311112D01*
X107063154Y-107326000D01*
X107063150Y-107326000D01*
X106841465Y-107370096D01*
X106793596Y-107402081D01*
X106783462Y-107404097D01*
X106662382Y-107485000D01*
X106474126Y-107485000D01*
X106093720Y-107642569D01*
X105802569Y-107933720D01*
X105645000Y-108314126D01*
X105645000Y-108485000D01*
X105056050Y-108485000D01*
X105040809Y-108462191D01*
X104916138Y-108378888D01*
X104884250Y-108347000D01*
X104868415Y-108347000D01*
X104830765Y-108321843D01*
X104583000Y-108272560D01*
X104255440Y-108272560D01*
X104255440Y-108093000D01*
X104884250Y-108093000D01*
X105043000Y-107934250D01*
X105043000Y-107618691D01*
X104946327Y-107385302D01*
X104767699Y-107206673D01*
X104708133Y-107182000D01*
X104870250Y-107182000D01*
X105029000Y-107023250D01*
X105029000Y-106299000D01*
X105283000Y-106299000D01*
X105283000Y-107023250D01*
X105441750Y-107182000D01*
X105682309Y-107182000D01*
X105915698Y-107085327D01*
X106094327Y-106906699D01*
X106191000Y-106673310D01*
X106191000Y-106457750D01*
X106032250Y-106299000D01*
X105283000Y-106299000D01*
X105029000Y-106299000D01*
X105009000Y-106299000D01*
X105009000Y-106045000D01*
X105029000Y-106045000D01*
X105029000Y-105320750D01*
X105283000Y-105320750D01*
X105283000Y-106045000D01*
X106032250Y-106045000D01*
X106191000Y-105886250D01*
X106191000Y-105670690D01*
X106094327Y-105437301D01*
X105915698Y-105258673D01*
X105682309Y-105162000D01*
X105441750Y-105162000D01*
X105283000Y-105320750D01*
X105029000Y-105320750D01*
X104870250Y-105162000D01*
X104629691Y-105162000D01*
X104416000Y-105250514D01*
X104416000Y-104045486D01*
X104629691Y-104134000D01*
X104870250Y-104134000D01*
X105029000Y-103975250D01*
X105029000Y-103251000D01*
X105283000Y-103251000D01*
X105283000Y-103975250D01*
X105441750Y-104134000D01*
X105682309Y-104134000D01*
X105915698Y-104037327D01*
X106094327Y-103858699D01*
X106191000Y-103625310D01*
X106191000Y-103409750D01*
X106032250Y-103251000D01*
X105283000Y-103251000D01*
X105029000Y-103251000D01*
X105009000Y-103251000D01*
X105009000Y-102997000D01*
X105029000Y-102997000D01*
X105029000Y-102272750D01*
X105283000Y-102272750D01*
X105283000Y-102997000D01*
X106032250Y-102997000D01*
X106191000Y-102838250D01*
X106191000Y-102622690D01*
X106094327Y-102389301D01*
X105915698Y-102210673D01*
X105682309Y-102114000D01*
X105441750Y-102114000D01*
X105283000Y-102272750D01*
X105029000Y-102272750D01*
X104870250Y-102114000D01*
X104629691Y-102114000D01*
X104416940Y-102202125D01*
X104430888Y-102132000D01*
X104416000Y-102057152D01*
X104416000Y-102057148D01*
X104371904Y-101835463D01*
X104203929Y-101584071D01*
X104159000Y-101554050D01*
X104159000Y-101531440D01*
X105976000Y-101531440D01*
X106223765Y-101482157D01*
X106433809Y-101341809D01*
X106574157Y-101131765D01*
X106623440Y-100884000D01*
X106623440Y-99484000D01*
X106574157Y-99236235D01*
X106433809Y-99026191D01*
X106223765Y-98885843D01*
X105976000Y-98836560D01*
X104076000Y-98836560D01*
X103828235Y-98885843D01*
X103618191Y-99026191D01*
X103477843Y-99236235D01*
X103428560Y-99484000D01*
X103428560Y-100605877D01*
X103329874Y-100565000D01*
X102918126Y-100565000D01*
X102537720Y-100722569D01*
X102246569Y-101013720D01*
X102089000Y-101394126D01*
X102089000Y-101805874D01*
X102246569Y-102186280D01*
X102537720Y-102477431D01*
X102653074Y-102525212D01*
X102608560Y-102749000D01*
X102608560Y-103499000D01*
X102657843Y-103746765D01*
X102798191Y-103956809D01*
X102896001Y-104022164D01*
X102896000Y-105273836D01*
X102798191Y-105339191D01*
X102657843Y-105549235D01*
X102628000Y-105699267D01*
X102598157Y-105549235D01*
X102457809Y-105339191D01*
X102406682Y-105305029D01*
X102477431Y-105234280D01*
X102635000Y-104853874D01*
X102635000Y-104442126D01*
X102477431Y-104061720D01*
X102186280Y-103770569D01*
X101805874Y-103613000D01*
X101394126Y-103613000D01*
X101013720Y-103770569D01*
X100722569Y-104061720D01*
X100565000Y-104442126D01*
X100565000Y-104853874D01*
X100706365Y-105195160D01*
X100626309Y-105162000D01*
X100385750Y-105162000D01*
X100227000Y-105320750D01*
X100227000Y-106045000D01*
X100247000Y-106045000D01*
X100247000Y-106299000D01*
X100227000Y-106299000D01*
X100227000Y-107023250D01*
X100353750Y-107150000D01*
X100350205Y-107153545D01*
X100150191Y-107287191D01*
X100009843Y-107497235D01*
X99981000Y-107642240D01*
X99981000Y-107268750D01*
X99854250Y-107142000D01*
X99973000Y-107023250D01*
X99973000Y-106299000D01*
X99223750Y-106299000D01*
X99065000Y-106457750D01*
X99065000Y-106673310D01*
X99161673Y-106906699D01*
X99340302Y-107085327D01*
X99540779Y-107168367D01*
X99448301Y-107206673D01*
X99269673Y-107385302D01*
X99173000Y-107618691D01*
X99173000Y-107934250D01*
X99331750Y-108093000D01*
X99960560Y-108093000D01*
X99960560Y-108272560D01*
X99633000Y-108272560D01*
X99385235Y-108321843D01*
X99347585Y-108347000D01*
X99331750Y-108347000D01*
X99299862Y-108378888D01*
X99175191Y-108462191D01*
X99156499Y-108490165D01*
X99086463Y-108504096D01*
X99067844Y-108516537D01*
X98898526Y-108629671D01*
X98898524Y-108629673D01*
X98835071Y-108672071D01*
X98792673Y-108735525D01*
X98067527Y-109460671D01*
X98004072Y-109503071D01*
X97961672Y-109566527D01*
X97961671Y-109566528D01*
X97836097Y-109754463D01*
X97777112Y-110051000D01*
X97792001Y-110125851D01*
X97792000Y-111640493D01*
X97777112Y-111715340D01*
X97792000Y-111790187D01*
X97792000Y-111790191D01*
X97836096Y-112011876D01*
X98004071Y-112263269D01*
X98067530Y-112305671D01*
X99089585Y-113327728D01*
X98901853Y-113515460D01*
X98691000Y-114024506D01*
X98691000Y-114575494D01*
X98901853Y-115084540D01*
X99291460Y-115474147D01*
X99316000Y-115484312D01*
X99316001Y-116866560D01*
X99226000Y-116866560D01*
X98978235Y-116915843D01*
X98768191Y-117056191D01*
X98627843Y-117266235D01*
X98578560Y-117514000D01*
X98578560Y-119214000D01*
X98627843Y-119461765D01*
X98760969Y-119661000D01*
X83539000Y-119661000D01*
X83539000Y-114015831D01*
X83765375Y-114354625D01*
X84256582Y-114682839D01*
X84689744Y-114769000D01*
X84982256Y-114769000D01*
X85415418Y-114682839D01*
X85906625Y-114354625D01*
X86234839Y-113863418D01*
X86350092Y-113284000D01*
X86234839Y-112704582D01*
X85906625Y-112213375D01*
X85608239Y-112014000D01*
X85906625Y-111814625D01*
X86234839Y-111323418D01*
X86341980Y-110784782D01*
X87390002Y-111832804D01*
X87390001Y-112459153D01*
X87375113Y-112534001D01*
X87390001Y-112608848D01*
X87390001Y-112608852D01*
X87434097Y-112830537D01*
X87529546Y-112973388D01*
X87515000Y-113008506D01*
X87515000Y-113559494D01*
X87725853Y-114068540D01*
X88115460Y-114458147D01*
X88624506Y-114669000D01*
X89175494Y-114669000D01*
X89684540Y-114458147D01*
X90074147Y-114068540D01*
X90084312Y-114044000D01*
X93905153Y-114044000D01*
X93980000Y-114058888D01*
X94054847Y-114044000D01*
X94054852Y-114044000D01*
X94276537Y-113999904D01*
X94527929Y-113831929D01*
X94570330Y-113768471D01*
X94972475Y-113366328D01*
X95035929Y-113323929D01*
X95078327Y-113260476D01*
X95078329Y-113260474D01*
X95197628Y-113081930D01*
X95203904Y-113072537D01*
X95248000Y-112850852D01*
X95248000Y-112850848D01*
X95262888Y-112776001D01*
X95248000Y-112701154D01*
X95248000Y-112589700D01*
X95336157Y-112457765D01*
X95385440Y-112210000D01*
X95385440Y-111310000D01*
X95375818Y-111261628D01*
X95972537Y-110664910D01*
X96033905Y-110623905D01*
X96196354Y-110380783D01*
X96239000Y-110166388D01*
X96239000Y-110166384D01*
X96253398Y-110094000D01*
X96239000Y-110021616D01*
X96239000Y-107981388D01*
X96253399Y-107909000D01*
X96214384Y-107712861D01*
X96196354Y-107622217D01*
X96033905Y-107379095D01*
X95972538Y-107338091D01*
X95316301Y-106681854D01*
X95348000Y-106675549D01*
X95448000Y-106695440D01*
X95678000Y-106695440D01*
X95778000Y-106675549D01*
X95878000Y-106695440D01*
X96108000Y-106695440D01*
X96355765Y-106646157D01*
X96565809Y-106505809D01*
X96706157Y-106295765D01*
X96755440Y-106048000D01*
X96755440Y-105698000D01*
X96750008Y-105670690D01*
X99065000Y-105670690D01*
X99065000Y-105886250D01*
X99223750Y-106045000D01*
X99973000Y-106045000D01*
X99973000Y-105320750D01*
X99814250Y-105162000D01*
X99573691Y-105162000D01*
X99340302Y-105258673D01*
X99161673Y-105437301D01*
X99065000Y-105670690D01*
X96750008Y-105670690D01*
X96741598Y-105628411D01*
X96785440Y-105408000D01*
X96785440Y-105178000D01*
X96765549Y-105078000D01*
X96785440Y-104978000D01*
X96785440Y-104748000D01*
X96783451Y-104738000D01*
X97600616Y-104738000D01*
X97673000Y-104752398D01*
X97745384Y-104738000D01*
X97745388Y-104738000D01*
X97959783Y-104695354D01*
X97983600Y-104679440D01*
X98419000Y-104679440D01*
X98666765Y-104630157D01*
X98876809Y-104489809D01*
X99017157Y-104279765D01*
X99034269Y-104193734D01*
X99081905Y-104161905D01*
X99122911Y-104100535D01*
X99572446Y-103651000D01*
X99773874Y-103651000D01*
X100154280Y-103493431D01*
X100445431Y-103202280D01*
X100603000Y-102821874D01*
X100603000Y-102410126D01*
X100445431Y-102029720D01*
X100154280Y-101738569D01*
X99773874Y-101581000D01*
X99362126Y-101581000D01*
X99061198Y-101705648D01*
X99017157Y-101484235D01*
X98876809Y-101274191D01*
X98666765Y-101133843D01*
X98419000Y-101084560D01*
X97669000Y-101084560D01*
X97421235Y-101133843D01*
X97211191Y-101274191D01*
X97129132Y-101397000D01*
X95691388Y-101397000D01*
X95619000Y-101382601D01*
X95546612Y-101397000D01*
X95332217Y-101439646D01*
X95089095Y-101602095D01*
X95048090Y-101663463D01*
X94234465Y-102477089D01*
X94173095Y-102518095D01*
X94148000Y-102555652D01*
X94148000Y-102446446D01*
X95496007Y-101098440D01*
X95904000Y-101098440D01*
X96151765Y-101049157D01*
X96254000Y-100980845D01*
X96356235Y-101049157D01*
X96604000Y-101098440D01*
X97404000Y-101098440D01*
X97651765Y-101049157D01*
X97861809Y-100908809D01*
X98002157Y-100698765D01*
X98051440Y-100451000D01*
X98051440Y-99701000D01*
X98002157Y-99453235D01*
X97861809Y-99243191D01*
X97763000Y-99177168D01*
X97763000Y-97942868D01*
X97885809Y-97860809D01*
X98026157Y-97650765D01*
X98075440Y-97403000D01*
X98075440Y-96653000D01*
X98026157Y-96405235D01*
X97885809Y-96195191D01*
X97763000Y-96113132D01*
X97763000Y-96084383D01*
X97777398Y-96011999D01*
X97763000Y-95939613D01*
X97763000Y-95939612D01*
X97720354Y-95725217D01*
X97557905Y-95482095D01*
X97555000Y-95480154D01*
X97555000Y-95298126D01*
X97397431Y-94917720D01*
X97106280Y-94626569D01*
X96725874Y-94469000D01*
X96314126Y-94469000D01*
X95933720Y-94626569D01*
X95642569Y-94917720D01*
X95485000Y-95298126D01*
X95485000Y-95709874D01*
X95642569Y-96090280D01*
X95692020Y-96139731D01*
X95655000Y-96176750D01*
X95655000Y-96901000D01*
X95675000Y-96901000D01*
X95675000Y-97155000D01*
X95655000Y-97155000D01*
X95655000Y-97879250D01*
X95813750Y-98038000D01*
X96054309Y-98038000D01*
X96287698Y-97941327D01*
X96288898Y-97940127D01*
X96293000Y-97942868D01*
X96293001Y-99145095D01*
X96254000Y-99171155D01*
X96151765Y-99102843D01*
X95904000Y-99053560D01*
X95104000Y-99053560D01*
X94856235Y-99102843D01*
X94646191Y-99243191D01*
X94505843Y-99453235D01*
X94488000Y-99542939D01*
X94470157Y-99453235D01*
X94329809Y-99243191D01*
X94207000Y-99161132D01*
X94207000Y-97942868D01*
X94329809Y-97860809D01*
X94470157Y-97650765D01*
X94493889Y-97531456D01*
X94589673Y-97762699D01*
X94768302Y-97941327D01*
X95001691Y-98038000D01*
X95242250Y-98038000D01*
X95401000Y-97879250D01*
X95401000Y-97155000D01*
X95381000Y-97155000D01*
X95381000Y-96901000D01*
X95401000Y-96901000D01*
X95401000Y-96176750D01*
X95242250Y-96018000D01*
X95001691Y-96018000D01*
X94863694Y-96075160D01*
X95015000Y-95709874D01*
X95015000Y-95298126D01*
X94857431Y-94917720D01*
X94566280Y-94626569D01*
X94185874Y-94469000D01*
X93774126Y-94469000D01*
X93393720Y-94626569D01*
X93102569Y-94917720D01*
X92945000Y-95298126D01*
X92945000Y-95480155D01*
X92942096Y-95482095D01*
X92901092Y-95543462D01*
X92901091Y-95543463D01*
X92779646Y-95725218D01*
X92722602Y-96012000D01*
X92737001Y-96084389D01*
X92737001Y-96113131D01*
X92732898Y-96115873D01*
X92731698Y-96114673D01*
X92498309Y-96018000D01*
X92257750Y-96018000D01*
X92099000Y-96176750D01*
X92099000Y-96901000D01*
X92119000Y-96901000D01*
X92119000Y-97155000D01*
X92099000Y-97155000D01*
X92099000Y-97879250D01*
X92257750Y-98038000D01*
X92498309Y-98038000D01*
X92731698Y-97941327D01*
X92732898Y-97940127D01*
X92737001Y-97942868D01*
X92737000Y-99161132D01*
X92732898Y-99163873D01*
X92731698Y-99162673D01*
X92498309Y-99066000D01*
X92257750Y-99066000D01*
X92099000Y-99224750D01*
X92099000Y-99949000D01*
X92119000Y-99949000D01*
X92119000Y-100203000D01*
X92099000Y-100203000D01*
X92099000Y-100927250D01*
X92257750Y-101086000D01*
X92498309Y-101086000D01*
X92731698Y-100989327D01*
X92732898Y-100988127D01*
X92824235Y-101049157D01*
X93072000Y-101098440D01*
X93417114Y-101098440D01*
X92944463Y-101571091D01*
X92883096Y-101612095D01*
X92842092Y-101673462D01*
X92842091Y-101673463D01*
X92720646Y-101855218D01*
X92663602Y-102142000D01*
X92678001Y-102214389D01*
X92678001Y-102639381D01*
X92508302Y-102709673D01*
X92329673Y-102888301D01*
X92327083Y-102894553D01*
X92267000Y-102882602D01*
X92194616Y-102897000D01*
X91744447Y-102897000D01*
X91667000Y-102819554D01*
X91667000Y-101086000D01*
X91686250Y-101086000D01*
X91845000Y-100927250D01*
X91845000Y-100203000D01*
X91825000Y-100203000D01*
X91825000Y-99949000D01*
X91845000Y-99949000D01*
X91845000Y-99224750D01*
X91686250Y-99066000D01*
X91445691Y-99066000D01*
X91212302Y-99162673D01*
X91033673Y-99341301D01*
X90944362Y-99556916D01*
X90651000Y-99263554D01*
X90651000Y-98116384D01*
X90665398Y-98044000D01*
X90651000Y-97971616D01*
X90651000Y-97971612D01*
X90608354Y-97757217D01*
X90445905Y-97514095D01*
X90384537Y-97473090D01*
X90264480Y-97353033D01*
X90280751Y-97313750D01*
X90937000Y-97313750D01*
X90937000Y-97529310D01*
X91033673Y-97762699D01*
X91212302Y-97941327D01*
X91445691Y-98038000D01*
X91686250Y-98038000D01*
X91845000Y-97879250D01*
X91845000Y-97155000D01*
X91095750Y-97155000D01*
X90937000Y-97313750D01*
X90280751Y-97313750D01*
X90285000Y-97303494D01*
X90285000Y-96752506D01*
X90191465Y-96526690D01*
X90937000Y-96526690D01*
X90937000Y-96742250D01*
X91095750Y-96901000D01*
X91845000Y-96901000D01*
X91845000Y-96176750D01*
X91686250Y-96018000D01*
X91445691Y-96018000D01*
X91212302Y-96114673D01*
X91033673Y-96293301D01*
X90937000Y-96526690D01*
X90191465Y-96526690D01*
X90074147Y-96243460D01*
X89684540Y-95853853D01*
X89175494Y-95643000D01*
X88624506Y-95643000D01*
X88115460Y-95853853D01*
X87725853Y-96243460D01*
X87711306Y-96278578D01*
X87542803Y-96312096D01*
X87291411Y-96480071D01*
X87249011Y-96543527D01*
X86383530Y-97409009D01*
X86320071Y-97451411D01*
X86252373Y-97552729D01*
X86234839Y-97464582D01*
X85906625Y-96973375D01*
X85884967Y-96958904D01*
X86045698Y-96892327D01*
X86224327Y-96713699D01*
X86321000Y-96480310D01*
X86321000Y-95789750D01*
X86162250Y-95631000D01*
X84963000Y-95631000D01*
X84963000Y-95651000D01*
X84709000Y-95651000D01*
X84709000Y-95631000D01*
X84689000Y-95631000D01*
X84689000Y-95377000D01*
X84709000Y-95377000D01*
X84709000Y-94177750D01*
X84963000Y-94177750D01*
X84963000Y-95377000D01*
X86162250Y-95377000D01*
X86321000Y-95218250D01*
X86321000Y-94527690D01*
X86224327Y-94294301D01*
X86045698Y-94115673D01*
X85812309Y-94019000D01*
X85121750Y-94019000D01*
X84963000Y-94177750D01*
X84709000Y-94177750D01*
X84550250Y-94019000D01*
X83859691Y-94019000D01*
X83626302Y-94115673D01*
X83539000Y-94202975D01*
X83539000Y-85063000D01*
X97832737Y-85063000D01*
X97828560Y-85084000D01*
G36*
X116588000Y-112025153D02*
X116573112Y-112100000D01*
X116588000Y-112174847D01*
X116588000Y-112174851D01*
X116632096Y-112396536D01*
X116800071Y-112647929D01*
X116863530Y-112690331D01*
X118525974Y-114352776D01*
X118489000Y-114389750D01*
X118489000Y-115189000D01*
X118511000Y-115189000D01*
X118511000Y-115443000D01*
X118489000Y-115443000D01*
X118489000Y-116242250D01*
X118647750Y-116401000D01*
X118740309Y-116401000D01*
X118973698Y-116304327D01*
X119115346Y-116162680D01*
X119156191Y-116223809D01*
X119366235Y-116364157D01*
X119614000Y-116413440D01*
X120114000Y-116413440D01*
X120361765Y-116364157D01*
X120571809Y-116223809D01*
X120670573Y-116076000D01*
X121243688Y-116076000D01*
X121253853Y-116100540D01*
X121643460Y-116490147D01*
X122152506Y-116701000D01*
X122703494Y-116701000D01*
X123212540Y-116490147D01*
X123602147Y-116100540D01*
X123813000Y-115591494D01*
X123813000Y-115040506D01*
X123802835Y-115015967D01*
X124266803Y-114552000D01*
X125213822Y-114552000D01*
X125421375Y-114862625D01*
X125912582Y-115190839D01*
X126345744Y-115277000D01*
X126638256Y-115277000D01*
X127071418Y-115190839D01*
X127562625Y-114862625D01*
X127789001Y-114523830D01*
X127789001Y-119661000D01*
X113507831Y-119661000D01*
X113846625Y-119434625D01*
X114174839Y-118943418D01*
X114290092Y-118364000D01*
X114174839Y-117784582D01*
X113846625Y-117293375D01*
X113355418Y-116965161D01*
X112922256Y-116879000D01*
X112629744Y-116879000D01*
X112196582Y-116965161D01*
X111705375Y-117293375D01*
X111506000Y-117591761D01*
X111306625Y-117293375D01*
X111037350Y-117113451D01*
X112475967Y-115674836D01*
X112500506Y-115685000D01*
X113051494Y-115685000D01*
X113252478Y-115601750D01*
X117479000Y-115601750D01*
X117479000Y-115892310D01*
X117575673Y-116125699D01*
X117754302Y-116304327D01*
X117987691Y-116401000D01*
X118080250Y-116401000D01*
X118239000Y-116242250D01*
X118239000Y-115443000D01*
X117637750Y-115443000D01*
X117479000Y-115601750D01*
X113252478Y-115601750D01*
X113560540Y-115474147D01*
X113950147Y-115084540D01*
X114092988Y-114739690D01*
X117479000Y-114739690D01*
X117479000Y-115030250D01*
X117637750Y-115189000D01*
X118239000Y-115189000D01*
X118239000Y-114389750D01*
X118080250Y-114231000D01*
X117987691Y-114231000D01*
X117754302Y-114327673D01*
X117575673Y-114506301D01*
X117479000Y-114739690D01*
X114092988Y-114739690D01*
X114161000Y-114575494D01*
X114161000Y-114024506D01*
X114150835Y-113999966D01*
X115292473Y-112858329D01*
X115355929Y-112815929D01*
X115523904Y-112564537D01*
X115568000Y-112342852D01*
X115568000Y-112342847D01*
X115582888Y-112268000D01*
X115568000Y-112193153D01*
X115568000Y-112058573D01*
X115715809Y-111959809D01*
X115856157Y-111749765D01*
X115905440Y-111502000D01*
X115905440Y-111229362D01*
X116308473Y-110826329D01*
X116371929Y-110783929D01*
X116539904Y-110532537D01*
X116584000Y-110310852D01*
X116584000Y-110310847D01*
X116588001Y-110290735D01*
X116588000Y-112025153D01*
X116588000Y-112025153D01*
G37*
X116588000Y-112025153D02*
X116573112Y-112100000D01*
X116588000Y-112174847D01*
X116588000Y-112174851D01*
X116632096Y-112396536D01*
X116800071Y-112647929D01*
X116863530Y-112690331D01*
X118525974Y-114352776D01*
X118489000Y-114389750D01*
X118489000Y-115189000D01*
X118511000Y-115189000D01*
X118511000Y-115443000D01*
X118489000Y-115443000D01*
X118489000Y-116242250D01*
X118647750Y-116401000D01*
X118740309Y-116401000D01*
X118973698Y-116304327D01*
X119115346Y-116162680D01*
X119156191Y-116223809D01*
X119366235Y-116364157D01*
X119614000Y-116413440D01*
X120114000Y-116413440D01*
X120361765Y-116364157D01*
X120571809Y-116223809D01*
X120670573Y-116076000D01*
X121243688Y-116076000D01*
X121253853Y-116100540D01*
X121643460Y-116490147D01*
X122152506Y-116701000D01*
X122703494Y-116701000D01*
X123212540Y-116490147D01*
X123602147Y-116100540D01*
X123813000Y-115591494D01*
X123813000Y-115040506D01*
X123802835Y-115015967D01*
X124266803Y-114552000D01*
X125213822Y-114552000D01*
X125421375Y-114862625D01*
X125912582Y-115190839D01*
X126345744Y-115277000D01*
X126638256Y-115277000D01*
X127071418Y-115190839D01*
X127562625Y-114862625D01*
X127789001Y-114523830D01*
X127789001Y-119661000D01*
X113507831Y-119661000D01*
X113846625Y-119434625D01*
X114174839Y-118943418D01*
X114290092Y-118364000D01*
X114174839Y-117784582D01*
X113846625Y-117293375D01*
X113355418Y-116965161D01*
X112922256Y-116879000D01*
X112629744Y-116879000D01*
X112196582Y-116965161D01*
X111705375Y-117293375D01*
X111506000Y-117591761D01*
X111306625Y-117293375D01*
X111037350Y-117113451D01*
X112475967Y-115674836D01*
X112500506Y-115685000D01*
X113051494Y-115685000D01*
X113252478Y-115601750D01*
X117479000Y-115601750D01*
X117479000Y-115892310D01*
X117575673Y-116125699D01*
X117754302Y-116304327D01*
X117987691Y-116401000D01*
X118080250Y-116401000D01*
X118239000Y-116242250D01*
X118239000Y-115443000D01*
X117637750Y-115443000D01*
X117479000Y-115601750D01*
X113252478Y-115601750D01*
X113560540Y-115474147D01*
X113950147Y-115084540D01*
X114092988Y-114739690D01*
X117479000Y-114739690D01*
X117479000Y-115030250D01*
X117637750Y-115189000D01*
X118239000Y-115189000D01*
X118239000Y-114389750D01*
X118080250Y-114231000D01*
X117987691Y-114231000D01*
X117754302Y-114327673D01*
X117575673Y-114506301D01*
X117479000Y-114739690D01*
X114092988Y-114739690D01*
X114161000Y-114575494D01*
X114161000Y-114024506D01*
X114150835Y-113999966D01*
X115292473Y-112858329D01*
X115355929Y-112815929D01*
X115523904Y-112564537D01*
X115568000Y-112342852D01*
X115568000Y-112342847D01*
X115582888Y-112268000D01*
X115568000Y-112193153D01*
X115568000Y-112058573D01*
X115715809Y-111959809D01*
X115856157Y-111749765D01*
X115905440Y-111502000D01*
X115905440Y-111229362D01*
X116308473Y-110826329D01*
X116371929Y-110783929D01*
X116539904Y-110532537D01*
X116584000Y-110310852D01*
X116584000Y-110310847D01*
X116588001Y-110290735D01*
X116588000Y-112025153D01*
G36*
X108777670Y-94700472D02*
X108820071Y-94763929D01*
X109071463Y-94931904D01*
X109293148Y-94976000D01*
X109293152Y-94976000D01*
X109368000Y-94990888D01*
X109442848Y-94976000D01*
X117227688Y-94976000D01*
X117237853Y-95000540D01*
X117627460Y-95390147D01*
X118136506Y-95601000D01*
X118687494Y-95601000D01*
X118712034Y-95590835D01*
X118778744Y-95657545D01*
X118502569Y-95933720D01*
X118345000Y-96314126D01*
X118345000Y-96725874D01*
X118502569Y-97106280D01*
X118793720Y-97397431D01*
X118862001Y-97425714D01*
X118862000Y-98201975D01*
X118731698Y-98071673D01*
X118498309Y-97975000D01*
X118405750Y-97975000D01*
X118247000Y-98133750D01*
X118247000Y-98933000D01*
X118269000Y-98933000D01*
X118269000Y-99187000D01*
X118247000Y-99187000D01*
X118247000Y-99986250D01*
X118405750Y-100145000D01*
X118498309Y-100145000D01*
X118731698Y-100048327D01*
X118873346Y-99906680D01*
X118914191Y-99967809D01*
X119124235Y-100108157D01*
X119372000Y-100157440D01*
X119636000Y-100157440D01*
X119636000Y-101017153D01*
X119622393Y-101085560D01*
X118980000Y-101085560D01*
X118732235Y-101134843D01*
X118640898Y-101195873D01*
X118639698Y-101194673D01*
X118406309Y-101098000D01*
X118165750Y-101098000D01*
X118007000Y-101256750D01*
X118007000Y-101981000D01*
X118027000Y-101981000D01*
X118027000Y-102235000D01*
X118007000Y-102235000D01*
X118007000Y-102959250D01*
X118165750Y-103118000D01*
X118406309Y-103118000D01*
X118620000Y-103029486D01*
X118620001Y-104234514D01*
X118406309Y-104146000D01*
X118165750Y-104146000D01*
X118007000Y-104304750D01*
X118007000Y-105029000D01*
X118027000Y-105029000D01*
X118027000Y-105283000D01*
X118007000Y-105283000D01*
X118007000Y-106007250D01*
X118165750Y-106166000D01*
X118406309Y-106166000D01*
X118620000Y-106077486D01*
X118620001Y-106484288D01*
X118502569Y-106601720D01*
X118345000Y-106982126D01*
X118345000Y-107393874D01*
X118502569Y-107774280D01*
X118793720Y-108065431D01*
X119174126Y-108223000D01*
X119585874Y-108223000D01*
X119966280Y-108065431D01*
X120257431Y-107774280D01*
X120415000Y-107393874D01*
X120415000Y-106982126D01*
X120257431Y-106601720D01*
X120140000Y-106484289D01*
X120140000Y-106363711D01*
X120317720Y-106541431D01*
X120698126Y-106699000D01*
X120864198Y-106699000D01*
X121053165Y-106887966D01*
X121043000Y-106912506D01*
X121043000Y-107463494D01*
X121253853Y-107972540D01*
X121643460Y-108362147D01*
X122152506Y-108573000D01*
X122703494Y-108573000D01*
X122728033Y-108562835D01*
X123361673Y-109196476D01*
X123404071Y-109259929D01*
X123467524Y-109302327D01*
X123467526Y-109302329D01*
X123571903Y-109372071D01*
X123655463Y-109427904D01*
X123877148Y-109472000D01*
X123877152Y-109472000D01*
X123951999Y-109486888D01*
X124026846Y-109472000D01*
X125213822Y-109472000D01*
X125421375Y-109782625D01*
X125719761Y-109982000D01*
X125421375Y-110181375D01*
X125213822Y-110492000D01*
X123612312Y-110492000D01*
X123602147Y-110467460D01*
X123212540Y-110077853D01*
X122703494Y-109867000D01*
X122152506Y-109867000D01*
X122127966Y-109877165D01*
X121939000Y-109688198D01*
X121939000Y-109522126D01*
X121781431Y-109141720D01*
X121490280Y-108850569D01*
X121109874Y-108693000D01*
X120698126Y-108693000D01*
X120317720Y-108850569D01*
X120026569Y-109141720D01*
X119869000Y-109522126D01*
X119869000Y-109933874D01*
X120026569Y-110314280D01*
X120317720Y-110605431D01*
X120698126Y-110763000D01*
X120864198Y-110763000D01*
X121053165Y-110951966D01*
X121043000Y-110976506D01*
X121043000Y-111527494D01*
X121253853Y-112036540D01*
X121643460Y-112426147D01*
X122152506Y-112637000D01*
X122703494Y-112637000D01*
X123212540Y-112426147D01*
X123602147Y-112036540D01*
X123612312Y-112012000D01*
X125213822Y-112012000D01*
X125421375Y-112322625D01*
X125719761Y-112522000D01*
X125421375Y-112721375D01*
X125213822Y-113032000D01*
X124026846Y-113032000D01*
X123951999Y-113017112D01*
X123877152Y-113032000D01*
X123877148Y-113032000D01*
X123655463Y-113076096D01*
X123655461Y-113076097D01*
X123655462Y-113076097D01*
X123467526Y-113201671D01*
X123467524Y-113201673D01*
X123404071Y-113244071D01*
X123361673Y-113307524D01*
X122728033Y-113941165D01*
X122703494Y-113931000D01*
X122152506Y-113931000D01*
X121643460Y-114141853D01*
X121253853Y-114531460D01*
X121243688Y-114556000D01*
X120670573Y-114556000D01*
X120608465Y-114463051D01*
X120579904Y-114319463D01*
X120506030Y-114208903D01*
X120454329Y-114131526D01*
X120454327Y-114131524D01*
X120411929Y-114068071D01*
X120348476Y-114025673D01*
X118108000Y-111785199D01*
X118108000Y-108786846D01*
X118122888Y-108711999D01*
X118108000Y-108637152D01*
X118108000Y-108637148D01*
X118063904Y-108415463D01*
X117895929Y-108164071D01*
X117832473Y-108121671D01*
X117034010Y-107323209D01*
X117034010Y-105983035D01*
X117120302Y-106069327D01*
X117353691Y-106166000D01*
X117594250Y-106166000D01*
X117753000Y-106007250D01*
X117753000Y-105283000D01*
X117733000Y-105283000D01*
X117733000Y-105029000D01*
X117753000Y-105029000D01*
X117753000Y-104304750D01*
X117594250Y-104146000D01*
X117353691Y-104146000D01*
X117120302Y-104242673D01*
X117034010Y-104328965D01*
X117034010Y-102935035D01*
X117120302Y-103021327D01*
X117353691Y-103118000D01*
X117594250Y-103118000D01*
X117753000Y-102959250D01*
X117753000Y-102235000D01*
X117733000Y-102235000D01*
X117733000Y-101981000D01*
X117753000Y-101981000D01*
X117753000Y-101256750D01*
X117594250Y-101098000D01*
X117353691Y-101098000D01*
X117120302Y-101194673D01*
X116941673Y-101373301D01*
X116845000Y-101606690D01*
X116845000Y-101822250D01*
X117003748Y-101980998D01*
X116845000Y-101980998D01*
X116845000Y-102044594D01*
X116821939Y-102010081D01*
X116758483Y-101967681D01*
X114136552Y-99345750D01*
X117237000Y-99345750D01*
X117237000Y-99636310D01*
X117333673Y-99869699D01*
X117512302Y-100048327D01*
X117745691Y-100145000D01*
X117838250Y-100145000D01*
X117997000Y-99986250D01*
X117997000Y-99187000D01*
X117395750Y-99187000D01*
X117237000Y-99345750D01*
X114136552Y-99345750D01*
X113274492Y-98483690D01*
X117237000Y-98483690D01*
X117237000Y-98774250D01*
X117395750Y-98933000D01*
X117997000Y-98933000D01*
X117997000Y-98133750D01*
X117838250Y-97975000D01*
X117745691Y-97975000D01*
X117512302Y-98071673D01*
X117333673Y-98250301D01*
X117237000Y-98483690D01*
X113274492Y-98483690D01*
X111334331Y-96543530D01*
X111291929Y-96480071D01*
X111040537Y-96312096D01*
X110818852Y-96268000D01*
X110818847Y-96268000D01*
X110744000Y-96253112D01*
X110669153Y-96268000D01*
X108518802Y-96268000D01*
X105696000Y-93445199D01*
X105696000Y-91618801D01*
X108777670Y-94700472D01*
X108777670Y-94700472D01*
G37*
X108777670Y-94700472D02*
X108820071Y-94763929D01*
X109071463Y-94931904D01*
X109293148Y-94976000D01*
X109293152Y-94976000D01*
X109368000Y-94990888D01*
X109442848Y-94976000D01*
X117227688Y-94976000D01*
X117237853Y-95000540D01*
X117627460Y-95390147D01*
X118136506Y-95601000D01*
X118687494Y-95601000D01*
X118712034Y-95590835D01*
X118778744Y-95657545D01*
X118502569Y-95933720D01*
X118345000Y-96314126D01*
X118345000Y-96725874D01*
X118502569Y-97106280D01*
X118793720Y-97397431D01*
X118862001Y-97425714D01*
X118862000Y-98201975D01*
X118731698Y-98071673D01*
X118498309Y-97975000D01*
X118405750Y-97975000D01*
X118247000Y-98133750D01*
X118247000Y-98933000D01*
X118269000Y-98933000D01*
X118269000Y-99187000D01*
X118247000Y-99187000D01*
X118247000Y-99986250D01*
X118405750Y-100145000D01*
X118498309Y-100145000D01*
X118731698Y-100048327D01*
X118873346Y-99906680D01*
X118914191Y-99967809D01*
X119124235Y-100108157D01*
X119372000Y-100157440D01*
X119636000Y-100157440D01*
X119636000Y-101017153D01*
X119622393Y-101085560D01*
X118980000Y-101085560D01*
X118732235Y-101134843D01*
X118640898Y-101195873D01*
X118639698Y-101194673D01*
X118406309Y-101098000D01*
X118165750Y-101098000D01*
X118007000Y-101256750D01*
X118007000Y-101981000D01*
X118027000Y-101981000D01*
X118027000Y-102235000D01*
X118007000Y-102235000D01*
X118007000Y-102959250D01*
X118165750Y-103118000D01*
X118406309Y-103118000D01*
X118620000Y-103029486D01*
X118620001Y-104234514D01*
X118406309Y-104146000D01*
X118165750Y-104146000D01*
X118007000Y-104304750D01*
X118007000Y-105029000D01*
X118027000Y-105029000D01*
X118027000Y-105283000D01*
X118007000Y-105283000D01*
X118007000Y-106007250D01*
X118165750Y-106166000D01*
X118406309Y-106166000D01*
X118620000Y-106077486D01*
X118620001Y-106484288D01*
X118502569Y-106601720D01*
X118345000Y-106982126D01*
X118345000Y-107393874D01*
X118502569Y-107774280D01*
X118793720Y-108065431D01*
X119174126Y-108223000D01*
X119585874Y-108223000D01*
X119966280Y-108065431D01*
X120257431Y-107774280D01*
X120415000Y-107393874D01*
X120415000Y-106982126D01*
X120257431Y-106601720D01*
X120140000Y-106484289D01*
X120140000Y-106363711D01*
X120317720Y-106541431D01*
X120698126Y-106699000D01*
X120864198Y-106699000D01*
X121053165Y-106887966D01*
X121043000Y-106912506D01*
X121043000Y-107463494D01*
X121253853Y-107972540D01*
X121643460Y-108362147D01*
X122152506Y-108573000D01*
X122703494Y-108573000D01*
X122728033Y-108562835D01*
X123361673Y-109196476D01*
X123404071Y-109259929D01*
X123467524Y-109302327D01*
X123467526Y-109302329D01*
X123571903Y-109372071D01*
X123655463Y-109427904D01*
X123877148Y-109472000D01*
X123877152Y-109472000D01*
X123951999Y-109486888D01*
X124026846Y-109472000D01*
X125213822Y-109472000D01*
X125421375Y-109782625D01*
X125719761Y-109982000D01*
X125421375Y-110181375D01*
X125213822Y-110492000D01*
X123612312Y-110492000D01*
X123602147Y-110467460D01*
X123212540Y-110077853D01*
X122703494Y-109867000D01*
X122152506Y-109867000D01*
X122127966Y-109877165D01*
X121939000Y-109688198D01*
X121939000Y-109522126D01*
X121781431Y-109141720D01*
X121490280Y-108850569D01*
X121109874Y-108693000D01*
X120698126Y-108693000D01*
X120317720Y-108850569D01*
X120026569Y-109141720D01*
X119869000Y-109522126D01*
X119869000Y-109933874D01*
X120026569Y-110314280D01*
X120317720Y-110605431D01*
X120698126Y-110763000D01*
X120864198Y-110763000D01*
X121053165Y-110951966D01*
X121043000Y-110976506D01*
X121043000Y-111527494D01*
X121253853Y-112036540D01*
X121643460Y-112426147D01*
X122152506Y-112637000D01*
X122703494Y-112637000D01*
X123212540Y-112426147D01*
X123602147Y-112036540D01*
X123612312Y-112012000D01*
X125213822Y-112012000D01*
X125421375Y-112322625D01*
X125719761Y-112522000D01*
X125421375Y-112721375D01*
X125213822Y-113032000D01*
X124026846Y-113032000D01*
X123951999Y-113017112D01*
X123877152Y-113032000D01*
X123877148Y-113032000D01*
X123655463Y-113076096D01*
X123655461Y-113076097D01*
X123655462Y-113076097D01*
X123467526Y-113201671D01*
X123467524Y-113201673D01*
X123404071Y-113244071D01*
X123361673Y-113307524D01*
X122728033Y-113941165D01*
X122703494Y-113931000D01*
X122152506Y-113931000D01*
X121643460Y-114141853D01*
X121253853Y-114531460D01*
X121243688Y-114556000D01*
X120670573Y-114556000D01*
X120608465Y-114463051D01*
X120579904Y-114319463D01*
X120506030Y-114208903D01*
X120454329Y-114131526D01*
X120454327Y-114131524D01*
X120411929Y-114068071D01*
X120348476Y-114025673D01*
X118108000Y-111785199D01*
X118108000Y-108786846D01*
X118122888Y-108711999D01*
X118108000Y-108637152D01*
X118108000Y-108637148D01*
X118063904Y-108415463D01*
X117895929Y-108164071D01*
X117832473Y-108121671D01*
X117034010Y-107323209D01*
X117034010Y-105983035D01*
X117120302Y-106069327D01*
X117353691Y-106166000D01*
X117594250Y-106166000D01*
X117753000Y-106007250D01*
X117753000Y-105283000D01*
X117733000Y-105283000D01*
X117733000Y-105029000D01*
X117753000Y-105029000D01*
X117753000Y-104304750D01*
X117594250Y-104146000D01*
X117353691Y-104146000D01*
X117120302Y-104242673D01*
X117034010Y-104328965D01*
X117034010Y-102935035D01*
X117120302Y-103021327D01*
X117353691Y-103118000D01*
X117594250Y-103118000D01*
X117753000Y-102959250D01*
X117753000Y-102235000D01*
X117733000Y-102235000D01*
X117733000Y-101981000D01*
X117753000Y-101981000D01*
X117753000Y-101256750D01*
X117594250Y-101098000D01*
X117353691Y-101098000D01*
X117120302Y-101194673D01*
X116941673Y-101373301D01*
X116845000Y-101606690D01*
X116845000Y-101822250D01*
X117003748Y-101980998D01*
X116845000Y-101980998D01*
X116845000Y-102044594D01*
X116821939Y-102010081D01*
X116758483Y-101967681D01*
X114136552Y-99345750D01*
X117237000Y-99345750D01*
X117237000Y-99636310D01*
X117333673Y-99869699D01*
X117512302Y-100048327D01*
X117745691Y-100145000D01*
X117838250Y-100145000D01*
X117997000Y-99986250D01*
X117997000Y-99187000D01*
X117395750Y-99187000D01*
X117237000Y-99345750D01*
X114136552Y-99345750D01*
X113274492Y-98483690D01*
X117237000Y-98483690D01*
X117237000Y-98774250D01*
X117395750Y-98933000D01*
X117997000Y-98933000D01*
X117997000Y-98133750D01*
X117838250Y-97975000D01*
X117745691Y-97975000D01*
X117512302Y-98071673D01*
X117333673Y-98250301D01*
X117237000Y-98483690D01*
X113274492Y-98483690D01*
X111334331Y-96543530D01*
X111291929Y-96480071D01*
X111040537Y-96312096D01*
X110818852Y-96268000D01*
X110818847Y-96268000D01*
X110744000Y-96253112D01*
X110669153Y-96268000D01*
X108518802Y-96268000D01*
X105696000Y-93445199D01*
X105696000Y-91618801D01*
X108777670Y-94700472D01*
G36*
X115064000Y-106486802D02*
X115064001Y-108896749D01*
X114935000Y-109025750D01*
X114935000Y-109627000D01*
X114955000Y-109627000D01*
X114955000Y-109877000D01*
X114935000Y-109877000D01*
X114935000Y-109899000D01*
X114681000Y-109899000D01*
X114681000Y-109877000D01*
X113881750Y-109877000D01*
X113723000Y-110035750D01*
X113723000Y-110128309D01*
X113819673Y-110361698D01*
X113961320Y-110503346D01*
X113900191Y-110544191D01*
X113759843Y-110754235D01*
X113710560Y-111002000D01*
X113710560Y-111502000D01*
X113759843Y-111749765D01*
X113900191Y-111959809D01*
X113984833Y-112016365D01*
X113076034Y-112925165D01*
X113051494Y-112915000D01*
X112500506Y-112915000D01*
X111991460Y-113125853D01*
X111773109Y-113344204D01*
X111927904Y-113112537D01*
X111972000Y-112890852D01*
X111972000Y-112890847D01*
X111986888Y-112816000D01*
X111975580Y-112759152D01*
X112062126Y-112795000D01*
X112473874Y-112795000D01*
X112854280Y-112637431D01*
X113145431Y-112346280D01*
X113303000Y-111965874D01*
X113303000Y-111554126D01*
X113222000Y-111358574D01*
X113222000Y-111128115D01*
X113335157Y-110958765D01*
X113384440Y-110711000D01*
X113384440Y-109761000D01*
X113335157Y-109513235D01*
X113243253Y-109375691D01*
X113723000Y-109375691D01*
X113723000Y-109468250D01*
X113881750Y-109627000D01*
X114681000Y-109627000D01*
X114681000Y-109025750D01*
X114522250Y-108867000D01*
X114231690Y-108867000D01*
X113998301Y-108963673D01*
X113819673Y-109142302D01*
X113723000Y-109375691D01*
X113243253Y-109375691D01*
X113194809Y-109303191D01*
X112984765Y-109162843D01*
X112956791Y-109157279D01*
X113096699Y-109099327D01*
X113275327Y-108920698D01*
X113372000Y-108687309D01*
X113372000Y-108371750D01*
X113213250Y-108213000D01*
X112589000Y-108213000D01*
X112589000Y-108233000D01*
X112335000Y-108233000D01*
X112335000Y-108213000D01*
X112315000Y-108213000D01*
X112315000Y-107959000D01*
X112335000Y-107959000D01*
X112335000Y-107939000D01*
X112589000Y-107939000D01*
X112589000Y-107959000D01*
X113213250Y-107959000D01*
X113372000Y-107800250D01*
X113372000Y-107484691D01*
X113275327Y-107251302D01*
X113206025Y-107182000D01*
X113302309Y-107182000D01*
X113535698Y-107085327D01*
X113714327Y-106906699D01*
X113811000Y-106673310D01*
X113811000Y-106457750D01*
X113652250Y-106299000D01*
X112903000Y-106299000D01*
X112903000Y-106319000D01*
X112649000Y-106319000D01*
X112649000Y-106299000D01*
X112629000Y-106299000D01*
X112629000Y-106045000D01*
X112649000Y-106045000D01*
X112649000Y-106025000D01*
X112903000Y-106025000D01*
X112903000Y-106045000D01*
X113652250Y-106045000D01*
X113811000Y-105886250D01*
X113811000Y-105670690D01*
X113714327Y-105437301D01*
X113535698Y-105258673D01*
X113302309Y-105162000D01*
X113175370Y-105162000D01*
X113303000Y-104853874D01*
X113303000Y-104725801D01*
X115064000Y-106486802D01*
X115064000Y-106486802D01*
G37*
X115064000Y-106486802D02*
X115064001Y-108896749D01*
X114935000Y-109025750D01*
X114935000Y-109627000D01*
X114955000Y-109627000D01*
X114955000Y-109877000D01*
X114935000Y-109877000D01*
X114935000Y-109899000D01*
X114681000Y-109899000D01*
X114681000Y-109877000D01*
X113881750Y-109877000D01*
X113723000Y-110035750D01*
X113723000Y-110128309D01*
X113819673Y-110361698D01*
X113961320Y-110503346D01*
X113900191Y-110544191D01*
X113759843Y-110754235D01*
X113710560Y-111002000D01*
X113710560Y-111502000D01*
X113759843Y-111749765D01*
X113900191Y-111959809D01*
X113984833Y-112016365D01*
X113076034Y-112925165D01*
X113051494Y-112915000D01*
X112500506Y-112915000D01*
X111991460Y-113125853D01*
X111773109Y-113344204D01*
X111927904Y-113112537D01*
X111972000Y-112890852D01*
X111972000Y-112890847D01*
X111986888Y-112816000D01*
X111975580Y-112759152D01*
X112062126Y-112795000D01*
X112473874Y-112795000D01*
X112854280Y-112637431D01*
X113145431Y-112346280D01*
X113303000Y-111965874D01*
X113303000Y-111554126D01*
X113222000Y-111358574D01*
X113222000Y-111128115D01*
X113335157Y-110958765D01*
X113384440Y-110711000D01*
X113384440Y-109761000D01*
X113335157Y-109513235D01*
X113243253Y-109375691D01*
X113723000Y-109375691D01*
X113723000Y-109468250D01*
X113881750Y-109627000D01*
X114681000Y-109627000D01*
X114681000Y-109025750D01*
X114522250Y-108867000D01*
X114231690Y-108867000D01*
X113998301Y-108963673D01*
X113819673Y-109142302D01*
X113723000Y-109375691D01*
X113243253Y-109375691D01*
X113194809Y-109303191D01*
X112984765Y-109162843D01*
X112956791Y-109157279D01*
X113096699Y-109099327D01*
X113275327Y-108920698D01*
X113372000Y-108687309D01*
X113372000Y-108371750D01*
X113213250Y-108213000D01*
X112589000Y-108213000D01*
X112589000Y-108233000D01*
X112335000Y-108233000D01*
X112335000Y-108213000D01*
X112315000Y-108213000D01*
X112315000Y-107959000D01*
X112335000Y-107959000D01*
X112335000Y-107939000D01*
X112589000Y-107939000D01*
X112589000Y-107959000D01*
X113213250Y-107959000D01*
X113372000Y-107800250D01*
X113372000Y-107484691D01*
X113275327Y-107251302D01*
X113206025Y-107182000D01*
X113302309Y-107182000D01*
X113535698Y-107085327D01*
X113714327Y-106906699D01*
X113811000Y-106673310D01*
X113811000Y-106457750D01*
X113652250Y-106299000D01*
X112903000Y-106299000D01*
X112903000Y-106319000D01*
X112649000Y-106319000D01*
X112649000Y-106299000D01*
X112629000Y-106299000D01*
X112629000Y-106045000D01*
X112649000Y-106045000D01*
X112649000Y-106025000D01*
X112903000Y-106025000D01*
X112903000Y-106045000D01*
X113652250Y-106045000D01*
X113811000Y-105886250D01*
X113811000Y-105670690D01*
X113714327Y-105437301D01*
X113535698Y-105258673D01*
X113302309Y-105162000D01*
X113175370Y-105162000D01*
X113303000Y-104853874D01*
X113303000Y-104725801D01*
X115064000Y-106486802D01*
G36*
X87525165Y-108919966D02*
X87515000Y-108944506D01*
X87515000Y-109495494D01*
X87725853Y-110004540D01*
X88115460Y-110394147D01*
X88624506Y-110605000D01*
X89175494Y-110605000D01*
X89225033Y-110584480D01*
X89345090Y-110704537D01*
X89386095Y-110765905D01*
X89629217Y-110928354D01*
X89843612Y-110971000D01*
X89843616Y-110971000D01*
X89916000Y-110985398D01*
X89988384Y-110971000D01*
X92191099Y-110971000D01*
X92103000Y-111183690D01*
X92103000Y-111474250D01*
X92261750Y-111633000D01*
X92863000Y-111633000D01*
X92863000Y-111613000D01*
X93113000Y-111613000D01*
X93113000Y-111633000D01*
X93135000Y-111633000D01*
X93135000Y-111887000D01*
X93113000Y-111887000D01*
X93113000Y-111907000D01*
X92863000Y-111907000D01*
X92863000Y-111887000D01*
X92261750Y-111887000D01*
X92103000Y-112045750D01*
X92103000Y-112336310D01*
X92180744Y-112524000D01*
X90084312Y-112524000D01*
X90074147Y-112499460D01*
X89684540Y-112109853D01*
X89175494Y-111899000D01*
X88910001Y-111899000D01*
X88910001Y-111592847D01*
X88924889Y-111518000D01*
X88910001Y-111443153D01*
X88910001Y-111443149D01*
X88865905Y-111221464D01*
X88697930Y-110970072D01*
X88634474Y-110927672D01*
X86277209Y-108570408D01*
X86350092Y-108204000D01*
X86236095Y-107630896D01*
X87525165Y-108919966D01*
X87525165Y-108919966D01*
G37*
X87525165Y-108919966D02*
X87515000Y-108944506D01*
X87515000Y-109495494D01*
X87725853Y-110004540D01*
X88115460Y-110394147D01*
X88624506Y-110605000D01*
X89175494Y-110605000D01*
X89225033Y-110584480D01*
X89345090Y-110704537D01*
X89386095Y-110765905D01*
X89629217Y-110928354D01*
X89843612Y-110971000D01*
X89843616Y-110971000D01*
X89916000Y-110985398D01*
X89988384Y-110971000D01*
X92191099Y-110971000D01*
X92103000Y-111183690D01*
X92103000Y-111474250D01*
X92261750Y-111633000D01*
X92863000Y-111633000D01*
X92863000Y-111613000D01*
X93113000Y-111613000D01*
X93113000Y-111633000D01*
X93135000Y-111633000D01*
X93135000Y-111887000D01*
X93113000Y-111887000D01*
X93113000Y-111907000D01*
X92863000Y-111907000D01*
X92863000Y-111887000D01*
X92261750Y-111887000D01*
X92103000Y-112045750D01*
X92103000Y-112336310D01*
X92180744Y-112524000D01*
X90084312Y-112524000D01*
X90074147Y-112499460D01*
X89684540Y-112109853D01*
X89175494Y-111899000D01*
X88910001Y-111899000D01*
X88910001Y-111592847D01*
X88924889Y-111518000D01*
X88910001Y-111443153D01*
X88910001Y-111443149D01*
X88865905Y-111221464D01*
X88697930Y-110970072D01*
X88634474Y-110927672D01*
X86277209Y-108570408D01*
X86350092Y-108204000D01*
X86236095Y-107630896D01*
X87525165Y-108919966D01*
G36*
X87525165Y-104855966D02*
X87515000Y-104880506D01*
X87515000Y-105431494D01*
X87725853Y-105940540D01*
X88115460Y-106330147D01*
X88624506Y-106541000D01*
X89175494Y-106541000D01*
X89225034Y-106520480D01*
X89853090Y-107148537D01*
X89894095Y-107209905D01*
X90137217Y-107372354D01*
X90351612Y-107415000D01*
X90351615Y-107415000D01*
X90423999Y-107429398D01*
X90496383Y-107415000D01*
X92163616Y-107415000D01*
X92236000Y-107429398D01*
X92308384Y-107415000D01*
X92308388Y-107415000D01*
X92522783Y-107372354D01*
X92678001Y-107268641D01*
X92678001Y-107364611D01*
X92663602Y-107437000D01*
X92701395Y-107627000D01*
X92611691Y-107627000D01*
X92378302Y-107723673D01*
X92199673Y-107902301D01*
X92103000Y-108135690D01*
X92103000Y-108426250D01*
X92261750Y-108585000D01*
X92863000Y-108585000D01*
X92863000Y-108565000D01*
X93113000Y-108565000D01*
X93113000Y-108585000D01*
X93135000Y-108585000D01*
X93135000Y-108839000D01*
X93113000Y-108839000D01*
X93113000Y-108859000D01*
X92863000Y-108859000D01*
X92863000Y-108839000D01*
X92261750Y-108839000D01*
X92103000Y-108997750D01*
X92103000Y-109288310D01*
X92191099Y-109501000D01*
X90282719Y-109501000D01*
X90285000Y-109495494D01*
X90285000Y-108944506D01*
X90074147Y-108435460D01*
X89684540Y-108045853D01*
X89175494Y-107835000D01*
X88624506Y-107835000D01*
X88599966Y-107845165D01*
X87109332Y-106354531D01*
X87066930Y-106291072D01*
X86815538Y-106123097D01*
X86593853Y-106079001D01*
X86593848Y-106079001D01*
X86519001Y-106064113D01*
X86444154Y-106079001D01*
X86267543Y-106079001D01*
X86350092Y-105664000D01*
X86277209Y-105297593D01*
X86399802Y-105175000D01*
X86565874Y-105175000D01*
X86946280Y-105017431D01*
X87237431Y-104726280D01*
X87283722Y-104614523D01*
X87525165Y-104855966D01*
X87525165Y-104855966D01*
G37*
X87525165Y-104855966D02*
X87515000Y-104880506D01*
X87515000Y-105431494D01*
X87725853Y-105940540D01*
X88115460Y-106330147D01*
X88624506Y-106541000D01*
X89175494Y-106541000D01*
X89225034Y-106520480D01*
X89853090Y-107148537D01*
X89894095Y-107209905D01*
X90137217Y-107372354D01*
X90351612Y-107415000D01*
X90351615Y-107415000D01*
X90423999Y-107429398D01*
X90496383Y-107415000D01*
X92163616Y-107415000D01*
X92236000Y-107429398D01*
X92308384Y-107415000D01*
X92308388Y-107415000D01*
X92522783Y-107372354D01*
X92678001Y-107268641D01*
X92678001Y-107364611D01*
X92663602Y-107437000D01*
X92701395Y-107627000D01*
X92611691Y-107627000D01*
X92378302Y-107723673D01*
X92199673Y-107902301D01*
X92103000Y-108135690D01*
X92103000Y-108426250D01*
X92261750Y-108585000D01*
X92863000Y-108585000D01*
X92863000Y-108565000D01*
X93113000Y-108565000D01*
X93113000Y-108585000D01*
X93135000Y-108585000D01*
X93135000Y-108839000D01*
X93113000Y-108839000D01*
X93113000Y-108859000D01*
X92863000Y-108859000D01*
X92863000Y-108839000D01*
X92261750Y-108839000D01*
X92103000Y-108997750D01*
X92103000Y-109288310D01*
X92191099Y-109501000D01*
X90282719Y-109501000D01*
X90285000Y-109495494D01*
X90285000Y-108944506D01*
X90074147Y-108435460D01*
X89684540Y-108045853D01*
X89175494Y-107835000D01*
X88624506Y-107835000D01*
X88599966Y-107845165D01*
X87109332Y-106354531D01*
X87066930Y-106291072D01*
X86815538Y-106123097D01*
X86593853Y-106079001D01*
X86593848Y-106079001D01*
X86519001Y-106064113D01*
X86444154Y-106079001D01*
X86267543Y-106079001D01*
X86350092Y-105664000D01*
X86277209Y-105297593D01*
X86399802Y-105175000D01*
X86565874Y-105175000D01*
X86946280Y-105017431D01*
X87237431Y-104726280D01*
X87283722Y-104614523D01*
X87525165Y-104855966D01*
G36*
X94340235Y-104196157D02*
X94480259Y-104224009D01*
X94489250Y-104233000D01*
X94514309Y-104233000D01*
X94517926Y-104231502D01*
X94588000Y-104245440D01*
X94818000Y-104245440D01*
X94918000Y-104225549D01*
X95018000Y-104245440D01*
X95154993Y-104245440D01*
X95140560Y-104318000D01*
X95140560Y-104548000D01*
X95160451Y-104648000D01*
X95140560Y-104748000D01*
X95140560Y-104978000D01*
X95154993Y-105050560D01*
X95018000Y-105050560D01*
X94918000Y-105070451D01*
X94818000Y-105050560D01*
X94588000Y-105050560D01*
X94488000Y-105070451D01*
X94388000Y-105050560D01*
X94158000Y-105050560D01*
X94058000Y-105070451D01*
X93958000Y-105050560D01*
X93821007Y-105050560D01*
X93835440Y-104978000D01*
X93835440Y-104748000D01*
X93821502Y-104677927D01*
X93823000Y-104674310D01*
X93823000Y-104649250D01*
X93814009Y-104640259D01*
X93786157Y-104500235D01*
X93741232Y-104433000D01*
X93786157Y-104365765D01*
X93814009Y-104225741D01*
X93823000Y-104216750D01*
X93823000Y-104191690D01*
X93821502Y-104188073D01*
X93826658Y-104162151D01*
X93839665Y-104153460D01*
X94031691Y-104233000D01*
X94056750Y-104233000D01*
X94058000Y-104231750D01*
X94059250Y-104233000D01*
X94084309Y-104233000D01*
X94276335Y-104153460D01*
X94340235Y-104196157D01*
X94340235Y-104196157D01*
G37*
X94340235Y-104196157D02*
X94480259Y-104224009D01*
X94489250Y-104233000D01*
X94514309Y-104233000D01*
X94517926Y-104231502D01*
X94588000Y-104245440D01*
X94818000Y-104245440D01*
X94918000Y-104225549D01*
X95018000Y-104245440D01*
X95154993Y-104245440D01*
X95140560Y-104318000D01*
X95140560Y-104548000D01*
X95160451Y-104648000D01*
X95140560Y-104748000D01*
X95140560Y-104978000D01*
X95154993Y-105050560D01*
X95018000Y-105050560D01*
X94918000Y-105070451D01*
X94818000Y-105050560D01*
X94588000Y-105050560D01*
X94488000Y-105070451D01*
X94388000Y-105050560D01*
X94158000Y-105050560D01*
X94058000Y-105070451D01*
X93958000Y-105050560D01*
X93821007Y-105050560D01*
X93835440Y-104978000D01*
X93835440Y-104748000D01*
X93821502Y-104677927D01*
X93823000Y-104674310D01*
X93823000Y-104649250D01*
X93814009Y-104640259D01*
X93786157Y-104500235D01*
X93741232Y-104433000D01*
X93786157Y-104365765D01*
X93814009Y-104225741D01*
X93823000Y-104216750D01*
X93823000Y-104191690D01*
X93821502Y-104188073D01*
X93826658Y-104162151D01*
X93839665Y-104153460D01*
X94031691Y-104233000D01*
X94056750Y-104233000D01*
X94058000Y-104231750D01*
X94059250Y-104233000D01*
X94084309Y-104233000D01*
X94276335Y-104153460D01*
X94340235Y-104196157D01*
G36*
X91367612Y-104367000D02*
X91367615Y-104367000D01*
X91439999Y-104381398D01*
X91512383Y-104367000D01*
X91962554Y-104367000D01*
X92028554Y-104433000D01*
X91532554Y-104929000D01*
X91236447Y-104929000D01*
X91159000Y-104851554D01*
X91159000Y-104325504D01*
X91367612Y-104367000D01*
X91367612Y-104367000D01*
G37*
X91367612Y-104367000D02*
X91367615Y-104367000D01*
X91439999Y-104381398D01*
X91512383Y-104367000D01*
X91962554Y-104367000D01*
X92028554Y-104433000D01*
X91532554Y-104929000D01*
X91236447Y-104929000D01*
X91159000Y-104851554D01*
X91159000Y-104325504D01*
X91367612Y-104367000D01*
G36*
X120202620Y-85086034D02*
X119602034Y-85686620D01*
X119277000Y-86471322D01*
X119277000Y-87320678D01*
X119602034Y-88105380D01*
X120202620Y-88705966D01*
X120987322Y-89031000D01*
X121836678Y-89031000D01*
X121999884Y-88963398D01*
X121901000Y-89202126D01*
X121901000Y-89613874D01*
X122053781Y-89982720D01*
X121687494Y-89831000D01*
X121136506Y-89831000D01*
X121086967Y-89851520D01*
X118875039Y-87639593D01*
X118733431Y-87297720D01*
X118442280Y-87006569D01*
X118061874Y-86849000D01*
X117650126Y-86849000D01*
X117269720Y-87006569D01*
X116978569Y-87297720D01*
X116821000Y-87678126D01*
X116821000Y-88089874D01*
X116978569Y-88470280D01*
X117269720Y-88761431D01*
X117650126Y-88919000D01*
X118061874Y-88919000D01*
X118071547Y-88914993D01*
X119302473Y-90145919D01*
X119203911Y-90244481D01*
X119135923Y-90003540D01*
X118616829Y-89818799D01*
X118066552Y-89846770D01*
X117688077Y-90003540D01*
X117620088Y-90244483D01*
X118412000Y-91036395D01*
X118426143Y-91022253D01*
X118605748Y-91201858D01*
X118591605Y-91216000D01*
X118605748Y-91230143D01*
X118426143Y-91409748D01*
X118412000Y-91395605D01*
X118397858Y-91409748D01*
X118218253Y-91230143D01*
X118232395Y-91216000D01*
X117440483Y-90424088D01*
X117199540Y-90492077D01*
X117014799Y-91011171D01*
X117042770Y-91561448D01*
X117199540Y-91939923D01*
X117440481Y-92007911D01*
X117325426Y-92122966D01*
X117393800Y-92191340D01*
X117330154Y-92204000D01*
X117330150Y-92204000D01*
X117108465Y-92248096D01*
X117108463Y-92248097D01*
X117108464Y-92248097D01*
X116920528Y-92373671D01*
X116920526Y-92373673D01*
X116857073Y-92416071D01*
X116814674Y-92479525D01*
X116582200Y-92712000D01*
X113703800Y-92712000D01*
X112207858Y-91216059D01*
X112393809Y-91091809D01*
X112534157Y-90881765D01*
X112583440Y-90634000D01*
X112583440Y-89134000D01*
X112534157Y-88886235D01*
X112393809Y-88676191D01*
X112326835Y-88631440D01*
X113026000Y-88631440D01*
X113273765Y-88582157D01*
X113483809Y-88441809D01*
X113624157Y-88231765D01*
X113673440Y-87984000D01*
X113673440Y-87682483D01*
X113823929Y-87581929D01*
X113866331Y-87518470D01*
X114276473Y-87108329D01*
X114339929Y-87065929D01*
X114507904Y-86814537D01*
X114552000Y-86592852D01*
X114552000Y-86592848D01*
X114566888Y-86518001D01*
X114552000Y-86443154D01*
X114552000Y-86047711D01*
X114669431Y-85930280D01*
X114827000Y-85549874D01*
X114827000Y-85138126D01*
X114795882Y-85063000D01*
X120258229Y-85063000D01*
X120202620Y-85086034D01*
X120202620Y-85086034D01*
G37*
X120202620Y-85086034D02*
X119602034Y-85686620D01*
X119277000Y-86471322D01*
X119277000Y-87320678D01*
X119602034Y-88105380D01*
X120202620Y-88705966D01*
X120987322Y-89031000D01*
X121836678Y-89031000D01*
X121999884Y-88963398D01*
X121901000Y-89202126D01*
X121901000Y-89613874D01*
X122053781Y-89982720D01*
X121687494Y-89831000D01*
X121136506Y-89831000D01*
X121086967Y-89851520D01*
X118875039Y-87639593D01*
X118733431Y-87297720D01*
X118442280Y-87006569D01*
X118061874Y-86849000D01*
X117650126Y-86849000D01*
X117269720Y-87006569D01*
X116978569Y-87297720D01*
X116821000Y-87678126D01*
X116821000Y-88089874D01*
X116978569Y-88470280D01*
X117269720Y-88761431D01*
X117650126Y-88919000D01*
X118061874Y-88919000D01*
X118071547Y-88914993D01*
X119302473Y-90145919D01*
X119203911Y-90244481D01*
X119135923Y-90003540D01*
X118616829Y-89818799D01*
X118066552Y-89846770D01*
X117688077Y-90003540D01*
X117620088Y-90244483D01*
X118412000Y-91036395D01*
X118426143Y-91022253D01*
X118605748Y-91201858D01*
X118591605Y-91216000D01*
X118605748Y-91230143D01*
X118426143Y-91409748D01*
X118412000Y-91395605D01*
X118397858Y-91409748D01*
X118218253Y-91230143D01*
X118232395Y-91216000D01*
X117440483Y-90424088D01*
X117199540Y-90492077D01*
X117014799Y-91011171D01*
X117042770Y-91561448D01*
X117199540Y-91939923D01*
X117440481Y-92007911D01*
X117325426Y-92122966D01*
X117393800Y-92191340D01*
X117330154Y-92204000D01*
X117330150Y-92204000D01*
X117108465Y-92248096D01*
X117108463Y-92248097D01*
X117108464Y-92248097D01*
X116920528Y-92373671D01*
X116920526Y-92373673D01*
X116857073Y-92416071D01*
X116814674Y-92479525D01*
X116582200Y-92712000D01*
X113703800Y-92712000D01*
X112207858Y-91216059D01*
X112393809Y-91091809D01*
X112534157Y-90881765D01*
X112583440Y-90634000D01*
X112583440Y-89134000D01*
X112534157Y-88886235D01*
X112393809Y-88676191D01*
X112326835Y-88631440D01*
X113026000Y-88631440D01*
X113273765Y-88582157D01*
X113483809Y-88441809D01*
X113624157Y-88231765D01*
X113673440Y-87984000D01*
X113673440Y-87682483D01*
X113823929Y-87581929D01*
X113866331Y-87518470D01*
X114276473Y-87108329D01*
X114339929Y-87065929D01*
X114507904Y-86814537D01*
X114552000Y-86592852D01*
X114552000Y-86592848D01*
X114566888Y-86518001D01*
X114552000Y-86443154D01*
X114552000Y-86047711D01*
X114669431Y-85930280D01*
X114827000Y-85549874D01*
X114827000Y-85138126D01*
X114795882Y-85063000D01*
X120258229Y-85063000D01*
X120202620Y-85086034D01*
G04 #@! TD*
M02*
