G04 #@! TF.GenerationSoftware,KiCad,Pcbnew,(5.0.2)-1*
G04 #@! TF.CreationDate,2019-03-06T23:20:24-07:00*
G04 #@! TF.ProjectId,Sensor_Board,53656e73-6f72-45f4-926f-6172642e6b69,rev?*
G04 #@! TF.SameCoordinates,Original*
G04 #@! TF.FileFunction,Paste,Top*
G04 #@! TF.FilePolarity,Positive*
%FSLAX46Y46*%
G04 Gerber Fmt 4.6, Leading zero omitted, Abs format (unit mm)*
G04 Created by KiCad (PCBNEW (5.0.2)-1) date 2019-03-06 11:20:24 PM*
%MOMM*%
%LPD*%
G01*
G04 APERTURE LIST*
%ADD10R,0.800000X1.500000*%
%ADD11R,1.400000X1.900000*%
%ADD12R,1.900000X1.400000*%
%ADD13R,0.750000X0.800000*%
%ADD14R,0.800000X0.750000*%
%ADD15R,0.500000X0.900000*%
%ADD16R,0.900000X0.500000*%
%ADD17R,0.230000X0.350000*%
%ADD18R,0.350000X0.230000*%
%ADD19R,0.550000X0.950000*%
%ADD20R,0.600000X0.950000*%
%ADD21R,0.950000X0.600000*%
G04 APERTURE END LIST*
D10*
G04 #@! TO.C,J1*
X103836000Y-89884000D03*
X104936000Y-90284000D03*
X106036000Y-89884000D03*
X107136000Y-89684000D03*
X108236000Y-89884000D03*
X109336000Y-89684000D03*
X110436000Y-89884000D03*
X111536000Y-89884000D03*
D11*
X112326000Y-87034000D03*
D12*
X110726000Y-100184000D03*
X105026000Y-100184000D03*
D11*
X99176000Y-86034000D03*
G04 #@! TD*
D13*
G04 #@! TO.C,C1*
X98044000Y-103632000D03*
X98044000Y-102132000D03*
G04 #@! TD*
D14*
G04 #@! TO.C,C2*
X95504000Y-100076000D03*
X97004000Y-100076000D03*
G04 #@! TD*
G04 #@! TO.C,C3*
X111276000Y-106172000D03*
X112776000Y-106172000D03*
G04 #@! TD*
G04 #@! TO.C,C4*
X97028000Y-97028000D03*
X95528000Y-97028000D03*
G04 #@! TD*
G04 #@! TO.C,C5*
X91972000Y-97028000D03*
X93472000Y-97028000D03*
G04 #@! TD*
G04 #@! TO.C,C6*
X93472000Y-100076000D03*
X91972000Y-100076000D03*
G04 #@! TD*
G04 #@! TO.C,C7*
X117880000Y-102108000D03*
X119380000Y-102108000D03*
G04 #@! TD*
G04 #@! TO.C,C8*
X105156000Y-103124000D03*
X103656000Y-103124000D03*
G04 #@! TD*
G04 #@! TO.C,C9*
X103656000Y-106172000D03*
X105156000Y-106172000D03*
G04 #@! TD*
G04 #@! TO.C,C10*
X100100000Y-106172000D03*
X101600000Y-106172000D03*
G04 #@! TD*
G04 #@! TO.C,C11*
X117880000Y-105156000D03*
X119380000Y-105156000D03*
G04 #@! TD*
D15*
G04 #@! TO.C,R1*
X94488000Y-108712000D03*
X92988000Y-108712000D03*
G04 #@! TD*
D16*
G04 #@! TO.C,R2*
X114808000Y-109752000D03*
X114808000Y-111252000D03*
G04 #@! TD*
D15*
G04 #@! TO.C,R3*
X92988000Y-111760000D03*
X94488000Y-111760000D03*
G04 #@! TD*
G04 #@! TO.C,R4*
X119864000Y-115316000D03*
X118364000Y-115316000D03*
G04 #@! TD*
G04 #@! TO.C,R5*
X119622000Y-99060000D03*
X118122000Y-99060000D03*
G04 #@! TD*
D17*
G04 #@! TO.C,U1*
X95993000Y-105873000D03*
X95563000Y-105873000D03*
X95133000Y-105873000D03*
X94703000Y-105873000D03*
X94273000Y-105873000D03*
X93843000Y-105873000D03*
X93413000Y-105873000D03*
X92983000Y-105873000D03*
X95993000Y-103423000D03*
X95563000Y-103423000D03*
X95133000Y-103423000D03*
X94703000Y-103423000D03*
X94273000Y-103423000D03*
X93843000Y-103423000D03*
X93413000Y-103423000D03*
D18*
X95963000Y-105293000D03*
X93013000Y-105293000D03*
X95963000Y-104863000D03*
X93013000Y-104863000D03*
X95963000Y-104433000D03*
X93013000Y-104433000D03*
X95963000Y-104003000D03*
X93013000Y-104003000D03*
D17*
X92983000Y-103423000D03*
G04 #@! TD*
D19*
G04 #@! TO.C,U2*
X108712000Y-110236000D03*
X109962000Y-110236000D03*
X111212000Y-110236000D03*
X112462000Y-110236000D03*
X109962000Y-108086000D03*
X111212000Y-108086000D03*
X112462000Y-108086000D03*
X108712000Y-108086000D03*
G04 #@! TD*
D20*
G04 #@! TO.C,U3*
X104108000Y-108220000D03*
X103308000Y-108220000D03*
X102508000Y-108220000D03*
X101708000Y-108220000D03*
X100908000Y-108220000D03*
X100108000Y-108220000D03*
D21*
X100108000Y-109220000D03*
D20*
X100108000Y-110220000D03*
X100908000Y-110220000D03*
X101708000Y-110220000D03*
X102508000Y-110220000D03*
X103308000Y-110220000D03*
X104108000Y-110220000D03*
D21*
X104108000Y-109220000D03*
G04 #@! TD*
M02*
