G04 #@! TF.GenerationSoftware,KiCad,Pcbnew,(5.0.2)-1*
G04 #@! TF.CreationDate,2019-03-06T23:20:24-07:00*
G04 #@! TF.ProjectId,Sensor_Board,53656e73-6f72-45f4-926f-6172642e6b69,rev?*
G04 #@! TF.SameCoordinates,Original*
G04 #@! TF.FileFunction,Copper,L2,Bot*
G04 #@! TF.FilePolarity,Positive*
%FSLAX46Y46*%
G04 Gerber Fmt 4.6, Leading zero omitted, Abs format (unit mm)*
G04 Created by KiCad (PCBNEW (5.0.2)-1) date 2019-03-06 11:20:24 PM*
%MOMM*%
%LPD*%
G01*
G04 APERTURE LIST*
G04 #@! TA.AperFunction,ComponentPad*
%ADD10R,1.700000X1.700000*%
G04 #@! TD*
G04 #@! TA.AperFunction,ComponentPad*
%ADD11O,1.700000X1.700000*%
G04 #@! TD*
G04 #@! TA.AperFunction,ComponentPad*
%ADD12C,1.500000*%
G04 #@! TD*
G04 #@! TA.AperFunction,ViaPad*
%ADD13C,0.800000*%
G04 #@! TD*
G04 #@! TA.AperFunction,Conductor*
%ADD14C,0.200000*%
G04 #@! TD*
G04 #@! TA.AperFunction,Conductor*
%ADD15C,0.250000*%
G04 #@! TD*
G04 #@! TA.AperFunction,Conductor*
%ADD16C,0.254000*%
G04 #@! TD*
G04 APERTURE END LIST*
D10*
G04 #@! TO.P,J3,1*
G04 #@! TO.N,ACC_~CS*
X100076000Y-118364000D03*
D11*
G04 #@! TO.P,J3,2*
G04 #@! TO.N,SPI2_SCK*
X102616000Y-118364000D03*
G04 #@! TO.P,J3,3*
G04 #@! TO.N,SPI2_MISO*
X105156000Y-118364000D03*
G04 #@! TO.P,J3,4*
G04 #@! TO.N,SPI2_MOSI*
X107696000Y-118364000D03*
G04 #@! TO.P,J3,5*
G04 #@! TO.N,BARO_~CS*
X110236000Y-118364000D03*
G04 #@! TO.P,J3,6*
G04 #@! TO.N,GND*
X112776000Y-118364000D03*
G04 #@! TD*
D10*
G04 #@! TO.P,J2,1*
G04 #@! TO.N,+3V3*
X84836000Y-95504000D03*
D11*
G04 #@! TO.P,J2,2*
G04 #@! TO.N,AG_~CS*
X84836000Y-98044000D03*
G04 #@! TO.P,J2,3*
G04 #@! TO.N,SPI1_SCK*
X84836000Y-100584000D03*
G04 #@! TO.P,J2,4*
G04 #@! TO.N,SPI1_MISO*
X84836000Y-103124000D03*
G04 #@! TO.P,J2,5*
G04 #@! TO.N,SPI1_MOSI*
X84836000Y-105664000D03*
G04 #@! TO.P,J2,6*
G04 #@! TO.N,MAG_~CS*
X84836000Y-108204000D03*
G04 #@! TO.P,J2,7*
G04 #@! TO.N,UART3_TX*
X84836000Y-110744000D03*
G04 #@! TO.P,J2,8*
G04 #@! TO.N,UART3_RX*
X84836000Y-113284000D03*
G04 #@! TD*
G04 #@! TO.P,J4,6*
G04 #@! TO.N,SD1_~CS*
X126492000Y-113792000D03*
G04 #@! TO.P,J4,5*
G04 #@! TO.N,SPI3_SCK*
X126492000Y-111252000D03*
G04 #@! TO.P,J4,4*
G04 #@! TO.N,SPI3_MISO*
X126492000Y-108712000D03*
G04 #@! TO.P,J4,3*
G04 #@! TO.N,SPI3_MOSI*
X126492000Y-106172000D03*
G04 #@! TO.P,J4,2*
G04 #@! TO.N,SD2_~CS*
X126492000Y-103632000D03*
D10*
G04 #@! TO.P,J4,1*
G04 #@! TO.N,GND*
X126492000Y-101092000D03*
G04 #@! TD*
D12*
G04 #@! TO.P,J5,1*
G04 #@! TO.N,+3V3*
X118412000Y-91216000D03*
G04 #@! TO.P,J5,2*
G04 #@! TO.N,GND*
X121412000Y-91216000D03*
G04 #@! TO.P,J5,4*
G04 #@! TO.N,SPI3_MOSI*
X118412000Y-94216000D03*
G04 #@! TO.P,J5,5*
G04 #@! TO.N,SPI3_MISO*
X121412000Y-94216000D03*
G04 #@! TO.P,J5,6*
G04 #@! TO.N,SD2_~CS*
X124412000Y-94216000D03*
G04 #@! TO.P,J5,3*
G04 #@! TO.N,SPI3_SCK*
X124412000Y-91216000D03*
G04 #@! TD*
D13*
G04 #@! TO.N,GND*
X93980000Y-95504000D03*
X96520000Y-95504000D03*
X99568000Y-102616000D03*
X117856000Y-87884000D03*
X101600000Y-104648000D03*
X103124000Y-101600000D03*
X112268000Y-104648000D03*
X119380000Y-107188000D03*
X113792000Y-85344000D03*
G04 #@! TO.N,+3V3*
X91440000Y-104648000D03*
X91948000Y-107696000D03*
X94488000Y-102108000D03*
X98552000Y-105664000D03*
X91948000Y-111760000D03*
X91440000Y-114300000D03*
X109220000Y-103124000D03*
X112268000Y-102108000D03*
X114300000Y-107696000D03*
X117348000Y-106680000D03*
X118364000Y-110236000D03*
X116840000Y-112776000D03*
X116840000Y-97536000D03*
X116840000Y-92456000D03*
X113792000Y-101600000D03*
X115316000Y-100076000D03*
G04 #@! TO.N,SPI3_SCK*
X120904000Y-109728000D03*
X122428000Y-92964000D03*
X110744000Y-91948000D03*
X122936000Y-89408000D03*
G04 #@! TO.N,SPI3_MISO*
X120904000Y-105664000D03*
X121560487Y-96465048D03*
G04 #@! TO.N,SPI1_MOSI*
X86868000Y-101092000D03*
X86360000Y-104140000D03*
G04 #@! TO.N,SPI2_SCK*
X112268000Y-111760000D03*
X103632000Y-119380000D03*
G04 #@! TO.N,SPI2_MISO*
X108712000Y-111760000D03*
X107696000Y-113284000D03*
G04 #@! TO.N,BARO_~CS*
X106680000Y-109920000D03*
X106680000Y-108520000D03*
G04 #@! TO.N,SD2_~CS*
X119380000Y-96520000D03*
X123702653Y-92714653D03*
G04 #@! TD*
D14*
G04 #@! TO.N,GND*
X93980000Y-95504000D02*
X96520000Y-95504000D01*
G04 #@! TO.N,+3V3*
X91440000Y-104648000D02*
X90932000Y-105156000D01*
X90932000Y-105156000D02*
X90932000Y-106680000D01*
X90932000Y-106680000D02*
X91948000Y-107696000D01*
X98552000Y-105664000D02*
X97028000Y-104140000D01*
X97028000Y-104140000D02*
X97028000Y-102108000D01*
X97028000Y-102108000D02*
X96520000Y-101600000D01*
X94996000Y-101600000D02*
X94488000Y-102108000D01*
X96520000Y-101600000D02*
X94996000Y-101600000D01*
D15*
X91948000Y-111760000D02*
X91440000Y-112268000D01*
X91440000Y-112268000D02*
X91440000Y-114300000D01*
X109220000Y-103124000D02*
X110236000Y-102108000D01*
X110236000Y-102108000D02*
X112268000Y-102108000D01*
X114300000Y-107696000D02*
X115316000Y-106680000D01*
X115316000Y-106680000D02*
X117348000Y-106680000D01*
X118364000Y-110236000D02*
X118364000Y-111252000D01*
X118364000Y-111252000D02*
X118364000Y-111760000D01*
X118364000Y-111760000D02*
X117348000Y-112776000D01*
X117348000Y-112776000D02*
X116840000Y-112776000D01*
X116840000Y-97536000D02*
X116840000Y-92456000D01*
X113792000Y-101600000D02*
X115316000Y-100076000D01*
G04 #@! TO.N,SPI3_SCK*
X120105001Y-93931997D02*
X121072998Y-92964000D01*
X120904000Y-109728000D02*
X120105001Y-108929001D01*
X120105001Y-108929001D02*
X120105001Y-93931997D01*
X121072998Y-92964000D02*
X122428000Y-92964000D01*
X110744000Y-91948000D02*
X115316000Y-91948000D01*
X115316000Y-91948000D02*
X117856000Y-89408000D01*
X117856000Y-89408000D02*
X122936000Y-89408000D01*
G04 #@! TO.N,SPI3_MISO*
X120904000Y-105664000D02*
X120904000Y-97028000D01*
X120904000Y-97028000D02*
X120997535Y-97028000D01*
X120997535Y-97028000D02*
X121560487Y-96465048D01*
G04 #@! TO.N,SPI1_MOSI*
X86868000Y-101092000D02*
X86360000Y-101600000D01*
X86360000Y-101600000D02*
X86360000Y-104140000D01*
G04 #@! TO.N,SPI2_SCK*
X112268000Y-111760000D02*
X111252000Y-112776000D01*
X111252000Y-112776000D02*
X111252000Y-115316000D01*
X108871001Y-117696999D02*
X108871001Y-119220999D01*
X111252000Y-115316000D02*
X108871001Y-117696999D01*
X103791001Y-119539001D02*
X103632000Y-119380000D01*
X108871001Y-119220999D02*
X108552999Y-119539001D01*
X108552999Y-119539001D02*
X103791001Y-119539001D01*
D14*
G04 #@! TO.N,SPI2_MISO*
X108712000Y-111760000D02*
X108712000Y-112268000D01*
X108712000Y-112268000D02*
X107696000Y-113284000D01*
D15*
G04 #@! TO.N,BARO_~CS*
X106680000Y-109920000D02*
X106680000Y-108520000D01*
G04 #@! TO.N,SD2_~CS*
X121862998Y-92456000D02*
X122370998Y-91948000D01*
X120944588Y-92456000D02*
X121862998Y-92456000D01*
X119487001Y-93913587D02*
X120944588Y-92456000D01*
X119487001Y-94732001D02*
X119487001Y-93913587D01*
X119380000Y-96520000D02*
X119380000Y-94839002D01*
X119380000Y-94839002D02*
X119487001Y-94732001D01*
X122370998Y-91948000D02*
X122485002Y-91948000D01*
X122485002Y-91948000D02*
X122936000Y-91948000D01*
X122936000Y-91948000D02*
X123702653Y-92714653D01*
G04 #@! TD*
D16*
G04 #@! TO.N,GND*
G36*
X120202620Y-85086034D02*
X119602034Y-85686620D01*
X119277000Y-86471322D01*
X119277000Y-87320678D01*
X119602034Y-88105380D01*
X120144654Y-88648000D01*
X117930846Y-88648000D01*
X117855999Y-88633112D01*
X117781152Y-88648000D01*
X117781148Y-88648000D01*
X117559463Y-88692096D01*
X117559461Y-88692097D01*
X117559462Y-88692097D01*
X117371526Y-88817671D01*
X117371524Y-88817673D01*
X117308071Y-88860071D01*
X117265673Y-88923524D01*
X115001199Y-91188000D01*
X111447711Y-91188000D01*
X111330280Y-91070569D01*
X110949874Y-90913000D01*
X110538126Y-90913000D01*
X110157720Y-91070569D01*
X109866569Y-91361720D01*
X109709000Y-91742126D01*
X109709000Y-92153874D01*
X109866569Y-92534280D01*
X110157720Y-92825431D01*
X110538126Y-92983000D01*
X110949874Y-92983000D01*
X111330280Y-92825431D01*
X111447711Y-92708000D01*
X115241153Y-92708000D01*
X115316000Y-92722888D01*
X115390847Y-92708000D01*
X115390852Y-92708000D01*
X115612537Y-92663904D01*
X115805000Y-92535304D01*
X115805000Y-92661874D01*
X115962569Y-93042280D01*
X116080001Y-93159712D01*
X116080000Y-96832289D01*
X115962569Y-96949720D01*
X115805000Y-97330126D01*
X115805000Y-97741874D01*
X115962569Y-98122280D01*
X116253720Y-98413431D01*
X116634126Y-98571000D01*
X117045874Y-98571000D01*
X117426280Y-98413431D01*
X117717431Y-98122280D01*
X117875000Y-97741874D01*
X117875000Y-97330126D01*
X117717431Y-96949720D01*
X117600000Y-96832289D01*
X117600000Y-95362687D01*
X117627460Y-95390147D01*
X118136506Y-95601000D01*
X118620001Y-95601000D01*
X118620000Y-95816289D01*
X118502569Y-95933720D01*
X118345000Y-96314126D01*
X118345000Y-96725874D01*
X118502569Y-97106280D01*
X118793720Y-97397431D01*
X119174126Y-97555000D01*
X119345002Y-97555000D01*
X119345001Y-108854154D01*
X119330113Y-108929001D01*
X119345001Y-109003848D01*
X119345001Y-109003852D01*
X119389097Y-109225537D01*
X119557072Y-109476930D01*
X119620531Y-109519332D01*
X119869000Y-109767801D01*
X119869000Y-109933874D01*
X120026569Y-110314280D01*
X120317720Y-110605431D01*
X120698126Y-110763000D01*
X121109874Y-110763000D01*
X121490280Y-110605431D01*
X121781431Y-110314280D01*
X121939000Y-109933874D01*
X121939000Y-109522126D01*
X121781431Y-109141720D01*
X121490280Y-108850569D01*
X121109874Y-108693000D01*
X120943801Y-108693000D01*
X120865001Y-108614200D01*
X120865001Y-106699000D01*
X121109874Y-106699000D01*
X121490280Y-106541431D01*
X121781431Y-106250280D01*
X121939000Y-105869874D01*
X121939000Y-105458126D01*
X121781431Y-105077720D01*
X121664000Y-104960289D01*
X121664000Y-100115690D01*
X125007000Y-100115690D01*
X125007000Y-100806250D01*
X125165750Y-100965000D01*
X126365000Y-100965000D01*
X126365000Y-99765750D01*
X126206250Y-99607000D01*
X125515691Y-99607000D01*
X125282302Y-99703673D01*
X125103673Y-99882301D01*
X125007000Y-100115690D01*
X121664000Y-100115690D01*
X121664000Y-97500048D01*
X121766361Y-97500048D01*
X122146767Y-97342479D01*
X122437918Y-97051328D01*
X122595487Y-96670922D01*
X122595487Y-96259174D01*
X122437918Y-95878768D01*
X122146767Y-95587617D01*
X121933285Y-95499190D01*
X122196540Y-95390147D01*
X122586147Y-95000540D01*
X122797000Y-94491494D01*
X122797000Y-93940506D01*
X122793792Y-93932760D01*
X123014280Y-93841431D01*
X123106051Y-93749660D01*
X123027000Y-93940506D01*
X123027000Y-94491494D01*
X123237853Y-95000540D01*
X123627460Y-95390147D01*
X124136506Y-95601000D01*
X124687494Y-95601000D01*
X125196540Y-95390147D01*
X125586147Y-95000540D01*
X125797000Y-94491494D01*
X125797000Y-93940506D01*
X125586147Y-93431460D01*
X125196540Y-93041853D01*
X124737653Y-92851776D01*
X124737653Y-92580224D01*
X125196540Y-92390147D01*
X125586147Y-92000540D01*
X125797000Y-91491494D01*
X125797000Y-90940506D01*
X125586147Y-90431460D01*
X125196540Y-90041853D01*
X124687494Y-89831000D01*
X124136506Y-89831000D01*
X123828160Y-89958721D01*
X123971000Y-89613874D01*
X123971000Y-89202126D01*
X123813431Y-88821720D01*
X123522280Y-88530569D01*
X123141874Y-88373000D01*
X122954346Y-88373000D01*
X123221966Y-88105380D01*
X123547000Y-87320678D01*
X123547000Y-86471322D01*
X123221966Y-85686620D01*
X122621380Y-85086034D01*
X122565771Y-85063000D01*
X127789000Y-85063000D01*
X127789000Y-99790975D01*
X127701698Y-99703673D01*
X127468309Y-99607000D01*
X126777750Y-99607000D01*
X126619000Y-99765750D01*
X126619000Y-100965000D01*
X126639000Y-100965000D01*
X126639000Y-101219000D01*
X126619000Y-101219000D01*
X126619000Y-101239000D01*
X126365000Y-101239000D01*
X126365000Y-101219000D01*
X125165750Y-101219000D01*
X125007000Y-101377750D01*
X125007000Y-102068310D01*
X125103673Y-102301699D01*
X125282302Y-102480327D01*
X125443033Y-102546904D01*
X125421375Y-102561375D01*
X125093161Y-103052582D01*
X124977908Y-103632000D01*
X125093161Y-104211418D01*
X125421375Y-104702625D01*
X125719761Y-104902000D01*
X125421375Y-105101375D01*
X125093161Y-105592582D01*
X124977908Y-106172000D01*
X125093161Y-106751418D01*
X125421375Y-107242625D01*
X125719761Y-107442000D01*
X125421375Y-107641375D01*
X125093161Y-108132582D01*
X124977908Y-108712000D01*
X125093161Y-109291418D01*
X125421375Y-109782625D01*
X125719761Y-109982000D01*
X125421375Y-110181375D01*
X125093161Y-110672582D01*
X124977908Y-111252000D01*
X125093161Y-111831418D01*
X125421375Y-112322625D01*
X125719761Y-112522000D01*
X125421375Y-112721375D01*
X125093161Y-113212582D01*
X124977908Y-113792000D01*
X125093161Y-114371418D01*
X125421375Y-114862625D01*
X125912582Y-115190839D01*
X126345744Y-115277000D01*
X126638256Y-115277000D01*
X127071418Y-115190839D01*
X127562625Y-114862625D01*
X127789001Y-114523830D01*
X127789001Y-119661000D01*
X113481708Y-119661000D01*
X113542924Y-119635645D01*
X113971183Y-119245358D01*
X114217486Y-118720892D01*
X114096819Y-118491000D01*
X112903000Y-118491000D01*
X112903000Y-118511000D01*
X112649000Y-118511000D01*
X112649000Y-118491000D01*
X112629000Y-118491000D01*
X112629000Y-118237000D01*
X112649000Y-118237000D01*
X112649000Y-117043845D01*
X112903000Y-117043845D01*
X112903000Y-118237000D01*
X114096819Y-118237000D01*
X114217486Y-118007108D01*
X113971183Y-117482642D01*
X113542924Y-117092355D01*
X113132890Y-116922524D01*
X112903000Y-117043845D01*
X112649000Y-117043845D01*
X112419110Y-116922524D01*
X112009076Y-117092355D01*
X111580817Y-117482642D01*
X111519843Y-117612478D01*
X111306625Y-117293375D01*
X110815418Y-116965161D01*
X110700499Y-116942302D01*
X111736473Y-115906329D01*
X111799929Y-115863929D01*
X111967904Y-115612537D01*
X112012000Y-115390852D01*
X112012000Y-115390848D01*
X112026888Y-115316001D01*
X112012000Y-115241154D01*
X112012000Y-113090801D01*
X112307802Y-112795000D01*
X112473874Y-112795000D01*
X112854280Y-112637431D01*
X112921585Y-112570126D01*
X115805000Y-112570126D01*
X115805000Y-112981874D01*
X115962569Y-113362280D01*
X116253720Y-113653431D01*
X116634126Y-113811000D01*
X117045874Y-113811000D01*
X117426280Y-113653431D01*
X117573721Y-113505990D01*
X117644537Y-113491904D01*
X117895929Y-113323929D01*
X117938331Y-113260470D01*
X118848473Y-112350329D01*
X118911929Y-112307929D01*
X119079904Y-112056537D01*
X119124000Y-111834852D01*
X119124000Y-111834847D01*
X119138888Y-111760000D01*
X119124000Y-111685153D01*
X119124000Y-110939711D01*
X119241431Y-110822280D01*
X119399000Y-110441874D01*
X119399000Y-110030126D01*
X119241431Y-109649720D01*
X118950280Y-109358569D01*
X118569874Y-109201000D01*
X118158126Y-109201000D01*
X117777720Y-109358569D01*
X117486569Y-109649720D01*
X117329000Y-110030126D01*
X117329000Y-110441874D01*
X117486569Y-110822280D01*
X117604001Y-110939712D01*
X117604001Y-111177145D01*
X117604000Y-111177149D01*
X117604000Y-111445198D01*
X117231366Y-111817833D01*
X117045874Y-111741000D01*
X116634126Y-111741000D01*
X116253720Y-111898569D01*
X115962569Y-112189720D01*
X115805000Y-112570126D01*
X112921585Y-112570126D01*
X113145431Y-112346280D01*
X113303000Y-111965874D01*
X113303000Y-111554126D01*
X113145431Y-111173720D01*
X112854280Y-110882569D01*
X112473874Y-110725000D01*
X112062126Y-110725000D01*
X111681720Y-110882569D01*
X111390569Y-111173720D01*
X111233000Y-111554126D01*
X111233000Y-111720198D01*
X110767530Y-112185669D01*
X110704071Y-112228071D01*
X110536096Y-112479464D01*
X110492000Y-112701149D01*
X110492000Y-112701153D01*
X110477112Y-112776000D01*
X110492000Y-112850847D01*
X110492001Y-115001197D01*
X108426853Y-117066346D01*
X108275418Y-116965161D01*
X107842256Y-116879000D01*
X107549744Y-116879000D01*
X107116582Y-116965161D01*
X106625375Y-117293375D01*
X106426000Y-117591761D01*
X106226625Y-117293375D01*
X105735418Y-116965161D01*
X105302256Y-116879000D01*
X105009744Y-116879000D01*
X104576582Y-116965161D01*
X104085375Y-117293375D01*
X103886000Y-117591761D01*
X103686625Y-117293375D01*
X103195418Y-116965161D01*
X102762256Y-116879000D01*
X102469744Y-116879000D01*
X102036582Y-116965161D01*
X101545375Y-117293375D01*
X101533184Y-117311619D01*
X101524157Y-117266235D01*
X101383809Y-117056191D01*
X101173765Y-116915843D01*
X100926000Y-116866560D01*
X99226000Y-116866560D01*
X98978235Y-116915843D01*
X98768191Y-117056191D01*
X98627843Y-117266235D01*
X98578560Y-117514000D01*
X98578560Y-119214000D01*
X98627843Y-119461765D01*
X98760969Y-119661000D01*
X83539000Y-119661000D01*
X83539000Y-114015831D01*
X83765375Y-114354625D01*
X84256582Y-114682839D01*
X84689744Y-114769000D01*
X84982256Y-114769000D01*
X85415418Y-114682839D01*
X85906625Y-114354625D01*
X86080684Y-114094126D01*
X90405000Y-114094126D01*
X90405000Y-114505874D01*
X90562569Y-114886280D01*
X90853720Y-115177431D01*
X91234126Y-115335000D01*
X91645874Y-115335000D01*
X92026280Y-115177431D01*
X92317431Y-114886280D01*
X92475000Y-114505874D01*
X92475000Y-114094126D01*
X92317431Y-113713720D01*
X92200000Y-113596289D01*
X92200000Y-113078126D01*
X106661000Y-113078126D01*
X106661000Y-113489874D01*
X106818569Y-113870280D01*
X107109720Y-114161431D01*
X107490126Y-114319000D01*
X107901874Y-114319000D01*
X108282280Y-114161431D01*
X108573431Y-113870280D01*
X108731000Y-113489874D01*
X108731000Y-113288447D01*
X109180537Y-112838910D01*
X109241905Y-112797905D01*
X109404354Y-112554783D01*
X109410171Y-112525540D01*
X109589431Y-112346280D01*
X109747000Y-111965874D01*
X109747000Y-111554126D01*
X109589431Y-111173720D01*
X109298280Y-110882569D01*
X108917874Y-110725000D01*
X108506126Y-110725000D01*
X108125720Y-110882569D01*
X107834569Y-111173720D01*
X107677000Y-111554126D01*
X107677000Y-111965874D01*
X107764188Y-112176365D01*
X107691553Y-112249000D01*
X107490126Y-112249000D01*
X107109720Y-112406569D01*
X106818569Y-112697720D01*
X106661000Y-113078126D01*
X92200000Y-113078126D01*
X92200000Y-112775894D01*
X92534280Y-112637431D01*
X92825431Y-112346280D01*
X92983000Y-111965874D01*
X92983000Y-111554126D01*
X92825431Y-111173720D01*
X92534280Y-110882569D01*
X92153874Y-110725000D01*
X91742126Y-110725000D01*
X91361720Y-110882569D01*
X91070569Y-111173720D01*
X90913000Y-111554126D01*
X90913000Y-111706087D01*
X90892071Y-111720071D01*
X90724096Y-111971464D01*
X90680000Y-112193149D01*
X90680000Y-112193153D01*
X90665112Y-112268000D01*
X90680000Y-112342847D01*
X90680001Y-113596288D01*
X90562569Y-113713720D01*
X90405000Y-114094126D01*
X86080684Y-114094126D01*
X86234839Y-113863418D01*
X86350092Y-113284000D01*
X86234839Y-112704582D01*
X85906625Y-112213375D01*
X85608239Y-112014000D01*
X85906625Y-111814625D01*
X86234839Y-111323418D01*
X86350092Y-110744000D01*
X86234839Y-110164582D01*
X85906625Y-109673375D01*
X85608239Y-109474000D01*
X85906625Y-109274625D01*
X86234839Y-108783418D01*
X86350092Y-108204000D01*
X86234839Y-107624582D01*
X85906625Y-107133375D01*
X85608239Y-106934000D01*
X85906625Y-106734625D01*
X86234839Y-106243418D01*
X86350092Y-105664000D01*
X86252824Y-105175000D01*
X86565874Y-105175000D01*
X86611744Y-105156000D01*
X90182602Y-105156000D01*
X90197000Y-105228385D01*
X90197001Y-106607611D01*
X90182602Y-106680000D01*
X90239646Y-106966782D01*
X90335154Y-107109720D01*
X90402096Y-107209905D01*
X90463463Y-107250909D01*
X90913000Y-107700446D01*
X90913000Y-107901874D01*
X91070569Y-108282280D01*
X91361720Y-108573431D01*
X91742126Y-108731000D01*
X92153874Y-108731000D01*
X92534280Y-108573431D01*
X92793585Y-108314126D01*
X105645000Y-108314126D01*
X105645000Y-108725874D01*
X105802569Y-109106280D01*
X105916289Y-109220000D01*
X105802569Y-109333720D01*
X105645000Y-109714126D01*
X105645000Y-110125874D01*
X105802569Y-110506280D01*
X106093720Y-110797431D01*
X106474126Y-110955000D01*
X106885874Y-110955000D01*
X107266280Y-110797431D01*
X107557431Y-110506280D01*
X107715000Y-110125874D01*
X107715000Y-109714126D01*
X107557431Y-109333720D01*
X107443711Y-109220000D01*
X107557431Y-109106280D01*
X107715000Y-108725874D01*
X107715000Y-108314126D01*
X107557431Y-107933720D01*
X107266280Y-107642569D01*
X106898250Y-107490126D01*
X113265000Y-107490126D01*
X113265000Y-107901874D01*
X113422569Y-108282280D01*
X113713720Y-108573431D01*
X114094126Y-108731000D01*
X114505874Y-108731000D01*
X114886280Y-108573431D01*
X115177431Y-108282280D01*
X115335000Y-107901874D01*
X115335000Y-107735801D01*
X115630802Y-107440000D01*
X116644289Y-107440000D01*
X116761720Y-107557431D01*
X117142126Y-107715000D01*
X117553874Y-107715000D01*
X117934280Y-107557431D01*
X118225431Y-107266280D01*
X118383000Y-106885874D01*
X118383000Y-106474126D01*
X118225431Y-106093720D01*
X117934280Y-105802569D01*
X117553874Y-105645000D01*
X117142126Y-105645000D01*
X116761720Y-105802569D01*
X116644289Y-105920000D01*
X115390847Y-105920000D01*
X115316000Y-105905112D01*
X115241153Y-105920000D01*
X115241148Y-105920000D01*
X115019463Y-105964096D01*
X114768071Y-106132071D01*
X114725671Y-106195527D01*
X114260199Y-106661000D01*
X114094126Y-106661000D01*
X113713720Y-106818569D01*
X113422569Y-107109720D01*
X113265000Y-107490126D01*
X106898250Y-107490126D01*
X106885874Y-107485000D01*
X106474126Y-107485000D01*
X106093720Y-107642569D01*
X105802569Y-107933720D01*
X105645000Y-108314126D01*
X92793585Y-108314126D01*
X92825431Y-108282280D01*
X92983000Y-107901874D01*
X92983000Y-107490126D01*
X92825431Y-107109720D01*
X92534280Y-106818569D01*
X92153874Y-106661000D01*
X91952446Y-106661000D01*
X91667000Y-106375554D01*
X91667000Y-105674249D01*
X92026280Y-105525431D01*
X92317431Y-105234280D01*
X92475000Y-104853874D01*
X92475000Y-104442126D01*
X92317431Y-104061720D01*
X92026280Y-103770569D01*
X91645874Y-103613000D01*
X91234126Y-103613000D01*
X90853720Y-103770569D01*
X90562569Y-104061720D01*
X90405000Y-104442126D01*
X90405000Y-104624154D01*
X90402095Y-104626095D01*
X90239646Y-104869218D01*
X90197000Y-105083613D01*
X90197000Y-105083616D01*
X90182602Y-105156000D01*
X86611744Y-105156000D01*
X86946280Y-105017431D01*
X87237431Y-104726280D01*
X87395000Y-104345874D01*
X87395000Y-103934126D01*
X87237431Y-103553720D01*
X87120000Y-103436289D01*
X87120000Y-102107894D01*
X87454280Y-101969431D01*
X87521585Y-101902126D01*
X93453000Y-101902126D01*
X93453000Y-102313874D01*
X93610569Y-102694280D01*
X93901720Y-102985431D01*
X94282126Y-103143000D01*
X94693874Y-103143000D01*
X95074280Y-102985431D01*
X95365431Y-102694280D01*
X95514249Y-102335000D01*
X96215554Y-102335000D01*
X96293001Y-102412447D01*
X96293000Y-104067615D01*
X96278602Y-104140000D01*
X96293000Y-104212384D01*
X96293000Y-104212387D01*
X96335646Y-104426782D01*
X96498095Y-104669905D01*
X96559465Y-104710911D01*
X97517000Y-105668447D01*
X97517000Y-105869874D01*
X97674569Y-106250280D01*
X97965720Y-106541431D01*
X98346126Y-106699000D01*
X98757874Y-106699000D01*
X99138280Y-106541431D01*
X99429431Y-106250280D01*
X99587000Y-105869874D01*
X99587000Y-105458126D01*
X99429431Y-105077720D01*
X99138280Y-104786569D01*
X98757874Y-104629000D01*
X98556447Y-104629000D01*
X97763000Y-103835554D01*
X97763000Y-102918126D01*
X108185000Y-102918126D01*
X108185000Y-103329874D01*
X108342569Y-103710280D01*
X108633720Y-104001431D01*
X109014126Y-104159000D01*
X109425874Y-104159000D01*
X109806280Y-104001431D01*
X110097431Y-103710280D01*
X110255000Y-103329874D01*
X110255000Y-103163801D01*
X110550802Y-102868000D01*
X111564289Y-102868000D01*
X111681720Y-102985431D01*
X112062126Y-103143000D01*
X112473874Y-103143000D01*
X112854280Y-102985431D01*
X113145431Y-102694280D01*
X113230928Y-102487872D01*
X113586126Y-102635000D01*
X113997874Y-102635000D01*
X114378280Y-102477431D01*
X114669431Y-102186280D01*
X114827000Y-101805874D01*
X114827000Y-101639802D01*
X115355802Y-101111000D01*
X115521874Y-101111000D01*
X115902280Y-100953431D01*
X116193431Y-100662280D01*
X116351000Y-100281874D01*
X116351000Y-99870126D01*
X116193431Y-99489720D01*
X115902280Y-99198569D01*
X115521874Y-99041000D01*
X115110126Y-99041000D01*
X114729720Y-99198569D01*
X114438569Y-99489720D01*
X114281000Y-99870126D01*
X114281000Y-100036198D01*
X113752198Y-100565000D01*
X113586126Y-100565000D01*
X113205720Y-100722569D01*
X112914569Y-101013720D01*
X112829072Y-101220128D01*
X112473874Y-101073000D01*
X112062126Y-101073000D01*
X111681720Y-101230569D01*
X111564289Y-101348000D01*
X110310847Y-101348000D01*
X110236000Y-101333112D01*
X110161153Y-101348000D01*
X110161148Y-101348000D01*
X109939463Y-101392096D01*
X109688071Y-101560071D01*
X109645671Y-101623527D01*
X109180199Y-102089000D01*
X109014126Y-102089000D01*
X108633720Y-102246569D01*
X108342569Y-102537720D01*
X108185000Y-102918126D01*
X97763000Y-102918126D01*
X97763000Y-102180383D01*
X97777398Y-102107999D01*
X97763000Y-102035615D01*
X97763000Y-102035612D01*
X97720354Y-101821217D01*
X97557905Y-101578095D01*
X97496537Y-101537090D01*
X97090911Y-101131465D01*
X97049905Y-101070095D01*
X96806783Y-100907646D01*
X96592388Y-100865000D01*
X96592384Y-100865000D01*
X96520000Y-100850602D01*
X96447616Y-100865000D01*
X95068383Y-100865000D01*
X94995999Y-100850602D01*
X94923615Y-100865000D01*
X94923612Y-100865000D01*
X94709217Y-100907646D01*
X94466095Y-101070095D01*
X94464154Y-101073000D01*
X94282126Y-101073000D01*
X93901720Y-101230569D01*
X93610569Y-101521720D01*
X93453000Y-101902126D01*
X87521585Y-101902126D01*
X87745431Y-101678280D01*
X87903000Y-101297874D01*
X87903000Y-100886126D01*
X87745431Y-100505720D01*
X87454280Y-100214569D01*
X87073874Y-100057000D01*
X86662126Y-100057000D01*
X86281720Y-100214569D01*
X86277456Y-100218833D01*
X86234839Y-100004582D01*
X85906625Y-99513375D01*
X85608239Y-99314000D01*
X85906625Y-99114625D01*
X86234839Y-98623418D01*
X86350092Y-98044000D01*
X86234839Y-97464582D01*
X85906625Y-96973375D01*
X85888381Y-96961184D01*
X85933765Y-96952157D01*
X86143809Y-96811809D01*
X86284157Y-96601765D01*
X86333440Y-96354000D01*
X86333440Y-94654000D01*
X86284157Y-94406235D01*
X86143809Y-94196191D01*
X85933765Y-94055843D01*
X85686000Y-94006560D01*
X83986000Y-94006560D01*
X83738235Y-94055843D01*
X83539000Y-94188969D01*
X83539000Y-85063000D01*
X120258229Y-85063000D01*
X120202620Y-85086034D01*
X120202620Y-85086034D01*
G37*
X120202620Y-85086034D02*
X119602034Y-85686620D01*
X119277000Y-86471322D01*
X119277000Y-87320678D01*
X119602034Y-88105380D01*
X120144654Y-88648000D01*
X117930846Y-88648000D01*
X117855999Y-88633112D01*
X117781152Y-88648000D01*
X117781148Y-88648000D01*
X117559463Y-88692096D01*
X117559461Y-88692097D01*
X117559462Y-88692097D01*
X117371526Y-88817671D01*
X117371524Y-88817673D01*
X117308071Y-88860071D01*
X117265673Y-88923524D01*
X115001199Y-91188000D01*
X111447711Y-91188000D01*
X111330280Y-91070569D01*
X110949874Y-90913000D01*
X110538126Y-90913000D01*
X110157720Y-91070569D01*
X109866569Y-91361720D01*
X109709000Y-91742126D01*
X109709000Y-92153874D01*
X109866569Y-92534280D01*
X110157720Y-92825431D01*
X110538126Y-92983000D01*
X110949874Y-92983000D01*
X111330280Y-92825431D01*
X111447711Y-92708000D01*
X115241153Y-92708000D01*
X115316000Y-92722888D01*
X115390847Y-92708000D01*
X115390852Y-92708000D01*
X115612537Y-92663904D01*
X115805000Y-92535304D01*
X115805000Y-92661874D01*
X115962569Y-93042280D01*
X116080001Y-93159712D01*
X116080000Y-96832289D01*
X115962569Y-96949720D01*
X115805000Y-97330126D01*
X115805000Y-97741874D01*
X115962569Y-98122280D01*
X116253720Y-98413431D01*
X116634126Y-98571000D01*
X117045874Y-98571000D01*
X117426280Y-98413431D01*
X117717431Y-98122280D01*
X117875000Y-97741874D01*
X117875000Y-97330126D01*
X117717431Y-96949720D01*
X117600000Y-96832289D01*
X117600000Y-95362687D01*
X117627460Y-95390147D01*
X118136506Y-95601000D01*
X118620001Y-95601000D01*
X118620000Y-95816289D01*
X118502569Y-95933720D01*
X118345000Y-96314126D01*
X118345000Y-96725874D01*
X118502569Y-97106280D01*
X118793720Y-97397431D01*
X119174126Y-97555000D01*
X119345002Y-97555000D01*
X119345001Y-108854154D01*
X119330113Y-108929001D01*
X119345001Y-109003848D01*
X119345001Y-109003852D01*
X119389097Y-109225537D01*
X119557072Y-109476930D01*
X119620531Y-109519332D01*
X119869000Y-109767801D01*
X119869000Y-109933874D01*
X120026569Y-110314280D01*
X120317720Y-110605431D01*
X120698126Y-110763000D01*
X121109874Y-110763000D01*
X121490280Y-110605431D01*
X121781431Y-110314280D01*
X121939000Y-109933874D01*
X121939000Y-109522126D01*
X121781431Y-109141720D01*
X121490280Y-108850569D01*
X121109874Y-108693000D01*
X120943801Y-108693000D01*
X120865001Y-108614200D01*
X120865001Y-106699000D01*
X121109874Y-106699000D01*
X121490280Y-106541431D01*
X121781431Y-106250280D01*
X121939000Y-105869874D01*
X121939000Y-105458126D01*
X121781431Y-105077720D01*
X121664000Y-104960289D01*
X121664000Y-100115690D01*
X125007000Y-100115690D01*
X125007000Y-100806250D01*
X125165750Y-100965000D01*
X126365000Y-100965000D01*
X126365000Y-99765750D01*
X126206250Y-99607000D01*
X125515691Y-99607000D01*
X125282302Y-99703673D01*
X125103673Y-99882301D01*
X125007000Y-100115690D01*
X121664000Y-100115690D01*
X121664000Y-97500048D01*
X121766361Y-97500048D01*
X122146767Y-97342479D01*
X122437918Y-97051328D01*
X122595487Y-96670922D01*
X122595487Y-96259174D01*
X122437918Y-95878768D01*
X122146767Y-95587617D01*
X121933285Y-95499190D01*
X122196540Y-95390147D01*
X122586147Y-95000540D01*
X122797000Y-94491494D01*
X122797000Y-93940506D01*
X122793792Y-93932760D01*
X123014280Y-93841431D01*
X123106051Y-93749660D01*
X123027000Y-93940506D01*
X123027000Y-94491494D01*
X123237853Y-95000540D01*
X123627460Y-95390147D01*
X124136506Y-95601000D01*
X124687494Y-95601000D01*
X125196540Y-95390147D01*
X125586147Y-95000540D01*
X125797000Y-94491494D01*
X125797000Y-93940506D01*
X125586147Y-93431460D01*
X125196540Y-93041853D01*
X124737653Y-92851776D01*
X124737653Y-92580224D01*
X125196540Y-92390147D01*
X125586147Y-92000540D01*
X125797000Y-91491494D01*
X125797000Y-90940506D01*
X125586147Y-90431460D01*
X125196540Y-90041853D01*
X124687494Y-89831000D01*
X124136506Y-89831000D01*
X123828160Y-89958721D01*
X123971000Y-89613874D01*
X123971000Y-89202126D01*
X123813431Y-88821720D01*
X123522280Y-88530569D01*
X123141874Y-88373000D01*
X122954346Y-88373000D01*
X123221966Y-88105380D01*
X123547000Y-87320678D01*
X123547000Y-86471322D01*
X123221966Y-85686620D01*
X122621380Y-85086034D01*
X122565771Y-85063000D01*
X127789000Y-85063000D01*
X127789000Y-99790975D01*
X127701698Y-99703673D01*
X127468309Y-99607000D01*
X126777750Y-99607000D01*
X126619000Y-99765750D01*
X126619000Y-100965000D01*
X126639000Y-100965000D01*
X126639000Y-101219000D01*
X126619000Y-101219000D01*
X126619000Y-101239000D01*
X126365000Y-101239000D01*
X126365000Y-101219000D01*
X125165750Y-101219000D01*
X125007000Y-101377750D01*
X125007000Y-102068310D01*
X125103673Y-102301699D01*
X125282302Y-102480327D01*
X125443033Y-102546904D01*
X125421375Y-102561375D01*
X125093161Y-103052582D01*
X124977908Y-103632000D01*
X125093161Y-104211418D01*
X125421375Y-104702625D01*
X125719761Y-104902000D01*
X125421375Y-105101375D01*
X125093161Y-105592582D01*
X124977908Y-106172000D01*
X125093161Y-106751418D01*
X125421375Y-107242625D01*
X125719761Y-107442000D01*
X125421375Y-107641375D01*
X125093161Y-108132582D01*
X124977908Y-108712000D01*
X125093161Y-109291418D01*
X125421375Y-109782625D01*
X125719761Y-109982000D01*
X125421375Y-110181375D01*
X125093161Y-110672582D01*
X124977908Y-111252000D01*
X125093161Y-111831418D01*
X125421375Y-112322625D01*
X125719761Y-112522000D01*
X125421375Y-112721375D01*
X125093161Y-113212582D01*
X124977908Y-113792000D01*
X125093161Y-114371418D01*
X125421375Y-114862625D01*
X125912582Y-115190839D01*
X126345744Y-115277000D01*
X126638256Y-115277000D01*
X127071418Y-115190839D01*
X127562625Y-114862625D01*
X127789001Y-114523830D01*
X127789001Y-119661000D01*
X113481708Y-119661000D01*
X113542924Y-119635645D01*
X113971183Y-119245358D01*
X114217486Y-118720892D01*
X114096819Y-118491000D01*
X112903000Y-118491000D01*
X112903000Y-118511000D01*
X112649000Y-118511000D01*
X112649000Y-118491000D01*
X112629000Y-118491000D01*
X112629000Y-118237000D01*
X112649000Y-118237000D01*
X112649000Y-117043845D01*
X112903000Y-117043845D01*
X112903000Y-118237000D01*
X114096819Y-118237000D01*
X114217486Y-118007108D01*
X113971183Y-117482642D01*
X113542924Y-117092355D01*
X113132890Y-116922524D01*
X112903000Y-117043845D01*
X112649000Y-117043845D01*
X112419110Y-116922524D01*
X112009076Y-117092355D01*
X111580817Y-117482642D01*
X111519843Y-117612478D01*
X111306625Y-117293375D01*
X110815418Y-116965161D01*
X110700499Y-116942302D01*
X111736473Y-115906329D01*
X111799929Y-115863929D01*
X111967904Y-115612537D01*
X112012000Y-115390852D01*
X112012000Y-115390848D01*
X112026888Y-115316001D01*
X112012000Y-115241154D01*
X112012000Y-113090801D01*
X112307802Y-112795000D01*
X112473874Y-112795000D01*
X112854280Y-112637431D01*
X112921585Y-112570126D01*
X115805000Y-112570126D01*
X115805000Y-112981874D01*
X115962569Y-113362280D01*
X116253720Y-113653431D01*
X116634126Y-113811000D01*
X117045874Y-113811000D01*
X117426280Y-113653431D01*
X117573721Y-113505990D01*
X117644537Y-113491904D01*
X117895929Y-113323929D01*
X117938331Y-113260470D01*
X118848473Y-112350329D01*
X118911929Y-112307929D01*
X119079904Y-112056537D01*
X119124000Y-111834852D01*
X119124000Y-111834847D01*
X119138888Y-111760000D01*
X119124000Y-111685153D01*
X119124000Y-110939711D01*
X119241431Y-110822280D01*
X119399000Y-110441874D01*
X119399000Y-110030126D01*
X119241431Y-109649720D01*
X118950280Y-109358569D01*
X118569874Y-109201000D01*
X118158126Y-109201000D01*
X117777720Y-109358569D01*
X117486569Y-109649720D01*
X117329000Y-110030126D01*
X117329000Y-110441874D01*
X117486569Y-110822280D01*
X117604001Y-110939712D01*
X117604001Y-111177145D01*
X117604000Y-111177149D01*
X117604000Y-111445198D01*
X117231366Y-111817833D01*
X117045874Y-111741000D01*
X116634126Y-111741000D01*
X116253720Y-111898569D01*
X115962569Y-112189720D01*
X115805000Y-112570126D01*
X112921585Y-112570126D01*
X113145431Y-112346280D01*
X113303000Y-111965874D01*
X113303000Y-111554126D01*
X113145431Y-111173720D01*
X112854280Y-110882569D01*
X112473874Y-110725000D01*
X112062126Y-110725000D01*
X111681720Y-110882569D01*
X111390569Y-111173720D01*
X111233000Y-111554126D01*
X111233000Y-111720198D01*
X110767530Y-112185669D01*
X110704071Y-112228071D01*
X110536096Y-112479464D01*
X110492000Y-112701149D01*
X110492000Y-112701153D01*
X110477112Y-112776000D01*
X110492000Y-112850847D01*
X110492001Y-115001197D01*
X108426853Y-117066346D01*
X108275418Y-116965161D01*
X107842256Y-116879000D01*
X107549744Y-116879000D01*
X107116582Y-116965161D01*
X106625375Y-117293375D01*
X106426000Y-117591761D01*
X106226625Y-117293375D01*
X105735418Y-116965161D01*
X105302256Y-116879000D01*
X105009744Y-116879000D01*
X104576582Y-116965161D01*
X104085375Y-117293375D01*
X103886000Y-117591761D01*
X103686625Y-117293375D01*
X103195418Y-116965161D01*
X102762256Y-116879000D01*
X102469744Y-116879000D01*
X102036582Y-116965161D01*
X101545375Y-117293375D01*
X101533184Y-117311619D01*
X101524157Y-117266235D01*
X101383809Y-117056191D01*
X101173765Y-116915843D01*
X100926000Y-116866560D01*
X99226000Y-116866560D01*
X98978235Y-116915843D01*
X98768191Y-117056191D01*
X98627843Y-117266235D01*
X98578560Y-117514000D01*
X98578560Y-119214000D01*
X98627843Y-119461765D01*
X98760969Y-119661000D01*
X83539000Y-119661000D01*
X83539000Y-114015831D01*
X83765375Y-114354625D01*
X84256582Y-114682839D01*
X84689744Y-114769000D01*
X84982256Y-114769000D01*
X85415418Y-114682839D01*
X85906625Y-114354625D01*
X86080684Y-114094126D01*
X90405000Y-114094126D01*
X90405000Y-114505874D01*
X90562569Y-114886280D01*
X90853720Y-115177431D01*
X91234126Y-115335000D01*
X91645874Y-115335000D01*
X92026280Y-115177431D01*
X92317431Y-114886280D01*
X92475000Y-114505874D01*
X92475000Y-114094126D01*
X92317431Y-113713720D01*
X92200000Y-113596289D01*
X92200000Y-113078126D01*
X106661000Y-113078126D01*
X106661000Y-113489874D01*
X106818569Y-113870280D01*
X107109720Y-114161431D01*
X107490126Y-114319000D01*
X107901874Y-114319000D01*
X108282280Y-114161431D01*
X108573431Y-113870280D01*
X108731000Y-113489874D01*
X108731000Y-113288447D01*
X109180537Y-112838910D01*
X109241905Y-112797905D01*
X109404354Y-112554783D01*
X109410171Y-112525540D01*
X109589431Y-112346280D01*
X109747000Y-111965874D01*
X109747000Y-111554126D01*
X109589431Y-111173720D01*
X109298280Y-110882569D01*
X108917874Y-110725000D01*
X108506126Y-110725000D01*
X108125720Y-110882569D01*
X107834569Y-111173720D01*
X107677000Y-111554126D01*
X107677000Y-111965874D01*
X107764188Y-112176365D01*
X107691553Y-112249000D01*
X107490126Y-112249000D01*
X107109720Y-112406569D01*
X106818569Y-112697720D01*
X106661000Y-113078126D01*
X92200000Y-113078126D01*
X92200000Y-112775894D01*
X92534280Y-112637431D01*
X92825431Y-112346280D01*
X92983000Y-111965874D01*
X92983000Y-111554126D01*
X92825431Y-111173720D01*
X92534280Y-110882569D01*
X92153874Y-110725000D01*
X91742126Y-110725000D01*
X91361720Y-110882569D01*
X91070569Y-111173720D01*
X90913000Y-111554126D01*
X90913000Y-111706087D01*
X90892071Y-111720071D01*
X90724096Y-111971464D01*
X90680000Y-112193149D01*
X90680000Y-112193153D01*
X90665112Y-112268000D01*
X90680000Y-112342847D01*
X90680001Y-113596288D01*
X90562569Y-113713720D01*
X90405000Y-114094126D01*
X86080684Y-114094126D01*
X86234839Y-113863418D01*
X86350092Y-113284000D01*
X86234839Y-112704582D01*
X85906625Y-112213375D01*
X85608239Y-112014000D01*
X85906625Y-111814625D01*
X86234839Y-111323418D01*
X86350092Y-110744000D01*
X86234839Y-110164582D01*
X85906625Y-109673375D01*
X85608239Y-109474000D01*
X85906625Y-109274625D01*
X86234839Y-108783418D01*
X86350092Y-108204000D01*
X86234839Y-107624582D01*
X85906625Y-107133375D01*
X85608239Y-106934000D01*
X85906625Y-106734625D01*
X86234839Y-106243418D01*
X86350092Y-105664000D01*
X86252824Y-105175000D01*
X86565874Y-105175000D01*
X86611744Y-105156000D01*
X90182602Y-105156000D01*
X90197000Y-105228385D01*
X90197001Y-106607611D01*
X90182602Y-106680000D01*
X90239646Y-106966782D01*
X90335154Y-107109720D01*
X90402096Y-107209905D01*
X90463463Y-107250909D01*
X90913000Y-107700446D01*
X90913000Y-107901874D01*
X91070569Y-108282280D01*
X91361720Y-108573431D01*
X91742126Y-108731000D01*
X92153874Y-108731000D01*
X92534280Y-108573431D01*
X92793585Y-108314126D01*
X105645000Y-108314126D01*
X105645000Y-108725874D01*
X105802569Y-109106280D01*
X105916289Y-109220000D01*
X105802569Y-109333720D01*
X105645000Y-109714126D01*
X105645000Y-110125874D01*
X105802569Y-110506280D01*
X106093720Y-110797431D01*
X106474126Y-110955000D01*
X106885874Y-110955000D01*
X107266280Y-110797431D01*
X107557431Y-110506280D01*
X107715000Y-110125874D01*
X107715000Y-109714126D01*
X107557431Y-109333720D01*
X107443711Y-109220000D01*
X107557431Y-109106280D01*
X107715000Y-108725874D01*
X107715000Y-108314126D01*
X107557431Y-107933720D01*
X107266280Y-107642569D01*
X106898250Y-107490126D01*
X113265000Y-107490126D01*
X113265000Y-107901874D01*
X113422569Y-108282280D01*
X113713720Y-108573431D01*
X114094126Y-108731000D01*
X114505874Y-108731000D01*
X114886280Y-108573431D01*
X115177431Y-108282280D01*
X115335000Y-107901874D01*
X115335000Y-107735801D01*
X115630802Y-107440000D01*
X116644289Y-107440000D01*
X116761720Y-107557431D01*
X117142126Y-107715000D01*
X117553874Y-107715000D01*
X117934280Y-107557431D01*
X118225431Y-107266280D01*
X118383000Y-106885874D01*
X118383000Y-106474126D01*
X118225431Y-106093720D01*
X117934280Y-105802569D01*
X117553874Y-105645000D01*
X117142126Y-105645000D01*
X116761720Y-105802569D01*
X116644289Y-105920000D01*
X115390847Y-105920000D01*
X115316000Y-105905112D01*
X115241153Y-105920000D01*
X115241148Y-105920000D01*
X115019463Y-105964096D01*
X114768071Y-106132071D01*
X114725671Y-106195527D01*
X114260199Y-106661000D01*
X114094126Y-106661000D01*
X113713720Y-106818569D01*
X113422569Y-107109720D01*
X113265000Y-107490126D01*
X106898250Y-107490126D01*
X106885874Y-107485000D01*
X106474126Y-107485000D01*
X106093720Y-107642569D01*
X105802569Y-107933720D01*
X105645000Y-108314126D01*
X92793585Y-108314126D01*
X92825431Y-108282280D01*
X92983000Y-107901874D01*
X92983000Y-107490126D01*
X92825431Y-107109720D01*
X92534280Y-106818569D01*
X92153874Y-106661000D01*
X91952446Y-106661000D01*
X91667000Y-106375554D01*
X91667000Y-105674249D01*
X92026280Y-105525431D01*
X92317431Y-105234280D01*
X92475000Y-104853874D01*
X92475000Y-104442126D01*
X92317431Y-104061720D01*
X92026280Y-103770569D01*
X91645874Y-103613000D01*
X91234126Y-103613000D01*
X90853720Y-103770569D01*
X90562569Y-104061720D01*
X90405000Y-104442126D01*
X90405000Y-104624154D01*
X90402095Y-104626095D01*
X90239646Y-104869218D01*
X90197000Y-105083613D01*
X90197000Y-105083616D01*
X90182602Y-105156000D01*
X86611744Y-105156000D01*
X86946280Y-105017431D01*
X87237431Y-104726280D01*
X87395000Y-104345874D01*
X87395000Y-103934126D01*
X87237431Y-103553720D01*
X87120000Y-103436289D01*
X87120000Y-102107894D01*
X87454280Y-101969431D01*
X87521585Y-101902126D01*
X93453000Y-101902126D01*
X93453000Y-102313874D01*
X93610569Y-102694280D01*
X93901720Y-102985431D01*
X94282126Y-103143000D01*
X94693874Y-103143000D01*
X95074280Y-102985431D01*
X95365431Y-102694280D01*
X95514249Y-102335000D01*
X96215554Y-102335000D01*
X96293001Y-102412447D01*
X96293000Y-104067615D01*
X96278602Y-104140000D01*
X96293000Y-104212384D01*
X96293000Y-104212387D01*
X96335646Y-104426782D01*
X96498095Y-104669905D01*
X96559465Y-104710911D01*
X97517000Y-105668447D01*
X97517000Y-105869874D01*
X97674569Y-106250280D01*
X97965720Y-106541431D01*
X98346126Y-106699000D01*
X98757874Y-106699000D01*
X99138280Y-106541431D01*
X99429431Y-106250280D01*
X99587000Y-105869874D01*
X99587000Y-105458126D01*
X99429431Y-105077720D01*
X99138280Y-104786569D01*
X98757874Y-104629000D01*
X98556447Y-104629000D01*
X97763000Y-103835554D01*
X97763000Y-102918126D01*
X108185000Y-102918126D01*
X108185000Y-103329874D01*
X108342569Y-103710280D01*
X108633720Y-104001431D01*
X109014126Y-104159000D01*
X109425874Y-104159000D01*
X109806280Y-104001431D01*
X110097431Y-103710280D01*
X110255000Y-103329874D01*
X110255000Y-103163801D01*
X110550802Y-102868000D01*
X111564289Y-102868000D01*
X111681720Y-102985431D01*
X112062126Y-103143000D01*
X112473874Y-103143000D01*
X112854280Y-102985431D01*
X113145431Y-102694280D01*
X113230928Y-102487872D01*
X113586126Y-102635000D01*
X113997874Y-102635000D01*
X114378280Y-102477431D01*
X114669431Y-102186280D01*
X114827000Y-101805874D01*
X114827000Y-101639802D01*
X115355802Y-101111000D01*
X115521874Y-101111000D01*
X115902280Y-100953431D01*
X116193431Y-100662280D01*
X116351000Y-100281874D01*
X116351000Y-99870126D01*
X116193431Y-99489720D01*
X115902280Y-99198569D01*
X115521874Y-99041000D01*
X115110126Y-99041000D01*
X114729720Y-99198569D01*
X114438569Y-99489720D01*
X114281000Y-99870126D01*
X114281000Y-100036198D01*
X113752198Y-100565000D01*
X113586126Y-100565000D01*
X113205720Y-100722569D01*
X112914569Y-101013720D01*
X112829072Y-101220128D01*
X112473874Y-101073000D01*
X112062126Y-101073000D01*
X111681720Y-101230569D01*
X111564289Y-101348000D01*
X110310847Y-101348000D01*
X110236000Y-101333112D01*
X110161153Y-101348000D01*
X110161148Y-101348000D01*
X109939463Y-101392096D01*
X109688071Y-101560071D01*
X109645671Y-101623527D01*
X109180199Y-102089000D01*
X109014126Y-102089000D01*
X108633720Y-102246569D01*
X108342569Y-102537720D01*
X108185000Y-102918126D01*
X97763000Y-102918126D01*
X97763000Y-102180383D01*
X97777398Y-102107999D01*
X97763000Y-102035615D01*
X97763000Y-102035612D01*
X97720354Y-101821217D01*
X97557905Y-101578095D01*
X97496537Y-101537090D01*
X97090911Y-101131465D01*
X97049905Y-101070095D01*
X96806783Y-100907646D01*
X96592388Y-100865000D01*
X96592384Y-100865000D01*
X96520000Y-100850602D01*
X96447616Y-100865000D01*
X95068383Y-100865000D01*
X94995999Y-100850602D01*
X94923615Y-100865000D01*
X94923612Y-100865000D01*
X94709217Y-100907646D01*
X94466095Y-101070095D01*
X94464154Y-101073000D01*
X94282126Y-101073000D01*
X93901720Y-101230569D01*
X93610569Y-101521720D01*
X93453000Y-101902126D01*
X87521585Y-101902126D01*
X87745431Y-101678280D01*
X87903000Y-101297874D01*
X87903000Y-100886126D01*
X87745431Y-100505720D01*
X87454280Y-100214569D01*
X87073874Y-100057000D01*
X86662126Y-100057000D01*
X86281720Y-100214569D01*
X86277456Y-100218833D01*
X86234839Y-100004582D01*
X85906625Y-99513375D01*
X85608239Y-99314000D01*
X85906625Y-99114625D01*
X86234839Y-98623418D01*
X86350092Y-98044000D01*
X86234839Y-97464582D01*
X85906625Y-96973375D01*
X85888381Y-96961184D01*
X85933765Y-96952157D01*
X86143809Y-96811809D01*
X86284157Y-96601765D01*
X86333440Y-96354000D01*
X86333440Y-94654000D01*
X86284157Y-94406235D01*
X86143809Y-94196191D01*
X85933765Y-94055843D01*
X85686000Y-94006560D01*
X83986000Y-94006560D01*
X83738235Y-94055843D01*
X83539000Y-94188969D01*
X83539000Y-85063000D01*
X120258229Y-85063000D01*
X120202620Y-85086034D01*
G36*
X120620088Y-90244483D02*
X121412000Y-91036395D01*
X121426143Y-91022253D01*
X121605748Y-91201858D01*
X121591605Y-91216000D01*
X121605748Y-91230143D01*
X121426143Y-91409748D01*
X121412000Y-91395605D01*
X121397858Y-91409748D01*
X121218253Y-91230143D01*
X121232395Y-91216000D01*
X120440483Y-90424088D01*
X120199540Y-90492077D01*
X120014799Y-91011171D01*
X120042770Y-91561448D01*
X120199540Y-91939923D01*
X120344857Y-91980928D01*
X119240237Y-93085550D01*
X119196540Y-93041853D01*
X118687494Y-92831000D01*
X118136506Y-92831000D01*
X117736278Y-92996779D01*
X117875000Y-92661874D01*
X117875000Y-92492681D01*
X118136506Y-92601000D01*
X118687494Y-92601000D01*
X119196540Y-92390147D01*
X119586147Y-92000540D01*
X119797000Y-91491494D01*
X119797000Y-90940506D01*
X119586147Y-90431460D01*
X119322687Y-90168000D01*
X120641670Y-90168000D01*
X120620088Y-90244483D01*
X120620088Y-90244483D01*
G37*
X120620088Y-90244483D02*
X121412000Y-91036395D01*
X121426143Y-91022253D01*
X121605748Y-91201858D01*
X121591605Y-91216000D01*
X121605748Y-91230143D01*
X121426143Y-91409748D01*
X121412000Y-91395605D01*
X121397858Y-91409748D01*
X121218253Y-91230143D01*
X121232395Y-91216000D01*
X120440483Y-90424088D01*
X120199540Y-90492077D01*
X120014799Y-91011171D01*
X120042770Y-91561448D01*
X120199540Y-91939923D01*
X120344857Y-91980928D01*
X119240237Y-93085550D01*
X119196540Y-93041853D01*
X118687494Y-92831000D01*
X118136506Y-92831000D01*
X117736278Y-92996779D01*
X117875000Y-92661874D01*
X117875000Y-92492681D01*
X118136506Y-92601000D01*
X118687494Y-92601000D01*
X119196540Y-92390147D01*
X119586147Y-92000540D01*
X119797000Y-91491494D01*
X119797000Y-90940506D01*
X119586147Y-90431460D01*
X119322687Y-90168000D01*
X120641670Y-90168000D01*
X120620088Y-90244483D01*
G04 #@! TD*
M02*
