M48
;DRILL file {KiCad (5.0.2)-1} date 2019-03-06 11:20:22 PM
;FORMAT={3:3/ absolute / metric / suppress leading zeros}
FMAT,2
METRIC,TZ
T1C0.400
T2C1.000
T3C3.000
%
G90
G05
T1
X86360Y-104140
X86868Y-101092
X91440Y-104648
X91440Y-114300
X91948Y-107696
X91948Y-111760
X93980Y-95504
X94488Y-102108
X96520Y-95504
X98552Y-105664
X99568Y-102616
X101600Y-104648
X103124Y-101600
X103632Y-119380
X106680Y-108520
X106680Y-109920
X107696Y-113284
X108712Y-111760
X109220Y-103124
X110744Y-91948
X112268Y-102108
X112268Y-104648
X112268Y-111760
X113792Y-85344
X113792Y-101600
X114300Y-107696
X115316Y-100076
X116840Y-92456
X116840Y-97536
X116840Y-112776
X117348Y-106680
X117856Y-87884
X118364Y-110236
X119380Y-96520
X119380Y-107188
X120904Y-105664
X120904Y-109728
X121560Y-96465
X122428Y-92964
X122936Y-89408
X123703Y-92715
T2
X84836Y-95504
X84836Y-98044
X84836Y-100584
X84836Y-103124
X84836Y-105664
X84836Y-108204
X84836Y-110744
X84836Y-113284
X126492Y-101092
X126492Y-103632
X126492Y-106172
X126492Y-108712
X126492Y-111252
X126492Y-113792
X118412Y-91216
X118412Y-94216
X121412Y-91216
X121412Y-94216
X124412Y-91216
X124412Y-94216
X100076Y-118364
X102616Y-118364
X105156Y-118364
X107696Y-118364
X110236Y-118364
X112776Y-118364
T3
X121412Y-86896
T0
M30
