G04 #@! TF.GenerationSoftware,KiCad,Pcbnew,(5.0.2)-1*
G04 #@! TF.CreationDate,2019-03-06T23:20:25-07:00*
G04 #@! TF.ProjectId,Sensor_Board,53656e73-6f72-45f4-926f-6172642e6b69,rev?*
G04 #@! TF.SameCoordinates,Original*
G04 #@! TF.FileFunction,Soldermask,Bot*
G04 #@! TF.FilePolarity,Negative*
%FSLAX46Y46*%
G04 Gerber Fmt 4.6, Leading zero omitted, Abs format (unit mm)*
G04 Created by KiCad (PCBNEW (5.0.2)-1) date 2019-03-06 11:20:25 PM*
%MOMM*%
%LPD*%
G01*
G04 APERTURE LIST*
%ADD10C,0.100000*%
G04 APERTURE END LIST*
D10*
G36*
X112886442Y-117469518D02*
X112952627Y-117476037D01*
X113065853Y-117510384D01*
X113122467Y-117527557D01*
X113261087Y-117601652D01*
X113278991Y-117611222D01*
X113314729Y-117640552D01*
X113416186Y-117723814D01*
X113499448Y-117825271D01*
X113528778Y-117861009D01*
X113528779Y-117861011D01*
X113612443Y-118017533D01*
X113612443Y-118017534D01*
X113663963Y-118187373D01*
X113681359Y-118364000D01*
X113663963Y-118540627D01*
X113629616Y-118653853D01*
X113612443Y-118710467D01*
X113538348Y-118849087D01*
X113528778Y-118866991D01*
X113499448Y-118902729D01*
X113416186Y-119004186D01*
X113314729Y-119087448D01*
X113278991Y-119116778D01*
X113278989Y-119116779D01*
X113122467Y-119200443D01*
X113065853Y-119217616D01*
X112952627Y-119251963D01*
X112886443Y-119258481D01*
X112820260Y-119265000D01*
X112731740Y-119265000D01*
X112665557Y-119258481D01*
X112599373Y-119251963D01*
X112486147Y-119217616D01*
X112429533Y-119200443D01*
X112273011Y-119116779D01*
X112273009Y-119116778D01*
X112237271Y-119087448D01*
X112135814Y-119004186D01*
X112052552Y-118902729D01*
X112023222Y-118866991D01*
X112013652Y-118849087D01*
X111939557Y-118710467D01*
X111922384Y-118653853D01*
X111888037Y-118540627D01*
X111870641Y-118364000D01*
X111888037Y-118187373D01*
X111939557Y-118017534D01*
X111939557Y-118017533D01*
X112023221Y-117861011D01*
X112023222Y-117861009D01*
X112052552Y-117825271D01*
X112135814Y-117723814D01*
X112237271Y-117640552D01*
X112273009Y-117611222D01*
X112290913Y-117601652D01*
X112429533Y-117527557D01*
X112486147Y-117510384D01*
X112599373Y-117476037D01*
X112665558Y-117469518D01*
X112731740Y-117463000D01*
X112820260Y-117463000D01*
X112886442Y-117469518D01*
X112886442Y-117469518D01*
G37*
G36*
X107806442Y-117469518D02*
X107872627Y-117476037D01*
X107985853Y-117510384D01*
X108042467Y-117527557D01*
X108181087Y-117601652D01*
X108198991Y-117611222D01*
X108234729Y-117640552D01*
X108336186Y-117723814D01*
X108419448Y-117825271D01*
X108448778Y-117861009D01*
X108448779Y-117861011D01*
X108532443Y-118017533D01*
X108532443Y-118017534D01*
X108583963Y-118187373D01*
X108601359Y-118364000D01*
X108583963Y-118540627D01*
X108549616Y-118653853D01*
X108532443Y-118710467D01*
X108458348Y-118849087D01*
X108448778Y-118866991D01*
X108419448Y-118902729D01*
X108336186Y-119004186D01*
X108234729Y-119087448D01*
X108198991Y-119116778D01*
X108198989Y-119116779D01*
X108042467Y-119200443D01*
X107985853Y-119217616D01*
X107872627Y-119251963D01*
X107806443Y-119258481D01*
X107740260Y-119265000D01*
X107651740Y-119265000D01*
X107585557Y-119258481D01*
X107519373Y-119251963D01*
X107406147Y-119217616D01*
X107349533Y-119200443D01*
X107193011Y-119116779D01*
X107193009Y-119116778D01*
X107157271Y-119087448D01*
X107055814Y-119004186D01*
X106972552Y-118902729D01*
X106943222Y-118866991D01*
X106933652Y-118849087D01*
X106859557Y-118710467D01*
X106842384Y-118653853D01*
X106808037Y-118540627D01*
X106790641Y-118364000D01*
X106808037Y-118187373D01*
X106859557Y-118017534D01*
X106859557Y-118017533D01*
X106943221Y-117861011D01*
X106943222Y-117861009D01*
X106972552Y-117825271D01*
X107055814Y-117723814D01*
X107157271Y-117640552D01*
X107193009Y-117611222D01*
X107210913Y-117601652D01*
X107349533Y-117527557D01*
X107406147Y-117510384D01*
X107519373Y-117476037D01*
X107585558Y-117469518D01*
X107651740Y-117463000D01*
X107740260Y-117463000D01*
X107806442Y-117469518D01*
X107806442Y-117469518D01*
G37*
G36*
X105266442Y-117469518D02*
X105332627Y-117476037D01*
X105445853Y-117510384D01*
X105502467Y-117527557D01*
X105641087Y-117601652D01*
X105658991Y-117611222D01*
X105694729Y-117640552D01*
X105796186Y-117723814D01*
X105879448Y-117825271D01*
X105908778Y-117861009D01*
X105908779Y-117861011D01*
X105992443Y-118017533D01*
X105992443Y-118017534D01*
X106043963Y-118187373D01*
X106061359Y-118364000D01*
X106043963Y-118540627D01*
X106009616Y-118653853D01*
X105992443Y-118710467D01*
X105918348Y-118849087D01*
X105908778Y-118866991D01*
X105879448Y-118902729D01*
X105796186Y-119004186D01*
X105694729Y-119087448D01*
X105658991Y-119116778D01*
X105658989Y-119116779D01*
X105502467Y-119200443D01*
X105445853Y-119217616D01*
X105332627Y-119251963D01*
X105266443Y-119258481D01*
X105200260Y-119265000D01*
X105111740Y-119265000D01*
X105045557Y-119258481D01*
X104979373Y-119251963D01*
X104866147Y-119217616D01*
X104809533Y-119200443D01*
X104653011Y-119116779D01*
X104653009Y-119116778D01*
X104617271Y-119087448D01*
X104515814Y-119004186D01*
X104432552Y-118902729D01*
X104403222Y-118866991D01*
X104393652Y-118849087D01*
X104319557Y-118710467D01*
X104302384Y-118653853D01*
X104268037Y-118540627D01*
X104250641Y-118364000D01*
X104268037Y-118187373D01*
X104319557Y-118017534D01*
X104319557Y-118017533D01*
X104403221Y-117861011D01*
X104403222Y-117861009D01*
X104432552Y-117825271D01*
X104515814Y-117723814D01*
X104617271Y-117640552D01*
X104653009Y-117611222D01*
X104670913Y-117601652D01*
X104809533Y-117527557D01*
X104866147Y-117510384D01*
X104979373Y-117476037D01*
X105045558Y-117469518D01*
X105111740Y-117463000D01*
X105200260Y-117463000D01*
X105266442Y-117469518D01*
X105266442Y-117469518D01*
G37*
G36*
X102726442Y-117469518D02*
X102792627Y-117476037D01*
X102905853Y-117510384D01*
X102962467Y-117527557D01*
X103101087Y-117601652D01*
X103118991Y-117611222D01*
X103154729Y-117640552D01*
X103256186Y-117723814D01*
X103339448Y-117825271D01*
X103368778Y-117861009D01*
X103368779Y-117861011D01*
X103452443Y-118017533D01*
X103452443Y-118017534D01*
X103503963Y-118187373D01*
X103521359Y-118364000D01*
X103503963Y-118540627D01*
X103469616Y-118653853D01*
X103452443Y-118710467D01*
X103378348Y-118849087D01*
X103368778Y-118866991D01*
X103339448Y-118902729D01*
X103256186Y-119004186D01*
X103154729Y-119087448D01*
X103118991Y-119116778D01*
X103118989Y-119116779D01*
X102962467Y-119200443D01*
X102905853Y-119217616D01*
X102792627Y-119251963D01*
X102726443Y-119258481D01*
X102660260Y-119265000D01*
X102571740Y-119265000D01*
X102505557Y-119258481D01*
X102439373Y-119251963D01*
X102326147Y-119217616D01*
X102269533Y-119200443D01*
X102113011Y-119116779D01*
X102113009Y-119116778D01*
X102077271Y-119087448D01*
X101975814Y-119004186D01*
X101892552Y-118902729D01*
X101863222Y-118866991D01*
X101853652Y-118849087D01*
X101779557Y-118710467D01*
X101762384Y-118653853D01*
X101728037Y-118540627D01*
X101710641Y-118364000D01*
X101728037Y-118187373D01*
X101779557Y-118017534D01*
X101779557Y-118017533D01*
X101863221Y-117861011D01*
X101863222Y-117861009D01*
X101892552Y-117825271D01*
X101975814Y-117723814D01*
X102077271Y-117640552D01*
X102113009Y-117611222D01*
X102130913Y-117601652D01*
X102269533Y-117527557D01*
X102326147Y-117510384D01*
X102439373Y-117476037D01*
X102505558Y-117469518D01*
X102571740Y-117463000D01*
X102660260Y-117463000D01*
X102726442Y-117469518D01*
X102726442Y-117469518D01*
G37*
G36*
X100977000Y-119265000D02*
X99175000Y-119265000D01*
X99175000Y-117463000D01*
X100977000Y-117463000D01*
X100977000Y-119265000D01*
X100977000Y-119265000D01*
G37*
G36*
X110346442Y-117469518D02*
X110412627Y-117476037D01*
X110525853Y-117510384D01*
X110582467Y-117527557D01*
X110721087Y-117601652D01*
X110738991Y-117611222D01*
X110774729Y-117640552D01*
X110876186Y-117723814D01*
X110959448Y-117825271D01*
X110988778Y-117861009D01*
X110988779Y-117861011D01*
X111072443Y-118017533D01*
X111072443Y-118017534D01*
X111123963Y-118187373D01*
X111141359Y-118364000D01*
X111123963Y-118540627D01*
X111089616Y-118653853D01*
X111072443Y-118710467D01*
X110998348Y-118849087D01*
X110988778Y-118866991D01*
X110959448Y-118902729D01*
X110876186Y-119004186D01*
X110774729Y-119087448D01*
X110738991Y-119116778D01*
X110738989Y-119116779D01*
X110582467Y-119200443D01*
X110525853Y-119217616D01*
X110412627Y-119251963D01*
X110346443Y-119258481D01*
X110280260Y-119265000D01*
X110191740Y-119265000D01*
X110125557Y-119258481D01*
X110059373Y-119251963D01*
X109946147Y-119217616D01*
X109889533Y-119200443D01*
X109733011Y-119116779D01*
X109733009Y-119116778D01*
X109697271Y-119087448D01*
X109595814Y-119004186D01*
X109512552Y-118902729D01*
X109483222Y-118866991D01*
X109473652Y-118849087D01*
X109399557Y-118710467D01*
X109382384Y-118653853D01*
X109348037Y-118540627D01*
X109330641Y-118364000D01*
X109348037Y-118187373D01*
X109399557Y-118017534D01*
X109399557Y-118017533D01*
X109483221Y-117861011D01*
X109483222Y-117861009D01*
X109512552Y-117825271D01*
X109595814Y-117723814D01*
X109697271Y-117640552D01*
X109733009Y-117611222D01*
X109750913Y-117601652D01*
X109889533Y-117527557D01*
X109946147Y-117510384D01*
X110059373Y-117476037D01*
X110125558Y-117469518D01*
X110191740Y-117463000D01*
X110280260Y-117463000D01*
X110346442Y-117469518D01*
X110346442Y-117469518D01*
G37*
G36*
X126602442Y-112897518D02*
X126668627Y-112904037D01*
X126779049Y-112937533D01*
X126838467Y-112955557D01*
X126977087Y-113029652D01*
X126994991Y-113039222D01*
X127030729Y-113068552D01*
X127132186Y-113151814D01*
X127215448Y-113253271D01*
X127244778Y-113289009D01*
X127244779Y-113289011D01*
X127328443Y-113445533D01*
X127345616Y-113502147D01*
X127379963Y-113615373D01*
X127397359Y-113792000D01*
X127379963Y-113968627D01*
X127359289Y-114036779D01*
X127328443Y-114138467D01*
X127303570Y-114185000D01*
X127244778Y-114294991D01*
X127215448Y-114330729D01*
X127132186Y-114432186D01*
X127030729Y-114515448D01*
X126994991Y-114544778D01*
X126994989Y-114544779D01*
X126838467Y-114628443D01*
X126781853Y-114645616D01*
X126668627Y-114679963D01*
X126602443Y-114686481D01*
X126536260Y-114693000D01*
X126447740Y-114693000D01*
X126381557Y-114686481D01*
X126315373Y-114679963D01*
X126202147Y-114645616D01*
X126145533Y-114628443D01*
X125989011Y-114544779D01*
X125989009Y-114544778D01*
X125953271Y-114515448D01*
X125851814Y-114432186D01*
X125768552Y-114330729D01*
X125739222Y-114294991D01*
X125680430Y-114185000D01*
X125655557Y-114138467D01*
X125624711Y-114036779D01*
X125604037Y-113968627D01*
X125586641Y-113792000D01*
X125604037Y-113615373D01*
X125638384Y-113502147D01*
X125655557Y-113445533D01*
X125739221Y-113289011D01*
X125739222Y-113289009D01*
X125768552Y-113253271D01*
X125851814Y-113151814D01*
X125953271Y-113068552D01*
X125989009Y-113039222D01*
X126006913Y-113029652D01*
X126145533Y-112955557D01*
X126204951Y-112937533D01*
X126315373Y-112904037D01*
X126381558Y-112897518D01*
X126447740Y-112891000D01*
X126536260Y-112891000D01*
X126602442Y-112897518D01*
X126602442Y-112897518D01*
G37*
G36*
X84946443Y-112389519D02*
X85012627Y-112396037D01*
X85125853Y-112430384D01*
X85182467Y-112447557D01*
X85321087Y-112521652D01*
X85338991Y-112531222D01*
X85374729Y-112560552D01*
X85476186Y-112643814D01*
X85559448Y-112745271D01*
X85588778Y-112781009D01*
X85588779Y-112781011D01*
X85672443Y-112937533D01*
X85672443Y-112937534D01*
X85723963Y-113107373D01*
X85741359Y-113284000D01*
X85723963Y-113460627D01*
X85689616Y-113573853D01*
X85672443Y-113630467D01*
X85598348Y-113769087D01*
X85588778Y-113786991D01*
X85584667Y-113792000D01*
X85476186Y-113924186D01*
X85374729Y-114007448D01*
X85338991Y-114036778D01*
X85338989Y-114036779D01*
X85182467Y-114120443D01*
X85125853Y-114137616D01*
X85012627Y-114171963D01*
X84946442Y-114178482D01*
X84880260Y-114185000D01*
X84791740Y-114185000D01*
X84725558Y-114178482D01*
X84659373Y-114171963D01*
X84546147Y-114137616D01*
X84489533Y-114120443D01*
X84333011Y-114036779D01*
X84333009Y-114036778D01*
X84297271Y-114007448D01*
X84195814Y-113924186D01*
X84087333Y-113792000D01*
X84083222Y-113786991D01*
X84073652Y-113769087D01*
X83999557Y-113630467D01*
X83982384Y-113573853D01*
X83948037Y-113460627D01*
X83930641Y-113284000D01*
X83948037Y-113107373D01*
X83999557Y-112937534D01*
X83999557Y-112937533D01*
X84083221Y-112781011D01*
X84083222Y-112781009D01*
X84112552Y-112745271D01*
X84195814Y-112643814D01*
X84297271Y-112560552D01*
X84333009Y-112531222D01*
X84350913Y-112521652D01*
X84489533Y-112447557D01*
X84546147Y-112430384D01*
X84659373Y-112396037D01*
X84725557Y-112389519D01*
X84791740Y-112383000D01*
X84880260Y-112383000D01*
X84946443Y-112389519D01*
X84946443Y-112389519D01*
G37*
G36*
X126602443Y-110357519D02*
X126668627Y-110364037D01*
X126779049Y-110397533D01*
X126838467Y-110415557D01*
X126977087Y-110489652D01*
X126994991Y-110499222D01*
X127030729Y-110528552D01*
X127132186Y-110611814D01*
X127215448Y-110713271D01*
X127244778Y-110749009D01*
X127244779Y-110749011D01*
X127328443Y-110905533D01*
X127345616Y-110962147D01*
X127379963Y-111075373D01*
X127397359Y-111252000D01*
X127379963Y-111428627D01*
X127359289Y-111496779D01*
X127328443Y-111598467D01*
X127303570Y-111645000D01*
X127244778Y-111754991D01*
X127215448Y-111790729D01*
X127132186Y-111892186D01*
X127030729Y-111975448D01*
X126994991Y-112004778D01*
X126994989Y-112004779D01*
X126838467Y-112088443D01*
X126781853Y-112105616D01*
X126668627Y-112139963D01*
X126602443Y-112146481D01*
X126536260Y-112153000D01*
X126447740Y-112153000D01*
X126381557Y-112146481D01*
X126315373Y-112139963D01*
X126202147Y-112105616D01*
X126145533Y-112088443D01*
X125989011Y-112004779D01*
X125989009Y-112004778D01*
X125953271Y-111975448D01*
X125851814Y-111892186D01*
X125768552Y-111790729D01*
X125739222Y-111754991D01*
X125680430Y-111645000D01*
X125655557Y-111598467D01*
X125624711Y-111496779D01*
X125604037Y-111428627D01*
X125586641Y-111252000D01*
X125604037Y-111075373D01*
X125638384Y-110962147D01*
X125655557Y-110905533D01*
X125739221Y-110749011D01*
X125739222Y-110749009D01*
X125768552Y-110713271D01*
X125851814Y-110611814D01*
X125953271Y-110528552D01*
X125989009Y-110499222D01*
X126006913Y-110489652D01*
X126145533Y-110415557D01*
X126204951Y-110397533D01*
X126315373Y-110364037D01*
X126381557Y-110357519D01*
X126447740Y-110351000D01*
X126536260Y-110351000D01*
X126602443Y-110357519D01*
X126602443Y-110357519D01*
G37*
G36*
X84946443Y-109849519D02*
X85012627Y-109856037D01*
X85125853Y-109890384D01*
X85182467Y-109907557D01*
X85321087Y-109981652D01*
X85338991Y-109991222D01*
X85374729Y-110020552D01*
X85476186Y-110103814D01*
X85559448Y-110205271D01*
X85588778Y-110241009D01*
X85588779Y-110241011D01*
X85672443Y-110397533D01*
X85672443Y-110397534D01*
X85723963Y-110567373D01*
X85741359Y-110744000D01*
X85723963Y-110920627D01*
X85689616Y-111033853D01*
X85672443Y-111090467D01*
X85598348Y-111229087D01*
X85588778Y-111246991D01*
X85584667Y-111252000D01*
X85476186Y-111384186D01*
X85374729Y-111467448D01*
X85338991Y-111496778D01*
X85338989Y-111496779D01*
X85182467Y-111580443D01*
X85125853Y-111597616D01*
X85012627Y-111631963D01*
X84946443Y-111638481D01*
X84880260Y-111645000D01*
X84791740Y-111645000D01*
X84725557Y-111638481D01*
X84659373Y-111631963D01*
X84546147Y-111597616D01*
X84489533Y-111580443D01*
X84333011Y-111496779D01*
X84333009Y-111496778D01*
X84297271Y-111467448D01*
X84195814Y-111384186D01*
X84087333Y-111252000D01*
X84083222Y-111246991D01*
X84073652Y-111229087D01*
X83999557Y-111090467D01*
X83982384Y-111033853D01*
X83948037Y-110920627D01*
X83930641Y-110744000D01*
X83948037Y-110567373D01*
X83999557Y-110397534D01*
X83999557Y-110397533D01*
X84083221Y-110241011D01*
X84083222Y-110241009D01*
X84112552Y-110205271D01*
X84195814Y-110103814D01*
X84297271Y-110020552D01*
X84333009Y-109991222D01*
X84350913Y-109981652D01*
X84489533Y-109907557D01*
X84546147Y-109890384D01*
X84659373Y-109856037D01*
X84725557Y-109849519D01*
X84791740Y-109843000D01*
X84880260Y-109843000D01*
X84946443Y-109849519D01*
X84946443Y-109849519D01*
G37*
G36*
X126602443Y-107817519D02*
X126668627Y-107824037D01*
X126779049Y-107857533D01*
X126838467Y-107875557D01*
X126977087Y-107949652D01*
X126994991Y-107959222D01*
X127030729Y-107988552D01*
X127132186Y-108071814D01*
X127215448Y-108173271D01*
X127244778Y-108209009D01*
X127244779Y-108209011D01*
X127328443Y-108365533D01*
X127345616Y-108422147D01*
X127379963Y-108535373D01*
X127397359Y-108712000D01*
X127379963Y-108888627D01*
X127359289Y-108956779D01*
X127328443Y-109058467D01*
X127303570Y-109105000D01*
X127244778Y-109214991D01*
X127215448Y-109250729D01*
X127132186Y-109352186D01*
X127030729Y-109435448D01*
X126994991Y-109464778D01*
X126994989Y-109464779D01*
X126838467Y-109548443D01*
X126781853Y-109565616D01*
X126668627Y-109599963D01*
X126602442Y-109606482D01*
X126536260Y-109613000D01*
X126447740Y-109613000D01*
X126381558Y-109606482D01*
X126315373Y-109599963D01*
X126202147Y-109565616D01*
X126145533Y-109548443D01*
X125989011Y-109464779D01*
X125989009Y-109464778D01*
X125953271Y-109435448D01*
X125851814Y-109352186D01*
X125768552Y-109250729D01*
X125739222Y-109214991D01*
X125680430Y-109105000D01*
X125655557Y-109058467D01*
X125624711Y-108956779D01*
X125604037Y-108888627D01*
X125586641Y-108712000D01*
X125604037Y-108535373D01*
X125638384Y-108422147D01*
X125655557Y-108365533D01*
X125739221Y-108209011D01*
X125739222Y-108209009D01*
X125768552Y-108173271D01*
X125851814Y-108071814D01*
X125953271Y-107988552D01*
X125989009Y-107959222D01*
X126006913Y-107949652D01*
X126145533Y-107875557D01*
X126204951Y-107857533D01*
X126315373Y-107824037D01*
X126381557Y-107817519D01*
X126447740Y-107811000D01*
X126536260Y-107811000D01*
X126602443Y-107817519D01*
X126602443Y-107817519D01*
G37*
G36*
X84946442Y-107309518D02*
X85012627Y-107316037D01*
X85125853Y-107350384D01*
X85182467Y-107367557D01*
X85321087Y-107441652D01*
X85338991Y-107451222D01*
X85374729Y-107480552D01*
X85476186Y-107563814D01*
X85559448Y-107665271D01*
X85588778Y-107701009D01*
X85588779Y-107701011D01*
X85672443Y-107857533D01*
X85672443Y-107857534D01*
X85723963Y-108027373D01*
X85741359Y-108204000D01*
X85723963Y-108380627D01*
X85689616Y-108493853D01*
X85672443Y-108550467D01*
X85598348Y-108689087D01*
X85588778Y-108706991D01*
X85584667Y-108712000D01*
X85476186Y-108844186D01*
X85374729Y-108927448D01*
X85338991Y-108956778D01*
X85338989Y-108956779D01*
X85182467Y-109040443D01*
X85125853Y-109057616D01*
X85012627Y-109091963D01*
X84946443Y-109098481D01*
X84880260Y-109105000D01*
X84791740Y-109105000D01*
X84725557Y-109098481D01*
X84659373Y-109091963D01*
X84546147Y-109057616D01*
X84489533Y-109040443D01*
X84333011Y-108956779D01*
X84333009Y-108956778D01*
X84297271Y-108927448D01*
X84195814Y-108844186D01*
X84087333Y-108712000D01*
X84083222Y-108706991D01*
X84073652Y-108689087D01*
X83999557Y-108550467D01*
X83982384Y-108493853D01*
X83948037Y-108380627D01*
X83930641Y-108204000D01*
X83948037Y-108027373D01*
X83999557Y-107857534D01*
X83999557Y-107857533D01*
X84083221Y-107701011D01*
X84083222Y-107701009D01*
X84112552Y-107665271D01*
X84195814Y-107563814D01*
X84297271Y-107480552D01*
X84333009Y-107451222D01*
X84350913Y-107441652D01*
X84489533Y-107367557D01*
X84546147Y-107350384D01*
X84659373Y-107316037D01*
X84725558Y-107309518D01*
X84791740Y-107303000D01*
X84880260Y-107303000D01*
X84946442Y-107309518D01*
X84946442Y-107309518D01*
G37*
G36*
X126602443Y-105277519D02*
X126668627Y-105284037D01*
X126779049Y-105317533D01*
X126838467Y-105335557D01*
X126977087Y-105409652D01*
X126994991Y-105419222D01*
X127030729Y-105448552D01*
X127132186Y-105531814D01*
X127215448Y-105633271D01*
X127244778Y-105669009D01*
X127244779Y-105669011D01*
X127328443Y-105825533D01*
X127345616Y-105882147D01*
X127379963Y-105995373D01*
X127397359Y-106172000D01*
X127379963Y-106348627D01*
X127359289Y-106416779D01*
X127328443Y-106518467D01*
X127303570Y-106565000D01*
X127244778Y-106674991D01*
X127215448Y-106710729D01*
X127132186Y-106812186D01*
X127030729Y-106895448D01*
X126994991Y-106924778D01*
X126994989Y-106924779D01*
X126838467Y-107008443D01*
X126781853Y-107025616D01*
X126668627Y-107059963D01*
X126602443Y-107066481D01*
X126536260Y-107073000D01*
X126447740Y-107073000D01*
X126381557Y-107066481D01*
X126315373Y-107059963D01*
X126202147Y-107025616D01*
X126145533Y-107008443D01*
X125989011Y-106924779D01*
X125989009Y-106924778D01*
X125953271Y-106895448D01*
X125851814Y-106812186D01*
X125768552Y-106710729D01*
X125739222Y-106674991D01*
X125680430Y-106565000D01*
X125655557Y-106518467D01*
X125624711Y-106416779D01*
X125604037Y-106348627D01*
X125586641Y-106172000D01*
X125604037Y-105995373D01*
X125638384Y-105882147D01*
X125655557Y-105825533D01*
X125739221Y-105669011D01*
X125739222Y-105669009D01*
X125768552Y-105633271D01*
X125851814Y-105531814D01*
X125953271Y-105448552D01*
X125989009Y-105419222D01*
X126006913Y-105409652D01*
X126145533Y-105335557D01*
X126204951Y-105317533D01*
X126315373Y-105284037D01*
X126381557Y-105277519D01*
X126447740Y-105271000D01*
X126536260Y-105271000D01*
X126602443Y-105277519D01*
X126602443Y-105277519D01*
G37*
G36*
X84946442Y-104769518D02*
X85012627Y-104776037D01*
X85125853Y-104810384D01*
X85182467Y-104827557D01*
X85321087Y-104901652D01*
X85338991Y-104911222D01*
X85374729Y-104940552D01*
X85476186Y-105023814D01*
X85559448Y-105125271D01*
X85588778Y-105161009D01*
X85588779Y-105161011D01*
X85672443Y-105317533D01*
X85672443Y-105317534D01*
X85723963Y-105487373D01*
X85741359Y-105664000D01*
X85723963Y-105840627D01*
X85689616Y-105953853D01*
X85672443Y-106010467D01*
X85598348Y-106149087D01*
X85588778Y-106166991D01*
X85584667Y-106172000D01*
X85476186Y-106304186D01*
X85374729Y-106387448D01*
X85338991Y-106416778D01*
X85338989Y-106416779D01*
X85182467Y-106500443D01*
X85125853Y-106517616D01*
X85012627Y-106551963D01*
X84946442Y-106558482D01*
X84880260Y-106565000D01*
X84791740Y-106565000D01*
X84725558Y-106558482D01*
X84659373Y-106551963D01*
X84546147Y-106517616D01*
X84489533Y-106500443D01*
X84333011Y-106416779D01*
X84333009Y-106416778D01*
X84297271Y-106387448D01*
X84195814Y-106304186D01*
X84087333Y-106172000D01*
X84083222Y-106166991D01*
X84073652Y-106149087D01*
X83999557Y-106010467D01*
X83982384Y-105953853D01*
X83948037Y-105840627D01*
X83930641Y-105664000D01*
X83948037Y-105487373D01*
X83999557Y-105317534D01*
X83999557Y-105317533D01*
X84083221Y-105161011D01*
X84083222Y-105161009D01*
X84112552Y-105125271D01*
X84195814Y-105023814D01*
X84297271Y-104940552D01*
X84333009Y-104911222D01*
X84350913Y-104901652D01*
X84489533Y-104827557D01*
X84546147Y-104810384D01*
X84659373Y-104776037D01*
X84725558Y-104769518D01*
X84791740Y-104763000D01*
X84880260Y-104763000D01*
X84946442Y-104769518D01*
X84946442Y-104769518D01*
G37*
G36*
X126602443Y-102737519D02*
X126668627Y-102744037D01*
X126779049Y-102777533D01*
X126838467Y-102795557D01*
X126977087Y-102869652D01*
X126994991Y-102879222D01*
X127030729Y-102908552D01*
X127132186Y-102991814D01*
X127215448Y-103093271D01*
X127244778Y-103129009D01*
X127244779Y-103129011D01*
X127328443Y-103285533D01*
X127345616Y-103342147D01*
X127379963Y-103455373D01*
X127397359Y-103632000D01*
X127379963Y-103808627D01*
X127359289Y-103876779D01*
X127328443Y-103978467D01*
X127303570Y-104025000D01*
X127244778Y-104134991D01*
X127215448Y-104170729D01*
X127132186Y-104272186D01*
X127030729Y-104355448D01*
X126994991Y-104384778D01*
X126994989Y-104384779D01*
X126838467Y-104468443D01*
X126781853Y-104485616D01*
X126668627Y-104519963D01*
X126602443Y-104526481D01*
X126536260Y-104533000D01*
X126447740Y-104533000D01*
X126381557Y-104526481D01*
X126315373Y-104519963D01*
X126202147Y-104485616D01*
X126145533Y-104468443D01*
X125989011Y-104384779D01*
X125989009Y-104384778D01*
X125953271Y-104355448D01*
X125851814Y-104272186D01*
X125768552Y-104170729D01*
X125739222Y-104134991D01*
X125680430Y-104025000D01*
X125655557Y-103978467D01*
X125624711Y-103876779D01*
X125604037Y-103808627D01*
X125586641Y-103632000D01*
X125604037Y-103455373D01*
X125638384Y-103342147D01*
X125655557Y-103285533D01*
X125739221Y-103129011D01*
X125739222Y-103129009D01*
X125768552Y-103093271D01*
X125851814Y-102991814D01*
X125953271Y-102908552D01*
X125989009Y-102879222D01*
X126006913Y-102869652D01*
X126145533Y-102795557D01*
X126204951Y-102777533D01*
X126315373Y-102744037D01*
X126381557Y-102737519D01*
X126447740Y-102731000D01*
X126536260Y-102731000D01*
X126602443Y-102737519D01*
X126602443Y-102737519D01*
G37*
G36*
X84946443Y-102229519D02*
X85012627Y-102236037D01*
X85125853Y-102270384D01*
X85182467Y-102287557D01*
X85321087Y-102361652D01*
X85338991Y-102371222D01*
X85374729Y-102400552D01*
X85476186Y-102483814D01*
X85559448Y-102585271D01*
X85588778Y-102621009D01*
X85588779Y-102621011D01*
X85672443Y-102777533D01*
X85672443Y-102777534D01*
X85723963Y-102947373D01*
X85741359Y-103124000D01*
X85723963Y-103300627D01*
X85689616Y-103413853D01*
X85672443Y-103470467D01*
X85598348Y-103609087D01*
X85588778Y-103626991D01*
X85584667Y-103632000D01*
X85476186Y-103764186D01*
X85374729Y-103847448D01*
X85338991Y-103876778D01*
X85338989Y-103876779D01*
X85182467Y-103960443D01*
X85125853Y-103977616D01*
X85012627Y-104011963D01*
X84946443Y-104018481D01*
X84880260Y-104025000D01*
X84791740Y-104025000D01*
X84725557Y-104018481D01*
X84659373Y-104011963D01*
X84546147Y-103977616D01*
X84489533Y-103960443D01*
X84333011Y-103876779D01*
X84333009Y-103876778D01*
X84297271Y-103847448D01*
X84195814Y-103764186D01*
X84087333Y-103632000D01*
X84083222Y-103626991D01*
X84073652Y-103609087D01*
X83999557Y-103470467D01*
X83982384Y-103413853D01*
X83948037Y-103300627D01*
X83930641Y-103124000D01*
X83948037Y-102947373D01*
X83999557Y-102777534D01*
X83999557Y-102777533D01*
X84083221Y-102621011D01*
X84083222Y-102621009D01*
X84112552Y-102585271D01*
X84195814Y-102483814D01*
X84297271Y-102400552D01*
X84333009Y-102371222D01*
X84350913Y-102361652D01*
X84489533Y-102287557D01*
X84546147Y-102270384D01*
X84659373Y-102236037D01*
X84725557Y-102229519D01*
X84791740Y-102223000D01*
X84880260Y-102223000D01*
X84946443Y-102229519D01*
X84946443Y-102229519D01*
G37*
G36*
X127393000Y-101993000D02*
X125591000Y-101993000D01*
X125591000Y-100191000D01*
X127393000Y-100191000D01*
X127393000Y-101993000D01*
X127393000Y-101993000D01*
G37*
G36*
X84946442Y-99689518D02*
X85012627Y-99696037D01*
X85125853Y-99730384D01*
X85182467Y-99747557D01*
X85321087Y-99821652D01*
X85338991Y-99831222D01*
X85374729Y-99860552D01*
X85476186Y-99943814D01*
X85559448Y-100045271D01*
X85588778Y-100081009D01*
X85588779Y-100081011D01*
X85672443Y-100237533D01*
X85672443Y-100237534D01*
X85723963Y-100407373D01*
X85741359Y-100584000D01*
X85723963Y-100760627D01*
X85689616Y-100873853D01*
X85672443Y-100930467D01*
X85598348Y-101069087D01*
X85588778Y-101086991D01*
X85559448Y-101122729D01*
X85476186Y-101224186D01*
X85374729Y-101307448D01*
X85338991Y-101336778D01*
X85338989Y-101336779D01*
X85182467Y-101420443D01*
X85125853Y-101437616D01*
X85012627Y-101471963D01*
X84946443Y-101478481D01*
X84880260Y-101485000D01*
X84791740Y-101485000D01*
X84725557Y-101478481D01*
X84659373Y-101471963D01*
X84546147Y-101437616D01*
X84489533Y-101420443D01*
X84333011Y-101336779D01*
X84333009Y-101336778D01*
X84297271Y-101307448D01*
X84195814Y-101224186D01*
X84112552Y-101122729D01*
X84083222Y-101086991D01*
X84073652Y-101069087D01*
X83999557Y-100930467D01*
X83982384Y-100873853D01*
X83948037Y-100760627D01*
X83930641Y-100584000D01*
X83948037Y-100407373D01*
X83999557Y-100237534D01*
X83999557Y-100237533D01*
X84083221Y-100081011D01*
X84083222Y-100081009D01*
X84112552Y-100045271D01*
X84195814Y-99943814D01*
X84297271Y-99860552D01*
X84333009Y-99831222D01*
X84350913Y-99821652D01*
X84489533Y-99747557D01*
X84546147Y-99730384D01*
X84659373Y-99696037D01*
X84725558Y-99689518D01*
X84791740Y-99683000D01*
X84880260Y-99683000D01*
X84946442Y-99689518D01*
X84946442Y-99689518D01*
G37*
G36*
X84946443Y-97149519D02*
X85012627Y-97156037D01*
X85125853Y-97190384D01*
X85182467Y-97207557D01*
X85321087Y-97281652D01*
X85338991Y-97291222D01*
X85374729Y-97320552D01*
X85476186Y-97403814D01*
X85559448Y-97505271D01*
X85588778Y-97541009D01*
X85588779Y-97541011D01*
X85672443Y-97697533D01*
X85672443Y-97697534D01*
X85723963Y-97867373D01*
X85741359Y-98044000D01*
X85723963Y-98220627D01*
X85689616Y-98333853D01*
X85672443Y-98390467D01*
X85598348Y-98529087D01*
X85588778Y-98546991D01*
X85559448Y-98582729D01*
X85476186Y-98684186D01*
X85374729Y-98767448D01*
X85338991Y-98796778D01*
X85338989Y-98796779D01*
X85182467Y-98880443D01*
X85125853Y-98897616D01*
X85012627Y-98931963D01*
X84946443Y-98938481D01*
X84880260Y-98945000D01*
X84791740Y-98945000D01*
X84725558Y-98938482D01*
X84659373Y-98931963D01*
X84546147Y-98897616D01*
X84489533Y-98880443D01*
X84333011Y-98796779D01*
X84333009Y-98796778D01*
X84297271Y-98767448D01*
X84195814Y-98684186D01*
X84112552Y-98582729D01*
X84083222Y-98546991D01*
X84073652Y-98529087D01*
X83999557Y-98390467D01*
X83982384Y-98333853D01*
X83948037Y-98220627D01*
X83930641Y-98044000D01*
X83948037Y-97867373D01*
X83999557Y-97697534D01*
X83999557Y-97697533D01*
X84083221Y-97541011D01*
X84083222Y-97541009D01*
X84112552Y-97505271D01*
X84195814Y-97403814D01*
X84297271Y-97320552D01*
X84333009Y-97291222D01*
X84350913Y-97281652D01*
X84489533Y-97207557D01*
X84546147Y-97190384D01*
X84659373Y-97156037D01*
X84725557Y-97149519D01*
X84791740Y-97143000D01*
X84880260Y-97143000D01*
X84946443Y-97149519D01*
X84946443Y-97149519D01*
G37*
G36*
X85737000Y-96405000D02*
X83935000Y-96405000D01*
X83935000Y-94603000D01*
X85737000Y-94603000D01*
X85737000Y-96405000D01*
X85737000Y-96405000D01*
G37*
G36*
X118645643Y-93445781D02*
X118791415Y-93506162D01*
X118922611Y-93593824D01*
X119034176Y-93705389D01*
X119121838Y-93836585D01*
X119182219Y-93982357D01*
X119213000Y-94137107D01*
X119213000Y-94294893D01*
X119182219Y-94449643D01*
X119121838Y-94595415D01*
X119034176Y-94726611D01*
X118922611Y-94838176D01*
X118791415Y-94925838D01*
X118645643Y-94986219D01*
X118490893Y-95017000D01*
X118333107Y-95017000D01*
X118178357Y-94986219D01*
X118032585Y-94925838D01*
X117901389Y-94838176D01*
X117789824Y-94726611D01*
X117702162Y-94595415D01*
X117641781Y-94449643D01*
X117611000Y-94294893D01*
X117611000Y-94137107D01*
X117641781Y-93982357D01*
X117702162Y-93836585D01*
X117789824Y-93705389D01*
X117901389Y-93593824D01*
X118032585Y-93506162D01*
X118178357Y-93445781D01*
X118333107Y-93415000D01*
X118490893Y-93415000D01*
X118645643Y-93445781D01*
X118645643Y-93445781D01*
G37*
G36*
X121645643Y-93445781D02*
X121791415Y-93506162D01*
X121922611Y-93593824D01*
X122034176Y-93705389D01*
X122121838Y-93836585D01*
X122182219Y-93982357D01*
X122213000Y-94137107D01*
X122213000Y-94294893D01*
X122182219Y-94449643D01*
X122121838Y-94595415D01*
X122034176Y-94726611D01*
X121922611Y-94838176D01*
X121791415Y-94925838D01*
X121645643Y-94986219D01*
X121490893Y-95017000D01*
X121333107Y-95017000D01*
X121178357Y-94986219D01*
X121032585Y-94925838D01*
X120901389Y-94838176D01*
X120789824Y-94726611D01*
X120702162Y-94595415D01*
X120641781Y-94449643D01*
X120611000Y-94294893D01*
X120611000Y-94137107D01*
X120641781Y-93982357D01*
X120702162Y-93836585D01*
X120789824Y-93705389D01*
X120901389Y-93593824D01*
X121032585Y-93506162D01*
X121178357Y-93445781D01*
X121333107Y-93415000D01*
X121490893Y-93415000D01*
X121645643Y-93445781D01*
X121645643Y-93445781D01*
G37*
G36*
X124645643Y-93445781D02*
X124791415Y-93506162D01*
X124922611Y-93593824D01*
X125034176Y-93705389D01*
X125121838Y-93836585D01*
X125182219Y-93982357D01*
X125213000Y-94137107D01*
X125213000Y-94294893D01*
X125182219Y-94449643D01*
X125121838Y-94595415D01*
X125034176Y-94726611D01*
X124922611Y-94838176D01*
X124791415Y-94925838D01*
X124645643Y-94986219D01*
X124490893Y-95017000D01*
X124333107Y-95017000D01*
X124178357Y-94986219D01*
X124032585Y-94925838D01*
X123901389Y-94838176D01*
X123789824Y-94726611D01*
X123702162Y-94595415D01*
X123641781Y-94449643D01*
X123611000Y-94294893D01*
X123611000Y-94137107D01*
X123641781Y-93982357D01*
X123702162Y-93836585D01*
X123789824Y-93705389D01*
X123901389Y-93593824D01*
X124032585Y-93506162D01*
X124178357Y-93445781D01*
X124333107Y-93415000D01*
X124490893Y-93415000D01*
X124645643Y-93445781D01*
X124645643Y-93445781D01*
G37*
G36*
X118645643Y-90445781D02*
X118791415Y-90506162D01*
X118922611Y-90593824D01*
X119034176Y-90705389D01*
X119121838Y-90836585D01*
X119182219Y-90982357D01*
X119213000Y-91137107D01*
X119213000Y-91294893D01*
X119182219Y-91449643D01*
X119121838Y-91595415D01*
X119034176Y-91726611D01*
X118922611Y-91838176D01*
X118791415Y-91925838D01*
X118645643Y-91986219D01*
X118490893Y-92017000D01*
X118333107Y-92017000D01*
X118178357Y-91986219D01*
X118032585Y-91925838D01*
X117901389Y-91838176D01*
X117789824Y-91726611D01*
X117702162Y-91595415D01*
X117641781Y-91449643D01*
X117611000Y-91294893D01*
X117611000Y-91137107D01*
X117641781Y-90982357D01*
X117702162Y-90836585D01*
X117789824Y-90705389D01*
X117901389Y-90593824D01*
X118032585Y-90506162D01*
X118178357Y-90445781D01*
X118333107Y-90415000D01*
X118490893Y-90415000D01*
X118645643Y-90445781D01*
X118645643Y-90445781D01*
G37*
G36*
X121645643Y-90445781D02*
X121791415Y-90506162D01*
X121922611Y-90593824D01*
X122034176Y-90705389D01*
X122121838Y-90836585D01*
X122182219Y-90982357D01*
X122213000Y-91137107D01*
X122213000Y-91294893D01*
X122182219Y-91449643D01*
X122121838Y-91595415D01*
X122034176Y-91726611D01*
X121922611Y-91838176D01*
X121791415Y-91925838D01*
X121645643Y-91986219D01*
X121490893Y-92017000D01*
X121333107Y-92017000D01*
X121178357Y-91986219D01*
X121032585Y-91925838D01*
X120901389Y-91838176D01*
X120789824Y-91726611D01*
X120702162Y-91595415D01*
X120641781Y-91449643D01*
X120611000Y-91294893D01*
X120611000Y-91137107D01*
X120641781Y-90982357D01*
X120702162Y-90836585D01*
X120789824Y-90705389D01*
X120901389Y-90593824D01*
X121032585Y-90506162D01*
X121178357Y-90445781D01*
X121333107Y-90415000D01*
X121490893Y-90415000D01*
X121645643Y-90445781D01*
X121645643Y-90445781D01*
G37*
G36*
X124645643Y-90445781D02*
X124791415Y-90506162D01*
X124922611Y-90593824D01*
X125034176Y-90705389D01*
X125121838Y-90836585D01*
X125182219Y-90982357D01*
X125213000Y-91137107D01*
X125213000Y-91294893D01*
X125182219Y-91449643D01*
X125121838Y-91595415D01*
X125034176Y-91726611D01*
X124922611Y-91838176D01*
X124791415Y-91925838D01*
X124645643Y-91986219D01*
X124490893Y-92017000D01*
X124333107Y-92017000D01*
X124178357Y-91986219D01*
X124032585Y-91925838D01*
X123901389Y-91838176D01*
X123789824Y-91726611D01*
X123702162Y-91595415D01*
X123641781Y-91449643D01*
X123611000Y-91294893D01*
X123611000Y-91137107D01*
X123641781Y-90982357D01*
X123702162Y-90836585D01*
X123789824Y-90705389D01*
X123901389Y-90593824D01*
X124032585Y-90506162D01*
X124178357Y-90445781D01*
X124333107Y-90415000D01*
X124490893Y-90415000D01*
X124645643Y-90445781D01*
X124645643Y-90445781D01*
G37*
G36*
X121764527Y-85384736D02*
X121864410Y-85404604D01*
X122146674Y-85521521D01*
X122400705Y-85691259D01*
X122616741Y-85907295D01*
X122786479Y-86161326D01*
X122903396Y-86443590D01*
X122963000Y-86743240D01*
X122963000Y-87048760D01*
X122903396Y-87348410D01*
X122786479Y-87630674D01*
X122616741Y-87884705D01*
X122400705Y-88100741D01*
X122146674Y-88270479D01*
X121864410Y-88387396D01*
X121764527Y-88407264D01*
X121564762Y-88447000D01*
X121259238Y-88447000D01*
X121059473Y-88407264D01*
X120959590Y-88387396D01*
X120677326Y-88270479D01*
X120423295Y-88100741D01*
X120207259Y-87884705D01*
X120037521Y-87630674D01*
X119920604Y-87348410D01*
X119861000Y-87048760D01*
X119861000Y-86743240D01*
X119920604Y-86443590D01*
X120037521Y-86161326D01*
X120207259Y-85907295D01*
X120423295Y-85691259D01*
X120677326Y-85521521D01*
X120959590Y-85404604D01*
X121059473Y-85384736D01*
X121259238Y-85345000D01*
X121564762Y-85345000D01*
X121764527Y-85384736D01*
X121764527Y-85384736D01*
G37*
M02*
