G04 #@! TF.GenerationSoftware,KiCad,Pcbnew,(5.0.2)-1*
G04 #@! TF.CreationDate,2019-03-06T23:00:33-07:00*
G04 #@! TF.ProjectId,AndromedaV3,416e6472-6f6d-4656-9461-56332e6b6963,rev?*
G04 #@! TF.SameCoordinates,Original*
G04 #@! TF.FileFunction,Soldermask,Top*
G04 #@! TF.FilePolarity,Negative*
%FSLAX46Y46*%
G04 Gerber Fmt 4.6, Leading zero omitted, Abs format (unit mm)*
G04 Created by KiCad (PCBNEW (5.0.2)-1) date 2019-03-06 11:00:33 PM*
%MOMM*%
%LPD*%
G01*
G04 APERTURE LIST*
%ADD10C,0.100000*%
G04 APERTURE END LIST*
D10*
G36*
X153526443Y-114675519D02*
X153592627Y-114682037D01*
X153705853Y-114716384D01*
X153762467Y-114733557D01*
X153901087Y-114807652D01*
X153918991Y-114817222D01*
X153932175Y-114828042D01*
X154056186Y-114929814D01*
X154139448Y-115031271D01*
X154168778Y-115067009D01*
X154168779Y-115067011D01*
X154252443Y-115223533D01*
X154252443Y-115223534D01*
X154303963Y-115393373D01*
X154321359Y-115570000D01*
X154303963Y-115746627D01*
X154269616Y-115859853D01*
X154252443Y-115916467D01*
X154178348Y-116055087D01*
X154168778Y-116072991D01*
X154139448Y-116108729D01*
X154056186Y-116210186D01*
X153954729Y-116293448D01*
X153918991Y-116322778D01*
X153918989Y-116322779D01*
X153762467Y-116406443D01*
X153705853Y-116423616D01*
X153592627Y-116457963D01*
X153526442Y-116464482D01*
X153460260Y-116471000D01*
X153371740Y-116471000D01*
X153305558Y-116464482D01*
X153239373Y-116457963D01*
X153126147Y-116423616D01*
X153069533Y-116406443D01*
X152913011Y-116322779D01*
X152913009Y-116322778D01*
X152877271Y-116293448D01*
X152775814Y-116210186D01*
X152692552Y-116108729D01*
X152663222Y-116072991D01*
X152653652Y-116055087D01*
X152579557Y-115916467D01*
X152562384Y-115859853D01*
X152528037Y-115746627D01*
X152510641Y-115570000D01*
X152528037Y-115393373D01*
X152579557Y-115223534D01*
X152579557Y-115223533D01*
X152663221Y-115067011D01*
X152663222Y-115067009D01*
X152692552Y-115031271D01*
X152775814Y-114929814D01*
X152899825Y-114828042D01*
X152913009Y-114817222D01*
X152930913Y-114807652D01*
X153069533Y-114733557D01*
X153126147Y-114716384D01*
X153239373Y-114682037D01*
X153305557Y-114675519D01*
X153371740Y-114669000D01*
X153460260Y-114669000D01*
X153526443Y-114675519D01*
X153526443Y-114675519D01*
G37*
G36*
X156066443Y-114675519D02*
X156132627Y-114682037D01*
X156245853Y-114716384D01*
X156302467Y-114733557D01*
X156441087Y-114807652D01*
X156458991Y-114817222D01*
X156472175Y-114828042D01*
X156596186Y-114929814D01*
X156679448Y-115031271D01*
X156708778Y-115067009D01*
X156708779Y-115067011D01*
X156792443Y-115223533D01*
X156792443Y-115223534D01*
X156843963Y-115393373D01*
X156861359Y-115570000D01*
X156843963Y-115746627D01*
X156809616Y-115859853D01*
X156792443Y-115916467D01*
X156718348Y-116055087D01*
X156708778Y-116072991D01*
X156679448Y-116108729D01*
X156596186Y-116210186D01*
X156494729Y-116293448D01*
X156458991Y-116322778D01*
X156458989Y-116322779D01*
X156302467Y-116406443D01*
X156245853Y-116423616D01*
X156132627Y-116457963D01*
X156066442Y-116464482D01*
X156000260Y-116471000D01*
X155911740Y-116471000D01*
X155845558Y-116464482D01*
X155779373Y-116457963D01*
X155666147Y-116423616D01*
X155609533Y-116406443D01*
X155453011Y-116322779D01*
X155453009Y-116322778D01*
X155417271Y-116293448D01*
X155315814Y-116210186D01*
X155232552Y-116108729D01*
X155203222Y-116072991D01*
X155193652Y-116055087D01*
X155119557Y-115916467D01*
X155102384Y-115859853D01*
X155068037Y-115746627D01*
X155050641Y-115570000D01*
X155068037Y-115393373D01*
X155119557Y-115223534D01*
X155119557Y-115223533D01*
X155203221Y-115067011D01*
X155203222Y-115067009D01*
X155232552Y-115031271D01*
X155315814Y-114929814D01*
X155439825Y-114828042D01*
X155453009Y-114817222D01*
X155470913Y-114807652D01*
X155609533Y-114733557D01*
X155666147Y-114716384D01*
X155779373Y-114682037D01*
X155845557Y-114675519D01*
X155911740Y-114669000D01*
X156000260Y-114669000D01*
X156066443Y-114675519D01*
X156066443Y-114675519D01*
G37*
G36*
X158606443Y-114675519D02*
X158672627Y-114682037D01*
X158785853Y-114716384D01*
X158842467Y-114733557D01*
X158981087Y-114807652D01*
X158998991Y-114817222D01*
X159012175Y-114828042D01*
X159136186Y-114929814D01*
X159219448Y-115031271D01*
X159248778Y-115067009D01*
X159248779Y-115067011D01*
X159332443Y-115223533D01*
X159332443Y-115223534D01*
X159383963Y-115393373D01*
X159401359Y-115570000D01*
X159383963Y-115746627D01*
X159349616Y-115859853D01*
X159332443Y-115916467D01*
X159258348Y-116055087D01*
X159248778Y-116072991D01*
X159219448Y-116108729D01*
X159136186Y-116210186D01*
X159034729Y-116293448D01*
X158998991Y-116322778D01*
X158998989Y-116322779D01*
X158842467Y-116406443D01*
X158785853Y-116423616D01*
X158672627Y-116457963D01*
X158606442Y-116464482D01*
X158540260Y-116471000D01*
X158451740Y-116471000D01*
X158385558Y-116464482D01*
X158319373Y-116457963D01*
X158206147Y-116423616D01*
X158149533Y-116406443D01*
X157993011Y-116322779D01*
X157993009Y-116322778D01*
X157957271Y-116293448D01*
X157855814Y-116210186D01*
X157772552Y-116108729D01*
X157743222Y-116072991D01*
X157733652Y-116055087D01*
X157659557Y-115916467D01*
X157642384Y-115859853D01*
X157608037Y-115746627D01*
X157590641Y-115570000D01*
X157608037Y-115393373D01*
X157659557Y-115223534D01*
X157659557Y-115223533D01*
X157743221Y-115067011D01*
X157743222Y-115067009D01*
X157772552Y-115031271D01*
X157855814Y-114929814D01*
X157979825Y-114828042D01*
X157993009Y-114817222D01*
X158010913Y-114807652D01*
X158149533Y-114733557D01*
X158206147Y-114716384D01*
X158319373Y-114682037D01*
X158385557Y-114675519D01*
X158451740Y-114669000D01*
X158540260Y-114669000D01*
X158606443Y-114675519D01*
X158606443Y-114675519D01*
G37*
G36*
X130666443Y-114675519D02*
X130732627Y-114682037D01*
X130845853Y-114716384D01*
X130902467Y-114733557D01*
X131041087Y-114807652D01*
X131058991Y-114817222D01*
X131072175Y-114828042D01*
X131196186Y-114929814D01*
X131279448Y-115031271D01*
X131308778Y-115067009D01*
X131308779Y-115067011D01*
X131392443Y-115223533D01*
X131392443Y-115223534D01*
X131443963Y-115393373D01*
X131461359Y-115570000D01*
X131443963Y-115746627D01*
X131409616Y-115859853D01*
X131392443Y-115916467D01*
X131318348Y-116055087D01*
X131308778Y-116072991D01*
X131279448Y-116108729D01*
X131196186Y-116210186D01*
X131094729Y-116293448D01*
X131058991Y-116322778D01*
X131058989Y-116322779D01*
X130902467Y-116406443D01*
X130845853Y-116423616D01*
X130732627Y-116457963D01*
X130666442Y-116464482D01*
X130600260Y-116471000D01*
X130511740Y-116471000D01*
X130445558Y-116464482D01*
X130379373Y-116457963D01*
X130266147Y-116423616D01*
X130209533Y-116406443D01*
X130053011Y-116322779D01*
X130053009Y-116322778D01*
X130017271Y-116293448D01*
X129915814Y-116210186D01*
X129832552Y-116108729D01*
X129803222Y-116072991D01*
X129793652Y-116055087D01*
X129719557Y-115916467D01*
X129702384Y-115859853D01*
X129668037Y-115746627D01*
X129650641Y-115570000D01*
X129668037Y-115393373D01*
X129719557Y-115223534D01*
X129719557Y-115223533D01*
X129803221Y-115067011D01*
X129803222Y-115067009D01*
X129832552Y-115031271D01*
X129915814Y-114929814D01*
X130039825Y-114828042D01*
X130053009Y-114817222D01*
X130070913Y-114807652D01*
X130209533Y-114733557D01*
X130266147Y-114716384D01*
X130379373Y-114682037D01*
X130445557Y-114675519D01*
X130511740Y-114669000D01*
X130600260Y-114669000D01*
X130666443Y-114675519D01*
X130666443Y-114675519D01*
G37*
G36*
X133206443Y-114675519D02*
X133272627Y-114682037D01*
X133385853Y-114716384D01*
X133442467Y-114733557D01*
X133581087Y-114807652D01*
X133598991Y-114817222D01*
X133612175Y-114828042D01*
X133736186Y-114929814D01*
X133819448Y-115031271D01*
X133848778Y-115067009D01*
X133848779Y-115067011D01*
X133932443Y-115223533D01*
X133932443Y-115223534D01*
X133983963Y-115393373D01*
X134001359Y-115570000D01*
X133983963Y-115746627D01*
X133949616Y-115859853D01*
X133932443Y-115916467D01*
X133858348Y-116055087D01*
X133848778Y-116072991D01*
X133819448Y-116108729D01*
X133736186Y-116210186D01*
X133634729Y-116293448D01*
X133598991Y-116322778D01*
X133598989Y-116322779D01*
X133442467Y-116406443D01*
X133385853Y-116423616D01*
X133272627Y-116457963D01*
X133206442Y-116464482D01*
X133140260Y-116471000D01*
X133051740Y-116471000D01*
X132985558Y-116464482D01*
X132919373Y-116457963D01*
X132806147Y-116423616D01*
X132749533Y-116406443D01*
X132593011Y-116322779D01*
X132593009Y-116322778D01*
X132557271Y-116293448D01*
X132455814Y-116210186D01*
X132372552Y-116108729D01*
X132343222Y-116072991D01*
X132333652Y-116055087D01*
X132259557Y-115916467D01*
X132242384Y-115859853D01*
X132208037Y-115746627D01*
X132190641Y-115570000D01*
X132208037Y-115393373D01*
X132259557Y-115223534D01*
X132259557Y-115223533D01*
X132343221Y-115067011D01*
X132343222Y-115067009D01*
X132372552Y-115031271D01*
X132455814Y-114929814D01*
X132579825Y-114828042D01*
X132593009Y-114817222D01*
X132610913Y-114807652D01*
X132749533Y-114733557D01*
X132806147Y-114716384D01*
X132919373Y-114682037D01*
X132985557Y-114675519D01*
X133051740Y-114669000D01*
X133140260Y-114669000D01*
X133206443Y-114675519D01*
X133206443Y-114675519D01*
G37*
G36*
X135746443Y-114675519D02*
X135812627Y-114682037D01*
X135925853Y-114716384D01*
X135982467Y-114733557D01*
X136121087Y-114807652D01*
X136138991Y-114817222D01*
X136152175Y-114828042D01*
X136276186Y-114929814D01*
X136359448Y-115031271D01*
X136388778Y-115067009D01*
X136388779Y-115067011D01*
X136472443Y-115223533D01*
X136472443Y-115223534D01*
X136523963Y-115393373D01*
X136541359Y-115570000D01*
X136523963Y-115746627D01*
X136489616Y-115859853D01*
X136472443Y-115916467D01*
X136398348Y-116055087D01*
X136388778Y-116072991D01*
X136359448Y-116108729D01*
X136276186Y-116210186D01*
X136174729Y-116293448D01*
X136138991Y-116322778D01*
X136138989Y-116322779D01*
X135982467Y-116406443D01*
X135925853Y-116423616D01*
X135812627Y-116457963D01*
X135746442Y-116464482D01*
X135680260Y-116471000D01*
X135591740Y-116471000D01*
X135525558Y-116464482D01*
X135459373Y-116457963D01*
X135346147Y-116423616D01*
X135289533Y-116406443D01*
X135133011Y-116322779D01*
X135133009Y-116322778D01*
X135097271Y-116293448D01*
X134995814Y-116210186D01*
X134912552Y-116108729D01*
X134883222Y-116072991D01*
X134873652Y-116055087D01*
X134799557Y-115916467D01*
X134782384Y-115859853D01*
X134748037Y-115746627D01*
X134730641Y-115570000D01*
X134748037Y-115393373D01*
X134799557Y-115223534D01*
X134799557Y-115223533D01*
X134883221Y-115067011D01*
X134883222Y-115067009D01*
X134912552Y-115031271D01*
X134995814Y-114929814D01*
X135119825Y-114828042D01*
X135133009Y-114817222D01*
X135150913Y-114807652D01*
X135289533Y-114733557D01*
X135346147Y-114716384D01*
X135459373Y-114682037D01*
X135525557Y-114675519D01*
X135591740Y-114669000D01*
X135680260Y-114669000D01*
X135746443Y-114675519D01*
X135746443Y-114675519D01*
G37*
G36*
X138286443Y-114675519D02*
X138352627Y-114682037D01*
X138465853Y-114716384D01*
X138522467Y-114733557D01*
X138661087Y-114807652D01*
X138678991Y-114817222D01*
X138692175Y-114828042D01*
X138816186Y-114929814D01*
X138899448Y-115031271D01*
X138928778Y-115067009D01*
X138928779Y-115067011D01*
X139012443Y-115223533D01*
X139012443Y-115223534D01*
X139063963Y-115393373D01*
X139081359Y-115570000D01*
X139063963Y-115746627D01*
X139029616Y-115859853D01*
X139012443Y-115916467D01*
X138938348Y-116055087D01*
X138928778Y-116072991D01*
X138899448Y-116108729D01*
X138816186Y-116210186D01*
X138714729Y-116293448D01*
X138678991Y-116322778D01*
X138678989Y-116322779D01*
X138522467Y-116406443D01*
X138465853Y-116423616D01*
X138352627Y-116457963D01*
X138286442Y-116464482D01*
X138220260Y-116471000D01*
X138131740Y-116471000D01*
X138065558Y-116464482D01*
X137999373Y-116457963D01*
X137886147Y-116423616D01*
X137829533Y-116406443D01*
X137673011Y-116322779D01*
X137673009Y-116322778D01*
X137637271Y-116293448D01*
X137535814Y-116210186D01*
X137452552Y-116108729D01*
X137423222Y-116072991D01*
X137413652Y-116055087D01*
X137339557Y-115916467D01*
X137322384Y-115859853D01*
X137288037Y-115746627D01*
X137270641Y-115570000D01*
X137288037Y-115393373D01*
X137339557Y-115223534D01*
X137339557Y-115223533D01*
X137423221Y-115067011D01*
X137423222Y-115067009D01*
X137452552Y-115031271D01*
X137535814Y-114929814D01*
X137659825Y-114828042D01*
X137673009Y-114817222D01*
X137690913Y-114807652D01*
X137829533Y-114733557D01*
X137886147Y-114716384D01*
X137999373Y-114682037D01*
X138065557Y-114675519D01*
X138131740Y-114669000D01*
X138220260Y-114669000D01*
X138286443Y-114675519D01*
X138286443Y-114675519D01*
G37*
G36*
X143366443Y-114675519D02*
X143432627Y-114682037D01*
X143545853Y-114716384D01*
X143602467Y-114733557D01*
X143741087Y-114807652D01*
X143758991Y-114817222D01*
X143772175Y-114828042D01*
X143896186Y-114929814D01*
X143979448Y-115031271D01*
X144008778Y-115067009D01*
X144008779Y-115067011D01*
X144092443Y-115223533D01*
X144092443Y-115223534D01*
X144143963Y-115393373D01*
X144161359Y-115570000D01*
X144143963Y-115746627D01*
X144109616Y-115859853D01*
X144092443Y-115916467D01*
X144018348Y-116055087D01*
X144008778Y-116072991D01*
X143979448Y-116108729D01*
X143896186Y-116210186D01*
X143794729Y-116293448D01*
X143758991Y-116322778D01*
X143758989Y-116322779D01*
X143602467Y-116406443D01*
X143545853Y-116423616D01*
X143432627Y-116457963D01*
X143366442Y-116464482D01*
X143300260Y-116471000D01*
X143211740Y-116471000D01*
X143145558Y-116464482D01*
X143079373Y-116457963D01*
X142966147Y-116423616D01*
X142909533Y-116406443D01*
X142753011Y-116322779D01*
X142753009Y-116322778D01*
X142717271Y-116293448D01*
X142615814Y-116210186D01*
X142532552Y-116108729D01*
X142503222Y-116072991D01*
X142493652Y-116055087D01*
X142419557Y-115916467D01*
X142402384Y-115859853D01*
X142368037Y-115746627D01*
X142350641Y-115570000D01*
X142368037Y-115393373D01*
X142419557Y-115223534D01*
X142419557Y-115223533D01*
X142503221Y-115067011D01*
X142503222Y-115067009D01*
X142532552Y-115031271D01*
X142615814Y-114929814D01*
X142739825Y-114828042D01*
X142753009Y-114817222D01*
X142770913Y-114807652D01*
X142909533Y-114733557D01*
X142966147Y-114716384D01*
X143079373Y-114682037D01*
X143145557Y-114675519D01*
X143211740Y-114669000D01*
X143300260Y-114669000D01*
X143366443Y-114675519D01*
X143366443Y-114675519D01*
G37*
G36*
X145906443Y-114675519D02*
X145972627Y-114682037D01*
X146085853Y-114716384D01*
X146142467Y-114733557D01*
X146281087Y-114807652D01*
X146298991Y-114817222D01*
X146312175Y-114828042D01*
X146436186Y-114929814D01*
X146519448Y-115031271D01*
X146548778Y-115067009D01*
X146548779Y-115067011D01*
X146632443Y-115223533D01*
X146632443Y-115223534D01*
X146683963Y-115393373D01*
X146701359Y-115570000D01*
X146683963Y-115746627D01*
X146649616Y-115859853D01*
X146632443Y-115916467D01*
X146558348Y-116055087D01*
X146548778Y-116072991D01*
X146519448Y-116108729D01*
X146436186Y-116210186D01*
X146334729Y-116293448D01*
X146298991Y-116322778D01*
X146298989Y-116322779D01*
X146142467Y-116406443D01*
X146085853Y-116423616D01*
X145972627Y-116457963D01*
X145906442Y-116464482D01*
X145840260Y-116471000D01*
X145751740Y-116471000D01*
X145685558Y-116464482D01*
X145619373Y-116457963D01*
X145506147Y-116423616D01*
X145449533Y-116406443D01*
X145293011Y-116322779D01*
X145293009Y-116322778D01*
X145257271Y-116293448D01*
X145155814Y-116210186D01*
X145072552Y-116108729D01*
X145043222Y-116072991D01*
X145033652Y-116055087D01*
X144959557Y-115916467D01*
X144942384Y-115859853D01*
X144908037Y-115746627D01*
X144890641Y-115570000D01*
X144908037Y-115393373D01*
X144959557Y-115223534D01*
X144959557Y-115223533D01*
X145043221Y-115067011D01*
X145043222Y-115067009D01*
X145072552Y-115031271D01*
X145155814Y-114929814D01*
X145279825Y-114828042D01*
X145293009Y-114817222D01*
X145310913Y-114807652D01*
X145449533Y-114733557D01*
X145506147Y-114716384D01*
X145619373Y-114682037D01*
X145685557Y-114675519D01*
X145751740Y-114669000D01*
X145840260Y-114669000D01*
X145906443Y-114675519D01*
X145906443Y-114675519D01*
G37*
G36*
X148446443Y-114675519D02*
X148512627Y-114682037D01*
X148625853Y-114716384D01*
X148682467Y-114733557D01*
X148821087Y-114807652D01*
X148838991Y-114817222D01*
X148852175Y-114828042D01*
X148976186Y-114929814D01*
X149059448Y-115031271D01*
X149088778Y-115067009D01*
X149088779Y-115067011D01*
X149172443Y-115223533D01*
X149172443Y-115223534D01*
X149223963Y-115393373D01*
X149241359Y-115570000D01*
X149223963Y-115746627D01*
X149189616Y-115859853D01*
X149172443Y-115916467D01*
X149098348Y-116055087D01*
X149088778Y-116072991D01*
X149059448Y-116108729D01*
X148976186Y-116210186D01*
X148874729Y-116293448D01*
X148838991Y-116322778D01*
X148838989Y-116322779D01*
X148682467Y-116406443D01*
X148625853Y-116423616D01*
X148512627Y-116457963D01*
X148446442Y-116464482D01*
X148380260Y-116471000D01*
X148291740Y-116471000D01*
X148225558Y-116464482D01*
X148159373Y-116457963D01*
X148046147Y-116423616D01*
X147989533Y-116406443D01*
X147833011Y-116322779D01*
X147833009Y-116322778D01*
X147797271Y-116293448D01*
X147695814Y-116210186D01*
X147612552Y-116108729D01*
X147583222Y-116072991D01*
X147573652Y-116055087D01*
X147499557Y-115916467D01*
X147482384Y-115859853D01*
X147448037Y-115746627D01*
X147430641Y-115570000D01*
X147448037Y-115393373D01*
X147499557Y-115223534D01*
X147499557Y-115223533D01*
X147583221Y-115067011D01*
X147583222Y-115067009D01*
X147612552Y-115031271D01*
X147695814Y-114929814D01*
X147819825Y-114828042D01*
X147833009Y-114817222D01*
X147850913Y-114807652D01*
X147989533Y-114733557D01*
X148046147Y-114716384D01*
X148159373Y-114682037D01*
X148225557Y-114675519D01*
X148291740Y-114669000D01*
X148380260Y-114669000D01*
X148446443Y-114675519D01*
X148446443Y-114675519D01*
G37*
G36*
X150986443Y-114675519D02*
X151052627Y-114682037D01*
X151165853Y-114716384D01*
X151222467Y-114733557D01*
X151361087Y-114807652D01*
X151378991Y-114817222D01*
X151392175Y-114828042D01*
X151516186Y-114929814D01*
X151599448Y-115031271D01*
X151628778Y-115067009D01*
X151628779Y-115067011D01*
X151712443Y-115223533D01*
X151712443Y-115223534D01*
X151763963Y-115393373D01*
X151781359Y-115570000D01*
X151763963Y-115746627D01*
X151729616Y-115859853D01*
X151712443Y-115916467D01*
X151638348Y-116055087D01*
X151628778Y-116072991D01*
X151599448Y-116108729D01*
X151516186Y-116210186D01*
X151414729Y-116293448D01*
X151378991Y-116322778D01*
X151378989Y-116322779D01*
X151222467Y-116406443D01*
X151165853Y-116423616D01*
X151052627Y-116457963D01*
X150986442Y-116464482D01*
X150920260Y-116471000D01*
X150831740Y-116471000D01*
X150765558Y-116464482D01*
X150699373Y-116457963D01*
X150586147Y-116423616D01*
X150529533Y-116406443D01*
X150373011Y-116322779D01*
X150373009Y-116322778D01*
X150337271Y-116293448D01*
X150235814Y-116210186D01*
X150152552Y-116108729D01*
X150123222Y-116072991D01*
X150113652Y-116055087D01*
X150039557Y-115916467D01*
X150022384Y-115859853D01*
X149988037Y-115746627D01*
X149970641Y-115570000D01*
X149988037Y-115393373D01*
X150039557Y-115223534D01*
X150039557Y-115223533D01*
X150123221Y-115067011D01*
X150123222Y-115067009D01*
X150152552Y-115031271D01*
X150235814Y-114929814D01*
X150359825Y-114828042D01*
X150373009Y-114817222D01*
X150390913Y-114807652D01*
X150529533Y-114733557D01*
X150586147Y-114716384D01*
X150699373Y-114682037D01*
X150765557Y-114675519D01*
X150831740Y-114669000D01*
X150920260Y-114669000D01*
X150986443Y-114675519D01*
X150986443Y-114675519D01*
G37*
G36*
X140826443Y-114675519D02*
X140892627Y-114682037D01*
X141005853Y-114716384D01*
X141062467Y-114733557D01*
X141201087Y-114807652D01*
X141218991Y-114817222D01*
X141232175Y-114828042D01*
X141356186Y-114929814D01*
X141439448Y-115031271D01*
X141468778Y-115067009D01*
X141468779Y-115067011D01*
X141552443Y-115223533D01*
X141552443Y-115223534D01*
X141603963Y-115393373D01*
X141621359Y-115570000D01*
X141603963Y-115746627D01*
X141569616Y-115859853D01*
X141552443Y-115916467D01*
X141478348Y-116055087D01*
X141468778Y-116072991D01*
X141439448Y-116108729D01*
X141356186Y-116210186D01*
X141254729Y-116293448D01*
X141218991Y-116322778D01*
X141218989Y-116322779D01*
X141062467Y-116406443D01*
X141005853Y-116423616D01*
X140892627Y-116457963D01*
X140826442Y-116464482D01*
X140760260Y-116471000D01*
X140671740Y-116471000D01*
X140605558Y-116464482D01*
X140539373Y-116457963D01*
X140426147Y-116423616D01*
X140369533Y-116406443D01*
X140213011Y-116322779D01*
X140213009Y-116322778D01*
X140177271Y-116293448D01*
X140075814Y-116210186D01*
X139992552Y-116108729D01*
X139963222Y-116072991D01*
X139953652Y-116055087D01*
X139879557Y-115916467D01*
X139862384Y-115859853D01*
X139828037Y-115746627D01*
X139810641Y-115570000D01*
X139828037Y-115393373D01*
X139879557Y-115223534D01*
X139879557Y-115223533D01*
X139963221Y-115067011D01*
X139963222Y-115067009D01*
X139992552Y-115031271D01*
X140075814Y-114929814D01*
X140199825Y-114828042D01*
X140213009Y-114817222D01*
X140230913Y-114807652D01*
X140369533Y-114733557D01*
X140426147Y-114716384D01*
X140539373Y-114682037D01*
X140605557Y-114675519D01*
X140671740Y-114669000D01*
X140760260Y-114669000D01*
X140826443Y-114675519D01*
X140826443Y-114675519D01*
G37*
G36*
X125532000Y-115701000D02*
X122880000Y-115701000D01*
X122880000Y-112899000D01*
X125532000Y-112899000D01*
X125532000Y-115701000D01*
X125532000Y-115701000D01*
G37*
G36*
X119182000Y-115701000D02*
X116530000Y-115701000D01*
X116530000Y-112899000D01*
X119182000Y-112899000D01*
X119182000Y-115701000D01*
X119182000Y-115701000D01*
G37*
G36*
X112389256Y-112437298D02*
X112495579Y-112458447D01*
X112796042Y-112582903D01*
X113062852Y-112761180D01*
X113066454Y-112763587D01*
X113296413Y-112993546D01*
X113296415Y-112993549D01*
X113438790Y-113206627D01*
X113477098Y-113263960D01*
X113601553Y-113564422D01*
X113665000Y-113883389D01*
X113665000Y-114208611D01*
X113601553Y-114527578D01*
X113477098Y-114828040D01*
X113296413Y-115098454D01*
X113066454Y-115328413D01*
X113066451Y-115328415D01*
X112796042Y-115509097D01*
X112495579Y-115633553D01*
X112389256Y-115654702D01*
X112176611Y-115697000D01*
X111851389Y-115697000D01*
X111638744Y-115654702D01*
X111532421Y-115633553D01*
X111231958Y-115509097D01*
X110961549Y-115328415D01*
X110961546Y-115328413D01*
X110731587Y-115098454D01*
X110550902Y-114828040D01*
X110426447Y-114527578D01*
X110363000Y-114208611D01*
X110363000Y-113883389D01*
X110426447Y-113564422D01*
X110550902Y-113263960D01*
X110589211Y-113206627D01*
X110731585Y-112993549D01*
X110731587Y-112993546D01*
X110961546Y-112763587D01*
X110965148Y-112761180D01*
X111231958Y-112582903D01*
X111532421Y-112458447D01*
X111638744Y-112437298D01*
X111851389Y-112395000D01*
X112176611Y-112395000D01*
X112389256Y-112437298D01*
X112389256Y-112437298D01*
G37*
G36*
X164459256Y-112437298D02*
X164565579Y-112458447D01*
X164866042Y-112582903D01*
X165132852Y-112761180D01*
X165136454Y-112763587D01*
X165366413Y-112993546D01*
X165366415Y-112993549D01*
X165508790Y-113206627D01*
X165547098Y-113263960D01*
X165671553Y-113564422D01*
X165735000Y-113883389D01*
X165735000Y-114208611D01*
X165671553Y-114527578D01*
X165547098Y-114828040D01*
X165366413Y-115098454D01*
X165136454Y-115328413D01*
X165136451Y-115328415D01*
X164866042Y-115509097D01*
X164565579Y-115633553D01*
X164459256Y-115654702D01*
X164246611Y-115697000D01*
X163921389Y-115697000D01*
X163708744Y-115654702D01*
X163602421Y-115633553D01*
X163301958Y-115509097D01*
X163031549Y-115328415D01*
X163031546Y-115328413D01*
X162801587Y-115098454D01*
X162620902Y-114828040D01*
X162496447Y-114527578D01*
X162433000Y-114208611D01*
X162433000Y-113883389D01*
X162496447Y-113564422D01*
X162620902Y-113263960D01*
X162659211Y-113206627D01*
X162801585Y-112993549D01*
X162801587Y-112993546D01*
X163031546Y-112763587D01*
X163035148Y-112761180D01*
X163301958Y-112582903D01*
X163602421Y-112458447D01*
X163708744Y-112437298D01*
X163921389Y-112395000D01*
X164246611Y-112395000D01*
X164459256Y-112437298D01*
X164459256Y-112437298D01*
G37*
G36*
X159397000Y-113931000D02*
X157595000Y-113931000D01*
X157595000Y-112129000D01*
X159397000Y-112129000D01*
X159397000Y-113931000D01*
X159397000Y-113931000D01*
G37*
G36*
X135746443Y-112135519D02*
X135812627Y-112142037D01*
X135925853Y-112176384D01*
X135982467Y-112193557D01*
X136121087Y-112267652D01*
X136138991Y-112277222D01*
X136174729Y-112306552D01*
X136276186Y-112389814D01*
X136359448Y-112491271D01*
X136388778Y-112527009D01*
X136388779Y-112527011D01*
X136472443Y-112683533D01*
X136472443Y-112683534D01*
X136523963Y-112853373D01*
X136541359Y-113030000D01*
X136523963Y-113206627D01*
X136506572Y-113263958D01*
X136472443Y-113376467D01*
X136398348Y-113515087D01*
X136388778Y-113532991D01*
X136362984Y-113564421D01*
X136276186Y-113670186D01*
X136174729Y-113753448D01*
X136138991Y-113782778D01*
X136138989Y-113782779D01*
X135982467Y-113866443D01*
X135926602Y-113883389D01*
X135812627Y-113917963D01*
X135746443Y-113924481D01*
X135680260Y-113931000D01*
X135591740Y-113931000D01*
X135525557Y-113924481D01*
X135459373Y-113917963D01*
X135345398Y-113883389D01*
X135289533Y-113866443D01*
X135133011Y-113782779D01*
X135133009Y-113782778D01*
X135097271Y-113753448D01*
X134995814Y-113670186D01*
X134909016Y-113564421D01*
X134883222Y-113532991D01*
X134873652Y-113515087D01*
X134799557Y-113376467D01*
X134765428Y-113263958D01*
X134748037Y-113206627D01*
X134730641Y-113030000D01*
X134748037Y-112853373D01*
X134799557Y-112683534D01*
X134799557Y-112683533D01*
X134883221Y-112527011D01*
X134883222Y-112527009D01*
X134912552Y-112491271D01*
X134995814Y-112389814D01*
X135097271Y-112306552D01*
X135133009Y-112277222D01*
X135150913Y-112267652D01*
X135289533Y-112193557D01*
X135346147Y-112176384D01*
X135459373Y-112142037D01*
X135525557Y-112135519D01*
X135591740Y-112129000D01*
X135680260Y-112129000D01*
X135746443Y-112135519D01*
X135746443Y-112135519D01*
G37*
G36*
X133206443Y-112135519D02*
X133272627Y-112142037D01*
X133385853Y-112176384D01*
X133442467Y-112193557D01*
X133581087Y-112267652D01*
X133598991Y-112277222D01*
X133634729Y-112306552D01*
X133736186Y-112389814D01*
X133819448Y-112491271D01*
X133848778Y-112527009D01*
X133848779Y-112527011D01*
X133932443Y-112683533D01*
X133932443Y-112683534D01*
X133983963Y-112853373D01*
X134001359Y-113030000D01*
X133983963Y-113206627D01*
X133966572Y-113263958D01*
X133932443Y-113376467D01*
X133858348Y-113515087D01*
X133848778Y-113532991D01*
X133822984Y-113564421D01*
X133736186Y-113670186D01*
X133634729Y-113753448D01*
X133598991Y-113782778D01*
X133598989Y-113782779D01*
X133442467Y-113866443D01*
X133386602Y-113883389D01*
X133272627Y-113917963D01*
X133206443Y-113924481D01*
X133140260Y-113931000D01*
X133051740Y-113931000D01*
X132985557Y-113924481D01*
X132919373Y-113917963D01*
X132805398Y-113883389D01*
X132749533Y-113866443D01*
X132593011Y-113782779D01*
X132593009Y-113782778D01*
X132557271Y-113753448D01*
X132455814Y-113670186D01*
X132369016Y-113564421D01*
X132343222Y-113532991D01*
X132333652Y-113515087D01*
X132259557Y-113376467D01*
X132225428Y-113263958D01*
X132208037Y-113206627D01*
X132190641Y-113030000D01*
X132208037Y-112853373D01*
X132259557Y-112683534D01*
X132259557Y-112683533D01*
X132343221Y-112527011D01*
X132343222Y-112527009D01*
X132372552Y-112491271D01*
X132455814Y-112389814D01*
X132557271Y-112306552D01*
X132593009Y-112277222D01*
X132610913Y-112267652D01*
X132749533Y-112193557D01*
X132806147Y-112176384D01*
X132919373Y-112142037D01*
X132985557Y-112135519D01*
X133051740Y-112129000D01*
X133140260Y-112129000D01*
X133206443Y-112135519D01*
X133206443Y-112135519D01*
G37*
G36*
X138286443Y-112135519D02*
X138352627Y-112142037D01*
X138465853Y-112176384D01*
X138522467Y-112193557D01*
X138661087Y-112267652D01*
X138678991Y-112277222D01*
X138714729Y-112306552D01*
X138816186Y-112389814D01*
X138899448Y-112491271D01*
X138928778Y-112527009D01*
X138928779Y-112527011D01*
X139012443Y-112683533D01*
X139012443Y-112683534D01*
X139063963Y-112853373D01*
X139081359Y-113030000D01*
X139063963Y-113206627D01*
X139046572Y-113263958D01*
X139012443Y-113376467D01*
X138938348Y-113515087D01*
X138928778Y-113532991D01*
X138902984Y-113564421D01*
X138816186Y-113670186D01*
X138714729Y-113753448D01*
X138678991Y-113782778D01*
X138678989Y-113782779D01*
X138522467Y-113866443D01*
X138466602Y-113883389D01*
X138352627Y-113917963D01*
X138286443Y-113924481D01*
X138220260Y-113931000D01*
X138131740Y-113931000D01*
X138065557Y-113924481D01*
X137999373Y-113917963D01*
X137885398Y-113883389D01*
X137829533Y-113866443D01*
X137673011Y-113782779D01*
X137673009Y-113782778D01*
X137637271Y-113753448D01*
X137535814Y-113670186D01*
X137449016Y-113564421D01*
X137423222Y-113532991D01*
X137413652Y-113515087D01*
X137339557Y-113376467D01*
X137305428Y-113263958D01*
X137288037Y-113206627D01*
X137270641Y-113030000D01*
X137288037Y-112853373D01*
X137339557Y-112683534D01*
X137339557Y-112683533D01*
X137423221Y-112527011D01*
X137423222Y-112527009D01*
X137452552Y-112491271D01*
X137535814Y-112389814D01*
X137637271Y-112306552D01*
X137673009Y-112277222D01*
X137690913Y-112267652D01*
X137829533Y-112193557D01*
X137886147Y-112176384D01*
X137999373Y-112142037D01*
X138065557Y-112135519D01*
X138131740Y-112129000D01*
X138220260Y-112129000D01*
X138286443Y-112135519D01*
X138286443Y-112135519D01*
G37*
G36*
X130666443Y-112135519D02*
X130732627Y-112142037D01*
X130845853Y-112176384D01*
X130902467Y-112193557D01*
X131041087Y-112267652D01*
X131058991Y-112277222D01*
X131094729Y-112306552D01*
X131196186Y-112389814D01*
X131279448Y-112491271D01*
X131308778Y-112527009D01*
X131308779Y-112527011D01*
X131392443Y-112683533D01*
X131392443Y-112683534D01*
X131443963Y-112853373D01*
X131461359Y-113030000D01*
X131443963Y-113206627D01*
X131426572Y-113263958D01*
X131392443Y-113376467D01*
X131318348Y-113515087D01*
X131308778Y-113532991D01*
X131282984Y-113564421D01*
X131196186Y-113670186D01*
X131094729Y-113753448D01*
X131058991Y-113782778D01*
X131058989Y-113782779D01*
X130902467Y-113866443D01*
X130846602Y-113883389D01*
X130732627Y-113917963D01*
X130666443Y-113924481D01*
X130600260Y-113931000D01*
X130511740Y-113931000D01*
X130445557Y-113924481D01*
X130379373Y-113917963D01*
X130265398Y-113883389D01*
X130209533Y-113866443D01*
X130053011Y-113782779D01*
X130053009Y-113782778D01*
X130017271Y-113753448D01*
X129915814Y-113670186D01*
X129829016Y-113564421D01*
X129803222Y-113532991D01*
X129793652Y-113515087D01*
X129719557Y-113376467D01*
X129685428Y-113263958D01*
X129668037Y-113206627D01*
X129650641Y-113030000D01*
X129668037Y-112853373D01*
X129719557Y-112683534D01*
X129719557Y-112683533D01*
X129803221Y-112527011D01*
X129803222Y-112527009D01*
X129832552Y-112491271D01*
X129915814Y-112389814D01*
X130017271Y-112306552D01*
X130053009Y-112277222D01*
X130070913Y-112267652D01*
X130209533Y-112193557D01*
X130266147Y-112176384D01*
X130379373Y-112142037D01*
X130445557Y-112135519D01*
X130511740Y-112129000D01*
X130600260Y-112129000D01*
X130666443Y-112135519D01*
X130666443Y-112135519D01*
G37*
G36*
X140826443Y-112135519D02*
X140892627Y-112142037D01*
X141005853Y-112176384D01*
X141062467Y-112193557D01*
X141201087Y-112267652D01*
X141218991Y-112277222D01*
X141254729Y-112306552D01*
X141356186Y-112389814D01*
X141439448Y-112491271D01*
X141468778Y-112527009D01*
X141468779Y-112527011D01*
X141552443Y-112683533D01*
X141552443Y-112683534D01*
X141603963Y-112853373D01*
X141621359Y-113030000D01*
X141603963Y-113206627D01*
X141586572Y-113263958D01*
X141552443Y-113376467D01*
X141478348Y-113515087D01*
X141468778Y-113532991D01*
X141442984Y-113564421D01*
X141356186Y-113670186D01*
X141254729Y-113753448D01*
X141218991Y-113782778D01*
X141218989Y-113782779D01*
X141062467Y-113866443D01*
X141006602Y-113883389D01*
X140892627Y-113917963D01*
X140826443Y-113924481D01*
X140760260Y-113931000D01*
X140671740Y-113931000D01*
X140605557Y-113924481D01*
X140539373Y-113917963D01*
X140425398Y-113883389D01*
X140369533Y-113866443D01*
X140213011Y-113782779D01*
X140213009Y-113782778D01*
X140177271Y-113753448D01*
X140075814Y-113670186D01*
X139989016Y-113564421D01*
X139963222Y-113532991D01*
X139953652Y-113515087D01*
X139879557Y-113376467D01*
X139845428Y-113263958D01*
X139828037Y-113206627D01*
X139810641Y-113030000D01*
X139828037Y-112853373D01*
X139879557Y-112683534D01*
X139879557Y-112683533D01*
X139963221Y-112527011D01*
X139963222Y-112527009D01*
X139992552Y-112491271D01*
X140075814Y-112389814D01*
X140177271Y-112306552D01*
X140213009Y-112277222D01*
X140230913Y-112267652D01*
X140369533Y-112193557D01*
X140426147Y-112176384D01*
X140539373Y-112142037D01*
X140605557Y-112135519D01*
X140671740Y-112129000D01*
X140760260Y-112129000D01*
X140826443Y-112135519D01*
X140826443Y-112135519D01*
G37*
G36*
X143366443Y-112135519D02*
X143432627Y-112142037D01*
X143545853Y-112176384D01*
X143602467Y-112193557D01*
X143741087Y-112267652D01*
X143758991Y-112277222D01*
X143794729Y-112306552D01*
X143896186Y-112389814D01*
X143979448Y-112491271D01*
X144008778Y-112527009D01*
X144008779Y-112527011D01*
X144092443Y-112683533D01*
X144092443Y-112683534D01*
X144143963Y-112853373D01*
X144161359Y-113030000D01*
X144143963Y-113206627D01*
X144126572Y-113263958D01*
X144092443Y-113376467D01*
X144018348Y-113515087D01*
X144008778Y-113532991D01*
X143982984Y-113564421D01*
X143896186Y-113670186D01*
X143794729Y-113753448D01*
X143758991Y-113782778D01*
X143758989Y-113782779D01*
X143602467Y-113866443D01*
X143546602Y-113883389D01*
X143432627Y-113917963D01*
X143366443Y-113924481D01*
X143300260Y-113931000D01*
X143211740Y-113931000D01*
X143145557Y-113924481D01*
X143079373Y-113917963D01*
X142965398Y-113883389D01*
X142909533Y-113866443D01*
X142753011Y-113782779D01*
X142753009Y-113782778D01*
X142717271Y-113753448D01*
X142615814Y-113670186D01*
X142529016Y-113564421D01*
X142503222Y-113532991D01*
X142493652Y-113515087D01*
X142419557Y-113376467D01*
X142385428Y-113263958D01*
X142368037Y-113206627D01*
X142350641Y-113030000D01*
X142368037Y-112853373D01*
X142419557Y-112683534D01*
X142419557Y-112683533D01*
X142503221Y-112527011D01*
X142503222Y-112527009D01*
X142532552Y-112491271D01*
X142615814Y-112389814D01*
X142717271Y-112306552D01*
X142753009Y-112277222D01*
X142770913Y-112267652D01*
X142909533Y-112193557D01*
X142966147Y-112176384D01*
X143079373Y-112142037D01*
X143145557Y-112135519D01*
X143211740Y-112129000D01*
X143300260Y-112129000D01*
X143366443Y-112135519D01*
X143366443Y-112135519D01*
G37*
G36*
X156066443Y-112135519D02*
X156132627Y-112142037D01*
X156245853Y-112176384D01*
X156302467Y-112193557D01*
X156441087Y-112267652D01*
X156458991Y-112277222D01*
X156494729Y-112306552D01*
X156596186Y-112389814D01*
X156679448Y-112491271D01*
X156708778Y-112527009D01*
X156708779Y-112527011D01*
X156792443Y-112683533D01*
X156792443Y-112683534D01*
X156843963Y-112853373D01*
X156861359Y-113030000D01*
X156843963Y-113206627D01*
X156826572Y-113263958D01*
X156792443Y-113376467D01*
X156718348Y-113515087D01*
X156708778Y-113532991D01*
X156682984Y-113564421D01*
X156596186Y-113670186D01*
X156494729Y-113753448D01*
X156458991Y-113782778D01*
X156458989Y-113782779D01*
X156302467Y-113866443D01*
X156246602Y-113883389D01*
X156132627Y-113917963D01*
X156066443Y-113924481D01*
X156000260Y-113931000D01*
X155911740Y-113931000D01*
X155845557Y-113924481D01*
X155779373Y-113917963D01*
X155665398Y-113883389D01*
X155609533Y-113866443D01*
X155453011Y-113782779D01*
X155453009Y-113782778D01*
X155417271Y-113753448D01*
X155315814Y-113670186D01*
X155229016Y-113564421D01*
X155203222Y-113532991D01*
X155193652Y-113515087D01*
X155119557Y-113376467D01*
X155085428Y-113263958D01*
X155068037Y-113206627D01*
X155050641Y-113030000D01*
X155068037Y-112853373D01*
X155119557Y-112683534D01*
X155119557Y-112683533D01*
X155203221Y-112527011D01*
X155203222Y-112527009D01*
X155232552Y-112491271D01*
X155315814Y-112389814D01*
X155417271Y-112306552D01*
X155453009Y-112277222D01*
X155470913Y-112267652D01*
X155609533Y-112193557D01*
X155666147Y-112176384D01*
X155779373Y-112142037D01*
X155845557Y-112135519D01*
X155911740Y-112129000D01*
X156000260Y-112129000D01*
X156066443Y-112135519D01*
X156066443Y-112135519D01*
G37*
G36*
X145906443Y-112135519D02*
X145972627Y-112142037D01*
X146085853Y-112176384D01*
X146142467Y-112193557D01*
X146281087Y-112267652D01*
X146298991Y-112277222D01*
X146334729Y-112306552D01*
X146436186Y-112389814D01*
X146519448Y-112491271D01*
X146548778Y-112527009D01*
X146548779Y-112527011D01*
X146632443Y-112683533D01*
X146632443Y-112683534D01*
X146683963Y-112853373D01*
X146701359Y-113030000D01*
X146683963Y-113206627D01*
X146666572Y-113263958D01*
X146632443Y-113376467D01*
X146558348Y-113515087D01*
X146548778Y-113532991D01*
X146522984Y-113564421D01*
X146436186Y-113670186D01*
X146334729Y-113753448D01*
X146298991Y-113782778D01*
X146298989Y-113782779D01*
X146142467Y-113866443D01*
X146086602Y-113883389D01*
X145972627Y-113917963D01*
X145906443Y-113924481D01*
X145840260Y-113931000D01*
X145751740Y-113931000D01*
X145685557Y-113924481D01*
X145619373Y-113917963D01*
X145505398Y-113883389D01*
X145449533Y-113866443D01*
X145293011Y-113782779D01*
X145293009Y-113782778D01*
X145257271Y-113753448D01*
X145155814Y-113670186D01*
X145069016Y-113564421D01*
X145043222Y-113532991D01*
X145033652Y-113515087D01*
X144959557Y-113376467D01*
X144925428Y-113263958D01*
X144908037Y-113206627D01*
X144890641Y-113030000D01*
X144908037Y-112853373D01*
X144959557Y-112683534D01*
X144959557Y-112683533D01*
X145043221Y-112527011D01*
X145043222Y-112527009D01*
X145072552Y-112491271D01*
X145155814Y-112389814D01*
X145257271Y-112306552D01*
X145293009Y-112277222D01*
X145310913Y-112267652D01*
X145449533Y-112193557D01*
X145506147Y-112176384D01*
X145619373Y-112142037D01*
X145685557Y-112135519D01*
X145751740Y-112129000D01*
X145840260Y-112129000D01*
X145906443Y-112135519D01*
X145906443Y-112135519D01*
G37*
G36*
X150986443Y-112135519D02*
X151052627Y-112142037D01*
X151165853Y-112176384D01*
X151222467Y-112193557D01*
X151361087Y-112267652D01*
X151378991Y-112277222D01*
X151414729Y-112306552D01*
X151516186Y-112389814D01*
X151599448Y-112491271D01*
X151628778Y-112527009D01*
X151628779Y-112527011D01*
X151712443Y-112683533D01*
X151712443Y-112683534D01*
X151763963Y-112853373D01*
X151781359Y-113030000D01*
X151763963Y-113206627D01*
X151746572Y-113263958D01*
X151712443Y-113376467D01*
X151638348Y-113515087D01*
X151628778Y-113532991D01*
X151602984Y-113564421D01*
X151516186Y-113670186D01*
X151414729Y-113753448D01*
X151378991Y-113782778D01*
X151378989Y-113782779D01*
X151222467Y-113866443D01*
X151166602Y-113883389D01*
X151052627Y-113917963D01*
X150986443Y-113924481D01*
X150920260Y-113931000D01*
X150831740Y-113931000D01*
X150765557Y-113924481D01*
X150699373Y-113917963D01*
X150585398Y-113883389D01*
X150529533Y-113866443D01*
X150373011Y-113782779D01*
X150373009Y-113782778D01*
X150337271Y-113753448D01*
X150235814Y-113670186D01*
X150149016Y-113564421D01*
X150123222Y-113532991D01*
X150113652Y-113515087D01*
X150039557Y-113376467D01*
X150005428Y-113263958D01*
X149988037Y-113206627D01*
X149970641Y-113030000D01*
X149988037Y-112853373D01*
X150039557Y-112683534D01*
X150039557Y-112683533D01*
X150123221Y-112527011D01*
X150123222Y-112527009D01*
X150152552Y-112491271D01*
X150235814Y-112389814D01*
X150337271Y-112306552D01*
X150373009Y-112277222D01*
X150390913Y-112267652D01*
X150529533Y-112193557D01*
X150586147Y-112176384D01*
X150699373Y-112142037D01*
X150765557Y-112135519D01*
X150831740Y-112129000D01*
X150920260Y-112129000D01*
X150986443Y-112135519D01*
X150986443Y-112135519D01*
G37*
G36*
X153526443Y-112135519D02*
X153592627Y-112142037D01*
X153705853Y-112176384D01*
X153762467Y-112193557D01*
X153901087Y-112267652D01*
X153918991Y-112277222D01*
X153954729Y-112306552D01*
X154056186Y-112389814D01*
X154139448Y-112491271D01*
X154168778Y-112527009D01*
X154168779Y-112527011D01*
X154252443Y-112683533D01*
X154252443Y-112683534D01*
X154303963Y-112853373D01*
X154321359Y-113030000D01*
X154303963Y-113206627D01*
X154286572Y-113263958D01*
X154252443Y-113376467D01*
X154178348Y-113515087D01*
X154168778Y-113532991D01*
X154142984Y-113564421D01*
X154056186Y-113670186D01*
X153954729Y-113753448D01*
X153918991Y-113782778D01*
X153918989Y-113782779D01*
X153762467Y-113866443D01*
X153706602Y-113883389D01*
X153592627Y-113917963D01*
X153526443Y-113924481D01*
X153460260Y-113931000D01*
X153371740Y-113931000D01*
X153305557Y-113924481D01*
X153239373Y-113917963D01*
X153125398Y-113883389D01*
X153069533Y-113866443D01*
X152913011Y-113782779D01*
X152913009Y-113782778D01*
X152877271Y-113753448D01*
X152775814Y-113670186D01*
X152689016Y-113564421D01*
X152663222Y-113532991D01*
X152653652Y-113515087D01*
X152579557Y-113376467D01*
X152545428Y-113263958D01*
X152528037Y-113206627D01*
X152510641Y-113030000D01*
X152528037Y-112853373D01*
X152579557Y-112683534D01*
X152579557Y-112683533D01*
X152663221Y-112527011D01*
X152663222Y-112527009D01*
X152692552Y-112491271D01*
X152775814Y-112389814D01*
X152877271Y-112306552D01*
X152913009Y-112277222D01*
X152930913Y-112267652D01*
X153069533Y-112193557D01*
X153126147Y-112176384D01*
X153239373Y-112142037D01*
X153305557Y-112135519D01*
X153371740Y-112129000D01*
X153460260Y-112129000D01*
X153526443Y-112135519D01*
X153526443Y-112135519D01*
G37*
G36*
X148446443Y-112135519D02*
X148512627Y-112142037D01*
X148625853Y-112176384D01*
X148682467Y-112193557D01*
X148821087Y-112267652D01*
X148838991Y-112277222D01*
X148874729Y-112306552D01*
X148976186Y-112389814D01*
X149059448Y-112491271D01*
X149088778Y-112527009D01*
X149088779Y-112527011D01*
X149172443Y-112683533D01*
X149172443Y-112683534D01*
X149223963Y-112853373D01*
X149241359Y-113030000D01*
X149223963Y-113206627D01*
X149206572Y-113263958D01*
X149172443Y-113376467D01*
X149098348Y-113515087D01*
X149088778Y-113532991D01*
X149062984Y-113564421D01*
X148976186Y-113670186D01*
X148874729Y-113753448D01*
X148838991Y-113782778D01*
X148838989Y-113782779D01*
X148682467Y-113866443D01*
X148626602Y-113883389D01*
X148512627Y-113917963D01*
X148446443Y-113924481D01*
X148380260Y-113931000D01*
X148291740Y-113931000D01*
X148225557Y-113924481D01*
X148159373Y-113917963D01*
X148045398Y-113883389D01*
X147989533Y-113866443D01*
X147833011Y-113782779D01*
X147833009Y-113782778D01*
X147797271Y-113753448D01*
X147695814Y-113670186D01*
X147609016Y-113564421D01*
X147583222Y-113532991D01*
X147573652Y-113515087D01*
X147499557Y-113376467D01*
X147465428Y-113263958D01*
X147448037Y-113206627D01*
X147430641Y-113030000D01*
X147448037Y-112853373D01*
X147499557Y-112683534D01*
X147499557Y-112683533D01*
X147583221Y-112527011D01*
X147583222Y-112527009D01*
X147612552Y-112491271D01*
X147695814Y-112389814D01*
X147797271Y-112306552D01*
X147833009Y-112277222D01*
X147850913Y-112267652D01*
X147989533Y-112193557D01*
X148046147Y-112176384D01*
X148159373Y-112142037D01*
X148225557Y-112135519D01*
X148291740Y-112129000D01*
X148380260Y-112129000D01*
X148446443Y-112135519D01*
X148446443Y-112135519D01*
G37*
G36*
X145775643Y-108957781D02*
X145921415Y-109018162D01*
X146052611Y-109105824D01*
X146164176Y-109217389D01*
X146251838Y-109348585D01*
X146312219Y-109494357D01*
X146343000Y-109649107D01*
X146343000Y-109806893D01*
X146312219Y-109961643D01*
X146251838Y-110107415D01*
X146164176Y-110238611D01*
X146052611Y-110350176D01*
X145921415Y-110437838D01*
X145775643Y-110498219D01*
X145620893Y-110529000D01*
X145463107Y-110529000D01*
X145308357Y-110498219D01*
X145162585Y-110437838D01*
X145031389Y-110350176D01*
X144919824Y-110238611D01*
X144832162Y-110107415D01*
X144771781Y-109961643D01*
X144741000Y-109806893D01*
X144741000Y-109649107D01*
X144771781Y-109494357D01*
X144832162Y-109348585D01*
X144919824Y-109217389D01*
X145031389Y-109105824D01*
X145162585Y-109018162D01*
X145308357Y-108957781D01*
X145463107Y-108927000D01*
X145620893Y-108927000D01*
X145775643Y-108957781D01*
X145775643Y-108957781D01*
G37*
G36*
X135869643Y-108957781D02*
X136015415Y-109018162D01*
X136146611Y-109105824D01*
X136258176Y-109217389D01*
X136345838Y-109348585D01*
X136406219Y-109494357D01*
X136437000Y-109649107D01*
X136437000Y-109806893D01*
X136406219Y-109961643D01*
X136345838Y-110107415D01*
X136258176Y-110238611D01*
X136146611Y-110350176D01*
X136015415Y-110437838D01*
X135869643Y-110498219D01*
X135714893Y-110529000D01*
X135557107Y-110529000D01*
X135402357Y-110498219D01*
X135256585Y-110437838D01*
X135125389Y-110350176D01*
X135013824Y-110238611D01*
X134926162Y-110107415D01*
X134865781Y-109961643D01*
X134835000Y-109806893D01*
X134835000Y-109649107D01*
X134865781Y-109494357D01*
X134926162Y-109348585D01*
X135013824Y-109217389D01*
X135125389Y-109105824D01*
X135256585Y-109018162D01*
X135402357Y-108957781D01*
X135557107Y-108927000D01*
X135714893Y-108927000D01*
X135869643Y-108957781D01*
X135869643Y-108957781D01*
G37*
G36*
X148823643Y-108957781D02*
X148969415Y-109018162D01*
X149100611Y-109105824D01*
X149212176Y-109217389D01*
X149299838Y-109348585D01*
X149360219Y-109494357D01*
X149391000Y-109649107D01*
X149391000Y-109806893D01*
X149360219Y-109961643D01*
X149299838Y-110107415D01*
X149212176Y-110238611D01*
X149100611Y-110350176D01*
X148969415Y-110437838D01*
X148823643Y-110498219D01*
X148668893Y-110529000D01*
X148511107Y-110529000D01*
X148356357Y-110498219D01*
X148210585Y-110437838D01*
X148079389Y-110350176D01*
X147967824Y-110238611D01*
X147880162Y-110107415D01*
X147819781Y-109961643D01*
X147789000Y-109806893D01*
X147789000Y-109649107D01*
X147819781Y-109494357D01*
X147880162Y-109348585D01*
X147967824Y-109217389D01*
X148079389Y-109105824D01*
X148210585Y-109018162D01*
X148356357Y-108957781D01*
X148511107Y-108927000D01*
X148668893Y-108927000D01*
X148823643Y-108957781D01*
X148823643Y-108957781D01*
G37*
G36*
X122729000Y-110483000D02*
X122127000Y-110483000D01*
X122127000Y-109481000D01*
X122729000Y-109481000D01*
X122729000Y-110483000D01*
X122729000Y-110483000D01*
G37*
G36*
X121229000Y-110483000D02*
X120627000Y-110483000D01*
X120627000Y-109481000D01*
X121229000Y-109481000D01*
X121229000Y-110483000D01*
X121229000Y-110483000D01*
G37*
G36*
X126019000Y-109213000D02*
X125417000Y-109213000D01*
X125417000Y-108211000D01*
X126019000Y-108211000D01*
X126019000Y-109213000D01*
X126019000Y-109213000D01*
G37*
G36*
X124519000Y-109213000D02*
X123917000Y-109213000D01*
X123917000Y-108211000D01*
X124519000Y-108211000D01*
X124519000Y-109213000D01*
X124519000Y-109213000D01*
G37*
G36*
X117799000Y-108376000D02*
X116897000Y-108376000D01*
X116897000Y-107524000D01*
X117799000Y-107524000D01*
X117799000Y-108376000D01*
X117799000Y-108376000D01*
G37*
G36*
X119299000Y-108376000D02*
X118397000Y-108376000D01*
X118397000Y-107524000D01*
X119299000Y-107524000D01*
X119299000Y-108376000D01*
X119299000Y-108376000D01*
G37*
G36*
X132981000Y-107073000D02*
X131179000Y-107073000D01*
X131179000Y-105271000D01*
X132981000Y-105271000D01*
X132981000Y-107073000D01*
X132981000Y-107073000D01*
G37*
G36*
X134730443Y-105277519D02*
X134796627Y-105284037D01*
X134909853Y-105318384D01*
X134966467Y-105335557D01*
X135105087Y-105409652D01*
X135122991Y-105419222D01*
X135158729Y-105448552D01*
X135260186Y-105531814D01*
X135343448Y-105633271D01*
X135372778Y-105669009D01*
X135372779Y-105669011D01*
X135456443Y-105825533D01*
X135456443Y-105825534D01*
X135507963Y-105995373D01*
X135525359Y-106172000D01*
X135507963Y-106348627D01*
X135473616Y-106461853D01*
X135456443Y-106518467D01*
X135413931Y-106598000D01*
X135372778Y-106674991D01*
X135343448Y-106710729D01*
X135260186Y-106812186D01*
X135158729Y-106895448D01*
X135122991Y-106924778D01*
X135122989Y-106924779D01*
X134966467Y-107008443D01*
X134909853Y-107025616D01*
X134796627Y-107059963D01*
X134730443Y-107066481D01*
X134664260Y-107073000D01*
X134575740Y-107073000D01*
X134509557Y-107066481D01*
X134443373Y-107059963D01*
X134330147Y-107025616D01*
X134273533Y-107008443D01*
X134117011Y-106924779D01*
X134117009Y-106924778D01*
X134081271Y-106895448D01*
X133979814Y-106812186D01*
X133896552Y-106710729D01*
X133867222Y-106674991D01*
X133826069Y-106598000D01*
X133783557Y-106518467D01*
X133766384Y-106461853D01*
X133732037Y-106348627D01*
X133714641Y-106172000D01*
X133732037Y-105995373D01*
X133783557Y-105825534D01*
X133783557Y-105825533D01*
X133867221Y-105669011D01*
X133867222Y-105669009D01*
X133896552Y-105633271D01*
X133979814Y-105531814D01*
X134081271Y-105448552D01*
X134117009Y-105419222D01*
X134134913Y-105409652D01*
X134273533Y-105335557D01*
X134330147Y-105318384D01*
X134443373Y-105284037D01*
X134509557Y-105277519D01*
X134575740Y-105271000D01*
X134664260Y-105271000D01*
X134730443Y-105277519D01*
X134730443Y-105277519D01*
G37*
G36*
X144890443Y-105277519D02*
X144956627Y-105284037D01*
X145069853Y-105318384D01*
X145126467Y-105335557D01*
X145265087Y-105409652D01*
X145282991Y-105419222D01*
X145318729Y-105448552D01*
X145420186Y-105531814D01*
X145503448Y-105633271D01*
X145532778Y-105669009D01*
X145532779Y-105669011D01*
X145616443Y-105825533D01*
X145616443Y-105825534D01*
X145667963Y-105995373D01*
X145685359Y-106172000D01*
X145667963Y-106348627D01*
X145633616Y-106461853D01*
X145616443Y-106518467D01*
X145573931Y-106598000D01*
X145532778Y-106674991D01*
X145503448Y-106710729D01*
X145420186Y-106812186D01*
X145318729Y-106895448D01*
X145282991Y-106924778D01*
X145282989Y-106924779D01*
X145126467Y-107008443D01*
X145069853Y-107025616D01*
X144956627Y-107059963D01*
X144890443Y-107066481D01*
X144824260Y-107073000D01*
X144735740Y-107073000D01*
X144669557Y-107066481D01*
X144603373Y-107059963D01*
X144490147Y-107025616D01*
X144433533Y-107008443D01*
X144277011Y-106924779D01*
X144277009Y-106924778D01*
X144241271Y-106895448D01*
X144139814Y-106812186D01*
X144056552Y-106710729D01*
X144027222Y-106674991D01*
X143986069Y-106598000D01*
X143943557Y-106518467D01*
X143926384Y-106461853D01*
X143892037Y-106348627D01*
X143874641Y-106172000D01*
X143892037Y-105995373D01*
X143943557Y-105825534D01*
X143943557Y-105825533D01*
X144027221Y-105669011D01*
X144027222Y-105669009D01*
X144056552Y-105633271D01*
X144139814Y-105531814D01*
X144241271Y-105448552D01*
X144277009Y-105419222D01*
X144294913Y-105409652D01*
X144433533Y-105335557D01*
X144490147Y-105318384D01*
X144603373Y-105284037D01*
X144669557Y-105277519D01*
X144735740Y-105271000D01*
X144824260Y-105271000D01*
X144890443Y-105277519D01*
X144890443Y-105277519D01*
G37*
G36*
X142350443Y-105277519D02*
X142416627Y-105284037D01*
X142529853Y-105318384D01*
X142586467Y-105335557D01*
X142725087Y-105409652D01*
X142742991Y-105419222D01*
X142778729Y-105448552D01*
X142880186Y-105531814D01*
X142963448Y-105633271D01*
X142992778Y-105669009D01*
X142992779Y-105669011D01*
X143076443Y-105825533D01*
X143076443Y-105825534D01*
X143127963Y-105995373D01*
X143145359Y-106172000D01*
X143127963Y-106348627D01*
X143093616Y-106461853D01*
X143076443Y-106518467D01*
X143033931Y-106598000D01*
X142992778Y-106674991D01*
X142963448Y-106710729D01*
X142880186Y-106812186D01*
X142778729Y-106895448D01*
X142742991Y-106924778D01*
X142742989Y-106924779D01*
X142586467Y-107008443D01*
X142529853Y-107025616D01*
X142416627Y-107059963D01*
X142350443Y-107066481D01*
X142284260Y-107073000D01*
X142195740Y-107073000D01*
X142129557Y-107066481D01*
X142063373Y-107059963D01*
X141950147Y-107025616D01*
X141893533Y-107008443D01*
X141737011Y-106924779D01*
X141737009Y-106924778D01*
X141701271Y-106895448D01*
X141599814Y-106812186D01*
X141516552Y-106710729D01*
X141487222Y-106674991D01*
X141446069Y-106598000D01*
X141403557Y-106518467D01*
X141386384Y-106461853D01*
X141352037Y-106348627D01*
X141334641Y-106172000D01*
X141352037Y-105995373D01*
X141403557Y-105825534D01*
X141403557Y-105825533D01*
X141487221Y-105669011D01*
X141487222Y-105669009D01*
X141516552Y-105633271D01*
X141599814Y-105531814D01*
X141701271Y-105448552D01*
X141737009Y-105419222D01*
X141754913Y-105409652D01*
X141893533Y-105335557D01*
X141950147Y-105318384D01*
X142063373Y-105284037D01*
X142129557Y-105277519D01*
X142195740Y-105271000D01*
X142284260Y-105271000D01*
X142350443Y-105277519D01*
X142350443Y-105277519D01*
G37*
G36*
X139810443Y-105277519D02*
X139876627Y-105284037D01*
X139989853Y-105318384D01*
X140046467Y-105335557D01*
X140185087Y-105409652D01*
X140202991Y-105419222D01*
X140238729Y-105448552D01*
X140340186Y-105531814D01*
X140423448Y-105633271D01*
X140452778Y-105669009D01*
X140452779Y-105669011D01*
X140536443Y-105825533D01*
X140536443Y-105825534D01*
X140587963Y-105995373D01*
X140605359Y-106172000D01*
X140587963Y-106348627D01*
X140553616Y-106461853D01*
X140536443Y-106518467D01*
X140493931Y-106598000D01*
X140452778Y-106674991D01*
X140423448Y-106710729D01*
X140340186Y-106812186D01*
X140238729Y-106895448D01*
X140202991Y-106924778D01*
X140202989Y-106924779D01*
X140046467Y-107008443D01*
X139989853Y-107025616D01*
X139876627Y-107059963D01*
X139810443Y-107066481D01*
X139744260Y-107073000D01*
X139655740Y-107073000D01*
X139589557Y-107066481D01*
X139523373Y-107059963D01*
X139410147Y-107025616D01*
X139353533Y-107008443D01*
X139197011Y-106924779D01*
X139197009Y-106924778D01*
X139161271Y-106895448D01*
X139059814Y-106812186D01*
X138976552Y-106710729D01*
X138947222Y-106674991D01*
X138906069Y-106598000D01*
X138863557Y-106518467D01*
X138846384Y-106461853D01*
X138812037Y-106348627D01*
X138794641Y-106172000D01*
X138812037Y-105995373D01*
X138863557Y-105825534D01*
X138863557Y-105825533D01*
X138947221Y-105669011D01*
X138947222Y-105669009D01*
X138976552Y-105633271D01*
X139059814Y-105531814D01*
X139161271Y-105448552D01*
X139197009Y-105419222D01*
X139214913Y-105409652D01*
X139353533Y-105335557D01*
X139410147Y-105318384D01*
X139523373Y-105284037D01*
X139589557Y-105277519D01*
X139655740Y-105271000D01*
X139744260Y-105271000D01*
X139810443Y-105277519D01*
X139810443Y-105277519D01*
G37*
G36*
X137270443Y-105277519D02*
X137336627Y-105284037D01*
X137449853Y-105318384D01*
X137506467Y-105335557D01*
X137645087Y-105409652D01*
X137662991Y-105419222D01*
X137698729Y-105448552D01*
X137800186Y-105531814D01*
X137883448Y-105633271D01*
X137912778Y-105669009D01*
X137912779Y-105669011D01*
X137996443Y-105825533D01*
X137996443Y-105825534D01*
X138047963Y-105995373D01*
X138065359Y-106172000D01*
X138047963Y-106348627D01*
X138013616Y-106461853D01*
X137996443Y-106518467D01*
X137953931Y-106598000D01*
X137912778Y-106674991D01*
X137883448Y-106710729D01*
X137800186Y-106812186D01*
X137698729Y-106895448D01*
X137662991Y-106924778D01*
X137662989Y-106924779D01*
X137506467Y-107008443D01*
X137449853Y-107025616D01*
X137336627Y-107059963D01*
X137270443Y-107066481D01*
X137204260Y-107073000D01*
X137115740Y-107073000D01*
X137049557Y-107066481D01*
X136983373Y-107059963D01*
X136870147Y-107025616D01*
X136813533Y-107008443D01*
X136657011Y-106924779D01*
X136657009Y-106924778D01*
X136621271Y-106895448D01*
X136519814Y-106812186D01*
X136436552Y-106710729D01*
X136407222Y-106674991D01*
X136366069Y-106598000D01*
X136323557Y-106518467D01*
X136306384Y-106461853D01*
X136272037Y-106348627D01*
X136254641Y-106172000D01*
X136272037Y-105995373D01*
X136323557Y-105825534D01*
X136323557Y-105825533D01*
X136407221Y-105669011D01*
X136407222Y-105669009D01*
X136436552Y-105633271D01*
X136519814Y-105531814D01*
X136621271Y-105448552D01*
X136657009Y-105419222D01*
X136674913Y-105409652D01*
X136813533Y-105335557D01*
X136870147Y-105318384D01*
X136983373Y-105284037D01*
X137049557Y-105277519D01*
X137115740Y-105271000D01*
X137204260Y-105271000D01*
X137270443Y-105277519D01*
X137270443Y-105277519D01*
G37*
G36*
X124025000Y-106990000D02*
X122863000Y-106990000D01*
X122863000Y-104338000D01*
X124025000Y-104338000D01*
X124025000Y-106990000D01*
X124025000Y-106990000D01*
G37*
G36*
X121825000Y-106990000D02*
X120663000Y-106990000D01*
X120663000Y-104338000D01*
X121825000Y-104338000D01*
X121825000Y-106990000D01*
X121825000Y-106990000D01*
G37*
G36*
X125959000Y-106715000D02*
X125057000Y-106715000D01*
X125057000Y-104613000D01*
X125959000Y-104613000D01*
X125959000Y-106715000D01*
X125959000Y-106715000D01*
G37*
G36*
X127959000Y-106715000D02*
X127057000Y-106715000D01*
X127057000Y-104613000D01*
X127959000Y-104613000D01*
X127959000Y-106715000D01*
X127959000Y-106715000D01*
G37*
G36*
X119299000Y-106598000D02*
X118397000Y-106598000D01*
X118397000Y-105746000D01*
X119299000Y-105746000D01*
X119299000Y-106598000D01*
X119299000Y-106598000D01*
G37*
G36*
X117799000Y-106598000D02*
X116897000Y-106598000D01*
X116897000Y-105746000D01*
X117799000Y-105746000D01*
X117799000Y-106598000D01*
X117799000Y-106598000D01*
G37*
G36*
X119311000Y-104820000D02*
X118409000Y-104820000D01*
X118409000Y-103968000D01*
X119311000Y-103968000D01*
X119311000Y-104820000D01*
X119311000Y-104820000D01*
G37*
G36*
X117811000Y-104820000D02*
X116909000Y-104820000D01*
X116909000Y-103968000D01*
X117811000Y-103968000D01*
X117811000Y-104820000D01*
X117811000Y-104820000D01*
G37*
G36*
X127983000Y-103550000D02*
X127081000Y-103550000D01*
X127081000Y-102698000D01*
X127983000Y-102698000D01*
X127983000Y-103550000D01*
X127983000Y-103550000D01*
G37*
G36*
X129483000Y-103550000D02*
X128581000Y-103550000D01*
X128581000Y-102698000D01*
X129483000Y-102698000D01*
X129483000Y-103550000D01*
X129483000Y-103550000D01*
G37*
G36*
X124277000Y-103117000D02*
X123675000Y-103117000D01*
X123675000Y-102115000D01*
X124277000Y-102115000D01*
X124277000Y-103117000D01*
X124277000Y-103117000D01*
G37*
G36*
X125777000Y-103117000D02*
X125175000Y-103117000D01*
X125175000Y-102115000D01*
X125777000Y-102115000D01*
X125777000Y-103117000D01*
X125777000Y-103117000D01*
G37*
G36*
X113173000Y-103013000D02*
X111871000Y-103013000D01*
X111871000Y-101711000D01*
X113173000Y-101711000D01*
X113173000Y-103013000D01*
X113173000Y-103013000D01*
G37*
G36*
X158606443Y-100705519D02*
X158672627Y-100712037D01*
X158783049Y-100745533D01*
X158842467Y-100763557D01*
X158934967Y-100813000D01*
X158998991Y-100847222D01*
X159034729Y-100876552D01*
X159136186Y-100959814D01*
X159219448Y-101061271D01*
X159248778Y-101097009D01*
X159248779Y-101097011D01*
X159332443Y-101253533D01*
X159349616Y-101310147D01*
X159383963Y-101423373D01*
X159401359Y-101600000D01*
X159383963Y-101776627D01*
X159363289Y-101844779D01*
X159332443Y-101946467D01*
X159307570Y-101993000D01*
X159248778Y-102102991D01*
X159238922Y-102115000D01*
X159136186Y-102240186D01*
X159034729Y-102323448D01*
X158998991Y-102352778D01*
X158998989Y-102352779D01*
X158842467Y-102436443D01*
X158785853Y-102453616D01*
X158672627Y-102487963D01*
X158606442Y-102494482D01*
X158540260Y-102501000D01*
X158451740Y-102501000D01*
X158385558Y-102494482D01*
X158319373Y-102487963D01*
X158206147Y-102453616D01*
X158149533Y-102436443D01*
X157993011Y-102352779D01*
X157993009Y-102352778D01*
X157957271Y-102323448D01*
X157855814Y-102240186D01*
X157753078Y-102115000D01*
X157743222Y-102102991D01*
X157684430Y-101993000D01*
X157659557Y-101946467D01*
X157628711Y-101844779D01*
X157608037Y-101776627D01*
X157590641Y-101600000D01*
X157608037Y-101423373D01*
X157642384Y-101310147D01*
X157659557Y-101253533D01*
X157743221Y-101097011D01*
X157743222Y-101097009D01*
X157772552Y-101061271D01*
X157855814Y-100959814D01*
X157957271Y-100876552D01*
X157993009Y-100847222D01*
X158057033Y-100813000D01*
X158149533Y-100763557D01*
X158208951Y-100745533D01*
X158319373Y-100712037D01*
X158385557Y-100705519D01*
X158451740Y-100699000D01*
X158540260Y-100699000D01*
X158606443Y-100705519D01*
X158606443Y-100705519D01*
G37*
G36*
X164448443Y-100705519D02*
X164514627Y-100712037D01*
X164625049Y-100745533D01*
X164684467Y-100763557D01*
X164776967Y-100813000D01*
X164840991Y-100847222D01*
X164876729Y-100876552D01*
X164978186Y-100959814D01*
X165061448Y-101061271D01*
X165090778Y-101097009D01*
X165090779Y-101097011D01*
X165174443Y-101253533D01*
X165191616Y-101310147D01*
X165225963Y-101423373D01*
X165243359Y-101600000D01*
X165225963Y-101776627D01*
X165205289Y-101844779D01*
X165174443Y-101946467D01*
X165149570Y-101993000D01*
X165090778Y-102102991D01*
X165080922Y-102115000D01*
X164978186Y-102240186D01*
X164876729Y-102323448D01*
X164840991Y-102352778D01*
X164840989Y-102352779D01*
X164684467Y-102436443D01*
X164627853Y-102453616D01*
X164514627Y-102487963D01*
X164448442Y-102494482D01*
X164382260Y-102501000D01*
X164293740Y-102501000D01*
X164227558Y-102494482D01*
X164161373Y-102487963D01*
X164048147Y-102453616D01*
X163991533Y-102436443D01*
X163835011Y-102352779D01*
X163835009Y-102352778D01*
X163799271Y-102323448D01*
X163697814Y-102240186D01*
X163595078Y-102115000D01*
X163585222Y-102102991D01*
X163526430Y-101993000D01*
X163501557Y-101946467D01*
X163470711Y-101844779D01*
X163450037Y-101776627D01*
X163432641Y-101600000D01*
X163450037Y-101423373D01*
X163484384Y-101310147D01*
X163501557Y-101253533D01*
X163585221Y-101097011D01*
X163585222Y-101097009D01*
X163614552Y-101061271D01*
X163697814Y-100959814D01*
X163799271Y-100876552D01*
X163835009Y-100847222D01*
X163899033Y-100813000D01*
X163991533Y-100763557D01*
X164050951Y-100745533D01*
X164161373Y-100712037D01*
X164227557Y-100705519D01*
X164293740Y-100699000D01*
X164382260Y-100699000D01*
X164448443Y-100705519D01*
X164448443Y-100705519D01*
G37*
G36*
X122879000Y-102026000D02*
X121977000Y-102026000D01*
X121977000Y-101174000D01*
X122879000Y-101174000D01*
X122879000Y-102026000D01*
X122879000Y-102026000D01*
G37*
G36*
X121379000Y-102026000D02*
X120477000Y-102026000D01*
X120477000Y-101174000D01*
X121379000Y-101174000D01*
X121379000Y-102026000D01*
X121379000Y-102026000D01*
G37*
G36*
X116950442Y-100197518D02*
X117016627Y-100204037D01*
X117129853Y-100238384D01*
X117186467Y-100255557D01*
X117325087Y-100329652D01*
X117342991Y-100339222D01*
X117378729Y-100368552D01*
X117480186Y-100451814D01*
X117563448Y-100553271D01*
X117592778Y-100589009D01*
X117592779Y-100589011D01*
X117676443Y-100745533D01*
X117676443Y-100745534D01*
X117727963Y-100915373D01*
X117745359Y-101092000D01*
X117727963Y-101268627D01*
X117693616Y-101381853D01*
X117676443Y-101438467D01*
X117602348Y-101577087D01*
X117592778Y-101594991D01*
X117588667Y-101600000D01*
X117480186Y-101732186D01*
X117378729Y-101815448D01*
X117342991Y-101844778D01*
X117342989Y-101844779D01*
X117186467Y-101928443D01*
X117129853Y-101945616D01*
X117016627Y-101979963D01*
X116950442Y-101986482D01*
X116884260Y-101993000D01*
X116795740Y-101993000D01*
X116729558Y-101986482D01*
X116663373Y-101979963D01*
X116550147Y-101945616D01*
X116493533Y-101928443D01*
X116337011Y-101844779D01*
X116337009Y-101844778D01*
X116301271Y-101815448D01*
X116199814Y-101732186D01*
X116091333Y-101600000D01*
X116087222Y-101594991D01*
X116077652Y-101577087D01*
X116003557Y-101438467D01*
X115986384Y-101381853D01*
X115952037Y-101268627D01*
X115934641Y-101092000D01*
X115952037Y-100915373D01*
X116003557Y-100745534D01*
X116003557Y-100745533D01*
X116087221Y-100589011D01*
X116087222Y-100589009D01*
X116116552Y-100553271D01*
X116199814Y-100451814D01*
X116301271Y-100368552D01*
X116337009Y-100339222D01*
X116354913Y-100329652D01*
X116493533Y-100255557D01*
X116550147Y-100238384D01*
X116663373Y-100204037D01*
X116729558Y-100197518D01*
X116795740Y-100191000D01*
X116884260Y-100191000D01*
X116950442Y-100197518D01*
X116950442Y-100197518D01*
G37*
G36*
X147795000Y-101010000D02*
X146893000Y-101010000D01*
X146893000Y-100158000D01*
X147795000Y-100158000D01*
X147795000Y-101010000D01*
X147795000Y-101010000D01*
G37*
G36*
X149295000Y-101010000D02*
X148393000Y-101010000D01*
X148393000Y-100158000D01*
X149295000Y-100158000D01*
X149295000Y-101010000D01*
X149295000Y-101010000D01*
G37*
G36*
X113173000Y-100813000D02*
X111871000Y-100813000D01*
X111871000Y-99511000D01*
X113173000Y-99511000D01*
X113173000Y-100813000D01*
X113173000Y-100813000D01*
G37*
G36*
X129483000Y-100756000D02*
X128581000Y-100756000D01*
X128581000Y-99904000D01*
X129483000Y-99904000D01*
X129483000Y-100756000D01*
X129483000Y-100756000D01*
G37*
G36*
X127983000Y-100756000D02*
X127081000Y-100756000D01*
X127081000Y-99904000D01*
X127983000Y-99904000D01*
X127983000Y-100756000D01*
X127983000Y-100756000D01*
G37*
G36*
X158606443Y-98165519D02*
X158672627Y-98172037D01*
X158783049Y-98205533D01*
X158842467Y-98223557D01*
X158981087Y-98297652D01*
X158998991Y-98307222D01*
X159030401Y-98333000D01*
X159136186Y-98419814D01*
X159219448Y-98521271D01*
X159248778Y-98557009D01*
X159248779Y-98557011D01*
X159332443Y-98713533D01*
X159349616Y-98770147D01*
X159383963Y-98883373D01*
X159401359Y-99060000D01*
X159383963Y-99236627D01*
X159363289Y-99304779D01*
X159332443Y-99406467D01*
X159307570Y-99453000D01*
X159248778Y-99562991D01*
X159219448Y-99598729D01*
X159136186Y-99700186D01*
X159034729Y-99783448D01*
X158998991Y-99812778D01*
X158998989Y-99812779D01*
X158842467Y-99896443D01*
X158817554Y-99904000D01*
X158672627Y-99947963D01*
X158606443Y-99954481D01*
X158540260Y-99961000D01*
X158451740Y-99961000D01*
X158385557Y-99954481D01*
X158319373Y-99947963D01*
X158174446Y-99904000D01*
X158149533Y-99896443D01*
X157993011Y-99812779D01*
X157993009Y-99812778D01*
X157957271Y-99783448D01*
X157855814Y-99700186D01*
X157772552Y-99598729D01*
X157743222Y-99562991D01*
X157684430Y-99453000D01*
X157659557Y-99406467D01*
X157628711Y-99304779D01*
X157608037Y-99236627D01*
X157590641Y-99060000D01*
X157608037Y-98883373D01*
X157642384Y-98770147D01*
X157659557Y-98713533D01*
X157743221Y-98557011D01*
X157743222Y-98557009D01*
X157772552Y-98521271D01*
X157855814Y-98419814D01*
X157961599Y-98333000D01*
X157993009Y-98307222D01*
X158010913Y-98297652D01*
X158149533Y-98223557D01*
X158208951Y-98205533D01*
X158319373Y-98172037D01*
X158385557Y-98165519D01*
X158451740Y-98159000D01*
X158540260Y-98159000D01*
X158606443Y-98165519D01*
X158606443Y-98165519D01*
G37*
G36*
X164448443Y-98165519D02*
X164514627Y-98172037D01*
X164625049Y-98205533D01*
X164684467Y-98223557D01*
X164823087Y-98297652D01*
X164840991Y-98307222D01*
X164872401Y-98333000D01*
X164978186Y-98419814D01*
X165061448Y-98521271D01*
X165090778Y-98557009D01*
X165090779Y-98557011D01*
X165174443Y-98713533D01*
X165191616Y-98770147D01*
X165225963Y-98883373D01*
X165243359Y-99060000D01*
X165225963Y-99236627D01*
X165205289Y-99304779D01*
X165174443Y-99406467D01*
X165149570Y-99453000D01*
X165090778Y-99562991D01*
X165061448Y-99598729D01*
X164978186Y-99700186D01*
X164876729Y-99783448D01*
X164840991Y-99812778D01*
X164840989Y-99812779D01*
X164684467Y-99896443D01*
X164659554Y-99904000D01*
X164514627Y-99947963D01*
X164448443Y-99954481D01*
X164382260Y-99961000D01*
X164293740Y-99961000D01*
X164227557Y-99954481D01*
X164161373Y-99947963D01*
X164016446Y-99904000D01*
X163991533Y-99896443D01*
X163835011Y-99812779D01*
X163835009Y-99812778D01*
X163799271Y-99783448D01*
X163697814Y-99700186D01*
X163614552Y-99598729D01*
X163585222Y-99562991D01*
X163526430Y-99453000D01*
X163501557Y-99406467D01*
X163470711Y-99304779D01*
X163450037Y-99236627D01*
X163432641Y-99060000D01*
X163450037Y-98883373D01*
X163484384Y-98770147D01*
X163501557Y-98713533D01*
X163585221Y-98557011D01*
X163585222Y-98557009D01*
X163614552Y-98521271D01*
X163697814Y-98419814D01*
X163803599Y-98333000D01*
X163835009Y-98307222D01*
X163852913Y-98297652D01*
X163991533Y-98223557D01*
X164050951Y-98205533D01*
X164161373Y-98172037D01*
X164227557Y-98165519D01*
X164293740Y-98159000D01*
X164382260Y-98159000D01*
X164448443Y-98165519D01*
X164448443Y-98165519D01*
G37*
G36*
X116950443Y-97657519D02*
X117016627Y-97664037D01*
X117129853Y-97698384D01*
X117186467Y-97715557D01*
X117215358Y-97731000D01*
X117342991Y-97799222D01*
X117378729Y-97828552D01*
X117480186Y-97911814D01*
X117563448Y-98013271D01*
X117592778Y-98049009D01*
X117592779Y-98049011D01*
X117676443Y-98205533D01*
X117676443Y-98205534D01*
X117727963Y-98375373D01*
X117745359Y-98552000D01*
X117727963Y-98728627D01*
X117693616Y-98841853D01*
X117676443Y-98898467D01*
X117602348Y-99037087D01*
X117592778Y-99054991D01*
X117588667Y-99060000D01*
X117480186Y-99192186D01*
X117378729Y-99275448D01*
X117342991Y-99304778D01*
X117342989Y-99304779D01*
X117186467Y-99388443D01*
X117129853Y-99405616D01*
X117016627Y-99439963D01*
X116950443Y-99446481D01*
X116884260Y-99453000D01*
X116795740Y-99453000D01*
X116729557Y-99446481D01*
X116663373Y-99439963D01*
X116550147Y-99405616D01*
X116493533Y-99388443D01*
X116337011Y-99304779D01*
X116337009Y-99304778D01*
X116301271Y-99275448D01*
X116199814Y-99192186D01*
X116091333Y-99060000D01*
X116087222Y-99054991D01*
X116077652Y-99037087D01*
X116003557Y-98898467D01*
X115986384Y-98841853D01*
X115952037Y-98728627D01*
X115934641Y-98552000D01*
X115952037Y-98375373D01*
X116003557Y-98205534D01*
X116003557Y-98205533D01*
X116087221Y-98049011D01*
X116087222Y-98049009D01*
X116116552Y-98013271D01*
X116199814Y-97911814D01*
X116301271Y-97828552D01*
X116337009Y-97799222D01*
X116464642Y-97731000D01*
X116493533Y-97715557D01*
X116550147Y-97698384D01*
X116663373Y-97664037D01*
X116729557Y-97657519D01*
X116795740Y-97651000D01*
X116884260Y-97651000D01*
X116950443Y-97657519D01*
X116950443Y-97657519D01*
G37*
G36*
X134575000Y-99232000D02*
X133673000Y-99232000D01*
X133673000Y-98380000D01*
X134575000Y-98380000D01*
X134575000Y-99232000D01*
X134575000Y-99232000D01*
G37*
G36*
X151859000Y-99232000D02*
X150957000Y-99232000D01*
X150957000Y-98380000D01*
X151859000Y-98380000D01*
X151859000Y-99232000D01*
X151859000Y-99232000D01*
G37*
G36*
X136075000Y-99232000D02*
X135173000Y-99232000D01*
X135173000Y-98380000D01*
X136075000Y-98380000D01*
X136075000Y-99232000D01*
X136075000Y-99232000D01*
G37*
G36*
X153359000Y-99232000D02*
X152457000Y-99232000D01*
X152457000Y-98380000D01*
X153359000Y-98380000D01*
X153359000Y-99232000D01*
X153359000Y-99232000D01*
G37*
G36*
X147182000Y-99215000D02*
X139330000Y-99215000D01*
X139330000Y-98113000D01*
X147182000Y-98113000D01*
X147182000Y-99215000D01*
X147182000Y-99215000D01*
G37*
G36*
X113023000Y-98333000D02*
X112021000Y-98333000D01*
X112021000Y-97731000D01*
X113023000Y-97731000D01*
X113023000Y-98333000D01*
X113023000Y-98333000D01*
G37*
G36*
X134587000Y-97454000D02*
X133685000Y-97454000D01*
X133685000Y-96602000D01*
X134587000Y-96602000D01*
X134587000Y-97454000D01*
X134587000Y-97454000D01*
G37*
G36*
X136087000Y-97454000D02*
X135185000Y-97454000D01*
X135185000Y-96602000D01*
X136087000Y-96602000D01*
X136087000Y-97454000D01*
X136087000Y-97454000D01*
G37*
G36*
X158606442Y-95625518D02*
X158672627Y-95632037D01*
X158783049Y-95665533D01*
X158842467Y-95683557D01*
X158981087Y-95757652D01*
X158998991Y-95767222D01*
X159034729Y-95796552D01*
X159136186Y-95879814D01*
X159219448Y-95981271D01*
X159248778Y-96017009D01*
X159248779Y-96017011D01*
X159332443Y-96173533D01*
X159349616Y-96230147D01*
X159383963Y-96343373D01*
X159401359Y-96520000D01*
X159383963Y-96696627D01*
X159363289Y-96764779D01*
X159332443Y-96866467D01*
X159307570Y-96913000D01*
X159248778Y-97022991D01*
X159219448Y-97058729D01*
X159136186Y-97160186D01*
X159034729Y-97243448D01*
X158998991Y-97272778D01*
X158998989Y-97272779D01*
X158842467Y-97356443D01*
X158785853Y-97373616D01*
X158672627Y-97407963D01*
X158606442Y-97414482D01*
X158540260Y-97421000D01*
X158451740Y-97421000D01*
X158385558Y-97414482D01*
X158319373Y-97407963D01*
X158206147Y-97373616D01*
X158149533Y-97356443D01*
X157993011Y-97272779D01*
X157993009Y-97272778D01*
X157957271Y-97243448D01*
X157855814Y-97160186D01*
X157772552Y-97058729D01*
X157743222Y-97022991D01*
X157684430Y-96913000D01*
X157659557Y-96866467D01*
X157628711Y-96764779D01*
X157608037Y-96696627D01*
X157590641Y-96520000D01*
X157608037Y-96343373D01*
X157642384Y-96230147D01*
X157659557Y-96173533D01*
X157743221Y-96017011D01*
X157743222Y-96017009D01*
X157772552Y-95981271D01*
X157855814Y-95879814D01*
X157957271Y-95796552D01*
X157993009Y-95767222D01*
X158010913Y-95757652D01*
X158149533Y-95683557D01*
X158208951Y-95665533D01*
X158319373Y-95632037D01*
X158385558Y-95625518D01*
X158451740Y-95619000D01*
X158540260Y-95619000D01*
X158606442Y-95625518D01*
X158606442Y-95625518D01*
G37*
G36*
X164448442Y-95625518D02*
X164514627Y-95632037D01*
X164625049Y-95665533D01*
X164684467Y-95683557D01*
X164823087Y-95757652D01*
X164840991Y-95767222D01*
X164876729Y-95796552D01*
X164978186Y-95879814D01*
X165061448Y-95981271D01*
X165090778Y-96017009D01*
X165090779Y-96017011D01*
X165174443Y-96173533D01*
X165191616Y-96230147D01*
X165225963Y-96343373D01*
X165243359Y-96520000D01*
X165225963Y-96696627D01*
X165205289Y-96764779D01*
X165174443Y-96866467D01*
X165149570Y-96913000D01*
X165090778Y-97022991D01*
X165061448Y-97058729D01*
X164978186Y-97160186D01*
X164876729Y-97243448D01*
X164840991Y-97272778D01*
X164840989Y-97272779D01*
X164684467Y-97356443D01*
X164627853Y-97373616D01*
X164514627Y-97407963D01*
X164448442Y-97414482D01*
X164382260Y-97421000D01*
X164293740Y-97421000D01*
X164227558Y-97414482D01*
X164161373Y-97407963D01*
X164048147Y-97373616D01*
X163991533Y-97356443D01*
X163835011Y-97272779D01*
X163835009Y-97272778D01*
X163799271Y-97243448D01*
X163697814Y-97160186D01*
X163614552Y-97058729D01*
X163585222Y-97022991D01*
X163526430Y-96913000D01*
X163501557Y-96866467D01*
X163470711Y-96764779D01*
X163450037Y-96696627D01*
X163432641Y-96520000D01*
X163450037Y-96343373D01*
X163484384Y-96230147D01*
X163501557Y-96173533D01*
X163585221Y-96017011D01*
X163585222Y-96017009D01*
X163614552Y-95981271D01*
X163697814Y-95879814D01*
X163799271Y-95796552D01*
X163835009Y-95767222D01*
X163852913Y-95757652D01*
X163991533Y-95683557D01*
X164050951Y-95665533D01*
X164161373Y-95632037D01*
X164227558Y-95625518D01*
X164293740Y-95619000D01*
X164382260Y-95619000D01*
X164448442Y-95625518D01*
X164448442Y-95625518D01*
G37*
G36*
X116950442Y-95117518D02*
X117016627Y-95124037D01*
X117129853Y-95158384D01*
X117186467Y-95175557D01*
X117325087Y-95249652D01*
X117342991Y-95259222D01*
X117378729Y-95288552D01*
X117480186Y-95371814D01*
X117563448Y-95473271D01*
X117592778Y-95509009D01*
X117592779Y-95509011D01*
X117676443Y-95665533D01*
X117676443Y-95665534D01*
X117727963Y-95835373D01*
X117745359Y-96012000D01*
X117727963Y-96188627D01*
X117715109Y-96231000D01*
X117676443Y-96358467D01*
X117659588Y-96390000D01*
X117592778Y-96514991D01*
X117588667Y-96520000D01*
X117480186Y-96652186D01*
X117378729Y-96735448D01*
X117342991Y-96764778D01*
X117342989Y-96764779D01*
X117186467Y-96848443D01*
X117129853Y-96865616D01*
X117016627Y-96899963D01*
X116950443Y-96906481D01*
X116884260Y-96913000D01*
X116795740Y-96913000D01*
X116729557Y-96906481D01*
X116663373Y-96899963D01*
X116550147Y-96865616D01*
X116493533Y-96848443D01*
X116337011Y-96764779D01*
X116337009Y-96764778D01*
X116301271Y-96735448D01*
X116199814Y-96652186D01*
X116091333Y-96520000D01*
X116087222Y-96514991D01*
X116020412Y-96390000D01*
X116003557Y-96358467D01*
X115964891Y-96231000D01*
X115952037Y-96188627D01*
X115934641Y-96012000D01*
X115952037Y-95835373D01*
X116003557Y-95665534D01*
X116003557Y-95665533D01*
X116087221Y-95509011D01*
X116087222Y-95509009D01*
X116116552Y-95473271D01*
X116199814Y-95371814D01*
X116301271Y-95288552D01*
X116337009Y-95259222D01*
X116354913Y-95249652D01*
X116493533Y-95175557D01*
X116550147Y-95158384D01*
X116663373Y-95124037D01*
X116729558Y-95117518D01*
X116795740Y-95111000D01*
X116884260Y-95111000D01*
X116950442Y-95117518D01*
X116950442Y-95117518D01*
G37*
G36*
X149507000Y-96890000D02*
X148405000Y-96890000D01*
X148405000Y-89038000D01*
X149507000Y-89038000D01*
X149507000Y-96890000D01*
X149507000Y-96890000D01*
G37*
G36*
X138107000Y-96890000D02*
X137005000Y-96890000D01*
X137005000Y-89038000D01*
X138107000Y-89038000D01*
X138107000Y-96890000D01*
X138107000Y-96890000D01*
G37*
G36*
X113023000Y-96833000D02*
X112021000Y-96833000D01*
X112021000Y-96231000D01*
X113023000Y-96231000D01*
X113023000Y-96833000D01*
X113023000Y-96833000D01*
G37*
G36*
X113023000Y-95043000D02*
X112021000Y-95043000D01*
X112021000Y-94441000D01*
X113023000Y-94441000D01*
X113023000Y-95043000D01*
X113023000Y-95043000D01*
G37*
G36*
X158606443Y-93085519D02*
X158672627Y-93092037D01*
X158783049Y-93125533D01*
X158842467Y-93143557D01*
X158981087Y-93217652D01*
X158998991Y-93227222D01*
X159034729Y-93256552D01*
X159136186Y-93339814D01*
X159219448Y-93441271D01*
X159248778Y-93477009D01*
X159248779Y-93477011D01*
X159332443Y-93633533D01*
X159349616Y-93690147D01*
X159383963Y-93803373D01*
X159401359Y-93980000D01*
X159383963Y-94156627D01*
X159363289Y-94224779D01*
X159332443Y-94326467D01*
X159307570Y-94373000D01*
X159248778Y-94482991D01*
X159219448Y-94518729D01*
X159136186Y-94620186D01*
X159034729Y-94703448D01*
X158998991Y-94732778D01*
X158998989Y-94732779D01*
X158842467Y-94816443D01*
X158785853Y-94833616D01*
X158672627Y-94867963D01*
X158606443Y-94874481D01*
X158540260Y-94881000D01*
X158451740Y-94881000D01*
X158385557Y-94874481D01*
X158319373Y-94867963D01*
X158206147Y-94833616D01*
X158149533Y-94816443D01*
X157993011Y-94732779D01*
X157993009Y-94732778D01*
X157957271Y-94703448D01*
X157855814Y-94620186D01*
X157772552Y-94518729D01*
X157743222Y-94482991D01*
X157684430Y-94373000D01*
X157659557Y-94326467D01*
X157628711Y-94224779D01*
X157608037Y-94156627D01*
X157590641Y-93980000D01*
X157608037Y-93803373D01*
X157642384Y-93690147D01*
X157659557Y-93633533D01*
X157743221Y-93477011D01*
X157743222Y-93477009D01*
X157772552Y-93441271D01*
X157855814Y-93339814D01*
X157957271Y-93256552D01*
X157993009Y-93227222D01*
X158010913Y-93217652D01*
X158149533Y-93143557D01*
X158208951Y-93125533D01*
X158319373Y-93092037D01*
X158385557Y-93085519D01*
X158451740Y-93079000D01*
X158540260Y-93079000D01*
X158606443Y-93085519D01*
X158606443Y-93085519D01*
G37*
G36*
X164448443Y-93085519D02*
X164514627Y-93092037D01*
X164625049Y-93125533D01*
X164684467Y-93143557D01*
X164823087Y-93217652D01*
X164840991Y-93227222D01*
X164876729Y-93256552D01*
X164978186Y-93339814D01*
X165061448Y-93441271D01*
X165090778Y-93477009D01*
X165090779Y-93477011D01*
X165174443Y-93633533D01*
X165191616Y-93690147D01*
X165225963Y-93803373D01*
X165243359Y-93980000D01*
X165225963Y-94156627D01*
X165205289Y-94224779D01*
X165174443Y-94326467D01*
X165149570Y-94373000D01*
X165090778Y-94482991D01*
X165061448Y-94518729D01*
X164978186Y-94620186D01*
X164876729Y-94703448D01*
X164840991Y-94732778D01*
X164840989Y-94732779D01*
X164684467Y-94816443D01*
X164627853Y-94833616D01*
X164514627Y-94867963D01*
X164448443Y-94874481D01*
X164382260Y-94881000D01*
X164293740Y-94881000D01*
X164227557Y-94874481D01*
X164161373Y-94867963D01*
X164048147Y-94833616D01*
X163991533Y-94816443D01*
X163835011Y-94732779D01*
X163835009Y-94732778D01*
X163799271Y-94703448D01*
X163697814Y-94620186D01*
X163614552Y-94518729D01*
X163585222Y-94482991D01*
X163526430Y-94373000D01*
X163501557Y-94326467D01*
X163470711Y-94224779D01*
X163450037Y-94156627D01*
X163432641Y-93980000D01*
X163450037Y-93803373D01*
X163484384Y-93690147D01*
X163501557Y-93633533D01*
X163585221Y-93477011D01*
X163585222Y-93477009D01*
X163614552Y-93441271D01*
X163697814Y-93339814D01*
X163799271Y-93256552D01*
X163835009Y-93227222D01*
X163852913Y-93217652D01*
X163991533Y-93143557D01*
X164050951Y-93125533D01*
X164161373Y-93092037D01*
X164227557Y-93085519D01*
X164293740Y-93079000D01*
X164382260Y-93079000D01*
X164448443Y-93085519D01*
X164448443Y-93085519D01*
G37*
G36*
X116950443Y-92577519D02*
X117016627Y-92584037D01*
X117129853Y-92618384D01*
X117186467Y-92635557D01*
X117325087Y-92709652D01*
X117342991Y-92719222D01*
X117378729Y-92748552D01*
X117480186Y-92831814D01*
X117527937Y-92890000D01*
X117592778Y-92969009D01*
X117592779Y-92969011D01*
X117676443Y-93125533D01*
X117676443Y-93125534D01*
X117727963Y-93295373D01*
X117745359Y-93472000D01*
X117727963Y-93648627D01*
X117693616Y-93761853D01*
X117676443Y-93818467D01*
X117638207Y-93890000D01*
X117592778Y-93974991D01*
X117588667Y-93980000D01*
X117480186Y-94112186D01*
X117378729Y-94195448D01*
X117342991Y-94224778D01*
X117342989Y-94224779D01*
X117186467Y-94308443D01*
X117129853Y-94325616D01*
X117016627Y-94359963D01*
X116950443Y-94366481D01*
X116884260Y-94373000D01*
X116795740Y-94373000D01*
X116729557Y-94366481D01*
X116663373Y-94359963D01*
X116550147Y-94325616D01*
X116493533Y-94308443D01*
X116337011Y-94224779D01*
X116337009Y-94224778D01*
X116301271Y-94195448D01*
X116199814Y-94112186D01*
X116091333Y-93980000D01*
X116087222Y-93974991D01*
X116041793Y-93890000D01*
X116003557Y-93818467D01*
X115986384Y-93761853D01*
X115952037Y-93648627D01*
X115934641Y-93472000D01*
X115952037Y-93295373D01*
X116003557Y-93125534D01*
X116003557Y-93125533D01*
X116087221Y-92969011D01*
X116087222Y-92969009D01*
X116152063Y-92890000D01*
X116199814Y-92831814D01*
X116301271Y-92748552D01*
X116337009Y-92719222D01*
X116354913Y-92709652D01*
X116493533Y-92635557D01*
X116550147Y-92618384D01*
X116663373Y-92584037D01*
X116729557Y-92577519D01*
X116795740Y-92571000D01*
X116884260Y-92571000D01*
X116950443Y-92577519D01*
X116950443Y-92577519D01*
G37*
G36*
X113023000Y-93543000D02*
X112021000Y-93543000D01*
X112021000Y-92941000D01*
X113023000Y-92941000D01*
X113023000Y-93543000D01*
X113023000Y-93543000D01*
G37*
G36*
X158606443Y-90545519D02*
X158672627Y-90552037D01*
X158783049Y-90585533D01*
X158842467Y-90603557D01*
X158981087Y-90677652D01*
X158998991Y-90687222D01*
X159034729Y-90716552D01*
X159136186Y-90799814D01*
X159219448Y-90901271D01*
X159248778Y-90937009D01*
X159248779Y-90937011D01*
X159332443Y-91093533D01*
X159349616Y-91150147D01*
X159383963Y-91263373D01*
X159401359Y-91440000D01*
X159383963Y-91616627D01*
X159363289Y-91684779D01*
X159332443Y-91786467D01*
X159258348Y-91925087D01*
X159248778Y-91942991D01*
X159219448Y-91978729D01*
X159136186Y-92080186D01*
X159034729Y-92163448D01*
X158998991Y-92192778D01*
X158998989Y-92192779D01*
X158842467Y-92276443D01*
X158785853Y-92293616D01*
X158672627Y-92327963D01*
X158606443Y-92334481D01*
X158540260Y-92341000D01*
X158451740Y-92341000D01*
X158385557Y-92334481D01*
X158319373Y-92327963D01*
X158206147Y-92293616D01*
X158149533Y-92276443D01*
X157993011Y-92192779D01*
X157993009Y-92192778D01*
X157957271Y-92163448D01*
X157855814Y-92080186D01*
X157772552Y-91978729D01*
X157743222Y-91942991D01*
X157733652Y-91925087D01*
X157659557Y-91786467D01*
X157628711Y-91684779D01*
X157608037Y-91616627D01*
X157590641Y-91440000D01*
X157608037Y-91263373D01*
X157642384Y-91150147D01*
X157659557Y-91093533D01*
X157743221Y-90937011D01*
X157743222Y-90937009D01*
X157772552Y-90901271D01*
X157855814Y-90799814D01*
X157957271Y-90716552D01*
X157993009Y-90687222D01*
X158010913Y-90677652D01*
X158149533Y-90603557D01*
X158208951Y-90585533D01*
X158319373Y-90552037D01*
X158385558Y-90545518D01*
X158451740Y-90539000D01*
X158540260Y-90539000D01*
X158606443Y-90545519D01*
X158606443Y-90545519D01*
G37*
G36*
X164448443Y-90545519D02*
X164514627Y-90552037D01*
X164625049Y-90585533D01*
X164684467Y-90603557D01*
X164823087Y-90677652D01*
X164840991Y-90687222D01*
X164876729Y-90716552D01*
X164978186Y-90799814D01*
X165061448Y-90901271D01*
X165090778Y-90937009D01*
X165090779Y-90937011D01*
X165174443Y-91093533D01*
X165191616Y-91150147D01*
X165225963Y-91263373D01*
X165243359Y-91440000D01*
X165225963Y-91616627D01*
X165205289Y-91684779D01*
X165174443Y-91786467D01*
X165100348Y-91925087D01*
X165090778Y-91942991D01*
X165061448Y-91978729D01*
X164978186Y-92080186D01*
X164876729Y-92163448D01*
X164840991Y-92192778D01*
X164840989Y-92192779D01*
X164684467Y-92276443D01*
X164627853Y-92293616D01*
X164514627Y-92327963D01*
X164448443Y-92334481D01*
X164382260Y-92341000D01*
X164293740Y-92341000D01*
X164227557Y-92334481D01*
X164161373Y-92327963D01*
X164048147Y-92293616D01*
X163991533Y-92276443D01*
X163835011Y-92192779D01*
X163835009Y-92192778D01*
X163799271Y-92163448D01*
X163697814Y-92080186D01*
X163614552Y-91978729D01*
X163585222Y-91942991D01*
X163575652Y-91925087D01*
X163501557Y-91786467D01*
X163470711Y-91684779D01*
X163450037Y-91616627D01*
X163432641Y-91440000D01*
X163450037Y-91263373D01*
X163484384Y-91150147D01*
X163501557Y-91093533D01*
X163585221Y-90937011D01*
X163585222Y-90937009D01*
X163614552Y-90901271D01*
X163697814Y-90799814D01*
X163799271Y-90716552D01*
X163835009Y-90687222D01*
X163852913Y-90677652D01*
X163991533Y-90603557D01*
X164050951Y-90585533D01*
X164161373Y-90552037D01*
X164227558Y-90545518D01*
X164293740Y-90539000D01*
X164382260Y-90539000D01*
X164448443Y-90545519D01*
X164448443Y-90545519D01*
G37*
G36*
X113173000Y-91837000D02*
X111871000Y-91837000D01*
X111871000Y-90535000D01*
X113173000Y-90535000D01*
X113173000Y-91837000D01*
X113173000Y-91837000D01*
G37*
G36*
X116950442Y-90037518D02*
X117016627Y-90044037D01*
X117129853Y-90078384D01*
X117186467Y-90095557D01*
X117325087Y-90169652D01*
X117342991Y-90179222D01*
X117378729Y-90208552D01*
X117480186Y-90291814D01*
X117560764Y-90390000D01*
X117592778Y-90429009D01*
X117592779Y-90429011D01*
X117676443Y-90585533D01*
X117676443Y-90585534D01*
X117727963Y-90755373D01*
X117745359Y-90932000D01*
X117727963Y-91108627D01*
X117693616Y-91221853D01*
X117676443Y-91278467D01*
X117616826Y-91390000D01*
X117592778Y-91434991D01*
X117588667Y-91440000D01*
X117480186Y-91572186D01*
X117378729Y-91655448D01*
X117342991Y-91684778D01*
X117342989Y-91684779D01*
X117186467Y-91768443D01*
X117129853Y-91785616D01*
X117016627Y-91819963D01*
X116950442Y-91826482D01*
X116884260Y-91833000D01*
X116795740Y-91833000D01*
X116729558Y-91826482D01*
X116663373Y-91819963D01*
X116550147Y-91785616D01*
X116493533Y-91768443D01*
X116337011Y-91684779D01*
X116337009Y-91684778D01*
X116301271Y-91655448D01*
X116199814Y-91572186D01*
X116091333Y-91440000D01*
X116087222Y-91434991D01*
X116063174Y-91390000D01*
X116003557Y-91278467D01*
X115986384Y-91221853D01*
X115952037Y-91108627D01*
X115934641Y-90932000D01*
X115952037Y-90755373D01*
X116003557Y-90585534D01*
X116003557Y-90585533D01*
X116087221Y-90429011D01*
X116087222Y-90429009D01*
X116119236Y-90390000D01*
X116199814Y-90291814D01*
X116301271Y-90208552D01*
X116337009Y-90179222D01*
X116354913Y-90169652D01*
X116493533Y-90095557D01*
X116550147Y-90078384D01*
X116663373Y-90044037D01*
X116729558Y-90037518D01*
X116795740Y-90031000D01*
X116884260Y-90031000D01*
X116950442Y-90037518D01*
X116950442Y-90037518D01*
G37*
G36*
X136062000Y-90113000D02*
X135210000Y-90113000D01*
X135210000Y-89211000D01*
X136062000Y-89211000D01*
X136062000Y-90113000D01*
X136062000Y-90113000D01*
G37*
G36*
X151302000Y-89859000D02*
X150450000Y-89859000D01*
X150450000Y-88957000D01*
X151302000Y-88957000D01*
X151302000Y-89859000D01*
X151302000Y-89859000D01*
G37*
G36*
X165239000Y-89801000D02*
X163437000Y-89801000D01*
X163437000Y-87999000D01*
X165239000Y-87999000D01*
X165239000Y-89801000D01*
X165239000Y-89801000D01*
G37*
G36*
X159397000Y-89801000D02*
X157595000Y-89801000D01*
X157595000Y-87999000D01*
X159397000Y-87999000D01*
X159397000Y-89801000D01*
X159397000Y-89801000D01*
G37*
G36*
X113173000Y-89637000D02*
X111871000Y-89637000D01*
X111871000Y-88335000D01*
X113173000Y-88335000D01*
X113173000Y-89637000D01*
X113173000Y-89637000D01*
G37*
G36*
X116950443Y-87497519D02*
X117016627Y-87504037D01*
X117129853Y-87538384D01*
X117186467Y-87555557D01*
X117325087Y-87629652D01*
X117342991Y-87639222D01*
X117378729Y-87668552D01*
X117480186Y-87751814D01*
X117563448Y-87853271D01*
X117592778Y-87889009D01*
X117592779Y-87889011D01*
X117676443Y-88045533D01*
X117676443Y-88045534D01*
X117727963Y-88215373D01*
X117745359Y-88392000D01*
X117727963Y-88568627D01*
X117693616Y-88681853D01*
X117676443Y-88738467D01*
X117602348Y-88877087D01*
X117592778Y-88894991D01*
X117563448Y-88930729D01*
X117480186Y-89032186D01*
X117378729Y-89115448D01*
X117342991Y-89144778D01*
X117342989Y-89144779D01*
X117186467Y-89228443D01*
X117129853Y-89245616D01*
X117016627Y-89279963D01*
X116950443Y-89286481D01*
X116884260Y-89293000D01*
X116795740Y-89293000D01*
X116729557Y-89286481D01*
X116663373Y-89279963D01*
X116550147Y-89245616D01*
X116493533Y-89228443D01*
X116337011Y-89144779D01*
X116337009Y-89144778D01*
X116301271Y-89115448D01*
X116199814Y-89032186D01*
X116116552Y-88930729D01*
X116087222Y-88894991D01*
X116077652Y-88877087D01*
X116003557Y-88738467D01*
X115986384Y-88681853D01*
X115952037Y-88568627D01*
X115934641Y-88392000D01*
X115952037Y-88215373D01*
X116003557Y-88045534D01*
X116003557Y-88045533D01*
X116087221Y-87889011D01*
X116087222Y-87889009D01*
X116116552Y-87853271D01*
X116199814Y-87751814D01*
X116301271Y-87668552D01*
X116337009Y-87639222D01*
X116354913Y-87629652D01*
X116493533Y-87555557D01*
X116550147Y-87538384D01*
X116663373Y-87504037D01*
X116729557Y-87497519D01*
X116795740Y-87491000D01*
X116884260Y-87491000D01*
X116950443Y-87497519D01*
X116950443Y-87497519D01*
G37*
G36*
X136062000Y-88613000D02*
X135210000Y-88613000D01*
X135210000Y-87711000D01*
X136062000Y-87711000D01*
X136062000Y-88613000D01*
X136062000Y-88613000D01*
G37*
G36*
X151302000Y-88359000D02*
X150450000Y-88359000D01*
X150450000Y-87457000D01*
X151302000Y-87457000D01*
X151302000Y-88359000D01*
X151302000Y-88359000D01*
G37*
G36*
X147182000Y-87815000D02*
X139330000Y-87815000D01*
X139330000Y-86713000D01*
X147182000Y-86713000D01*
X147182000Y-87815000D01*
X147182000Y-87815000D01*
G37*
G36*
X113173000Y-87265000D02*
X111871000Y-87265000D01*
X111871000Y-85963000D01*
X113173000Y-85963000D01*
X113173000Y-87265000D01*
X113173000Y-87265000D01*
G37*
G36*
X116950442Y-84957518D02*
X117016627Y-84964037D01*
X117129853Y-84998384D01*
X117186467Y-85015557D01*
X117278967Y-85065000D01*
X117342991Y-85099222D01*
X117378729Y-85128552D01*
X117480186Y-85211814D01*
X117563448Y-85313271D01*
X117592778Y-85349009D01*
X117592779Y-85349011D01*
X117676443Y-85505533D01*
X117676443Y-85505534D01*
X117727963Y-85675373D01*
X117745359Y-85852000D01*
X117727963Y-86028627D01*
X117693616Y-86141853D01*
X117676443Y-86198467D01*
X117602348Y-86337087D01*
X117592778Y-86354991D01*
X117563448Y-86390729D01*
X117480186Y-86492186D01*
X117378729Y-86575448D01*
X117342991Y-86604778D01*
X117342989Y-86604779D01*
X117186467Y-86688443D01*
X117129853Y-86705616D01*
X117016627Y-86739963D01*
X116950443Y-86746481D01*
X116884260Y-86753000D01*
X116795740Y-86753000D01*
X116729557Y-86746481D01*
X116663373Y-86739963D01*
X116550147Y-86705616D01*
X116493533Y-86688443D01*
X116337011Y-86604779D01*
X116337009Y-86604778D01*
X116301271Y-86575448D01*
X116199814Y-86492186D01*
X116116552Y-86390729D01*
X116087222Y-86354991D01*
X116077652Y-86337087D01*
X116003557Y-86198467D01*
X115986384Y-86141853D01*
X115952037Y-86028627D01*
X115934641Y-85852000D01*
X115952037Y-85675373D01*
X116003557Y-85505534D01*
X116003557Y-85505533D01*
X116087221Y-85349011D01*
X116087222Y-85349009D01*
X116116552Y-85313271D01*
X116199814Y-85211814D01*
X116301271Y-85128552D01*
X116337009Y-85099222D01*
X116401033Y-85065000D01*
X116493533Y-85015557D01*
X116550147Y-84998384D01*
X116663373Y-84964037D01*
X116729558Y-84957518D01*
X116795740Y-84951000D01*
X116884260Y-84951000D01*
X116950442Y-84957518D01*
X116950442Y-84957518D01*
G37*
G36*
X152193000Y-85845000D02*
X151591000Y-85845000D01*
X151591000Y-84843000D01*
X152193000Y-84843000D01*
X152193000Y-85845000D01*
X152193000Y-85845000D01*
G37*
G36*
X150693000Y-85845000D02*
X150091000Y-85845000D01*
X150091000Y-84843000D01*
X150693000Y-84843000D01*
X150693000Y-85845000D01*
X150693000Y-85845000D01*
G37*
G36*
X142183000Y-85770000D02*
X141281000Y-85770000D01*
X141281000Y-84918000D01*
X142183000Y-84918000D01*
X142183000Y-85770000D01*
X142183000Y-85770000D01*
G37*
G36*
X140683000Y-85770000D02*
X139781000Y-85770000D01*
X139781000Y-84918000D01*
X140683000Y-84918000D01*
X140683000Y-85770000D01*
X140683000Y-85770000D01*
G37*
G36*
X113173000Y-85065000D02*
X111871000Y-85065000D01*
X111871000Y-83763000D01*
X113173000Y-83763000D01*
X113173000Y-85065000D01*
X113173000Y-85065000D01*
G37*
G36*
X117741000Y-84213000D02*
X115939000Y-84213000D01*
X115939000Y-82411000D01*
X117741000Y-82411000D01*
X117741000Y-84213000D01*
X117741000Y-84213000D01*
G37*
G36*
X126664000Y-84017000D02*
X125812000Y-84017000D01*
X125812000Y-83115000D01*
X126664000Y-83115000D01*
X126664000Y-84017000D01*
X126664000Y-84017000D01*
G37*
G36*
X120568000Y-83993000D02*
X119716000Y-83993000D01*
X119716000Y-83091000D01*
X120568000Y-83091000D01*
X120568000Y-83993000D01*
X120568000Y-83993000D01*
G37*
G36*
X122691000Y-83951000D02*
X121689000Y-83951000D01*
X121689000Y-83049000D01*
X122691000Y-83049000D01*
X122691000Y-83951000D01*
X122691000Y-83951000D01*
G37*
G36*
X150693000Y-83813000D02*
X150091000Y-83813000D01*
X150091000Y-82811000D01*
X150693000Y-82811000D01*
X150693000Y-83813000D01*
X150693000Y-83813000D01*
G37*
G36*
X152193000Y-83813000D02*
X151591000Y-83813000D01*
X151591000Y-82811000D01*
X152193000Y-82811000D01*
X152193000Y-83813000D01*
X152193000Y-83813000D01*
G37*
G36*
X142183000Y-83738000D02*
X141281000Y-83738000D01*
X141281000Y-82886000D01*
X142183000Y-82886000D01*
X142183000Y-83738000D01*
X142183000Y-83738000D01*
G37*
G36*
X148763000Y-83738000D02*
X147861000Y-83738000D01*
X147861000Y-82886000D01*
X148763000Y-82886000D01*
X148763000Y-83738000D01*
X148763000Y-83738000D01*
G37*
G36*
X140683000Y-83738000D02*
X139781000Y-83738000D01*
X139781000Y-82886000D01*
X140683000Y-82886000D01*
X140683000Y-83738000D01*
X140683000Y-83738000D01*
G37*
G36*
X147263000Y-83738000D02*
X146361000Y-83738000D01*
X146361000Y-82886000D01*
X147263000Y-82886000D01*
X147263000Y-83738000D01*
X147263000Y-83738000D01*
G37*
G36*
X124691000Y-83001000D02*
X123689000Y-83001000D01*
X123689000Y-82099000D01*
X124691000Y-82099000D01*
X124691000Y-83001000D01*
X124691000Y-83001000D01*
G37*
G36*
X113023000Y-82585000D02*
X112021000Y-82585000D01*
X112021000Y-81983000D01*
X113023000Y-81983000D01*
X113023000Y-82585000D01*
X113023000Y-82585000D01*
G37*
G36*
X126664000Y-82517000D02*
X125812000Y-82517000D01*
X125812000Y-81615000D01*
X126664000Y-81615000D01*
X126664000Y-82517000D01*
X126664000Y-82517000D01*
G37*
G36*
X120568000Y-82493000D02*
X119716000Y-82493000D01*
X119716000Y-81591000D01*
X120568000Y-81591000D01*
X120568000Y-82493000D01*
X120568000Y-82493000D01*
G37*
G36*
X122691000Y-82051000D02*
X121689000Y-82051000D01*
X121689000Y-81149000D01*
X122691000Y-81149000D01*
X122691000Y-82051000D01*
X122691000Y-82051000D01*
G37*
G36*
X148787000Y-81706000D02*
X147885000Y-81706000D01*
X147885000Y-80854000D01*
X148787000Y-80854000D01*
X148787000Y-81706000D01*
X148787000Y-81706000D01*
G37*
G36*
X140683000Y-81706000D02*
X139781000Y-81706000D01*
X139781000Y-80854000D01*
X140683000Y-80854000D01*
X140683000Y-81706000D01*
X140683000Y-81706000D01*
G37*
G36*
X142183000Y-81706000D02*
X141281000Y-81706000D01*
X141281000Y-80854000D01*
X142183000Y-80854000D01*
X142183000Y-81706000D01*
X142183000Y-81706000D01*
G37*
G36*
X147287000Y-81706000D02*
X146385000Y-81706000D01*
X146385000Y-80854000D01*
X147287000Y-80854000D01*
X147287000Y-81706000D01*
X147287000Y-81706000D01*
G37*
G36*
X113023000Y-81085000D02*
X112021000Y-81085000D01*
X112021000Y-80483000D01*
X113023000Y-80483000D01*
X113023000Y-81085000D01*
X113023000Y-81085000D01*
G37*
G36*
X142137000Y-77759000D02*
X137535000Y-77759000D01*
X137535000Y-75657000D01*
X142137000Y-75657000D01*
X142137000Y-77759000D01*
X142137000Y-77759000D01*
G37*
G36*
X150637000Y-77759000D02*
X146035000Y-77759000D01*
X146035000Y-75657000D01*
X150637000Y-75657000D01*
X150637000Y-77759000D01*
X150637000Y-77759000D01*
G37*
G36*
X146943000Y-72687000D02*
X146041000Y-72687000D01*
X146041000Y-71685000D01*
X146943000Y-71685000D01*
X146943000Y-72687000D01*
X146943000Y-72687000D01*
G37*
G36*
X145043000Y-72687000D02*
X144141000Y-72687000D01*
X144141000Y-71685000D01*
X145043000Y-71685000D01*
X145043000Y-72687000D01*
X145043000Y-72687000D01*
G37*
G36*
X140751000Y-72383000D02*
X140149000Y-72383000D01*
X140149000Y-71381000D01*
X140751000Y-71381000D01*
X140751000Y-72383000D01*
X140751000Y-72383000D01*
G37*
G36*
X139251000Y-72383000D02*
X138649000Y-72383000D01*
X138649000Y-71381000D01*
X139251000Y-71381000D01*
X139251000Y-72383000D01*
X139251000Y-72383000D01*
G37*
G36*
X129035643Y-69315781D02*
X129181415Y-69376162D01*
X129312611Y-69463824D01*
X129424176Y-69575389D01*
X129511838Y-69706585D01*
X129572219Y-69852357D01*
X129603000Y-70007107D01*
X129603000Y-70164893D01*
X129572219Y-70319643D01*
X129511838Y-70465415D01*
X129424176Y-70596611D01*
X129312611Y-70708176D01*
X129181415Y-70795838D01*
X129035643Y-70856219D01*
X128880893Y-70887000D01*
X128723107Y-70887000D01*
X128568357Y-70856219D01*
X128422585Y-70795838D01*
X128291389Y-70708176D01*
X128179824Y-70596611D01*
X128092162Y-70465415D01*
X128031781Y-70319643D01*
X128001000Y-70164893D01*
X128001000Y-70007107D01*
X128031781Y-69852357D01*
X128092162Y-69706585D01*
X128179824Y-69575389D01*
X128291389Y-69463824D01*
X128422585Y-69376162D01*
X128568357Y-69315781D01*
X128723107Y-69285000D01*
X128880893Y-69285000D01*
X129035643Y-69315781D01*
X129035643Y-69315781D01*
G37*
G36*
X132035643Y-69315781D02*
X132181415Y-69376162D01*
X132312611Y-69463824D01*
X132424176Y-69575389D01*
X132511838Y-69706585D01*
X132572219Y-69852357D01*
X132603000Y-70007107D01*
X132603000Y-70164893D01*
X132572219Y-70319643D01*
X132511838Y-70465415D01*
X132424176Y-70596611D01*
X132312611Y-70708176D01*
X132181415Y-70795838D01*
X132035643Y-70856219D01*
X131880893Y-70887000D01*
X131723107Y-70887000D01*
X131568357Y-70856219D01*
X131422585Y-70795838D01*
X131291389Y-70708176D01*
X131179824Y-70596611D01*
X131092162Y-70465415D01*
X131031781Y-70319643D01*
X131001000Y-70164893D01*
X131001000Y-70007107D01*
X131031781Y-69852357D01*
X131092162Y-69706585D01*
X131179824Y-69575389D01*
X131291389Y-69463824D01*
X131422585Y-69376162D01*
X131568357Y-69315781D01*
X131723107Y-69285000D01*
X131880893Y-69285000D01*
X132035643Y-69315781D01*
X132035643Y-69315781D01*
G37*
G36*
X145993000Y-70687000D02*
X145091000Y-70687000D01*
X145091000Y-69685000D01*
X145993000Y-69685000D01*
X145993000Y-70687000D01*
X145993000Y-70687000D01*
G37*
G36*
X129035643Y-66315781D02*
X129181415Y-66376162D01*
X129312611Y-66463824D01*
X129424176Y-66575389D01*
X129511838Y-66706585D01*
X129572219Y-66852357D01*
X129603000Y-67007107D01*
X129603000Y-67164893D01*
X129572219Y-67319643D01*
X129511838Y-67465415D01*
X129424176Y-67596611D01*
X129312611Y-67708176D01*
X129181415Y-67795838D01*
X129035643Y-67856219D01*
X128880893Y-67887000D01*
X128723107Y-67887000D01*
X128568357Y-67856219D01*
X128422585Y-67795838D01*
X128291389Y-67708176D01*
X128179824Y-67596611D01*
X128092162Y-67465415D01*
X128031781Y-67319643D01*
X128001000Y-67164893D01*
X128001000Y-67007107D01*
X128031781Y-66852357D01*
X128092162Y-66706585D01*
X128179824Y-66575389D01*
X128291389Y-66463824D01*
X128422585Y-66376162D01*
X128568357Y-66315781D01*
X128723107Y-66285000D01*
X128880893Y-66285000D01*
X129035643Y-66315781D01*
X129035643Y-66315781D01*
G37*
G36*
X132035643Y-66315781D02*
X132181415Y-66376162D01*
X132312611Y-66463824D01*
X132424176Y-66575389D01*
X132511838Y-66706585D01*
X132572219Y-66852357D01*
X132603000Y-67007107D01*
X132603000Y-67164893D01*
X132572219Y-67319643D01*
X132511838Y-67465415D01*
X132424176Y-67596611D01*
X132312611Y-67708176D01*
X132181415Y-67795838D01*
X132035643Y-67856219D01*
X131880893Y-67887000D01*
X131723107Y-67887000D01*
X131568357Y-67856219D01*
X131422585Y-67795838D01*
X131291389Y-67708176D01*
X131179824Y-67596611D01*
X131092162Y-67465415D01*
X131031781Y-67319643D01*
X131001000Y-67164893D01*
X131001000Y-67007107D01*
X131031781Y-66852357D01*
X131092162Y-66706585D01*
X131179824Y-66575389D01*
X131291389Y-66463824D01*
X131422585Y-66376162D01*
X131568357Y-66315781D01*
X131723107Y-66285000D01*
X131880893Y-66285000D01*
X132035643Y-66315781D01*
X132035643Y-66315781D01*
G37*
G36*
X164459256Y-62907298D02*
X164565579Y-62928447D01*
X164866042Y-63052903D01*
X165113739Y-63218409D01*
X165136454Y-63233587D01*
X165366413Y-63463546D01*
X165366415Y-63463549D01*
X165547097Y-63733958D01*
X165645919Y-63972534D01*
X165671553Y-64034422D01*
X165735000Y-64353389D01*
X165735000Y-64678611D01*
X165671553Y-64997578D01*
X165547098Y-65298040D01*
X165366413Y-65568454D01*
X165136454Y-65798413D01*
X165136451Y-65798415D01*
X164866042Y-65979097D01*
X164565579Y-66103553D01*
X164459256Y-66124702D01*
X164246611Y-66167000D01*
X163921389Y-66167000D01*
X163708744Y-66124702D01*
X163602421Y-66103553D01*
X163301958Y-65979097D01*
X163031549Y-65798415D01*
X163031546Y-65798413D01*
X162801587Y-65568454D01*
X162620902Y-65298040D01*
X162496447Y-64997578D01*
X162433000Y-64678611D01*
X162433000Y-64353389D01*
X162496447Y-64034422D01*
X162522082Y-63972534D01*
X162620903Y-63733958D01*
X162801585Y-63463549D01*
X162801587Y-63463546D01*
X163031546Y-63233587D01*
X163054261Y-63218409D01*
X163301958Y-63052903D01*
X163602421Y-62928447D01*
X163708744Y-62907298D01*
X163921389Y-62865000D01*
X164246611Y-62865000D01*
X164459256Y-62907298D01*
X164459256Y-62907298D01*
G37*
G36*
X112389256Y-62907298D02*
X112495579Y-62928447D01*
X112796042Y-63052903D01*
X113043739Y-63218409D01*
X113066454Y-63233587D01*
X113296413Y-63463546D01*
X113296415Y-63463549D01*
X113477097Y-63733958D01*
X113575919Y-63972534D01*
X113601553Y-64034422D01*
X113665000Y-64353389D01*
X113665000Y-64678611D01*
X113601553Y-64997578D01*
X113477098Y-65298040D01*
X113296413Y-65568454D01*
X113066454Y-65798413D01*
X113066451Y-65798415D01*
X112796042Y-65979097D01*
X112495579Y-66103553D01*
X112389256Y-66124702D01*
X112176611Y-66167000D01*
X111851389Y-66167000D01*
X111638744Y-66124702D01*
X111532421Y-66103553D01*
X111231958Y-65979097D01*
X110961549Y-65798415D01*
X110961546Y-65798413D01*
X110731587Y-65568454D01*
X110550902Y-65298040D01*
X110426447Y-64997578D01*
X110363000Y-64678611D01*
X110363000Y-64353389D01*
X110426447Y-64034422D01*
X110452082Y-63972534D01*
X110550903Y-63733958D01*
X110731585Y-63463549D01*
X110731587Y-63463546D01*
X110961546Y-63233587D01*
X110984261Y-63218409D01*
X111231958Y-63052903D01*
X111532421Y-62928447D01*
X111638744Y-62907298D01*
X111851389Y-62865000D01*
X112176611Y-62865000D01*
X112389256Y-62907298D01*
X112389256Y-62907298D01*
G37*
G36*
X141793000Y-66021000D02*
X139291000Y-66021000D01*
X139291000Y-63519000D01*
X141793000Y-63519000D01*
X141793000Y-66021000D01*
X141793000Y-66021000D01*
G37*
G36*
X145725636Y-63531019D02*
X145906903Y-63567075D01*
X146134571Y-63661378D01*
X146243194Y-63733958D01*
X146339469Y-63798287D01*
X146513713Y-63972531D01*
X146513715Y-63972534D01*
X146650622Y-64177429D01*
X146744925Y-64405097D01*
X146793000Y-64646787D01*
X146793000Y-64893213D01*
X146744925Y-65134903D01*
X146650622Y-65362571D01*
X146514332Y-65566542D01*
X146513713Y-65567469D01*
X146339469Y-65741713D01*
X146339466Y-65741715D01*
X146134571Y-65878622D01*
X145906903Y-65972925D01*
X145725635Y-66008981D01*
X145665214Y-66021000D01*
X145418786Y-66021000D01*
X145358365Y-66008981D01*
X145177097Y-65972925D01*
X144949429Y-65878622D01*
X144744534Y-65741715D01*
X144744531Y-65741713D01*
X144570287Y-65567469D01*
X144569668Y-65566542D01*
X144433378Y-65362571D01*
X144339075Y-65134903D01*
X144291000Y-64893213D01*
X144291000Y-64646787D01*
X144339075Y-64405097D01*
X144433378Y-64177429D01*
X144570285Y-63972534D01*
X144570287Y-63972531D01*
X144744531Y-63798287D01*
X144840806Y-63733958D01*
X144949429Y-63661378D01*
X145177097Y-63567075D01*
X145358364Y-63531019D01*
X145418786Y-63519000D01*
X145665214Y-63519000D01*
X145725636Y-63531019D01*
X145725636Y-63531019D01*
G37*
G36*
X130654527Y-61254736D02*
X130754410Y-61274604D01*
X131036674Y-61391521D01*
X131290705Y-61561259D01*
X131506741Y-61777295D01*
X131676479Y-62031326D01*
X131793396Y-62313590D01*
X131793396Y-62313591D01*
X131853000Y-62613238D01*
X131853000Y-62918762D01*
X131826318Y-63052902D01*
X131793396Y-63218410D01*
X131676479Y-63500674D01*
X131506741Y-63754705D01*
X131290705Y-63970741D01*
X131036674Y-64140479D01*
X130754410Y-64257396D01*
X130654527Y-64277264D01*
X130454762Y-64317000D01*
X130149238Y-64317000D01*
X129949473Y-64277264D01*
X129849590Y-64257396D01*
X129567326Y-64140479D01*
X129313295Y-63970741D01*
X129097259Y-63754705D01*
X128927521Y-63500674D01*
X128810604Y-63218410D01*
X128777682Y-63052902D01*
X128751000Y-62918762D01*
X128751000Y-62613238D01*
X128810604Y-62313591D01*
X128810604Y-62313590D01*
X128927521Y-62031326D01*
X129097259Y-61777295D01*
X129313295Y-61561259D01*
X129567326Y-61391521D01*
X129849590Y-61274604D01*
X129949473Y-61254736D01*
X130149238Y-61215000D01*
X130454762Y-61215000D01*
X130654527Y-61254736D01*
X130654527Y-61254736D01*
G37*
M02*
