G04 #@! TF.GenerationSoftware,KiCad,Pcbnew,(5.0.2)-1*
G04 #@! TF.CreationDate,2019-03-06T23:00:33-07:00*
G04 #@! TF.ProjectId,AndromedaV3,416e6472-6f6d-4656-9461-56332e6b6963,rev?*
G04 #@! TF.SameCoordinates,Original*
G04 #@! TF.FileFunction,Copper,L1,Top*
G04 #@! TF.FilePolarity,Positive*
%FSLAX46Y46*%
G04 Gerber Fmt 4.6, Leading zero omitted, Abs format (unit mm)*
G04 Created by KiCad (PCBNEW (5.0.2)-1) date 2019-03-06 11:00:33 PM*
%MOMM*%
%LPD*%
G01*
G04 APERTURE LIST*
G04 #@! TA.AperFunction,SMDPad,CuDef*
%ADD10R,0.800000X0.750000*%
G04 #@! TD*
G04 #@! TA.AperFunction,SMDPad,CuDef*
%ADD11R,0.750000X0.800000*%
G04 #@! TD*
G04 #@! TA.AperFunction,SMDPad,CuDef*
%ADD12R,2.550000X2.700000*%
G04 #@! TD*
G04 #@! TA.AperFunction,SMDPad,CuDef*
%ADD13R,1.200000X1.200000*%
G04 #@! TD*
G04 #@! TA.AperFunction,ComponentPad*
%ADD14R,2.400000X2.400000*%
G04 #@! TD*
G04 #@! TA.AperFunction,ComponentPad*
%ADD15C,2.400000*%
G04 #@! TD*
G04 #@! TA.AperFunction,ComponentPad*
%ADD16R,1.700000X1.700000*%
G04 #@! TD*
G04 #@! TA.AperFunction,ComponentPad*
%ADD17O,1.700000X1.700000*%
G04 #@! TD*
G04 #@! TA.AperFunction,ComponentPad*
%ADD18C,1.500000*%
G04 #@! TD*
G04 #@! TA.AperFunction,SMDPad,CuDef*
%ADD19R,0.800000X2.000000*%
G04 #@! TD*
G04 #@! TA.AperFunction,SMDPad,CuDef*
%ADD20R,0.800000X0.900000*%
G04 #@! TD*
G04 #@! TA.AperFunction,SMDPad,CuDef*
%ADD21R,0.500000X0.900000*%
G04 #@! TD*
G04 #@! TA.AperFunction,SMDPad,CuDef*
%ADD22R,0.900000X0.500000*%
G04 #@! TD*
G04 #@! TA.AperFunction,BGAPad,CuDef*
%ADD23C,1.500000*%
G04 #@! TD*
G04 #@! TA.AperFunction,SMDPad,CuDef*
%ADD24R,0.900000X0.800000*%
G04 #@! TD*
G04 #@! TA.AperFunction,SMDPad,CuDef*
%ADD25R,1.060000X0.650000*%
G04 #@! TD*
G04 #@! TA.AperFunction,SMDPad,CuDef*
%ADD26R,1.000000X0.250000*%
G04 #@! TD*
G04 #@! TA.AperFunction,SMDPad,CuDef*
%ADD27R,0.250000X1.000000*%
G04 #@! TD*
G04 #@! TA.AperFunction,SMDPad,CuDef*
%ADD28R,4.500000X2.000000*%
G04 #@! TD*
G04 #@! TA.AperFunction,ViaPad*
%ADD29C,0.800000*%
G04 #@! TD*
G04 #@! TA.AperFunction,Conductor*
%ADD30C,0.250000*%
G04 #@! TD*
G04 #@! TA.AperFunction,Conductor*
%ADD31C,0.800000*%
G04 #@! TD*
G04 #@! TA.AperFunction,Conductor*
%ADD32C,0.300000*%
G04 #@! TD*
G04 #@! TA.AperFunction,Conductor*
%ADD33C,0.350000*%
G04 #@! TD*
G04 #@! TA.AperFunction,Conductor*
%ADD34C,0.500000*%
G04 #@! TD*
G04 #@! TA.AperFunction,Conductor*
%ADD35C,0.254000*%
G04 #@! TD*
G04 APERTURE END LIST*
D10*
G04 #@! TO.P,C1,1*
G04 #@! TO.N,+BATT*
X118860000Y-104394000D03*
G04 #@! TO.P,C1,2*
G04 #@! TO.N,GND*
X117360000Y-104394000D03*
G04 #@! TD*
D11*
G04 #@! TO.P,C2,1*
G04 #@! TO.N,+5V*
X126238000Y-83566000D03*
G04 #@! TO.P,C2,2*
G04 #@! TO.N,GND*
X126238000Y-82066000D03*
G04 #@! TD*
D10*
G04 #@! TO.P,C3,1*
G04 #@! TO.N,+BATT*
X118848000Y-107950000D03*
G04 #@! TO.P,C3,2*
G04 #@! TO.N,GND*
X117348000Y-107950000D03*
G04 #@! TD*
G04 #@! TO.P,C4,2*
G04 #@! TO.N,GND*
X117348000Y-106172000D03*
G04 #@! TO.P,C4,1*
G04 #@! TO.N,+BATT*
X118848000Y-106172000D03*
G04 #@! TD*
D11*
G04 #@! TO.P,C5,2*
G04 #@! TO.N,GND*
X120142000Y-82042000D03*
G04 #@! TO.P,C5,1*
G04 #@! TO.N,+3V3*
X120142000Y-83542000D03*
G04 #@! TD*
D10*
G04 #@! TO.P,C6,2*
G04 #@! TO.N,Net-(C6-Pad2)*
X122428000Y-101600000D03*
G04 #@! TO.P,C6,1*
G04 #@! TO.N,Net-(C6-Pad1)*
X120928000Y-101600000D03*
G04 #@! TD*
G04 #@! TO.P,C7,2*
G04 #@! TO.N,GND*
X127532000Y-103124000D03*
G04 #@! TO.P,C7,1*
G04 #@! TO.N,+5V*
X129032000Y-103124000D03*
G04 #@! TD*
G04 #@! TO.P,C8,1*
G04 #@! TO.N,+5V*
X129032000Y-100330000D03*
G04 #@! TO.P,C8,2*
G04 #@! TO.N,GND*
X127532000Y-100330000D03*
G04 #@! TD*
G04 #@! TO.P,C9,1*
G04 #@! TO.N,Net-(C9-Pad1)*
X147344000Y-100584000D03*
G04 #@! TO.P,C9,2*
G04 #@! TO.N,GND*
X148844000Y-100584000D03*
G04 #@! TD*
G04 #@! TO.P,C10,1*
G04 #@! TO.N,Net-(C10-Pad1)*
X135636000Y-97028000D03*
G04 #@! TO.P,C10,2*
G04 #@! TO.N,GND*
X134136000Y-97028000D03*
G04 #@! TD*
G04 #@! TO.P,C11,1*
G04 #@! TO.N,Net-(C11-Pad1)*
X140232000Y-81280000D03*
G04 #@! TO.P,C11,2*
G04 #@! TO.N,GND*
X141732000Y-81280000D03*
G04 #@! TD*
G04 #@! TO.P,C12,2*
G04 #@! TO.N,GND*
X134124000Y-98806000D03*
G04 #@! TO.P,C12,1*
G04 #@! TO.N,+3V3*
X135624000Y-98806000D03*
G04 #@! TD*
G04 #@! TO.P,C13,2*
G04 #@! TO.N,GND*
X148336000Y-81280000D03*
G04 #@! TO.P,C13,1*
G04 #@! TO.N,Net-(C13-Pad1)*
X146836000Y-81280000D03*
G04 #@! TD*
G04 #@! TO.P,C14,2*
G04 #@! TO.N,GND*
X146812000Y-83312000D03*
G04 #@! TO.P,C14,1*
G04 #@! TO.N,+3V3*
X148312000Y-83312000D03*
G04 #@! TD*
D11*
G04 #@! TO.P,C15,1*
G04 #@! TO.N,+3V3*
X150876000Y-87908000D03*
G04 #@! TO.P,C15,2*
G04 #@! TO.N,GND*
X150876000Y-89408000D03*
G04 #@! TD*
D10*
G04 #@! TO.P,C16,1*
G04 #@! TO.N,+3V3*
X140232000Y-85344000D03*
G04 #@! TO.P,C16,2*
G04 #@! TO.N,GND*
X141732000Y-85344000D03*
G04 #@! TD*
D11*
G04 #@! TO.P,C17,2*
G04 #@! TO.N,GND*
X135636000Y-88162000D03*
G04 #@! TO.P,C17,1*
G04 #@! TO.N,+3V3*
X135636000Y-89662000D03*
G04 #@! TD*
D10*
G04 #@! TO.P,C18,1*
G04 #@! TO.N,+3V3*
X140232000Y-83312000D03*
G04 #@! TO.P,C18,2*
G04 #@! TO.N,GND*
X141732000Y-83312000D03*
G04 #@! TD*
G04 #@! TO.P,C19,2*
G04 #@! TO.N,GND*
X152908000Y-98806000D03*
G04 #@! TO.P,C19,1*
G04 #@! TO.N,+3V3*
X151408000Y-98806000D03*
G04 #@! TD*
D12*
G04 #@! TO.P,C20,2*
G04 #@! TO.N,GND*
X117856000Y-114300000D03*
G04 #@! TO.P,C20,1*
G04 #@! TO.N,+BATT*
X124206000Y-114300000D03*
G04 #@! TD*
D13*
G04 #@! TO.P,D1,1*
G04 #@! TO.N,Net-(D1-Pad1)*
X112522000Y-84414000D03*
G04 #@! TO.P,D1,2*
G04 #@! TO.N,+3V3*
X112522000Y-86614000D03*
G04 #@! TD*
G04 #@! TO.P,D2,2*
G04 #@! TO.N,Net-(D2-Pad2)*
X112522000Y-91186000D03*
G04 #@! TO.P,D2,1*
G04 #@! TO.N,GND*
X112522000Y-88986000D03*
G04 #@! TD*
G04 #@! TO.P,D3,1*
G04 #@! TO.N,GND*
X112522000Y-102362000D03*
G04 #@! TO.P,D3,2*
G04 #@! TO.N,Net-(D3-Pad2)*
X112522000Y-100162000D03*
G04 #@! TD*
D14*
G04 #@! TO.P,J1,1*
G04 #@! TO.N,Net-(J1-Pad1)*
X140542000Y-64770000D03*
D15*
G04 #@! TO.P,J1,2*
G04 #@! TO.N,Net-(J1-Pad2)*
X145542000Y-64770000D03*
G04 #@! TD*
D16*
G04 #@! TO.P,J2,1*
G04 #@! TO.N,+3V3*
X116840000Y-83312000D03*
D17*
G04 #@! TO.P,J2,2*
G04 #@! TO.N,AG_~CS*
X116840000Y-85852000D03*
G04 #@! TO.P,J2,3*
G04 #@! TO.N,SPI1_SCK*
X116840000Y-88392000D03*
G04 #@! TO.P,J2,4*
G04 #@! TO.N,SPI1_MISO*
X116840000Y-90932000D03*
G04 #@! TO.P,J2,5*
G04 #@! TO.N,SPI1_MOSI*
X116840000Y-93472000D03*
G04 #@! TO.P,J2,6*
G04 #@! TO.N,MAG_~CS*
X116840000Y-96012000D03*
G04 #@! TO.P,J2,7*
G04 #@! TO.N,UART3_TX*
X116840000Y-98552000D03*
G04 #@! TO.P,J2,8*
G04 #@! TO.N,UART3_RX*
X116840000Y-101092000D03*
G04 #@! TD*
D16*
G04 #@! TO.P,J3,1*
G04 #@! TO.N,Accel_~CS*
X132080000Y-106172000D03*
D17*
G04 #@! TO.P,J3,2*
G04 #@! TO.N,SPI2_SCK*
X134620000Y-106172000D03*
G04 #@! TO.P,J3,3*
G04 #@! TO.N,SPI2_MISO*
X137160000Y-106172000D03*
G04 #@! TO.P,J3,4*
G04 #@! TO.N,SPI2_MOSI*
X139700000Y-106172000D03*
G04 #@! TO.P,J3,5*
G04 #@! TO.N,BARO_~CS*
X142240000Y-106172000D03*
G04 #@! TO.P,J3,6*
G04 #@! TO.N,GND*
X144780000Y-106172000D03*
G04 #@! TD*
D16*
G04 #@! TO.P,J4,1*
G04 #@! TO.N,GND*
X158496000Y-88900000D03*
D17*
G04 #@! TO.P,J4,2*
G04 #@! TO.N,SD2_~CS*
X158496000Y-91440000D03*
G04 #@! TO.P,J4,3*
G04 #@! TO.N,SPI3_MOSI*
X158496000Y-93980000D03*
G04 #@! TO.P,J4,4*
G04 #@! TO.N,SPI3_MISO*
X158496000Y-96520000D03*
G04 #@! TO.P,J4,5*
G04 #@! TO.N,SPI3_SCK*
X158496000Y-99060000D03*
G04 #@! TO.P,J4,6*
G04 #@! TO.N,SD1_~CS*
X158496000Y-101600000D03*
G04 #@! TD*
D16*
G04 #@! TO.P,J5,1*
G04 #@! TO.N,+3V3*
X164338000Y-88900000D03*
D17*
G04 #@! TO.P,J5,2*
G04 #@! TO.N,SWCLK*
X164338000Y-91440000D03*
G04 #@! TO.P,J5,3*
G04 #@! TO.N,GND*
X164338000Y-93980000D03*
G04 #@! TO.P,J5,4*
G04 #@! TO.N,SWDIO*
X164338000Y-96520000D03*
G04 #@! TO.P,J5,5*
G04 #@! TO.N,NRST*
X164338000Y-99060000D03*
G04 #@! TO.P,J5,6*
G04 #@! TO.N,SWO*
X164338000Y-101600000D03*
G04 #@! TD*
D18*
G04 #@! TO.P,J6,1*
G04 #@! TO.N,LAUNCH*
X128802000Y-67086000D03*
G04 #@! TO.P,J6,2*
G04 #@! TO.N,UART2_TX*
X131802000Y-67086000D03*
G04 #@! TO.P,J6,3*
G04 #@! TO.N,UART2_RX*
X128802000Y-70086000D03*
G04 #@! TO.P,J6,4*
G04 #@! TO.N,GND*
X131802000Y-70086000D03*
G04 #@! TD*
D17*
G04 #@! TO.P,J7,24*
G04 #@! TO.N,RECOVERY_2*
X130556000Y-115570000D03*
G04 #@! TO.P,J7,12*
G04 #@! TO.N,GND*
X130556000Y-113030000D03*
G04 #@! TO.P,J7,23*
G04 #@! TO.N,RECOVERY_1*
X133096000Y-115570000D03*
G04 #@! TO.P,J7,11*
G04 #@! TO.N,GND*
X133096000Y-113030000D03*
G04 #@! TO.P,J7,22*
X135636000Y-115570000D03*
G04 #@! TO.P,J7,10*
G04 #@! TO.N,+BATT*
X135636000Y-113030000D03*
G04 #@! TO.P,J7,21*
G04 #@! TO.N,+3V3*
X138176000Y-115570000D03*
G04 #@! TO.P,J7,9*
G04 #@! TO.N,Net-(J7-Pad9)*
X138176000Y-113030000D03*
G04 #@! TO.P,J7,20*
G04 #@! TO.N,UART4_RX*
X140716000Y-115570000D03*
G04 #@! TO.P,J7,8*
G04 #@! TO.N,ADC2*
X140716000Y-113030000D03*
G04 #@! TO.P,J7,19*
G04 #@! TO.N,UART4_TX*
X143256000Y-115570000D03*
G04 #@! TO.P,J7,7*
G04 #@! TO.N,ADC1*
X143256000Y-113030000D03*
G04 #@! TO.P,J7,18*
G04 #@! TO.N,GND*
X145796000Y-115570000D03*
G04 #@! TO.P,J7,6*
G04 #@! TO.N,+5V*
X145796000Y-113030000D03*
G04 #@! TO.P,J7,17*
G04 #@! TO.N,GND*
X148336000Y-115570000D03*
G04 #@! TO.P,J7,5*
G04 #@! TO.N,+3V3*
X148336000Y-113030000D03*
G04 #@! TO.P,J7,16*
G04 #@! TO.N,GND*
X150876000Y-115570000D03*
G04 #@! TO.P,J7,4*
X150876000Y-113030000D03*
G04 #@! TO.P,J7,15*
G04 #@! TO.N,+5V*
X153416000Y-115570000D03*
G04 #@! TO.P,J7,3*
G04 #@! TO.N,PROPULSION3*
X153416000Y-113030000D03*
G04 #@! TO.P,J7,14*
G04 #@! TO.N,UART1_RX*
X155956000Y-115570000D03*
G04 #@! TO.P,J7,2*
G04 #@! TO.N,PROPULSION2*
X155956000Y-113030000D03*
G04 #@! TO.P,J7,13*
G04 #@! TO.N,UART1_TX*
X158496000Y-115570000D03*
D16*
G04 #@! TO.P,J7,1*
G04 #@! TO.N,PROPULSION1*
X158496000Y-113030000D03*
G04 #@! TD*
D19*
G04 #@! TO.P,L1,1*
G04 #@! TO.N,+5V*
X127508000Y-105664000D03*
G04 #@! TO.P,L1,2*
G04 #@! TO.N,Net-(C6-Pad1)*
X125508000Y-105664000D03*
G04 #@! TD*
D20*
G04 #@! TO.P,Q1,1*
G04 #@! TO.N,Fan_ctrl*
X144592000Y-72186000D03*
G04 #@! TO.P,Q1,2*
G04 #@! TO.N,GND*
X146492000Y-72186000D03*
G04 #@! TO.P,Q1,3*
G04 #@! TO.N,Net-(J1-Pad2)*
X145542000Y-70186000D03*
G04 #@! TD*
D21*
G04 #@! TO.P,R1,1*
G04 #@! TO.N,+BATT*
X120928000Y-109982000D03*
G04 #@! TO.P,R1,2*
G04 #@! TO.N,Net-(R1-Pad2)*
X122428000Y-109982000D03*
G04 #@! TD*
G04 #@! TO.P,R2,2*
G04 #@! TO.N,GND*
X125718000Y-108712000D03*
G04 #@! TO.P,R2,1*
G04 #@! TO.N,Net-(R2-Pad1)*
X124218000Y-108712000D03*
G04 #@! TD*
G04 #@! TO.P,R3,1*
G04 #@! TO.N,+5V*
X138950000Y-71882000D03*
G04 #@! TO.P,R3,2*
G04 #@! TO.N,Net-(J1-Pad1)*
X140450000Y-71882000D03*
G04 #@! TD*
G04 #@! TO.P,R4,2*
G04 #@! TO.N,Net-(R2-Pad1)*
X123976000Y-102616000D03*
G04 #@! TO.P,R4,1*
G04 #@! TO.N,+5V*
X125476000Y-102616000D03*
G04 #@! TD*
D22*
G04 #@! TO.P,R5,1*
G04 #@! TO.N,Net-(D1-Pad1)*
X112522000Y-82284000D03*
G04 #@! TO.P,R5,2*
G04 #@! TO.N,GND*
X112522000Y-80784000D03*
G04 #@! TD*
D21*
G04 #@! TO.P,R6,2*
G04 #@! TO.N,Net-(R6-Pad2)*
X150392000Y-83312000D03*
G04 #@! TO.P,R6,1*
G04 #@! TO.N,+BATT*
X151892000Y-83312000D03*
G04 #@! TD*
G04 #@! TO.P,R7,1*
G04 #@! TO.N,Net-(R6-Pad2)*
X150392000Y-85344000D03*
G04 #@! TO.P,R7,2*
G04 #@! TO.N,GND*
X151892000Y-85344000D03*
G04 #@! TD*
D22*
G04 #@! TO.P,R8,2*
G04 #@! TO.N,Net-(D2-Pad2)*
X112522000Y-93242000D03*
G04 #@! TO.P,R8,1*
G04 #@! TO.N,LED1*
X112522000Y-94742000D03*
G04 #@! TD*
G04 #@! TO.P,R9,2*
G04 #@! TO.N,Net-(D3-Pad2)*
X112522000Y-98032000D03*
G04 #@! TO.P,R9,1*
G04 #@! TO.N,LED2*
X112522000Y-96532000D03*
G04 #@! TD*
D23*
G04 #@! TO.P,TP1,1*
G04 #@! TO.N,+BATT*
X135636000Y-109728000D03*
G04 #@! TD*
G04 #@! TO.P,TP2,1*
G04 #@! TO.N,+3V3*
X148590000Y-109728000D03*
G04 #@! TD*
G04 #@! TO.P,TP3,1*
G04 #@! TO.N,+5V*
X145542000Y-109728000D03*
G04 #@! TD*
D24*
G04 #@! TO.P,U1,3*
G04 #@! TO.N,+5V*
X124190000Y-82550000D03*
G04 #@! TO.P,U1,2*
G04 #@! TO.N,+3V3*
X122190000Y-83500000D03*
G04 #@! TO.P,U1,1*
G04 #@! TO.N,GND*
X122190000Y-81600000D03*
G04 #@! TD*
D25*
G04 #@! TO.P,U2,5*
G04 #@! TO.N,Net-(R1-Pad2)*
X123444000Y-105664000D03*
G04 #@! TO.P,U2,6*
G04 #@! TO.N,Net-(C6-Pad2)*
X123444000Y-104714000D03*
G04 #@! TO.P,U2,4*
G04 #@! TO.N,Net-(R2-Pad1)*
X123444000Y-106614000D03*
G04 #@! TO.P,U2,3*
G04 #@! TO.N,+BATT*
X121244000Y-106614000D03*
G04 #@! TO.P,U2,2*
G04 #@! TO.N,Net-(C6-Pad1)*
X121244000Y-105664000D03*
G04 #@! TO.P,U2,1*
G04 #@! TO.N,GND*
X121244000Y-104714000D03*
G04 #@! TD*
D26*
G04 #@! TO.P,U3,64*
G04 #@! TO.N,+3V3*
X148956000Y-89214000D03*
G04 #@! TO.P,U3,63*
G04 #@! TO.N,GND*
X148956000Y-89714000D03*
G04 #@! TO.P,U3,62*
G04 #@! TO.N,Net-(U3-Pad62)*
X148956000Y-90214000D03*
G04 #@! TO.P,U3,61*
G04 #@! TO.N,Net-(U3-Pad61)*
X148956000Y-90714000D03*
G04 #@! TO.P,U3,60*
G04 #@! TO.N,GND*
X148956000Y-91214000D03*
G04 #@! TO.P,U3,59*
G04 #@! TO.N,UART1_RX*
X148956000Y-91714000D03*
G04 #@! TO.P,U3,58*
G04 #@! TO.N,UART1_TX*
X148956000Y-92214000D03*
G04 #@! TO.P,U3,57*
G04 #@! TO.N,Fan_ctrl*
X148956000Y-92714000D03*
G04 #@! TO.P,U3,56*
G04 #@! TO.N,Net-(U3-Pad56)*
X148956000Y-93214000D03*
G04 #@! TO.P,U3,55*
G04 #@! TO.N,SWO*
X148956000Y-93714000D03*
G04 #@! TO.P,U3,54*
G04 #@! TO.N,SD2_~CS*
X148956000Y-94214000D03*
G04 #@! TO.P,U3,53*
G04 #@! TO.N,SPI3_MOSI*
X148956000Y-94714000D03*
G04 #@! TO.P,U3,52*
G04 #@! TO.N,SPI3_MISO*
X148956000Y-95214000D03*
G04 #@! TO.P,U3,51*
G04 #@! TO.N,SPI3_SCK*
X148956000Y-95714000D03*
G04 #@! TO.P,U3,50*
G04 #@! TO.N,SD1_~CS*
X148956000Y-96214000D03*
G04 #@! TO.P,U3,49*
G04 #@! TO.N,SWCLK*
X148956000Y-96714000D03*
D27*
G04 #@! TO.P,U3,48*
G04 #@! TO.N,+3V3*
X147006000Y-98664000D03*
G04 #@! TO.P,U3,47*
G04 #@! TO.N,Net-(C9-Pad1)*
X146506000Y-98664000D03*
G04 #@! TO.P,U3,46*
G04 #@! TO.N,SWDIO*
X146006000Y-98664000D03*
G04 #@! TO.P,U3,45*
G04 #@! TO.N,PROPULSION2*
X145506000Y-98664000D03*
G04 #@! TO.P,U3,44*
G04 #@! TO.N,PROPULSION1*
X145006000Y-98664000D03*
G04 #@! TO.P,U3,43*
G04 #@! TO.N,PROPULSION3*
X144506000Y-98664000D03*
G04 #@! TO.P,U3,42*
G04 #@! TO.N,Net-(U3-Pad42)*
X144006000Y-98664000D03*
G04 #@! TO.P,U3,41*
G04 #@! TO.N,Net-(U3-Pad41)*
X143506000Y-98664000D03*
G04 #@! TO.P,U3,40*
G04 #@! TO.N,Net-(U3-Pad40)*
X143006000Y-98664000D03*
G04 #@! TO.P,U3,39*
G04 #@! TO.N,RECOVERY_2*
X142506000Y-98664000D03*
G04 #@! TO.P,U3,38*
G04 #@! TO.N,RECOVERY_1*
X142006000Y-98664000D03*
G04 #@! TO.P,U3,37*
G04 #@! TO.N,BARO_~CS*
X141506000Y-98664000D03*
G04 #@! TO.P,U3,36*
G04 #@! TO.N,SPI2_MOSI*
X141006000Y-98664000D03*
G04 #@! TO.P,U3,35*
G04 #@! TO.N,SPI2_MISO*
X140506000Y-98664000D03*
G04 #@! TO.P,U3,34*
G04 #@! TO.N,SPI2_SCK*
X140006000Y-98664000D03*
G04 #@! TO.P,U3,33*
G04 #@! TO.N,Accel_~CS*
X139506000Y-98664000D03*
D26*
G04 #@! TO.P,U3,32*
G04 #@! TO.N,+3V3*
X137556000Y-96714000D03*
G04 #@! TO.P,U3,31*
G04 #@! TO.N,Net-(C10-Pad1)*
X137556000Y-96214000D03*
G04 #@! TO.P,U3,30*
G04 #@! TO.N,UART3_RX*
X137556000Y-95714000D03*
G04 #@! TO.P,U3,29*
G04 #@! TO.N,UART3_TX*
X137556000Y-95214000D03*
G04 #@! TO.P,U3,28*
G04 #@! TO.N,LED2*
X137556000Y-94714000D03*
G04 #@! TO.P,U3,27*
G04 #@! TO.N,ADC2*
X137556000Y-94214000D03*
G04 #@! TO.P,U3,26*
G04 #@! TO.N,ADC1*
X137556000Y-93714000D03*
G04 #@! TO.P,U3,25*
G04 #@! TO.N,LED1*
X137556000Y-93214000D03*
G04 #@! TO.P,U3,24*
G04 #@! TO.N,MAG_~CS*
X137556000Y-92714000D03*
G04 #@! TO.P,U3,23*
G04 #@! TO.N,SPI1_MOSI*
X137556000Y-92214000D03*
G04 #@! TO.P,U3,22*
G04 #@! TO.N,SPI1_MISO*
X137556000Y-91714000D03*
G04 #@! TO.P,U3,21*
G04 #@! TO.N,SPI1_SCK*
X137556000Y-91214000D03*
G04 #@! TO.P,U3,20*
G04 #@! TO.N,AG_~CS*
X137556000Y-90714000D03*
G04 #@! TO.P,U3,19*
G04 #@! TO.N,+3V3*
X137556000Y-90214000D03*
G04 #@! TO.P,U3,18*
G04 #@! TO.N,GND*
X137556000Y-89714000D03*
G04 #@! TO.P,U3,17*
G04 #@! TO.N,UART2_RX*
X137556000Y-89214000D03*
D27*
G04 #@! TO.P,U3,16*
G04 #@! TO.N,UART2_TX*
X139506000Y-87264000D03*
G04 #@! TO.P,U3,15*
G04 #@! TO.N,UART4_RX*
X140006000Y-87264000D03*
G04 #@! TO.P,U3,14*
G04 #@! TO.N,UART4_TX*
X140506000Y-87264000D03*
G04 #@! TO.P,U3,13*
G04 #@! TO.N,+3V3*
X141006000Y-87264000D03*
G04 #@! TO.P,U3,12*
G04 #@! TO.N,GND*
X141506000Y-87264000D03*
G04 #@! TO.P,U3,11*
G04 #@! TO.N,LAUNCH*
X142006000Y-87264000D03*
G04 #@! TO.P,U3,10*
G04 #@! TO.N,Net-(U3-Pad10)*
X142506000Y-87264000D03*
G04 #@! TO.P,U3,9*
G04 #@! TO.N,Net-(U3-Pad9)*
X143006000Y-87264000D03*
G04 #@! TO.P,U3,8*
G04 #@! TO.N,Net-(U3-Pad8)*
X143506000Y-87264000D03*
G04 #@! TO.P,U3,7*
G04 #@! TO.N,NRST*
X144006000Y-87264000D03*
G04 #@! TO.P,U3,6*
G04 #@! TO.N,Net-(C11-Pad1)*
X144506000Y-87264000D03*
G04 #@! TO.P,U3,5*
G04 #@! TO.N,Net-(C13-Pad1)*
X145006000Y-87264000D03*
G04 #@! TO.P,U3,4*
G04 #@! TO.N,Net-(R6-Pad2)*
X145506000Y-87264000D03*
G04 #@! TO.P,U3,3*
G04 #@! TO.N,Net-(U3-Pad3)*
X146006000Y-87264000D03*
G04 #@! TO.P,U3,2*
G04 #@! TO.N,Net-(U3-Pad2)*
X146506000Y-87264000D03*
G04 #@! TO.P,U3,1*
G04 #@! TO.N,+3V3*
X147006000Y-87264000D03*
G04 #@! TD*
D28*
G04 #@! TO.P,Y1,2*
G04 #@! TO.N,Net-(C13-Pad1)*
X148336000Y-76708000D03*
G04 #@! TO.P,Y1,1*
G04 #@! TO.N,Net-(C11-Pad1)*
X139836000Y-76708000D03*
G04 #@! TD*
D29*
G04 #@! TO.N,GND*
X107950000Y-107950000D03*
X107950000Y-102108000D03*
X107950000Y-96266000D03*
X107950000Y-90678000D03*
X107950000Y-85090000D03*
X107950000Y-79248000D03*
X107950000Y-72898000D03*
X107950000Y-67564000D03*
X151892000Y-79248000D03*
X147066000Y-91186000D03*
X152400000Y-89408000D03*
X130810000Y-100330000D03*
X152908000Y-101149999D03*
X151638000Y-102616000D03*
X152908000Y-104902000D03*
X128016000Y-101854000D03*
X121158000Y-103124000D03*
X116078000Y-103378000D03*
X125476000Y-109982000D03*
X123698000Y-110998000D03*
X149352000Y-86868000D03*
X136906000Y-79756000D03*
X134366000Y-78486000D03*
X131064000Y-84494000D03*
X130810000Y-82550000D03*
X114046000Y-60452000D03*
X119888000Y-60452000D03*
X126238000Y-60452000D03*
X132334000Y-60452000D03*
X138938000Y-60452000D03*
X145288000Y-60452000D03*
X151892000Y-60452000D03*
X159004000Y-60452000D03*
X167894000Y-67056000D03*
X167894000Y-72898000D03*
X167894000Y-78232000D03*
X167894000Y-84074000D03*
X167894000Y-90424000D03*
X167894000Y-97790000D03*
X167894000Y-105918000D03*
X167894000Y-111760000D03*
X159766000Y-118110000D03*
X152654000Y-118110000D03*
X146558000Y-118110000D03*
X139446000Y-118110000D03*
X131826000Y-118110000D03*
X124206000Y-118110000D03*
X116332000Y-118110000D03*
X107950000Y-113792000D03*
X146050000Y-90424000D03*
X145796000Y-88900000D03*
X144272000Y-88900000D03*
X142494000Y-89662000D03*
X143002000Y-90678000D03*
X141478000Y-93472000D03*
X140208000Y-94996000D03*
X144272000Y-97028000D03*
X146558000Y-96012000D03*
X146558000Y-94234000D03*
X144272000Y-92964000D03*
G04 #@! TO.N,+5V*
X127508000Y-109728000D03*
X127508000Y-112776000D03*
X129032000Y-99277000D03*
X125476000Y-99568000D03*
X128524000Y-86868000D03*
X125476000Y-87122000D03*
G04 #@! TO.N,+3V3*
X150622000Y-101346000D03*
X150622000Y-104140000D03*
X123444000Y-84582000D03*
X134620000Y-85344000D03*
X137922000Y-82042000D03*
X143801000Y-78251337D03*
X145288000Y-78232000D03*
X150876000Y-81026000D03*
X152654000Y-81026000D03*
X134366000Y-89408000D03*
X133858000Y-87122000D03*
X152146000Y-97282000D03*
X152654000Y-90678000D03*
X155194000Y-83058000D03*
X153670000Y-86360000D03*
G04 #@! TO.N,UART2_RX*
X132842000Y-81026000D03*
X136786011Y-84970011D03*
G04 #@! TO.N,UART2_TX*
X138430000Y-85344000D03*
G04 #@! TO.N,LAUNCH*
X141478000Y-88900000D03*
G04 #@! TO.N,SWCLK*
X150876000Y-97282000D03*
G04 #@! TO.N,SWDIO*
X147320000Y-97282000D03*
G04 #@! TO.N,NRST*
X162814000Y-83820000D03*
X143510000Y-84074000D03*
G04 #@! TO.N,SWO*
X161798000Y-95250000D03*
X156078347Y-92832347D03*
G04 #@! TO.N,RECOVERY_2*
X141986000Y-102616000D03*
G04 #@! TO.N,RECOVERY_1*
X141224000Y-103632000D03*
G04 #@! TO.N,UART4_RX*
X140716000Y-91440000D03*
G04 #@! TO.N,ADC2*
X131821347Y-94737347D03*
X135890000Y-103632000D03*
G04 #@! TO.N,UART4_TX*
X141478000Y-90678000D03*
G04 #@! TO.N,ADC1*
X130556000Y-94488000D03*
X132583347Y-100588653D03*
X134874000Y-100584000D03*
X137418653Y-103128653D03*
G04 #@! TO.N,PROPULSION3*
X145283347Y-102874653D03*
G04 #@! TO.N,UART1_RX*
X154178000Y-92202000D03*
X154940000Y-97536000D03*
G04 #@! TO.N,PROPULSION2*
X149098000Y-104140000D03*
G04 #@! TO.N,UART1_TX*
X153162000Y-92456000D03*
X153924000Y-97028000D03*
G04 #@! TO.N,PROPULSION1*
X148336000Y-104902000D03*
X152649347Y-108716653D03*
G04 #@! TO.N,Fan_ctrl*
X146812000Y-92710000D03*
X144526000Y-73914000D03*
G04 #@! TO.N,LED1*
X114808000Y-94742000D03*
X119380000Y-94742000D03*
G04 #@! TO.N,Net-(C6-Pad1)*
X123956653Y-100588653D03*
X126492000Y-103632000D03*
G04 #@! TO.N,Net-(R6-Pad2)*
X146558000Y-85344000D03*
X149098000Y-85344000D03*
G04 #@! TD*
D30*
G04 #@! TO.N,GND*
X107950000Y-113792000D02*
X107950000Y-107950000D01*
X107950000Y-102108000D02*
X107950000Y-96266000D01*
X107950000Y-90678000D02*
X107950000Y-85090000D01*
X107950000Y-79248000D02*
X107950000Y-72898000D01*
X107950000Y-67564000D02*
X107950000Y-63754000D01*
X107950000Y-63754000D02*
X107950000Y-63246000D01*
X141506000Y-85570000D02*
X141732000Y-85344000D01*
X141506000Y-87264000D02*
X141506000Y-85570000D01*
X141732000Y-85344000D02*
X141732000Y-83312000D01*
X141732000Y-83312000D02*
X141732000Y-81280000D01*
X148956000Y-89714000D02*
X149808000Y-89714000D01*
X150114000Y-89408000D02*
X150876000Y-89408000D01*
X149808000Y-89714000D02*
X150114000Y-89408000D01*
X148336000Y-81813000D02*
X148336000Y-81280000D01*
X146837000Y-83312000D02*
X148336000Y-81813000D01*
X146812000Y-83312000D02*
X146837000Y-83312000D01*
X148981000Y-80010000D02*
X151130000Y-80010000D01*
X148336000Y-80655000D02*
X148981000Y-80010000D01*
X148336000Y-81280000D02*
X148336000Y-80655000D01*
X151130000Y-80010000D02*
X151892000Y-79248000D01*
X148956000Y-91214000D02*
X147094000Y-91214000D01*
X147094000Y-91214000D02*
X147066000Y-91186000D01*
X135636000Y-88187000D02*
X135636000Y-88162000D01*
X136336001Y-88887001D02*
X135636000Y-88187000D01*
X136336001Y-89244001D02*
X136336001Y-88887001D01*
X136806000Y-89714000D02*
X136336001Y-89244001D01*
X137556000Y-89714000D02*
X136806000Y-89714000D01*
X150876000Y-89408000D02*
X152400000Y-89408000D01*
X134136000Y-98794000D02*
X134124000Y-98806000D01*
X134136000Y-97028000D02*
X134136000Y-98794000D01*
X134124000Y-98806000D02*
X134112000Y-98806000D01*
X134112000Y-98806000D02*
X133604000Y-99314000D01*
X133604000Y-99314000D02*
X131826000Y-99314000D01*
X131826000Y-99314000D02*
X130810000Y-100330000D01*
X152908000Y-98806000D02*
X152908000Y-101149999D01*
X150251000Y-102616000D02*
X151638000Y-102616000D01*
X148844000Y-100584000D02*
X148844000Y-101209000D01*
X148844000Y-101209000D02*
X150251000Y-102616000D01*
X135636000Y-88162000D02*
X132866000Y-88162000D01*
X132866000Y-88162000D02*
X132842000Y-88138000D01*
X128016000Y-101854000D02*
X127508000Y-101346000D01*
X127508000Y-101346000D02*
X127508000Y-101092000D01*
X127532000Y-101068000D02*
X127532000Y-100330000D01*
X127508000Y-101092000D02*
X127532000Y-101068000D01*
X121244000Y-104714000D02*
X121244000Y-103210000D01*
X121244000Y-103210000D02*
X121158000Y-103124000D01*
X125718000Y-108712000D02*
X125718000Y-109740000D01*
X125718000Y-109740000D02*
X125476000Y-109982000D01*
X151892000Y-85344000D02*
X151892000Y-85544000D01*
X150368000Y-86868000D02*
X149352000Y-86868000D01*
X150568000Y-86868000D02*
X150368000Y-86868000D01*
X151892000Y-85544000D02*
X150568000Y-86868000D01*
X140183000Y-79756000D02*
X136906000Y-79756000D01*
X141732000Y-81280000D02*
X141707000Y-81280000D01*
X141707000Y-81280000D02*
X140183000Y-79756000D01*
X132866000Y-88162000D02*
X131064000Y-86360000D01*
X131064000Y-86360000D02*
X131064000Y-84494000D01*
X130810000Y-82550000D02*
X130302000Y-82042000D01*
X130278000Y-82066000D02*
X126238000Y-82066000D01*
X130302000Y-82042000D02*
X130278000Y-82066000D01*
X107950000Y-63246000D02*
X107950000Y-62992000D01*
X107950000Y-62992000D02*
X110490000Y-60452000D01*
X110490000Y-60452000D02*
X114046000Y-60452000D01*
X119888000Y-60452000D02*
X126238000Y-60452000D01*
X132334000Y-60452000D02*
X138938000Y-60452000D01*
X145288000Y-60452000D02*
X151892000Y-60452000D01*
X159004000Y-60452000D02*
X165354000Y-60452000D01*
X165354000Y-60452000D02*
X167894000Y-62992000D01*
X167894000Y-62992000D02*
X167894000Y-67056000D01*
X167894000Y-72898000D02*
X167894000Y-78232000D01*
X167894000Y-84074000D02*
X167894000Y-90424000D01*
X167894000Y-97790000D02*
X167894000Y-105918000D01*
X167894000Y-111760000D02*
X167894000Y-112831002D01*
X167894000Y-112831002D02*
X167894000Y-115824000D01*
X167894000Y-115824000D02*
X165608000Y-118110000D01*
X165608000Y-118110000D02*
X159766000Y-118110000D01*
X152654000Y-118110000D02*
X146558000Y-118110000D01*
X139446000Y-118110000D02*
X131826000Y-118110000D01*
X124206000Y-118110000D02*
X116332000Y-118110000D01*
X146050000Y-90424000D02*
X146050000Y-89154000D01*
X146050000Y-89154000D02*
X145796000Y-88900000D01*
X144272000Y-88900000D02*
X143256000Y-88900000D01*
X143256000Y-88900000D02*
X142494000Y-89662000D01*
X143002000Y-90678000D02*
X143510000Y-91186000D01*
X143510000Y-91186000D02*
X143510000Y-91948000D01*
X143510000Y-91948000D02*
X141986000Y-93472000D01*
X141986000Y-93472000D02*
X141478000Y-93472000D01*
X140208000Y-94996000D02*
X140208000Y-96012000D01*
X140208000Y-96012000D02*
X141224000Y-97028000D01*
X141224000Y-97028000D02*
X144272000Y-97028000D01*
X146558000Y-96012000D02*
X146558000Y-94234000D01*
D31*
G04 #@! TO.N,+BATT*
X135636000Y-113030000D02*
X135636000Y-109728000D01*
X124206000Y-114225000D02*
X124206000Y-114300000D01*
X133362001Y-108978001D02*
X133350000Y-108966000D01*
X126925000Y-111506000D02*
X124206000Y-114225000D01*
X135636000Y-109728000D02*
X134886001Y-108978001D01*
X134886001Y-108978001D02*
X133362001Y-108978001D01*
X128524000Y-111506000D02*
X131064000Y-108966000D01*
X126925000Y-111506000D02*
X128524000Y-111506000D01*
X133350000Y-108966000D02*
X131064000Y-108966000D01*
D32*
X120928000Y-110732000D02*
X120928000Y-109982000D01*
X120928000Y-112597000D02*
X120928000Y-110732000D01*
X122631000Y-114300000D02*
X120928000Y-112597000D01*
X124206000Y-114300000D02*
X122631000Y-114300000D01*
X120928000Y-106930000D02*
X121244000Y-106614000D01*
X120928000Y-109982000D02*
X120928000Y-106930000D01*
X118860000Y-106160000D02*
X118848000Y-106172000D01*
X118860000Y-104394000D02*
X118860000Y-106160000D01*
X118848000Y-106172000D02*
X118848000Y-107950000D01*
X120205000Y-109982000D02*
X120928000Y-109982000D01*
X118848000Y-107950000D02*
X118848000Y-108625000D01*
X118848000Y-108625000D02*
X120205000Y-109982000D01*
D33*
X162814000Y-82042000D02*
X154686000Y-82042000D01*
X166108010Y-85336010D02*
X162814000Y-82042000D01*
X153416000Y-83312000D02*
X152492000Y-83312000D01*
X154686000Y-82042000D02*
X153416000Y-83312000D01*
X165100000Y-103632000D02*
X166108010Y-102623990D01*
X162814000Y-103632000D02*
X165100000Y-103632000D01*
X152492000Y-83312000D02*
X151892000Y-83312000D01*
X124206000Y-116000000D02*
X125501011Y-117295011D01*
X124206000Y-114300000D02*
X124206000Y-116000000D01*
X125501011Y-117295011D02*
X159818989Y-117295011D01*
X160774010Y-116339990D02*
X160774010Y-105671990D01*
X166108010Y-102623990D02*
X166108010Y-85336010D01*
X159818989Y-117295011D02*
X160774010Y-116339990D01*
X160774010Y-105671990D02*
X162814000Y-103632000D01*
D30*
G04 #@! TO.N,Net-(C9-Pad1)*
X146506000Y-99746000D02*
X147344000Y-100584000D01*
X146506000Y-98664000D02*
X146506000Y-99746000D01*
D31*
G04 #@! TO.N,+5V*
X145796000Y-109982000D02*
X145542000Y-109728000D01*
X145796000Y-113030000D02*
X145796000Y-109982000D01*
D32*
X129032000Y-103124000D02*
X129032000Y-104140000D01*
X129032000Y-104140000D02*
X128524000Y-104648000D01*
X128524000Y-104648000D02*
X127508000Y-105664000D01*
X127508000Y-105664000D02*
X127508000Y-109728000D01*
X152566001Y-116419999D02*
X153416000Y-115570000D01*
X152215999Y-116770001D02*
X152566001Y-116419999D01*
X129979999Y-116770001D02*
X152215999Y-116770001D01*
X127508000Y-114298002D02*
X129979999Y-116770001D01*
X127508000Y-112776000D02*
X127508000Y-114298002D01*
D30*
X129032000Y-100330000D02*
X129032000Y-99277000D01*
X125222000Y-82550000D02*
X124190000Y-82550000D01*
X126238000Y-83566000D02*
X125222000Y-82550000D01*
X129032000Y-103124000D02*
X129032000Y-100330000D01*
X125476000Y-102616000D02*
X125476000Y-99568000D01*
X126238000Y-84582000D02*
X126238000Y-83566000D01*
X128524000Y-86868000D02*
X126238000Y-84582000D01*
X124206000Y-82566000D02*
X124190000Y-82550000D01*
X125476000Y-87122000D02*
X124206000Y-85852000D01*
X124206000Y-85852000D02*
X124206000Y-82566000D01*
D32*
X126238000Y-83566000D02*
X131826000Y-83566000D01*
X131826000Y-83566000D02*
X135128000Y-80264000D01*
X138950000Y-72632000D02*
X138950000Y-71882000D01*
X135128000Y-76454000D02*
X138950000Y-72632000D01*
X135128000Y-80264000D02*
X135128000Y-76454000D01*
D30*
G04 #@! TO.N,+3V3*
X141006000Y-86118000D02*
X140232000Y-85344000D01*
X141006000Y-87264000D02*
X141006000Y-86118000D01*
X140232000Y-85344000D02*
X140232000Y-83312000D01*
X147006000Y-87264000D02*
X147006000Y-86420000D01*
X148312000Y-85114000D02*
X148312000Y-83312000D01*
X147006000Y-86420000D02*
X148312000Y-85114000D01*
X150251000Y-87908000D02*
X150876000Y-87908000D01*
X149887000Y-87908000D02*
X150251000Y-87908000D01*
X148956000Y-88839000D02*
X149887000Y-87908000D01*
X148956000Y-89214000D02*
X148956000Y-88839000D01*
X136188000Y-90214000D02*
X135636000Y-89662000D01*
X137556000Y-90214000D02*
X136188000Y-90214000D01*
X151266000Y-98664000D02*
X151408000Y-98806000D01*
X147006000Y-98664000D02*
X151266000Y-98664000D01*
X151408000Y-98806000D02*
X151408000Y-100560000D01*
X151408000Y-100560000D02*
X150622000Y-101346000D01*
D31*
X164338000Y-87250000D02*
X162178000Y-85090000D01*
X164338000Y-88900000D02*
X164338000Y-87250000D01*
X162178000Y-85090000D02*
X156972000Y-85090000D01*
X154154000Y-87908000D02*
X150876000Y-87908000D01*
X156972000Y-85090000D02*
X154154000Y-87908000D01*
X117070000Y-83542000D02*
X116840000Y-83312000D01*
X120142000Y-83542000D02*
X117070000Y-83542000D01*
X122148000Y-83542000D02*
X122190000Y-83500000D01*
X120142000Y-83542000D02*
X122148000Y-83542000D01*
X148336000Y-109982000D02*
X148590000Y-109728000D01*
X148336000Y-113030000D02*
X148336000Y-109982000D01*
D34*
X148590000Y-109728000D02*
X148590000Y-106172000D01*
X148590000Y-106172000D02*
X150622000Y-104140000D01*
D32*
X139025999Y-114720001D02*
X138176000Y-115570000D01*
X139376001Y-114369999D02*
X139025999Y-114720001D01*
X146996001Y-114369999D02*
X139376001Y-114369999D01*
X148336000Y-113030000D02*
X146996001Y-114369999D01*
D34*
X122190000Y-83500000D02*
X122362000Y-83500000D01*
X122362000Y-83500000D02*
X123190000Y-84328000D01*
X123190000Y-84328000D02*
X123444000Y-84582000D01*
X112522000Y-86280000D02*
X112522000Y-86614000D01*
X115490000Y-83312000D02*
X112522000Y-86280000D01*
X116840000Y-83312000D02*
X115490000Y-83312000D01*
D30*
X137220000Y-96714000D02*
X137556000Y-96714000D01*
X136411000Y-97523000D02*
X137220000Y-96714000D01*
X136411000Y-98044000D02*
X136411000Y-97523000D01*
X135624000Y-98806000D02*
X135649000Y-98806000D01*
X135649000Y-98806000D02*
X136411000Y-98044000D01*
X138728000Y-90214000D02*
X137556000Y-90214000D01*
X139446000Y-90932000D02*
X138728000Y-90214000D01*
X139446000Y-95574000D02*
X139446000Y-90932000D01*
X137556000Y-96714000D02*
X138306000Y-96714000D01*
X138306000Y-96714000D02*
X139446000Y-95574000D01*
D32*
X134620000Y-85344000D02*
X137922000Y-82042000D01*
X143801000Y-78251337D02*
X145268663Y-78251337D01*
X145268663Y-78251337D02*
X145288000Y-78232000D01*
X150876000Y-81026000D02*
X152654000Y-81026000D01*
D30*
X135636000Y-89662000D02*
X134620000Y-89662000D01*
X134620000Y-89662000D02*
X134366000Y-89408000D01*
X151408000Y-98806000D02*
X151408000Y-98020000D01*
X151408000Y-98020000D02*
X152146000Y-97282000D01*
D33*
X155194000Y-83058000D02*
X155194000Y-83623685D01*
X155194000Y-83623685D02*
X155194000Y-84836000D01*
X155194000Y-84836000D02*
X153670000Y-86360000D01*
D30*
G04 #@! TO.N,Net-(D1-Pad1)*
X112522000Y-84414000D02*
X112522000Y-82284000D01*
G04 #@! TO.N,Net-(D2-Pad2)*
X112522000Y-91186000D02*
X112522000Y-93242000D01*
G04 #@! TO.N,SPI3_MISO*
X157190000Y-95214000D02*
X158496000Y-96520000D01*
X148956000Y-95214000D02*
X157190000Y-95214000D01*
G04 #@! TO.N,SD1_~CS*
X148956000Y-96214000D02*
X155650000Y-96214000D01*
X155650000Y-96214000D02*
X156464000Y-97028000D01*
X156464000Y-99568000D02*
X158496000Y-101600000D01*
X156464000Y-97028000D02*
X156464000Y-99568000D01*
G04 #@! TO.N,SPI3_MOSI*
X157762000Y-94714000D02*
X158496000Y-93980000D01*
X148956000Y-94714000D02*
X157762000Y-94714000D01*
G04 #@! TO.N,UART2_RX*
X136966000Y-89214000D02*
X136786011Y-89034011D01*
X137556000Y-89214000D02*
X136966000Y-89214000D01*
X136786011Y-89034011D02*
X136786011Y-88900000D01*
X136786011Y-88900000D02*
X136786011Y-84970011D01*
X128802000Y-76986000D02*
X128802000Y-70086000D01*
X132842000Y-81026000D02*
X128802000Y-76986000D01*
G04 #@! TO.N,UART2_TX*
X139506000Y-87264000D02*
X139506000Y-86420000D01*
X139506000Y-86420000D02*
X138430000Y-85344000D01*
G04 #@! TO.N,LAUNCH*
X142006000Y-87264000D02*
X142006000Y-88372000D01*
X142006000Y-88372000D02*
X141478000Y-88900000D01*
G04 #@! TO.N,SD2_~CS*
X155722000Y-94214000D02*
X158496000Y-91440000D01*
X148956000Y-94214000D02*
X155722000Y-94214000D01*
G04 #@! TO.N,SPI3_SCK*
X148956000Y-95714000D02*
X156166000Y-95714000D01*
X156166000Y-95714000D02*
X156972000Y-96520000D01*
X156972000Y-97536000D02*
X158496000Y-99060000D01*
X156972000Y-96520000D02*
X156972000Y-97536000D01*
G04 #@! TO.N,SWCLK*
X148956000Y-96714000D02*
X150308000Y-96714000D01*
X150308000Y-96714000D02*
X150876000Y-97282000D01*
G04 #@! TO.N,SWDIO*
X146638000Y-97282000D02*
X147320000Y-97282000D01*
X146006000Y-98664000D02*
X146006000Y-97914000D01*
X146006000Y-97914000D02*
X146638000Y-97282000D01*
G04 #@! TO.N,NRST*
X164338000Y-99060000D02*
X165187999Y-98210001D01*
X165187999Y-98210001D02*
X165608000Y-97790000D01*
X165608000Y-97790000D02*
X165608000Y-86614000D01*
X165608000Y-86614000D02*
X162814000Y-83820000D01*
X143110001Y-84473999D02*
X143110001Y-85198001D01*
X143510000Y-84074000D02*
X143110001Y-84473999D01*
X144006000Y-86094000D02*
X144006000Y-87264000D01*
X143110001Y-85198001D02*
X144006000Y-86094000D01*
G04 #@! TO.N,SWO*
X161798000Y-99060000D02*
X164338000Y-101600000D01*
X161798000Y-95250000D02*
X161798000Y-99060000D01*
X155678348Y-93232346D02*
X155678348Y-93241652D01*
X156078347Y-92832347D02*
X155678348Y-93232346D01*
X155678348Y-93241652D02*
X155194000Y-93726000D01*
X155182000Y-93714000D02*
X154178000Y-93714000D01*
X155194000Y-93726000D02*
X155182000Y-93714000D01*
X148956000Y-93714000D02*
X154178000Y-93714000D01*
X154178000Y-93714000D02*
X154444000Y-93714000D01*
G04 #@! TO.N,RECOVERY_2*
X142506000Y-99414000D02*
X142494000Y-99426000D01*
X142506000Y-98664000D02*
X142506000Y-99414000D01*
X142494000Y-99426000D02*
X142494000Y-102108000D01*
X142494000Y-102108000D02*
X141986000Y-102616000D01*
G04 #@! TO.N,RECOVERY_1*
X141224000Y-102304998D02*
X141224000Y-103632000D01*
X142006000Y-98664000D02*
X142006000Y-101522998D01*
X142006000Y-101522998D02*
X141224000Y-102304998D01*
G04 #@! TO.N,UART4_RX*
X140006000Y-87264000D02*
X140006000Y-88453306D01*
X140006000Y-88453306D02*
X140006000Y-90730000D01*
X140006000Y-90730000D02*
X140716000Y-91440000D01*
G04 #@! TO.N,ADC2*
X137556000Y-94214000D02*
X133116000Y-94214000D01*
X133116000Y-94214000D02*
X132344694Y-94214000D01*
X132344694Y-94214000D02*
X131821347Y-94737347D01*
X135890000Y-108204000D02*
X140716000Y-113030000D01*
X135890000Y-103632000D02*
X135890000Y-108204000D01*
G04 #@! TO.N,UART4_TX*
X140506000Y-87264000D02*
X140506000Y-87928000D01*
X140506000Y-87928000D02*
X140506000Y-89706000D01*
X140506000Y-89706000D02*
X141478000Y-90678000D01*
G04 #@! TO.N,ADC1*
X137556000Y-93714000D02*
X131330000Y-93714000D01*
X131330000Y-93714000D02*
X130556000Y-94488000D01*
X132583347Y-100588653D02*
X134869347Y-100588653D01*
X134869347Y-100588653D02*
X134874000Y-100584000D01*
X138524999Y-104234999D02*
X138524999Y-109822999D01*
X137418653Y-103128653D02*
X138524999Y-104234999D01*
X138524999Y-109822999D02*
X140208000Y-111506000D01*
X141732000Y-111506000D02*
X143256000Y-113030000D01*
X140208000Y-111506000D02*
X141732000Y-111506000D01*
G04 #@! TO.N,PROPULSION3*
X144506000Y-98664000D02*
X144506000Y-102097306D01*
X144506000Y-102097306D02*
X145283347Y-102874653D01*
G04 #@! TO.N,UART1_RX*
X148956000Y-91714000D02*
X153690000Y-91714000D01*
X153690000Y-91714000D02*
X154178000Y-92202000D01*
X154940000Y-97536000D02*
X154940000Y-106172000D01*
X154940000Y-106172000D02*
X160274000Y-111506000D01*
X160274000Y-111506000D02*
X160274000Y-116078000D01*
X156805999Y-116419999D02*
X155956000Y-115570000D01*
X157131001Y-116745001D02*
X156805999Y-116419999D01*
X159606999Y-116745001D02*
X157131001Y-116745001D01*
X160274000Y-116078000D02*
X159606999Y-116745001D01*
G04 #@! TO.N,PROPULSION2*
X145506000Y-98664000D02*
X145506000Y-100548000D01*
X145506000Y-100548000D02*
X149098000Y-104140000D01*
G04 #@! TO.N,UART1_TX*
X148956000Y-92214000D02*
X152920000Y-92214000D01*
X152920000Y-92214000D02*
X153162000Y-92456000D01*
X159345999Y-114720001D02*
X158496000Y-115570000D01*
X159671001Y-114394999D02*
X159345999Y-114720001D01*
X159671001Y-111919999D02*
X159671001Y-114394999D01*
X153924000Y-106172998D02*
X159671001Y-111919999D01*
X153924000Y-97028000D02*
X153924000Y-106172998D01*
G04 #@! TO.N,PROPULSION1*
X145006000Y-98664000D02*
X145006000Y-101572000D01*
X145006000Y-101572000D02*
X148336000Y-104902000D01*
X158496000Y-111930000D02*
X158496000Y-113030000D01*
X155282653Y-108716653D02*
X158496000Y-111930000D01*
X152649347Y-108716653D02*
X155282653Y-108716653D01*
G04 #@! TO.N,Fan_ctrl*
X148956000Y-92714000D02*
X146816000Y-92714000D01*
X146816000Y-92714000D02*
X146812000Y-92710000D01*
X144526000Y-72252000D02*
X144592000Y-72186000D01*
X144526000Y-73914000D02*
X144526000Y-72252000D01*
D32*
G04 #@! TO.N,Net-(R2-Pad1)*
X123444000Y-107938000D02*
X124218000Y-108712000D01*
X123444000Y-106614000D02*
X123444000Y-107938000D01*
X124218000Y-108712000D02*
X124218000Y-108912000D01*
X126746000Y-109474000D02*
X126746000Y-107950000D01*
X126746000Y-107950000D02*
X126238000Y-107442000D01*
X126238000Y-107442000D02*
X125222000Y-107442000D01*
X125222000Y-107442000D02*
X124714000Y-106934000D01*
X123976000Y-103366000D02*
X123976000Y-102616000D01*
X124714000Y-104104000D02*
X123976000Y-103366000D01*
X124714000Y-106934000D02*
X124714000Y-104104000D01*
D30*
X124218000Y-108712000D02*
X124218000Y-110248000D01*
X124218000Y-110248000D02*
X124714000Y-110744000D01*
X124714000Y-110744000D02*
X125984000Y-110744000D01*
X126746000Y-109982000D02*
X126746000Y-109474000D01*
X125984000Y-110744000D02*
X126746000Y-109982000D01*
G04 #@! TO.N,BARO_~CS*
X140462000Y-104394000D02*
X142240000Y-106172000D01*
X140462000Y-101220410D02*
X140462000Y-104394000D01*
X141506000Y-98664000D02*
X141506000Y-100176410D01*
X141506000Y-100176410D02*
X140462000Y-101220410D01*
G04 #@! TO.N,LED1*
X137556000Y-93214000D02*
X128528000Y-93214000D01*
X128528000Y-93214000D02*
X127762000Y-93980000D01*
D32*
X114808000Y-94742000D02*
X112522000Y-94742000D01*
X127762000Y-93980000D02*
X127000000Y-94742000D01*
X127000000Y-94742000D02*
X119380000Y-94742000D01*
D30*
G04 #@! TO.N,LED2*
X136756010Y-94763990D02*
X132820010Y-94763990D01*
X137556000Y-94714000D02*
X136806000Y-94714000D01*
X136806000Y-94714000D02*
X136756010Y-94763990D01*
X132820010Y-94763990D02*
X131064000Y-96520000D01*
D32*
X113272000Y-96532000D02*
X112522000Y-96532000D01*
X114022000Y-97282000D02*
X113272000Y-96532000D01*
X130302000Y-97282000D02*
X114022000Y-97282000D01*
X131064000Y-96520000D02*
X130302000Y-97282000D01*
D30*
G04 #@! TO.N,SPI2_SCK*
X140006000Y-99550410D02*
X137702410Y-101854000D01*
X140006000Y-98664000D02*
X140006000Y-99550410D01*
X137702410Y-101854000D02*
X135636000Y-101854000D01*
X134620000Y-102870000D02*
X134620000Y-106172000D01*
X135636000Y-101854000D02*
X134620000Y-102870000D01*
G04 #@! TO.N,SPI2_MOSI*
X141006000Y-98664000D02*
X141006000Y-100040000D01*
X139700000Y-101346000D02*
X139700000Y-106172000D01*
X141006000Y-100040000D02*
X139700000Y-101346000D01*
G04 #@! TO.N,SPI2_MISO*
X136652000Y-105664000D02*
X137160000Y-106172000D01*
X140506000Y-98762000D02*
X140456010Y-98811990D01*
X140506000Y-98664000D02*
X140506000Y-98762000D01*
X136652000Y-102870000D02*
X136652000Y-105664000D01*
X140456010Y-98811990D02*
X140456009Y-99736811D01*
X140456009Y-99736811D02*
X137830820Y-102362000D01*
X137830820Y-102362000D02*
X137160000Y-102362000D01*
X137160000Y-102362000D02*
X136652000Y-102870000D01*
G04 #@! TO.N,SPI1_MOSI*
X118098000Y-92214000D02*
X116840000Y-93472000D01*
X137556000Y-92214000D02*
X118098000Y-92214000D01*
G04 #@! TO.N,SPI1_MISO*
X137556000Y-91714000D02*
X132354000Y-91714000D01*
X131572000Y-90932000D02*
X116840000Y-90932000D01*
X132354000Y-91714000D02*
X131572000Y-90932000D01*
G04 #@! TO.N,SPI1_SCK*
X136756010Y-91164010D02*
X132566010Y-91164010D01*
X137556000Y-91214000D02*
X136806000Y-91214000D01*
X136806000Y-91214000D02*
X136756010Y-91164010D01*
X129794000Y-88392000D02*
X116840000Y-88392000D01*
X132566010Y-91164010D02*
X129794000Y-88392000D01*
G04 #@! TO.N,Accel_~CS*
X139506000Y-99414000D02*
X137574000Y-101346000D01*
X139506000Y-98664000D02*
X139506000Y-99414000D01*
X137574000Y-101346000D02*
X133858000Y-101346000D01*
X132080000Y-103124000D02*
X132080000Y-106172000D01*
X133858000Y-101346000D02*
X132080000Y-103124000D01*
G04 #@! TO.N,UART3_TX*
X123952000Y-98552000D02*
X116840000Y-98552000D01*
X124331590Y-98552000D02*
X123952000Y-98552000D01*
X124839590Y-98044000D02*
X124331590Y-98552000D01*
X130427590Y-98044000D02*
X124839590Y-98044000D01*
X137556000Y-95214000D02*
X133257590Y-95214000D01*
X133257590Y-95214000D02*
X130427590Y-98044000D01*
G04 #@! TO.N,UART3_RX*
X119126000Y-101092000D02*
X116840000Y-101092000D01*
X133394000Y-95714000D02*
X130556000Y-98552000D01*
X130556000Y-98552000D02*
X124968000Y-98552000D01*
X137556000Y-95714000D02*
X133394000Y-95714000D01*
X124968000Y-98552000D02*
X123444000Y-100076000D01*
X123444000Y-100076000D02*
X120142000Y-100076000D01*
X120142000Y-100076000D02*
X119126000Y-101092000D01*
D32*
G04 #@! TO.N,Net-(C6-Pad2)*
X122428000Y-102275000D02*
X122428000Y-101600000D01*
X122428000Y-104528000D02*
X122428000Y-102275000D01*
X122614000Y-104714000D02*
X122428000Y-104528000D01*
X123444000Y-104714000D02*
X122614000Y-104714000D01*
G04 #@! TO.N,Net-(C6-Pad1)*
X120903000Y-101600000D02*
X120928000Y-101600000D01*
X119888000Y-102615000D02*
X120903000Y-101600000D01*
X119888000Y-105138000D02*
X119888000Y-102615000D01*
X120414000Y-105664000D02*
X119888000Y-105138000D01*
X121244000Y-105664000D02*
X120414000Y-105664000D01*
X121964347Y-100588653D02*
X123956653Y-100588653D01*
X120928000Y-101600000D02*
X120953000Y-101600000D01*
X120953000Y-101600000D02*
X121964347Y-100588653D01*
X126492000Y-104680000D02*
X125508000Y-105664000D01*
X126492000Y-103632000D02*
X126492000Y-104680000D01*
D30*
G04 #@! TO.N,Net-(C10-Pad1)*
X135661000Y-97028000D02*
X135636000Y-97028000D01*
X136475000Y-96214000D02*
X135661000Y-97028000D01*
X137556000Y-96214000D02*
X136475000Y-96214000D01*
G04 #@! TO.N,Net-(C11-Pad1)*
X141086000Y-76708000D02*
X139836000Y-76708000D01*
X144506000Y-80128000D02*
X141086000Y-76708000D01*
X144506000Y-87264000D02*
X144506000Y-80128000D01*
X140232000Y-81280000D02*
X140207000Y-81280000D01*
X136906000Y-81280000D02*
X140232000Y-81280000D01*
X135890000Y-80264000D02*
X136906000Y-81280000D01*
X135890000Y-77470000D02*
X135890000Y-80264000D01*
X139836000Y-76708000D02*
X136652000Y-76708000D01*
X136652000Y-76708000D02*
X135890000Y-77470000D01*
G04 #@! TO.N,Net-(C13-Pad1)*
X146811000Y-81280000D02*
X146836000Y-81280000D01*
X145006000Y-83085000D02*
X146811000Y-81280000D01*
X145006000Y-87264000D02*
X145006000Y-83085000D01*
X146836000Y-78208000D02*
X148336000Y-76708000D01*
X146836000Y-81280000D02*
X146836000Y-78208000D01*
G04 #@! TO.N,Net-(D3-Pad2)*
X112522000Y-100162000D02*
X112522000Y-98032000D01*
G04 #@! TO.N,Net-(J1-Pad1)*
X140542000Y-71790000D02*
X140450000Y-71882000D01*
X140542000Y-64770000D02*
X140542000Y-71790000D01*
G04 #@! TO.N,Net-(J1-Pad2)*
X145542000Y-70186000D02*
X145542000Y-64770000D01*
G04 #@! TO.N,AG_~CS*
X120396000Y-85852000D02*
X116840000Y-85852000D01*
X122428000Y-87884000D02*
X120396000Y-85852000D01*
X130048000Y-87884000D02*
X122428000Y-87884000D01*
X137556000Y-90714000D02*
X132878000Y-90714000D01*
X132878000Y-90714000D02*
X130048000Y-87884000D01*
G04 #@! TO.N,MAG_~CS*
X136806000Y-92714000D02*
X136802000Y-92710000D01*
X137556000Y-92714000D02*
X136806000Y-92714000D01*
X120142000Y-92710000D02*
X116840000Y-96012000D01*
X136802000Y-92710000D02*
X120142000Y-92710000D01*
D32*
G04 #@! TO.N,Net-(R1-Pad2)*
X122614000Y-105664000D02*
X123444000Y-105664000D01*
X122428000Y-105850000D02*
X122614000Y-105664000D01*
X122428000Y-109982000D02*
X122428000Y-105850000D01*
D30*
G04 #@! TO.N,Net-(R6-Pad2)*
X145506000Y-87264000D02*
X145506000Y-86396000D01*
X145506000Y-86396000D02*
X146558000Y-85344000D01*
X149098000Y-85344000D02*
X150392000Y-85344000D01*
X150392000Y-83312000D02*
X150392000Y-85344000D01*
G04 #@! TD*
D35*
G04 #@! TO.N,+3V3*
G36*
X150289720Y-98159431D02*
X150412161Y-98210148D01*
X150373000Y-98304690D01*
X150373000Y-98520250D01*
X150531750Y-98679000D01*
X151281000Y-98679000D01*
X151281000Y-98659000D01*
X151535000Y-98659000D01*
X151535000Y-98679000D01*
X151555000Y-98679000D01*
X151555000Y-98933000D01*
X151535000Y-98933000D01*
X151535000Y-99657250D01*
X151693750Y-99816000D01*
X151934309Y-99816000D01*
X152148000Y-99727486D01*
X152148001Y-100446287D01*
X152030569Y-100563719D01*
X151873000Y-100944125D01*
X151873000Y-101355873D01*
X151991595Y-101642188D01*
X151843874Y-101581000D01*
X151432126Y-101581000D01*
X151051720Y-101738569D01*
X150934289Y-101856000D01*
X150565803Y-101856000D01*
X149854502Y-101144701D01*
X149891440Y-100959000D01*
X149891440Y-100209000D01*
X149842157Y-99961235D01*
X149833982Y-99949000D01*
X150114000Y-99949000D01*
X150162601Y-99939333D01*
X150203803Y-99911803D01*
X150231333Y-99870601D01*
X150241000Y-99822000D01*
X150241000Y-99091750D01*
X150373000Y-99091750D01*
X150373000Y-99307310D01*
X150469673Y-99540699D01*
X150648302Y-99719327D01*
X150881691Y-99816000D01*
X151122250Y-99816000D01*
X151281000Y-99657250D01*
X151281000Y-98933000D01*
X150531750Y-98933000D01*
X150373000Y-99091750D01*
X150241000Y-99091750D01*
X150241000Y-98110711D01*
X150289720Y-98159431D01*
X150289720Y-98159431D01*
G37*
X150289720Y-98159431D02*
X150412161Y-98210148D01*
X150373000Y-98304690D01*
X150373000Y-98520250D01*
X150531750Y-98679000D01*
X151281000Y-98679000D01*
X151281000Y-98659000D01*
X151535000Y-98659000D01*
X151535000Y-98679000D01*
X151555000Y-98679000D01*
X151555000Y-98933000D01*
X151535000Y-98933000D01*
X151535000Y-99657250D01*
X151693750Y-99816000D01*
X151934309Y-99816000D01*
X152148000Y-99727486D01*
X152148001Y-100446287D01*
X152030569Y-100563719D01*
X151873000Y-100944125D01*
X151873000Y-101355873D01*
X151991595Y-101642188D01*
X151843874Y-101581000D01*
X151432126Y-101581000D01*
X151051720Y-101738569D01*
X150934289Y-101856000D01*
X150565803Y-101856000D01*
X149854502Y-101144701D01*
X149891440Y-100959000D01*
X149891440Y-100209000D01*
X149842157Y-99961235D01*
X149833982Y-99949000D01*
X150114000Y-99949000D01*
X150162601Y-99939333D01*
X150203803Y-99911803D01*
X150231333Y-99870601D01*
X150241000Y-99822000D01*
X150241000Y-99091750D01*
X150373000Y-99091750D01*
X150373000Y-99307310D01*
X150469673Y-99540699D01*
X150648302Y-99719327D01*
X150881691Y-99816000D01*
X151122250Y-99816000D01*
X151281000Y-99657250D01*
X151281000Y-98933000D01*
X150531750Y-98933000D01*
X150373000Y-99091750D01*
X150241000Y-99091750D01*
X150241000Y-98110711D01*
X150289720Y-98159431D01*
G36*
X135751000Y-98679000D02*
X135771000Y-98679000D01*
X135771000Y-98933000D01*
X135751000Y-98933000D01*
X135751000Y-99657250D01*
X135909750Y-99816000D01*
X136150309Y-99816000D01*
X136271000Y-99766008D01*
X136271000Y-99822000D01*
X136280667Y-99870601D01*
X136308197Y-99911803D01*
X136349399Y-99939333D01*
X136398000Y-99949000D01*
X137896199Y-99949000D01*
X137259199Y-100586000D01*
X135909000Y-100586000D01*
X135909000Y-100378126D01*
X135751431Y-99997720D01*
X135460280Y-99706569D01*
X135451371Y-99702879D01*
X135497000Y-99657250D01*
X135497000Y-98933000D01*
X135477000Y-98933000D01*
X135477000Y-98679000D01*
X135497000Y-98679000D01*
X135497000Y-98659000D01*
X135751000Y-98659000D01*
X135751000Y-98679000D01*
X135751000Y-98679000D01*
G37*
X135751000Y-98679000D02*
X135771000Y-98679000D01*
X135771000Y-98933000D01*
X135751000Y-98933000D01*
X135751000Y-99657250D01*
X135909750Y-99816000D01*
X136150309Y-99816000D01*
X136271000Y-99766008D01*
X136271000Y-99822000D01*
X136280667Y-99870601D01*
X136308197Y-99911803D01*
X136349399Y-99939333D01*
X136398000Y-99949000D01*
X137896199Y-99949000D01*
X137259199Y-100586000D01*
X135909000Y-100586000D01*
X135909000Y-100378126D01*
X135751431Y-99997720D01*
X135460280Y-99706569D01*
X135451371Y-99702879D01*
X135497000Y-99657250D01*
X135497000Y-98933000D01*
X135477000Y-98933000D01*
X135477000Y-98679000D01*
X135497000Y-98679000D01*
X135497000Y-98659000D01*
X135751000Y-98659000D01*
X135751000Y-98679000D01*
G36*
X152889000Y-97233874D02*
X153046569Y-97614280D01*
X153164000Y-97731711D01*
X153164000Y-97783560D01*
X152508000Y-97783560D01*
X152260235Y-97832843D01*
X152168898Y-97893873D01*
X152167698Y-97892673D01*
X151934309Y-97796000D01*
X151783370Y-97796000D01*
X151911000Y-97487874D01*
X151911000Y-97076126D01*
X151868698Y-96974000D01*
X152889000Y-96974000D01*
X152889000Y-97233874D01*
X152889000Y-97233874D01*
G37*
X152889000Y-97233874D02*
X153046569Y-97614280D01*
X153164000Y-97731711D01*
X153164000Y-97783560D01*
X152508000Y-97783560D01*
X152260235Y-97832843D01*
X152168898Y-97893873D01*
X152167698Y-97892673D01*
X151934309Y-97796000D01*
X151783370Y-97796000D01*
X151911000Y-97487874D01*
X151911000Y-97076126D01*
X151868698Y-96974000D01*
X152889000Y-96974000D01*
X152889000Y-97233874D01*
G36*
X154559000Y-91239539D02*
X154383874Y-91167000D01*
X154238550Y-91167000D01*
X154237929Y-91166071D01*
X153986537Y-90998096D01*
X153764852Y-90954000D01*
X153764847Y-90954000D01*
X153690000Y-90939112D01*
X153615153Y-90954000D01*
X150241000Y-90954000D01*
X150241000Y-90397982D01*
X150253235Y-90406157D01*
X150501000Y-90455440D01*
X151251000Y-90455440D01*
X151498765Y-90406157D01*
X151708809Y-90265809D01*
X151742971Y-90214682D01*
X151813720Y-90285431D01*
X152194126Y-90443000D01*
X152605874Y-90443000D01*
X152986280Y-90285431D01*
X153277431Y-89994280D01*
X153435000Y-89613874D01*
X153435000Y-89202126D01*
X153277431Y-88821720D01*
X152986280Y-88530569D01*
X152605874Y-88373000D01*
X152194126Y-88373000D01*
X151852840Y-88514365D01*
X151886000Y-88434309D01*
X151886000Y-88193750D01*
X151727250Y-88035000D01*
X151003000Y-88035000D01*
X151003000Y-88055000D01*
X150749000Y-88055000D01*
X150749000Y-88035000D01*
X150729000Y-88035000D01*
X150729000Y-87781000D01*
X150749000Y-87781000D01*
X150749000Y-87761000D01*
X151003000Y-87761000D01*
X151003000Y-87781000D01*
X151727250Y-87781000D01*
X151886000Y-87622250D01*
X151886000Y-87381691D01*
X151789327Y-87148302D01*
X151610699Y-86969673D01*
X151561505Y-86949296D01*
X152069362Y-86441440D01*
X152142000Y-86441440D01*
X152389765Y-86392157D01*
X152599809Y-86251809D01*
X152740157Y-86041765D01*
X152789440Y-85794000D01*
X152789440Y-84894000D01*
X152740157Y-84646235D01*
X152599809Y-84436191D01*
X152437891Y-84328000D01*
X152599809Y-84219809D01*
X152665163Y-84122000D01*
X153336227Y-84122000D01*
X153416000Y-84137868D01*
X153495773Y-84122000D01*
X153495774Y-84122000D01*
X153732046Y-84075003D01*
X153999977Y-83895977D01*
X154045168Y-83828344D01*
X154559000Y-83314513D01*
X154559000Y-91239539D01*
X154559000Y-91239539D01*
G37*
X154559000Y-91239539D02*
X154383874Y-91167000D01*
X154238550Y-91167000D01*
X154237929Y-91166071D01*
X153986537Y-90998096D01*
X153764852Y-90954000D01*
X153764847Y-90954000D01*
X153690000Y-90939112D01*
X153615153Y-90954000D01*
X150241000Y-90954000D01*
X150241000Y-90397982D01*
X150253235Y-90406157D01*
X150501000Y-90455440D01*
X151251000Y-90455440D01*
X151498765Y-90406157D01*
X151708809Y-90265809D01*
X151742971Y-90214682D01*
X151813720Y-90285431D01*
X152194126Y-90443000D01*
X152605874Y-90443000D01*
X152986280Y-90285431D01*
X153277431Y-89994280D01*
X153435000Y-89613874D01*
X153435000Y-89202126D01*
X153277431Y-88821720D01*
X152986280Y-88530569D01*
X152605874Y-88373000D01*
X152194126Y-88373000D01*
X151852840Y-88514365D01*
X151886000Y-88434309D01*
X151886000Y-88193750D01*
X151727250Y-88035000D01*
X151003000Y-88035000D01*
X151003000Y-88055000D01*
X150749000Y-88055000D01*
X150749000Y-88035000D01*
X150729000Y-88035000D01*
X150729000Y-87781000D01*
X150749000Y-87781000D01*
X150749000Y-87761000D01*
X151003000Y-87761000D01*
X151003000Y-87781000D01*
X151727250Y-87781000D01*
X151886000Y-87622250D01*
X151886000Y-87381691D01*
X151789327Y-87148302D01*
X151610699Y-86969673D01*
X151561505Y-86949296D01*
X152069362Y-86441440D01*
X152142000Y-86441440D01*
X152389765Y-86392157D01*
X152599809Y-86251809D01*
X152740157Y-86041765D01*
X152789440Y-85794000D01*
X152789440Y-84894000D01*
X152740157Y-84646235D01*
X152599809Y-84436191D01*
X152437891Y-84328000D01*
X152599809Y-84219809D01*
X152665163Y-84122000D01*
X153336227Y-84122000D01*
X153416000Y-84137868D01*
X153495773Y-84122000D01*
X153495774Y-84122000D01*
X153732046Y-84075003D01*
X153999977Y-83895977D01*
X154045168Y-83828344D01*
X154559000Y-83314513D01*
X154559000Y-91239539D01*
G36*
X134626000Y-89135691D02*
X134626000Y-89376250D01*
X134784750Y-89535000D01*
X135509000Y-89535000D01*
X135509000Y-89515000D01*
X135615017Y-89515000D01*
X135620097Y-89540537D01*
X135783000Y-89784340D01*
X135783000Y-89789000D01*
X135763000Y-89789000D01*
X135763000Y-89809000D01*
X135509000Y-89809000D01*
X135509000Y-89789000D01*
X134784750Y-89789000D01*
X134626000Y-89947750D01*
X134626000Y-89954000D01*
X133223000Y-89954000D01*
X133223000Y-88922000D01*
X134714514Y-88922000D01*
X134626000Y-89135691D01*
X134626000Y-89135691D01*
G37*
X134626000Y-89135691D02*
X134626000Y-89376250D01*
X134784750Y-89535000D01*
X135509000Y-89535000D01*
X135509000Y-89515000D01*
X135615017Y-89515000D01*
X135620097Y-89540537D01*
X135783000Y-89784340D01*
X135783000Y-89789000D01*
X135763000Y-89789000D01*
X135763000Y-89809000D01*
X135509000Y-89809000D01*
X135509000Y-89789000D01*
X134784750Y-89789000D01*
X134626000Y-89947750D01*
X134626000Y-89954000D01*
X133223000Y-89954000D01*
X133223000Y-88922000D01*
X134714514Y-88922000D01*
X134626000Y-89135691D01*
G36*
X136315671Y-81764473D02*
X136358071Y-81827929D01*
X136609463Y-81995904D01*
X136831148Y-82040000D01*
X136831153Y-82040000D01*
X136906000Y-82054888D01*
X136980847Y-82040000D01*
X139325541Y-82040000D01*
X139374191Y-82112809D01*
X139584235Y-82253157D01*
X139829788Y-82302000D01*
X139705691Y-82302000D01*
X139472302Y-82398673D01*
X139293673Y-82577301D01*
X139197000Y-82810690D01*
X139197000Y-83026250D01*
X139355750Y-83185000D01*
X140105000Y-83185000D01*
X140105000Y-83165000D01*
X140359000Y-83165000D01*
X140359000Y-83185000D01*
X140379000Y-83185000D01*
X140379000Y-83439000D01*
X140359000Y-83439000D01*
X140359000Y-84163250D01*
X140517750Y-84322000D01*
X140758309Y-84322000D01*
X140972001Y-84233486D01*
X140972000Y-84422514D01*
X140758309Y-84334000D01*
X140517750Y-84334000D01*
X140359000Y-84492750D01*
X140359000Y-85217000D01*
X140379000Y-85217000D01*
X140379000Y-85471000D01*
X140359000Y-85471000D01*
X140359000Y-85491000D01*
X140105000Y-85491000D01*
X140105000Y-85471000D01*
X140085000Y-85471000D01*
X140085000Y-85217000D01*
X140105000Y-85217000D01*
X140105000Y-84492750D01*
X139946250Y-84334000D01*
X139705691Y-84334000D01*
X139472302Y-84430673D01*
X139293673Y-84609301D01*
X139254232Y-84704521D01*
X139016280Y-84466569D01*
X138635874Y-84309000D01*
X138224126Y-84309000D01*
X137843720Y-84466569D01*
X137740507Y-84569782D01*
X137663442Y-84383731D01*
X137372291Y-84092580D01*
X136991885Y-83935011D01*
X136580137Y-83935011D01*
X136199731Y-84092580D01*
X135908580Y-84383731D01*
X135751011Y-84764137D01*
X135751011Y-85175885D01*
X135908580Y-85556291D01*
X136026012Y-85673723D01*
X136026011Y-87117546D01*
X136011000Y-87114560D01*
X135261000Y-87114560D01*
X135013235Y-87163843D01*
X134803191Y-87304191D01*
X134737837Y-87402000D01*
X133223000Y-87402000D01*
X133223000Y-83597750D01*
X139197000Y-83597750D01*
X139197000Y-83813310D01*
X139293673Y-84046699D01*
X139472302Y-84225327D01*
X139705691Y-84322000D01*
X139946250Y-84322000D01*
X140105000Y-84163250D01*
X140105000Y-83439000D01*
X139355750Y-83439000D01*
X139197000Y-83597750D01*
X133223000Y-83597750D01*
X133223000Y-83279157D01*
X135526678Y-80975480D01*
X136315671Y-81764473D01*
X136315671Y-81764473D01*
G37*
X136315671Y-81764473D02*
X136358071Y-81827929D01*
X136609463Y-81995904D01*
X136831148Y-82040000D01*
X136831153Y-82040000D01*
X136906000Y-82054888D01*
X136980847Y-82040000D01*
X139325541Y-82040000D01*
X139374191Y-82112809D01*
X139584235Y-82253157D01*
X139829788Y-82302000D01*
X139705691Y-82302000D01*
X139472302Y-82398673D01*
X139293673Y-82577301D01*
X139197000Y-82810690D01*
X139197000Y-83026250D01*
X139355750Y-83185000D01*
X140105000Y-83185000D01*
X140105000Y-83165000D01*
X140359000Y-83165000D01*
X140359000Y-83185000D01*
X140379000Y-83185000D01*
X140379000Y-83439000D01*
X140359000Y-83439000D01*
X140359000Y-84163250D01*
X140517750Y-84322000D01*
X140758309Y-84322000D01*
X140972001Y-84233486D01*
X140972000Y-84422514D01*
X140758309Y-84334000D01*
X140517750Y-84334000D01*
X140359000Y-84492750D01*
X140359000Y-85217000D01*
X140379000Y-85217000D01*
X140379000Y-85471000D01*
X140359000Y-85471000D01*
X140359000Y-85491000D01*
X140105000Y-85491000D01*
X140105000Y-85471000D01*
X140085000Y-85471000D01*
X140085000Y-85217000D01*
X140105000Y-85217000D01*
X140105000Y-84492750D01*
X139946250Y-84334000D01*
X139705691Y-84334000D01*
X139472302Y-84430673D01*
X139293673Y-84609301D01*
X139254232Y-84704521D01*
X139016280Y-84466569D01*
X138635874Y-84309000D01*
X138224126Y-84309000D01*
X137843720Y-84466569D01*
X137740507Y-84569782D01*
X137663442Y-84383731D01*
X137372291Y-84092580D01*
X136991885Y-83935011D01*
X136580137Y-83935011D01*
X136199731Y-84092580D01*
X135908580Y-84383731D01*
X135751011Y-84764137D01*
X135751011Y-85175885D01*
X135908580Y-85556291D01*
X136026012Y-85673723D01*
X136026011Y-87117546D01*
X136011000Y-87114560D01*
X135261000Y-87114560D01*
X135013235Y-87163843D01*
X134803191Y-87304191D01*
X134737837Y-87402000D01*
X133223000Y-87402000D01*
X133223000Y-83597750D01*
X139197000Y-83597750D01*
X139197000Y-83813310D01*
X139293673Y-84046699D01*
X139472302Y-84225327D01*
X139705691Y-84322000D01*
X139946250Y-84322000D01*
X140105000Y-84163250D01*
X140105000Y-83439000D01*
X139355750Y-83439000D01*
X139197000Y-83597750D01*
X133223000Y-83597750D01*
X133223000Y-83279157D01*
X135526678Y-80975480D01*
X136315671Y-81764473D01*
G36*
X154559000Y-81241394D02*
X154369954Y-81278997D01*
X154102023Y-81458023D01*
X154056834Y-81525653D01*
X153080488Y-82502000D01*
X152665163Y-82502000D01*
X152599809Y-82404191D01*
X152389765Y-82263843D01*
X152142000Y-82214560D01*
X151642000Y-82214560D01*
X151394235Y-82263843D01*
X151184191Y-82404191D01*
X151142000Y-82467334D01*
X151099809Y-82404191D01*
X150889765Y-82263843D01*
X150642000Y-82214560D01*
X150142000Y-82214560D01*
X149894235Y-82263843D01*
X149684191Y-82404191D01*
X149543843Y-82614235D01*
X149494560Y-82862000D01*
X149494560Y-83762000D01*
X149543843Y-84009765D01*
X149632000Y-84141701D01*
X149632001Y-84444914D01*
X149303874Y-84309000D01*
X148892126Y-84309000D01*
X148511720Y-84466569D01*
X148220569Y-84757720D01*
X148063000Y-85138126D01*
X148063000Y-85549874D01*
X148220569Y-85930280D01*
X148269289Y-85979000D01*
X147386711Y-85979000D01*
X147435431Y-85930280D01*
X147593000Y-85549874D01*
X147593000Y-85138126D01*
X147435431Y-84757720D01*
X147144280Y-84466569D01*
X146825292Y-84334440D01*
X147212000Y-84334440D01*
X147459765Y-84285157D01*
X147551102Y-84224127D01*
X147552302Y-84225327D01*
X147785691Y-84322000D01*
X148026250Y-84322000D01*
X148185000Y-84163250D01*
X148185000Y-83439000D01*
X148439000Y-83439000D01*
X148439000Y-84163250D01*
X148597750Y-84322000D01*
X148838309Y-84322000D01*
X149071698Y-84225327D01*
X149250327Y-84046699D01*
X149347000Y-83813310D01*
X149347000Y-83597750D01*
X149188250Y-83439000D01*
X148439000Y-83439000D01*
X148185000Y-83439000D01*
X148165000Y-83439000D01*
X148165000Y-83185000D01*
X148185000Y-83185000D01*
X148185000Y-83165000D01*
X148439000Y-83165000D01*
X148439000Y-83185000D01*
X149188250Y-83185000D01*
X149347000Y-83026250D01*
X149347000Y-82810690D01*
X149250327Y-82577301D01*
X149071698Y-82398673D01*
X148904879Y-82329574D01*
X148951675Y-82259540D01*
X148983765Y-82253157D01*
X149193809Y-82112809D01*
X149334157Y-81902765D01*
X149383440Y-81655000D01*
X149383440Y-80905000D01*
X149356587Y-80770000D01*
X151055153Y-80770000D01*
X151130000Y-80784888D01*
X151204847Y-80770000D01*
X151204852Y-80770000D01*
X151426537Y-80725904D01*
X151677929Y-80557929D01*
X151720331Y-80494470D01*
X151931801Y-80283000D01*
X152097874Y-80283000D01*
X152450350Y-80137000D01*
X154559000Y-80137000D01*
X154559000Y-81241394D01*
X154559000Y-81241394D01*
G37*
X154559000Y-81241394D02*
X154369954Y-81278997D01*
X154102023Y-81458023D01*
X154056834Y-81525653D01*
X153080488Y-82502000D01*
X152665163Y-82502000D01*
X152599809Y-82404191D01*
X152389765Y-82263843D01*
X152142000Y-82214560D01*
X151642000Y-82214560D01*
X151394235Y-82263843D01*
X151184191Y-82404191D01*
X151142000Y-82467334D01*
X151099809Y-82404191D01*
X150889765Y-82263843D01*
X150642000Y-82214560D01*
X150142000Y-82214560D01*
X149894235Y-82263843D01*
X149684191Y-82404191D01*
X149543843Y-82614235D01*
X149494560Y-82862000D01*
X149494560Y-83762000D01*
X149543843Y-84009765D01*
X149632000Y-84141701D01*
X149632001Y-84444914D01*
X149303874Y-84309000D01*
X148892126Y-84309000D01*
X148511720Y-84466569D01*
X148220569Y-84757720D01*
X148063000Y-85138126D01*
X148063000Y-85549874D01*
X148220569Y-85930280D01*
X148269289Y-85979000D01*
X147386711Y-85979000D01*
X147435431Y-85930280D01*
X147593000Y-85549874D01*
X147593000Y-85138126D01*
X147435431Y-84757720D01*
X147144280Y-84466569D01*
X146825292Y-84334440D01*
X147212000Y-84334440D01*
X147459765Y-84285157D01*
X147551102Y-84224127D01*
X147552302Y-84225327D01*
X147785691Y-84322000D01*
X148026250Y-84322000D01*
X148185000Y-84163250D01*
X148185000Y-83439000D01*
X148439000Y-83439000D01*
X148439000Y-84163250D01*
X148597750Y-84322000D01*
X148838309Y-84322000D01*
X149071698Y-84225327D01*
X149250327Y-84046699D01*
X149347000Y-83813310D01*
X149347000Y-83597750D01*
X149188250Y-83439000D01*
X148439000Y-83439000D01*
X148185000Y-83439000D01*
X148165000Y-83439000D01*
X148165000Y-83185000D01*
X148185000Y-83185000D01*
X148185000Y-83165000D01*
X148439000Y-83165000D01*
X148439000Y-83185000D01*
X149188250Y-83185000D01*
X149347000Y-83026250D01*
X149347000Y-82810690D01*
X149250327Y-82577301D01*
X149071698Y-82398673D01*
X148904879Y-82329574D01*
X148951675Y-82259540D01*
X148983765Y-82253157D01*
X149193809Y-82112809D01*
X149334157Y-81902765D01*
X149383440Y-81655000D01*
X149383440Y-80905000D01*
X149356587Y-80770000D01*
X151055153Y-80770000D01*
X151130000Y-80784888D01*
X151204847Y-80770000D01*
X151204852Y-80770000D01*
X151426537Y-80725904D01*
X151677929Y-80557929D01*
X151720331Y-80494470D01*
X151931801Y-80283000D01*
X152097874Y-80283000D01*
X152450350Y-80137000D01*
X154559000Y-80137000D01*
X154559000Y-81241394D01*
G04 #@! TO.N,GND*
G36*
X129677321Y-60713843D02*
X129092620Y-60956034D01*
X128492034Y-61556620D01*
X128167000Y-62341322D01*
X128167000Y-63190678D01*
X128492034Y-63975380D01*
X129092620Y-64575966D01*
X129701102Y-64828007D01*
X129708069Y-66033382D01*
X129586540Y-65911853D01*
X129077494Y-65701000D01*
X128526506Y-65701000D01*
X128017460Y-65911853D01*
X127627853Y-66301460D01*
X127417000Y-66810506D01*
X127417000Y-67361494D01*
X127627853Y-67870540D01*
X128017460Y-68260147D01*
X128526506Y-68471000D01*
X129077494Y-68471000D01*
X129586540Y-68260147D01*
X129720168Y-68126519D01*
X129725511Y-69050824D01*
X129586540Y-68911853D01*
X129077494Y-68701000D01*
X128526506Y-68701000D01*
X128017460Y-68911853D01*
X127627853Y-69301460D01*
X127417000Y-69810506D01*
X127417000Y-70361494D01*
X127627853Y-70870540D01*
X128017460Y-71260147D01*
X128042001Y-71270312D01*
X128042000Y-76911153D01*
X128027112Y-76986000D01*
X128042000Y-77060847D01*
X128042000Y-77060851D01*
X128086096Y-77282536D01*
X128254071Y-77533929D01*
X128317530Y-77576331D01*
X129783264Y-79042066D01*
X129804876Y-82781000D01*
X127169842Y-82781000D01*
X127248000Y-82592309D01*
X127248000Y-82351750D01*
X127089250Y-82193000D01*
X126365000Y-82193000D01*
X126365000Y-82213000D01*
X126111000Y-82213000D01*
X126111000Y-82193000D01*
X126091000Y-82193000D01*
X126091000Y-81939000D01*
X126111000Y-81939000D01*
X126111000Y-81189750D01*
X126365000Y-81189750D01*
X126365000Y-81939000D01*
X127089250Y-81939000D01*
X127248000Y-81780250D01*
X127248000Y-81539691D01*
X127151327Y-81306302D01*
X126972699Y-81127673D01*
X126739310Y-81031000D01*
X126523750Y-81031000D01*
X126365000Y-81189750D01*
X126111000Y-81189750D01*
X125952250Y-81031000D01*
X125736690Y-81031000D01*
X125503301Y-81127673D01*
X125324673Y-81306302D01*
X125228000Y-81539691D01*
X125228000Y-81776305D01*
X125222000Y-81775112D01*
X125161285Y-81787189D01*
X125097809Y-81692191D01*
X124887765Y-81551843D01*
X124640000Y-81502560D01*
X123740000Y-81502560D01*
X123492235Y-81551843D01*
X123282191Y-81692191D01*
X123201781Y-81812531D01*
X123116250Y-81727000D01*
X122317000Y-81727000D01*
X122317000Y-81747000D01*
X122063000Y-81747000D01*
X122063000Y-81727000D01*
X122043000Y-81727000D01*
X122043000Y-81473000D01*
X122063000Y-81473000D01*
X122063000Y-80723750D01*
X122317000Y-80723750D01*
X122317000Y-81473000D01*
X123116250Y-81473000D01*
X123275000Y-81314250D01*
X123275000Y-81073690D01*
X123178327Y-80840301D01*
X122999698Y-80661673D01*
X122766309Y-80565000D01*
X122475750Y-80565000D01*
X122317000Y-80723750D01*
X122063000Y-80723750D01*
X121904250Y-80565000D01*
X121613691Y-80565000D01*
X121380302Y-80661673D01*
X121201673Y-80840301D01*
X121105000Y-81073690D01*
X121105000Y-81314250D01*
X121263748Y-81472998D01*
X121134316Y-81472998D01*
X121055327Y-81282302D01*
X120876699Y-81103673D01*
X120643310Y-81007000D01*
X120427750Y-81007000D01*
X120269000Y-81165750D01*
X120269000Y-81915000D01*
X120289000Y-81915000D01*
X120289000Y-82169000D01*
X120269000Y-82169000D01*
X120269000Y-82189000D01*
X120015000Y-82189000D01*
X120015000Y-82169000D01*
X119290750Y-82169000D01*
X119132000Y-82327750D01*
X119132000Y-82507000D01*
X118337440Y-82507000D01*
X118337440Y-82462000D01*
X118288157Y-82214235D01*
X118147809Y-82004191D01*
X117937765Y-81863843D01*
X117690000Y-81814560D01*
X115990000Y-81814560D01*
X115742235Y-81863843D01*
X115532191Y-82004191D01*
X115391843Y-82214235D01*
X115347326Y-82438041D01*
X115144690Y-82478348D01*
X114925845Y-82624576D01*
X114925844Y-82624577D01*
X114851951Y-82673951D01*
X114802577Y-82747844D01*
X113763962Y-83786459D01*
X113720157Y-83566235D01*
X113579809Y-83356191D01*
X113369765Y-83215843D01*
X113282000Y-83198386D01*
X113282000Y-83090573D01*
X113429809Y-82991809D01*
X113570157Y-82781765D01*
X113619440Y-82534000D01*
X113619440Y-82034000D01*
X113570157Y-81786235D01*
X113429809Y-81576191D01*
X113368680Y-81535346D01*
X113388334Y-81515691D01*
X119132000Y-81515691D01*
X119132000Y-81756250D01*
X119290750Y-81915000D01*
X120015000Y-81915000D01*
X120015000Y-81165750D01*
X119856250Y-81007000D01*
X119640690Y-81007000D01*
X119407301Y-81103673D01*
X119228673Y-81282302D01*
X119132000Y-81515691D01*
X113388334Y-81515691D01*
X113510327Y-81393698D01*
X113607000Y-81160309D01*
X113607000Y-81067750D01*
X113448250Y-80909000D01*
X112649000Y-80909000D01*
X112649000Y-80931000D01*
X112395000Y-80931000D01*
X112395000Y-80909000D01*
X111595750Y-80909000D01*
X111437000Y-81067750D01*
X111437000Y-81160309D01*
X111533673Y-81393698D01*
X111675320Y-81535346D01*
X111614191Y-81576191D01*
X111473843Y-81786235D01*
X111424560Y-82034000D01*
X111424560Y-82534000D01*
X111473843Y-82781765D01*
X111614191Y-82991809D01*
X111762001Y-83090573D01*
X111762001Y-83198386D01*
X111674235Y-83215843D01*
X111464191Y-83356191D01*
X111323843Y-83566235D01*
X111274560Y-83814000D01*
X111274560Y-85014000D01*
X111323843Y-85261765D01*
X111464191Y-85471809D01*
X111527334Y-85514000D01*
X111464191Y-85556191D01*
X111323843Y-85766235D01*
X111274560Y-86014000D01*
X111274560Y-87214000D01*
X111323843Y-87461765D01*
X111464191Y-87671809D01*
X111664212Y-87805460D01*
X111562301Y-87847673D01*
X111383673Y-88026302D01*
X111287000Y-88259691D01*
X111287000Y-88700250D01*
X111445750Y-88859000D01*
X112395000Y-88859000D01*
X112395000Y-88839000D01*
X112649000Y-88839000D01*
X112649000Y-88859000D01*
X113598250Y-88859000D01*
X113757000Y-88700250D01*
X113757000Y-88259691D01*
X113660327Y-88026302D01*
X113481699Y-87847673D01*
X113379788Y-87805460D01*
X113579809Y-87671809D01*
X113720157Y-87461765D01*
X113769440Y-87214000D01*
X113769440Y-86284138D01*
X115492769Y-84560810D01*
X115532191Y-84619809D01*
X115742235Y-84760157D01*
X115787619Y-84769184D01*
X115769375Y-84781375D01*
X115441161Y-85272582D01*
X115325908Y-85852000D01*
X115441161Y-86431418D01*
X115769375Y-86922625D01*
X116067761Y-87122000D01*
X115769375Y-87321375D01*
X115441161Y-87812582D01*
X115325908Y-88392000D01*
X115441161Y-88971418D01*
X115769375Y-89462625D01*
X116067761Y-89662000D01*
X115769375Y-89861375D01*
X115441161Y-90352582D01*
X115325908Y-90932000D01*
X115441161Y-91511418D01*
X115769375Y-92002625D01*
X116067761Y-92202000D01*
X115769375Y-92401375D01*
X115441161Y-92892582D01*
X115325908Y-93472000D01*
X115406407Y-93876696D01*
X115394280Y-93864569D01*
X115013874Y-93707000D01*
X114602126Y-93707000D01*
X114221720Y-93864569D01*
X114129289Y-93957000D01*
X113419047Y-93957000D01*
X113429809Y-93949809D01*
X113570157Y-93739765D01*
X113619440Y-93492000D01*
X113619440Y-92992000D01*
X113570157Y-92744235D01*
X113429809Y-92534191D01*
X113282000Y-92435427D01*
X113282000Y-92401614D01*
X113369765Y-92384157D01*
X113579809Y-92243809D01*
X113720157Y-92033765D01*
X113769440Y-91786000D01*
X113769440Y-90586000D01*
X113720157Y-90338235D01*
X113579809Y-90128191D01*
X113518680Y-90087346D01*
X113660327Y-89945698D01*
X113757000Y-89712309D01*
X113757000Y-89271750D01*
X113598250Y-89113000D01*
X112649000Y-89113000D01*
X112649000Y-89133000D01*
X112395000Y-89133000D01*
X112395000Y-89113000D01*
X111445750Y-89113000D01*
X111287000Y-89271750D01*
X111287000Y-89712309D01*
X111383673Y-89945698D01*
X111525320Y-90087346D01*
X111464191Y-90128191D01*
X111323843Y-90338235D01*
X111274560Y-90586000D01*
X111274560Y-91786000D01*
X111323843Y-92033765D01*
X111464191Y-92243809D01*
X111674235Y-92384157D01*
X111762001Y-92401614D01*
X111762001Y-92435427D01*
X111614191Y-92534191D01*
X111473843Y-92744235D01*
X111424560Y-92992000D01*
X111424560Y-93492000D01*
X111473843Y-93739765D01*
X111614191Y-93949809D01*
X111677334Y-93992000D01*
X111614191Y-94034191D01*
X111473843Y-94244235D01*
X111424560Y-94492000D01*
X111424560Y-94992000D01*
X111473843Y-95239765D01*
X111614191Y-95449809D01*
X111824235Y-95590157D01*
X112059733Y-95637000D01*
X111824235Y-95683843D01*
X111614191Y-95824191D01*
X111473843Y-96034235D01*
X111424560Y-96282000D01*
X111424560Y-96782000D01*
X111473843Y-97029765D01*
X111614191Y-97239809D01*
X111677334Y-97282000D01*
X111614191Y-97324191D01*
X111473843Y-97534235D01*
X111424560Y-97782000D01*
X111424560Y-98282000D01*
X111473843Y-98529765D01*
X111614191Y-98739809D01*
X111762001Y-98838573D01*
X111762001Y-98946386D01*
X111674235Y-98963843D01*
X111464191Y-99104191D01*
X111323843Y-99314235D01*
X111274560Y-99562000D01*
X111274560Y-100762000D01*
X111323843Y-101009765D01*
X111464191Y-101219809D01*
X111525320Y-101260654D01*
X111383673Y-101402302D01*
X111287000Y-101635691D01*
X111287000Y-102076250D01*
X111445750Y-102235000D01*
X112395000Y-102235000D01*
X112395000Y-102215000D01*
X112649000Y-102215000D01*
X112649000Y-102235000D01*
X113598250Y-102235000D01*
X113757000Y-102076250D01*
X113757000Y-101635691D01*
X113660327Y-101402302D01*
X113518680Y-101260654D01*
X113579809Y-101219809D01*
X113720157Y-101009765D01*
X113769440Y-100762000D01*
X113769440Y-99562000D01*
X113720157Y-99314235D01*
X113579809Y-99104191D01*
X113369765Y-98963843D01*
X113282000Y-98946386D01*
X113282000Y-98838573D01*
X113429809Y-98739809D01*
X113570157Y-98529765D01*
X113619440Y-98282000D01*
X113619440Y-97957129D01*
X113715708Y-98021454D01*
X113944684Y-98067000D01*
X113944688Y-98067000D01*
X114021999Y-98082378D01*
X114099310Y-98067000D01*
X115422380Y-98067000D01*
X115325908Y-98552000D01*
X115441161Y-99131418D01*
X115769375Y-99622625D01*
X116067761Y-99822000D01*
X115769375Y-100021375D01*
X115441161Y-100512582D01*
X115325908Y-101092000D01*
X115441161Y-101671418D01*
X115769375Y-102162625D01*
X116260582Y-102490839D01*
X116693744Y-102577000D01*
X116986256Y-102577000D01*
X117419418Y-102490839D01*
X117910625Y-102162625D01*
X118118178Y-101852000D01*
X119051153Y-101852000D01*
X119126000Y-101866888D01*
X119200847Y-101852000D01*
X119200852Y-101852000D01*
X119422537Y-101807904D01*
X119673929Y-101639929D01*
X119716331Y-101576470D01*
X119880560Y-101412241D01*
X119880560Y-101512283D01*
X119387590Y-102005253D01*
X119322048Y-102049047D01*
X119278254Y-102114589D01*
X119278251Y-102114592D01*
X119148546Y-102308709D01*
X119087622Y-102615000D01*
X119103001Y-102692317D01*
X119103001Y-103371560D01*
X118460000Y-103371560D01*
X118212235Y-103420843D01*
X118120898Y-103481873D01*
X118119698Y-103480673D01*
X117886309Y-103384000D01*
X117645750Y-103384000D01*
X117487000Y-103542750D01*
X117487000Y-104267000D01*
X117507000Y-104267000D01*
X117507000Y-104521000D01*
X117487000Y-104521000D01*
X117487000Y-105245250D01*
X117518750Y-105277000D01*
X117475000Y-105320750D01*
X117475000Y-106045000D01*
X117495000Y-106045000D01*
X117495000Y-106299000D01*
X117475000Y-106299000D01*
X117475000Y-107023250D01*
X117512750Y-107061000D01*
X117475000Y-107098750D01*
X117475000Y-107823000D01*
X117495000Y-107823000D01*
X117495000Y-108077000D01*
X117475000Y-108077000D01*
X117475000Y-108801250D01*
X117633750Y-108960000D01*
X117874309Y-108960000D01*
X118095992Y-108868176D01*
X118108546Y-108931291D01*
X118238251Y-109125408D01*
X118238254Y-109125411D01*
X118282048Y-109190953D01*
X118347590Y-109234747D01*
X119595253Y-110482411D01*
X119639047Y-110547953D01*
X119704589Y-110591747D01*
X119704591Y-110591749D01*
X119798780Y-110654684D01*
X119898708Y-110721454D01*
X120127684Y-110767000D01*
X120127688Y-110767000D01*
X120139733Y-110769396D01*
X120143000Y-110774285D01*
X120143000Y-110809315D01*
X120143001Y-110809320D01*
X120143000Y-112519688D01*
X120127622Y-112597000D01*
X120143000Y-112674312D01*
X120143000Y-112674315D01*
X120188546Y-112903291D01*
X120362047Y-113162953D01*
X120427592Y-113206749D01*
X122021251Y-114800408D01*
X122065047Y-114865953D01*
X122283560Y-115011960D01*
X122283560Y-115650000D01*
X122332843Y-115897765D01*
X122473191Y-116107809D01*
X122683235Y-116248157D01*
X122931000Y-116297440D01*
X123439297Y-116297440D01*
X123442998Y-116316046D01*
X123622024Y-116583977D01*
X123689654Y-116629166D01*
X124871845Y-117811358D01*
X124917034Y-117878988D01*
X125184965Y-118058014D01*
X125421237Y-118105011D01*
X125501010Y-118120879D01*
X125580783Y-118105011D01*
X159739216Y-118105011D01*
X159818989Y-118120879D01*
X159898762Y-118105011D01*
X159898763Y-118105011D01*
X160135035Y-118058014D01*
X160402966Y-117878988D01*
X160448157Y-117811355D01*
X161290357Y-116969156D01*
X161357987Y-116923967D01*
X161445683Y-116792720D01*
X161537013Y-116656037D01*
X161599878Y-116339990D01*
X161584010Y-116260216D01*
X161584010Y-113601431D01*
X161849000Y-113601431D01*
X161849000Y-114490569D01*
X162189259Y-115312026D01*
X162817974Y-115940741D01*
X163639431Y-116281000D01*
X164528569Y-116281000D01*
X165350026Y-115940741D01*
X165978741Y-115312026D01*
X166319000Y-114490569D01*
X166319000Y-113601431D01*
X165978741Y-112779974D01*
X165350026Y-112151259D01*
X164528569Y-111811000D01*
X163639431Y-111811000D01*
X162817974Y-112151259D01*
X162189259Y-112779974D01*
X161849000Y-113601431D01*
X161584010Y-113601431D01*
X161584010Y-106007502D01*
X163149513Y-104442000D01*
X165020227Y-104442000D01*
X165100000Y-104457868D01*
X165179773Y-104442000D01*
X165179774Y-104442000D01*
X165416046Y-104395003D01*
X165683977Y-104215977D01*
X165729168Y-104148344D01*
X166624357Y-103253156D01*
X166691987Y-103207967D01*
X166871013Y-102940036D01*
X166918010Y-102703764D01*
X166918010Y-102703760D01*
X166933877Y-102623991D01*
X166918010Y-102544221D01*
X166918010Y-85415784D01*
X166933878Y-85336010D01*
X166871013Y-85019963D01*
X166752562Y-84842690D01*
X166691987Y-84752033D01*
X166624357Y-84706844D01*
X163443168Y-81525656D01*
X163397977Y-81458023D01*
X163130046Y-81278997D01*
X162893774Y-81232000D01*
X162893773Y-81232000D01*
X162814000Y-81216132D01*
X162734227Y-81232000D01*
X155321000Y-81232000D01*
X155321000Y-79248000D01*
X155311333Y-79199399D01*
X155283803Y-79158197D01*
X155242601Y-79130667D01*
X155194000Y-79121000D01*
X147596000Y-79121000D01*
X147596000Y-78522801D01*
X147763362Y-78355440D01*
X150586000Y-78355440D01*
X150833765Y-78306157D01*
X151043809Y-78165809D01*
X151184157Y-77955765D01*
X151233440Y-77708000D01*
X151233440Y-75708000D01*
X151184157Y-75460235D01*
X151043809Y-75250191D01*
X150833765Y-75109843D01*
X150586000Y-75060560D01*
X146086000Y-75060560D01*
X145838235Y-75109843D01*
X145628191Y-75250191D01*
X145487843Y-75460235D01*
X145438560Y-75708000D01*
X145438560Y-77197000D01*
X145082126Y-77197000D01*
X144701720Y-77354569D01*
X144589952Y-77466337D01*
X144479711Y-77466337D01*
X144387280Y-77373906D01*
X144006874Y-77216337D01*
X143595126Y-77216337D01*
X143214720Y-77373906D01*
X143020714Y-77567912D01*
X142733440Y-77280638D01*
X142733440Y-75708000D01*
X142684157Y-75460235D01*
X142543809Y-75250191D01*
X142333765Y-75109843D01*
X142086000Y-75060560D01*
X137631598Y-75060560D01*
X138984032Y-73708126D01*
X143491000Y-73708126D01*
X143491000Y-74119874D01*
X143648569Y-74500280D01*
X143939720Y-74791431D01*
X144320126Y-74949000D01*
X144731874Y-74949000D01*
X145112280Y-74791431D01*
X145403431Y-74500280D01*
X145561000Y-74119874D01*
X145561000Y-73708126D01*
X145403431Y-73327720D01*
X145286000Y-73210289D01*
X145286000Y-73203264D01*
X145449809Y-73093809D01*
X145539013Y-72960306D01*
X145553673Y-72995698D01*
X145732301Y-73174327D01*
X145965690Y-73271000D01*
X146206250Y-73271000D01*
X146365000Y-73112250D01*
X146365000Y-72313000D01*
X146619000Y-72313000D01*
X146619000Y-73112250D01*
X146777750Y-73271000D01*
X147018310Y-73271000D01*
X147251699Y-73174327D01*
X147430327Y-72995698D01*
X147527000Y-72762309D01*
X147527000Y-72471750D01*
X147368250Y-72313000D01*
X146619000Y-72313000D01*
X146365000Y-72313000D01*
X146345000Y-72313000D01*
X146345000Y-72059000D01*
X146365000Y-72059000D01*
X146365000Y-71259750D01*
X146619000Y-71259750D01*
X146619000Y-72059000D01*
X147368250Y-72059000D01*
X147527000Y-71900250D01*
X147527000Y-71609691D01*
X147430327Y-71376302D01*
X147251699Y-71197673D01*
X147018310Y-71101000D01*
X146777750Y-71101000D01*
X146619000Y-71259750D01*
X146365000Y-71259750D01*
X146279469Y-71174219D01*
X146399809Y-71093809D01*
X146540157Y-70883765D01*
X146589440Y-70636000D01*
X146589440Y-69736000D01*
X146540157Y-69488235D01*
X146399809Y-69278191D01*
X146302000Y-69212837D01*
X146302000Y-66441387D01*
X146581444Y-66325638D01*
X147097638Y-65809444D01*
X147377000Y-65135004D01*
X147377000Y-64404996D01*
X147238833Y-64071431D01*
X161849000Y-64071431D01*
X161849000Y-64960569D01*
X162189259Y-65782026D01*
X162817974Y-66410741D01*
X163639431Y-66751000D01*
X164528569Y-66751000D01*
X165350026Y-66410741D01*
X165978741Y-65782026D01*
X166319000Y-64960569D01*
X166319000Y-64071431D01*
X165978741Y-63249974D01*
X165350026Y-62621259D01*
X164528569Y-62281000D01*
X163639431Y-62281000D01*
X162817974Y-62621259D01*
X162189259Y-63249974D01*
X161849000Y-64071431D01*
X147238833Y-64071431D01*
X147097638Y-63730556D01*
X146581444Y-63214362D01*
X145907004Y-62935000D01*
X145176996Y-62935000D01*
X144502556Y-63214362D01*
X143986362Y-63730556D01*
X143707000Y-64404996D01*
X143707000Y-65135004D01*
X143986362Y-65809444D01*
X144502556Y-66325638D01*
X144782001Y-66441388D01*
X144782000Y-69212836D01*
X144684191Y-69278191D01*
X144543843Y-69488235D01*
X144494560Y-69736000D01*
X144494560Y-70636000D01*
X144543843Y-70883765D01*
X144680684Y-71088560D01*
X144192000Y-71088560D01*
X143944235Y-71137843D01*
X143734191Y-71278191D01*
X143593843Y-71488235D01*
X143544560Y-71736000D01*
X143544560Y-72636000D01*
X143593843Y-72883765D01*
X143734191Y-73093809D01*
X143766000Y-73115064D01*
X143766000Y-73210289D01*
X143648569Y-73327720D01*
X143491000Y-73708126D01*
X138984032Y-73708126D01*
X139450411Y-73241747D01*
X139515953Y-73197953D01*
X139559747Y-73132411D01*
X139559749Y-73132409D01*
X139623787Y-73036569D01*
X139689454Y-72938292D01*
X139724312Y-72763051D01*
X139742191Y-72789809D01*
X139952235Y-72930157D01*
X140200000Y-72979440D01*
X140700000Y-72979440D01*
X140947765Y-72930157D01*
X141157809Y-72789809D01*
X141298157Y-72579765D01*
X141347440Y-72332000D01*
X141347440Y-71432000D01*
X141302000Y-71203555D01*
X141302000Y-66617440D01*
X141742000Y-66617440D01*
X141989765Y-66568157D01*
X142199809Y-66427809D01*
X142340157Y-66217765D01*
X142389440Y-65970000D01*
X142389440Y-63570000D01*
X142340157Y-63322235D01*
X142199809Y-63112191D01*
X141989765Y-62971843D01*
X141742000Y-62922560D01*
X139342000Y-62922560D01*
X139094235Y-62971843D01*
X138884191Y-63112191D01*
X138743843Y-63322235D01*
X138694560Y-63570000D01*
X138694560Y-65970000D01*
X138743843Y-66217765D01*
X138884191Y-66427809D01*
X139094235Y-66568157D01*
X139342000Y-66617440D01*
X139782000Y-66617440D01*
X139782001Y-70947591D01*
X139742191Y-70974191D01*
X139700000Y-71037334D01*
X139657809Y-70974191D01*
X139447765Y-70833843D01*
X139200000Y-70784560D01*
X138700000Y-70784560D01*
X138452235Y-70833843D01*
X138242191Y-70974191D01*
X138101843Y-71184235D01*
X138052560Y-71432000D01*
X138052560Y-72332000D01*
X138067041Y-72404801D01*
X134627590Y-75844253D01*
X134562048Y-75888047D01*
X134518254Y-75953589D01*
X134518251Y-75953592D01*
X134388546Y-76147709D01*
X134327622Y-76454000D01*
X134343001Y-76531317D01*
X134343000Y-79121000D01*
X132011802Y-79121000D01*
X130683000Y-77792199D01*
X130683000Y-71057517D01*
X131010088Y-71057517D01*
X131078077Y-71298460D01*
X131597171Y-71483201D01*
X132147448Y-71455230D01*
X132525923Y-71298460D01*
X132593912Y-71057517D01*
X131802000Y-70265605D01*
X131010088Y-71057517D01*
X130683000Y-71057517D01*
X130683000Y-70836295D01*
X130830483Y-70877912D01*
X131622395Y-70086000D01*
X131981605Y-70086000D01*
X132773517Y-70877912D01*
X133014460Y-70809923D01*
X133199201Y-70290829D01*
X133171230Y-69740552D01*
X133014460Y-69362077D01*
X132773517Y-69294088D01*
X131981605Y-70086000D01*
X131622395Y-70086000D01*
X130830483Y-69294088D01*
X130683000Y-69335705D01*
X130683000Y-69114483D01*
X131010088Y-69114483D01*
X131802000Y-69906395D01*
X132593912Y-69114483D01*
X132525923Y-68873540D01*
X132006829Y-68688799D01*
X131456552Y-68716770D01*
X131078077Y-68873540D01*
X131010088Y-69114483D01*
X130683000Y-69114483D01*
X130683000Y-67925687D01*
X131017460Y-68260147D01*
X131526506Y-68471000D01*
X132077494Y-68471000D01*
X132586540Y-68260147D01*
X132976147Y-67870540D01*
X133187000Y-67361494D01*
X133187000Y-66810506D01*
X132976147Y-66301460D01*
X132586540Y-65911853D01*
X132077494Y-65701000D01*
X131526506Y-65701000D01*
X131017460Y-65911853D01*
X130683000Y-66246313D01*
X130683000Y-64901000D01*
X130726678Y-64901000D01*
X131511380Y-64575966D01*
X132111966Y-63975380D01*
X132437000Y-63190678D01*
X132437000Y-62341322D01*
X132111966Y-61556620D01*
X131511380Y-60956034D01*
X130726678Y-60631000D01*
X130683000Y-60631000D01*
X130683000Y-60400000D01*
X167946000Y-60400000D01*
X167946001Y-118162000D01*
X107898000Y-118162000D01*
X107898000Y-113601431D01*
X109779000Y-113601431D01*
X109779000Y-114490569D01*
X110119259Y-115312026D01*
X110747974Y-115940741D01*
X111569431Y-116281000D01*
X112458569Y-116281000D01*
X113280026Y-115940741D01*
X113908741Y-115312026D01*
X114209574Y-114585750D01*
X115946000Y-114585750D01*
X115946000Y-115776310D01*
X116042673Y-116009699D01*
X116221302Y-116188327D01*
X116454691Y-116285000D01*
X117570250Y-116285000D01*
X117729000Y-116126250D01*
X117729000Y-114427000D01*
X117983000Y-114427000D01*
X117983000Y-116126250D01*
X118141750Y-116285000D01*
X119257309Y-116285000D01*
X119490698Y-116188327D01*
X119669327Y-116009699D01*
X119766000Y-115776310D01*
X119766000Y-114585750D01*
X119607250Y-114427000D01*
X117983000Y-114427000D01*
X117729000Y-114427000D01*
X116104750Y-114427000D01*
X115946000Y-114585750D01*
X114209574Y-114585750D01*
X114249000Y-114490569D01*
X114249000Y-113601431D01*
X113926849Y-112823690D01*
X115946000Y-112823690D01*
X115946000Y-114014250D01*
X116104750Y-114173000D01*
X117729000Y-114173000D01*
X117729000Y-112473750D01*
X117983000Y-112473750D01*
X117983000Y-114173000D01*
X119607250Y-114173000D01*
X119766000Y-114014250D01*
X119766000Y-112823690D01*
X119669327Y-112590301D01*
X119490698Y-112411673D01*
X119257309Y-112315000D01*
X118141750Y-112315000D01*
X117983000Y-112473750D01*
X117729000Y-112473750D01*
X117570250Y-112315000D01*
X116454691Y-112315000D01*
X116221302Y-112411673D01*
X116042673Y-112590301D01*
X115946000Y-112823690D01*
X113926849Y-112823690D01*
X113908741Y-112779974D01*
X113280026Y-112151259D01*
X112458569Y-111811000D01*
X111569431Y-111811000D01*
X110747974Y-112151259D01*
X110119259Y-112779974D01*
X109779000Y-113601431D01*
X107898000Y-113601431D01*
X107898000Y-108235750D01*
X116313000Y-108235750D01*
X116313000Y-108451310D01*
X116409673Y-108684699D01*
X116588302Y-108863327D01*
X116821691Y-108960000D01*
X117062250Y-108960000D01*
X117221000Y-108801250D01*
X117221000Y-108077000D01*
X116471750Y-108077000D01*
X116313000Y-108235750D01*
X107898000Y-108235750D01*
X107898000Y-106457750D01*
X116313000Y-106457750D01*
X116313000Y-106673310D01*
X116409673Y-106906699D01*
X116563975Y-107061000D01*
X116409673Y-107215301D01*
X116313000Y-107448690D01*
X116313000Y-107664250D01*
X116471750Y-107823000D01*
X117221000Y-107823000D01*
X117221000Y-107098750D01*
X117183250Y-107061000D01*
X117221000Y-107023250D01*
X117221000Y-106299000D01*
X116471750Y-106299000D01*
X116313000Y-106457750D01*
X107898000Y-106457750D01*
X107898000Y-105670690D01*
X116313000Y-105670690D01*
X116313000Y-105886250D01*
X116471750Y-106045000D01*
X117221000Y-106045000D01*
X117221000Y-105320750D01*
X117189250Y-105289000D01*
X117233000Y-105245250D01*
X117233000Y-104521000D01*
X116483750Y-104521000D01*
X116325000Y-104679750D01*
X116325000Y-104895310D01*
X116421673Y-105128699D01*
X116569975Y-105277000D01*
X116409673Y-105437301D01*
X116313000Y-105670690D01*
X107898000Y-105670690D01*
X107898000Y-103892690D01*
X116325000Y-103892690D01*
X116325000Y-104108250D01*
X116483750Y-104267000D01*
X117233000Y-104267000D01*
X117233000Y-103542750D01*
X117074250Y-103384000D01*
X116833691Y-103384000D01*
X116600302Y-103480673D01*
X116421673Y-103659301D01*
X116325000Y-103892690D01*
X107898000Y-103892690D01*
X107898000Y-102647750D01*
X111287000Y-102647750D01*
X111287000Y-103088309D01*
X111383673Y-103321698D01*
X111562301Y-103500327D01*
X111795690Y-103597000D01*
X112236250Y-103597000D01*
X112395000Y-103438250D01*
X112395000Y-102489000D01*
X112649000Y-102489000D01*
X112649000Y-103438250D01*
X112807750Y-103597000D01*
X113248310Y-103597000D01*
X113481699Y-103500327D01*
X113660327Y-103321698D01*
X113757000Y-103088309D01*
X113757000Y-102647750D01*
X113598250Y-102489000D01*
X112649000Y-102489000D01*
X112395000Y-102489000D01*
X111445750Y-102489000D01*
X111287000Y-102647750D01*
X107898000Y-102647750D01*
X107898000Y-80407691D01*
X111437000Y-80407691D01*
X111437000Y-80500250D01*
X111595750Y-80659000D01*
X112395000Y-80659000D01*
X112395000Y-80057750D01*
X112649000Y-80057750D01*
X112649000Y-80659000D01*
X113448250Y-80659000D01*
X113607000Y-80500250D01*
X113607000Y-80407691D01*
X113510327Y-80174302D01*
X113331699Y-79995673D01*
X113098310Y-79899000D01*
X112807750Y-79899000D01*
X112649000Y-80057750D01*
X112395000Y-80057750D01*
X112236250Y-79899000D01*
X111945690Y-79899000D01*
X111712301Y-79995673D01*
X111533673Y-80174302D01*
X111437000Y-80407691D01*
X107898000Y-80407691D01*
X107898000Y-64071431D01*
X109779000Y-64071431D01*
X109779000Y-64960569D01*
X110119259Y-65782026D01*
X110747974Y-66410741D01*
X111569431Y-66751000D01*
X112458569Y-66751000D01*
X113280026Y-66410741D01*
X113908741Y-65782026D01*
X114249000Y-64960569D01*
X114249000Y-64071431D01*
X113908741Y-63249974D01*
X113280026Y-62621259D01*
X112458569Y-62281000D01*
X111569431Y-62281000D01*
X110747974Y-62621259D01*
X110119259Y-63249974D01*
X109779000Y-64071431D01*
X107898000Y-64071431D01*
X107898000Y-60400000D01*
X129675507Y-60400000D01*
X129677321Y-60713843D01*
X129677321Y-60713843D01*
G37*
X129677321Y-60713843D02*
X129092620Y-60956034D01*
X128492034Y-61556620D01*
X128167000Y-62341322D01*
X128167000Y-63190678D01*
X128492034Y-63975380D01*
X129092620Y-64575966D01*
X129701102Y-64828007D01*
X129708069Y-66033382D01*
X129586540Y-65911853D01*
X129077494Y-65701000D01*
X128526506Y-65701000D01*
X128017460Y-65911853D01*
X127627853Y-66301460D01*
X127417000Y-66810506D01*
X127417000Y-67361494D01*
X127627853Y-67870540D01*
X128017460Y-68260147D01*
X128526506Y-68471000D01*
X129077494Y-68471000D01*
X129586540Y-68260147D01*
X129720168Y-68126519D01*
X129725511Y-69050824D01*
X129586540Y-68911853D01*
X129077494Y-68701000D01*
X128526506Y-68701000D01*
X128017460Y-68911853D01*
X127627853Y-69301460D01*
X127417000Y-69810506D01*
X127417000Y-70361494D01*
X127627853Y-70870540D01*
X128017460Y-71260147D01*
X128042001Y-71270312D01*
X128042000Y-76911153D01*
X128027112Y-76986000D01*
X128042000Y-77060847D01*
X128042000Y-77060851D01*
X128086096Y-77282536D01*
X128254071Y-77533929D01*
X128317530Y-77576331D01*
X129783264Y-79042066D01*
X129804876Y-82781000D01*
X127169842Y-82781000D01*
X127248000Y-82592309D01*
X127248000Y-82351750D01*
X127089250Y-82193000D01*
X126365000Y-82193000D01*
X126365000Y-82213000D01*
X126111000Y-82213000D01*
X126111000Y-82193000D01*
X126091000Y-82193000D01*
X126091000Y-81939000D01*
X126111000Y-81939000D01*
X126111000Y-81189750D01*
X126365000Y-81189750D01*
X126365000Y-81939000D01*
X127089250Y-81939000D01*
X127248000Y-81780250D01*
X127248000Y-81539691D01*
X127151327Y-81306302D01*
X126972699Y-81127673D01*
X126739310Y-81031000D01*
X126523750Y-81031000D01*
X126365000Y-81189750D01*
X126111000Y-81189750D01*
X125952250Y-81031000D01*
X125736690Y-81031000D01*
X125503301Y-81127673D01*
X125324673Y-81306302D01*
X125228000Y-81539691D01*
X125228000Y-81776305D01*
X125222000Y-81775112D01*
X125161285Y-81787189D01*
X125097809Y-81692191D01*
X124887765Y-81551843D01*
X124640000Y-81502560D01*
X123740000Y-81502560D01*
X123492235Y-81551843D01*
X123282191Y-81692191D01*
X123201781Y-81812531D01*
X123116250Y-81727000D01*
X122317000Y-81727000D01*
X122317000Y-81747000D01*
X122063000Y-81747000D01*
X122063000Y-81727000D01*
X122043000Y-81727000D01*
X122043000Y-81473000D01*
X122063000Y-81473000D01*
X122063000Y-80723750D01*
X122317000Y-80723750D01*
X122317000Y-81473000D01*
X123116250Y-81473000D01*
X123275000Y-81314250D01*
X123275000Y-81073690D01*
X123178327Y-80840301D01*
X122999698Y-80661673D01*
X122766309Y-80565000D01*
X122475750Y-80565000D01*
X122317000Y-80723750D01*
X122063000Y-80723750D01*
X121904250Y-80565000D01*
X121613691Y-80565000D01*
X121380302Y-80661673D01*
X121201673Y-80840301D01*
X121105000Y-81073690D01*
X121105000Y-81314250D01*
X121263748Y-81472998D01*
X121134316Y-81472998D01*
X121055327Y-81282302D01*
X120876699Y-81103673D01*
X120643310Y-81007000D01*
X120427750Y-81007000D01*
X120269000Y-81165750D01*
X120269000Y-81915000D01*
X120289000Y-81915000D01*
X120289000Y-82169000D01*
X120269000Y-82169000D01*
X120269000Y-82189000D01*
X120015000Y-82189000D01*
X120015000Y-82169000D01*
X119290750Y-82169000D01*
X119132000Y-82327750D01*
X119132000Y-82507000D01*
X118337440Y-82507000D01*
X118337440Y-82462000D01*
X118288157Y-82214235D01*
X118147809Y-82004191D01*
X117937765Y-81863843D01*
X117690000Y-81814560D01*
X115990000Y-81814560D01*
X115742235Y-81863843D01*
X115532191Y-82004191D01*
X115391843Y-82214235D01*
X115347326Y-82438041D01*
X115144690Y-82478348D01*
X114925845Y-82624576D01*
X114925844Y-82624577D01*
X114851951Y-82673951D01*
X114802577Y-82747844D01*
X113763962Y-83786459D01*
X113720157Y-83566235D01*
X113579809Y-83356191D01*
X113369765Y-83215843D01*
X113282000Y-83198386D01*
X113282000Y-83090573D01*
X113429809Y-82991809D01*
X113570157Y-82781765D01*
X113619440Y-82534000D01*
X113619440Y-82034000D01*
X113570157Y-81786235D01*
X113429809Y-81576191D01*
X113368680Y-81535346D01*
X113388334Y-81515691D01*
X119132000Y-81515691D01*
X119132000Y-81756250D01*
X119290750Y-81915000D01*
X120015000Y-81915000D01*
X120015000Y-81165750D01*
X119856250Y-81007000D01*
X119640690Y-81007000D01*
X119407301Y-81103673D01*
X119228673Y-81282302D01*
X119132000Y-81515691D01*
X113388334Y-81515691D01*
X113510327Y-81393698D01*
X113607000Y-81160309D01*
X113607000Y-81067750D01*
X113448250Y-80909000D01*
X112649000Y-80909000D01*
X112649000Y-80931000D01*
X112395000Y-80931000D01*
X112395000Y-80909000D01*
X111595750Y-80909000D01*
X111437000Y-81067750D01*
X111437000Y-81160309D01*
X111533673Y-81393698D01*
X111675320Y-81535346D01*
X111614191Y-81576191D01*
X111473843Y-81786235D01*
X111424560Y-82034000D01*
X111424560Y-82534000D01*
X111473843Y-82781765D01*
X111614191Y-82991809D01*
X111762001Y-83090573D01*
X111762001Y-83198386D01*
X111674235Y-83215843D01*
X111464191Y-83356191D01*
X111323843Y-83566235D01*
X111274560Y-83814000D01*
X111274560Y-85014000D01*
X111323843Y-85261765D01*
X111464191Y-85471809D01*
X111527334Y-85514000D01*
X111464191Y-85556191D01*
X111323843Y-85766235D01*
X111274560Y-86014000D01*
X111274560Y-87214000D01*
X111323843Y-87461765D01*
X111464191Y-87671809D01*
X111664212Y-87805460D01*
X111562301Y-87847673D01*
X111383673Y-88026302D01*
X111287000Y-88259691D01*
X111287000Y-88700250D01*
X111445750Y-88859000D01*
X112395000Y-88859000D01*
X112395000Y-88839000D01*
X112649000Y-88839000D01*
X112649000Y-88859000D01*
X113598250Y-88859000D01*
X113757000Y-88700250D01*
X113757000Y-88259691D01*
X113660327Y-88026302D01*
X113481699Y-87847673D01*
X113379788Y-87805460D01*
X113579809Y-87671809D01*
X113720157Y-87461765D01*
X113769440Y-87214000D01*
X113769440Y-86284138D01*
X115492769Y-84560810D01*
X115532191Y-84619809D01*
X115742235Y-84760157D01*
X115787619Y-84769184D01*
X115769375Y-84781375D01*
X115441161Y-85272582D01*
X115325908Y-85852000D01*
X115441161Y-86431418D01*
X115769375Y-86922625D01*
X116067761Y-87122000D01*
X115769375Y-87321375D01*
X115441161Y-87812582D01*
X115325908Y-88392000D01*
X115441161Y-88971418D01*
X115769375Y-89462625D01*
X116067761Y-89662000D01*
X115769375Y-89861375D01*
X115441161Y-90352582D01*
X115325908Y-90932000D01*
X115441161Y-91511418D01*
X115769375Y-92002625D01*
X116067761Y-92202000D01*
X115769375Y-92401375D01*
X115441161Y-92892582D01*
X115325908Y-93472000D01*
X115406407Y-93876696D01*
X115394280Y-93864569D01*
X115013874Y-93707000D01*
X114602126Y-93707000D01*
X114221720Y-93864569D01*
X114129289Y-93957000D01*
X113419047Y-93957000D01*
X113429809Y-93949809D01*
X113570157Y-93739765D01*
X113619440Y-93492000D01*
X113619440Y-92992000D01*
X113570157Y-92744235D01*
X113429809Y-92534191D01*
X113282000Y-92435427D01*
X113282000Y-92401614D01*
X113369765Y-92384157D01*
X113579809Y-92243809D01*
X113720157Y-92033765D01*
X113769440Y-91786000D01*
X113769440Y-90586000D01*
X113720157Y-90338235D01*
X113579809Y-90128191D01*
X113518680Y-90087346D01*
X113660327Y-89945698D01*
X113757000Y-89712309D01*
X113757000Y-89271750D01*
X113598250Y-89113000D01*
X112649000Y-89113000D01*
X112649000Y-89133000D01*
X112395000Y-89133000D01*
X112395000Y-89113000D01*
X111445750Y-89113000D01*
X111287000Y-89271750D01*
X111287000Y-89712309D01*
X111383673Y-89945698D01*
X111525320Y-90087346D01*
X111464191Y-90128191D01*
X111323843Y-90338235D01*
X111274560Y-90586000D01*
X111274560Y-91786000D01*
X111323843Y-92033765D01*
X111464191Y-92243809D01*
X111674235Y-92384157D01*
X111762001Y-92401614D01*
X111762001Y-92435427D01*
X111614191Y-92534191D01*
X111473843Y-92744235D01*
X111424560Y-92992000D01*
X111424560Y-93492000D01*
X111473843Y-93739765D01*
X111614191Y-93949809D01*
X111677334Y-93992000D01*
X111614191Y-94034191D01*
X111473843Y-94244235D01*
X111424560Y-94492000D01*
X111424560Y-94992000D01*
X111473843Y-95239765D01*
X111614191Y-95449809D01*
X111824235Y-95590157D01*
X112059733Y-95637000D01*
X111824235Y-95683843D01*
X111614191Y-95824191D01*
X111473843Y-96034235D01*
X111424560Y-96282000D01*
X111424560Y-96782000D01*
X111473843Y-97029765D01*
X111614191Y-97239809D01*
X111677334Y-97282000D01*
X111614191Y-97324191D01*
X111473843Y-97534235D01*
X111424560Y-97782000D01*
X111424560Y-98282000D01*
X111473843Y-98529765D01*
X111614191Y-98739809D01*
X111762001Y-98838573D01*
X111762001Y-98946386D01*
X111674235Y-98963843D01*
X111464191Y-99104191D01*
X111323843Y-99314235D01*
X111274560Y-99562000D01*
X111274560Y-100762000D01*
X111323843Y-101009765D01*
X111464191Y-101219809D01*
X111525320Y-101260654D01*
X111383673Y-101402302D01*
X111287000Y-101635691D01*
X111287000Y-102076250D01*
X111445750Y-102235000D01*
X112395000Y-102235000D01*
X112395000Y-102215000D01*
X112649000Y-102215000D01*
X112649000Y-102235000D01*
X113598250Y-102235000D01*
X113757000Y-102076250D01*
X113757000Y-101635691D01*
X113660327Y-101402302D01*
X113518680Y-101260654D01*
X113579809Y-101219809D01*
X113720157Y-101009765D01*
X113769440Y-100762000D01*
X113769440Y-99562000D01*
X113720157Y-99314235D01*
X113579809Y-99104191D01*
X113369765Y-98963843D01*
X113282000Y-98946386D01*
X113282000Y-98838573D01*
X113429809Y-98739809D01*
X113570157Y-98529765D01*
X113619440Y-98282000D01*
X113619440Y-97957129D01*
X113715708Y-98021454D01*
X113944684Y-98067000D01*
X113944688Y-98067000D01*
X114021999Y-98082378D01*
X114099310Y-98067000D01*
X115422380Y-98067000D01*
X115325908Y-98552000D01*
X115441161Y-99131418D01*
X115769375Y-99622625D01*
X116067761Y-99822000D01*
X115769375Y-100021375D01*
X115441161Y-100512582D01*
X115325908Y-101092000D01*
X115441161Y-101671418D01*
X115769375Y-102162625D01*
X116260582Y-102490839D01*
X116693744Y-102577000D01*
X116986256Y-102577000D01*
X117419418Y-102490839D01*
X117910625Y-102162625D01*
X118118178Y-101852000D01*
X119051153Y-101852000D01*
X119126000Y-101866888D01*
X119200847Y-101852000D01*
X119200852Y-101852000D01*
X119422537Y-101807904D01*
X119673929Y-101639929D01*
X119716331Y-101576470D01*
X119880560Y-101412241D01*
X119880560Y-101512283D01*
X119387590Y-102005253D01*
X119322048Y-102049047D01*
X119278254Y-102114589D01*
X119278251Y-102114592D01*
X119148546Y-102308709D01*
X119087622Y-102615000D01*
X119103001Y-102692317D01*
X119103001Y-103371560D01*
X118460000Y-103371560D01*
X118212235Y-103420843D01*
X118120898Y-103481873D01*
X118119698Y-103480673D01*
X117886309Y-103384000D01*
X117645750Y-103384000D01*
X117487000Y-103542750D01*
X117487000Y-104267000D01*
X117507000Y-104267000D01*
X117507000Y-104521000D01*
X117487000Y-104521000D01*
X117487000Y-105245250D01*
X117518750Y-105277000D01*
X117475000Y-105320750D01*
X117475000Y-106045000D01*
X117495000Y-106045000D01*
X117495000Y-106299000D01*
X117475000Y-106299000D01*
X117475000Y-107023250D01*
X117512750Y-107061000D01*
X117475000Y-107098750D01*
X117475000Y-107823000D01*
X117495000Y-107823000D01*
X117495000Y-108077000D01*
X117475000Y-108077000D01*
X117475000Y-108801250D01*
X117633750Y-108960000D01*
X117874309Y-108960000D01*
X118095992Y-108868176D01*
X118108546Y-108931291D01*
X118238251Y-109125408D01*
X118238254Y-109125411D01*
X118282048Y-109190953D01*
X118347590Y-109234747D01*
X119595253Y-110482411D01*
X119639047Y-110547953D01*
X119704589Y-110591747D01*
X119704591Y-110591749D01*
X119798780Y-110654684D01*
X119898708Y-110721454D01*
X120127684Y-110767000D01*
X120127688Y-110767000D01*
X120139733Y-110769396D01*
X120143000Y-110774285D01*
X120143000Y-110809315D01*
X120143001Y-110809320D01*
X120143000Y-112519688D01*
X120127622Y-112597000D01*
X120143000Y-112674312D01*
X120143000Y-112674315D01*
X120188546Y-112903291D01*
X120362047Y-113162953D01*
X120427592Y-113206749D01*
X122021251Y-114800408D01*
X122065047Y-114865953D01*
X122283560Y-115011960D01*
X122283560Y-115650000D01*
X122332843Y-115897765D01*
X122473191Y-116107809D01*
X122683235Y-116248157D01*
X122931000Y-116297440D01*
X123439297Y-116297440D01*
X123442998Y-116316046D01*
X123622024Y-116583977D01*
X123689654Y-116629166D01*
X124871845Y-117811358D01*
X124917034Y-117878988D01*
X125184965Y-118058014D01*
X125421237Y-118105011D01*
X125501010Y-118120879D01*
X125580783Y-118105011D01*
X159739216Y-118105011D01*
X159818989Y-118120879D01*
X159898762Y-118105011D01*
X159898763Y-118105011D01*
X160135035Y-118058014D01*
X160402966Y-117878988D01*
X160448157Y-117811355D01*
X161290357Y-116969156D01*
X161357987Y-116923967D01*
X161445683Y-116792720D01*
X161537013Y-116656037D01*
X161599878Y-116339990D01*
X161584010Y-116260216D01*
X161584010Y-113601431D01*
X161849000Y-113601431D01*
X161849000Y-114490569D01*
X162189259Y-115312026D01*
X162817974Y-115940741D01*
X163639431Y-116281000D01*
X164528569Y-116281000D01*
X165350026Y-115940741D01*
X165978741Y-115312026D01*
X166319000Y-114490569D01*
X166319000Y-113601431D01*
X165978741Y-112779974D01*
X165350026Y-112151259D01*
X164528569Y-111811000D01*
X163639431Y-111811000D01*
X162817974Y-112151259D01*
X162189259Y-112779974D01*
X161849000Y-113601431D01*
X161584010Y-113601431D01*
X161584010Y-106007502D01*
X163149513Y-104442000D01*
X165020227Y-104442000D01*
X165100000Y-104457868D01*
X165179773Y-104442000D01*
X165179774Y-104442000D01*
X165416046Y-104395003D01*
X165683977Y-104215977D01*
X165729168Y-104148344D01*
X166624357Y-103253156D01*
X166691987Y-103207967D01*
X166871013Y-102940036D01*
X166918010Y-102703764D01*
X166918010Y-102703760D01*
X166933877Y-102623991D01*
X166918010Y-102544221D01*
X166918010Y-85415784D01*
X166933878Y-85336010D01*
X166871013Y-85019963D01*
X166752562Y-84842690D01*
X166691987Y-84752033D01*
X166624357Y-84706844D01*
X163443168Y-81525656D01*
X163397977Y-81458023D01*
X163130046Y-81278997D01*
X162893774Y-81232000D01*
X162893773Y-81232000D01*
X162814000Y-81216132D01*
X162734227Y-81232000D01*
X155321000Y-81232000D01*
X155321000Y-79248000D01*
X155311333Y-79199399D01*
X155283803Y-79158197D01*
X155242601Y-79130667D01*
X155194000Y-79121000D01*
X147596000Y-79121000D01*
X147596000Y-78522801D01*
X147763362Y-78355440D01*
X150586000Y-78355440D01*
X150833765Y-78306157D01*
X151043809Y-78165809D01*
X151184157Y-77955765D01*
X151233440Y-77708000D01*
X151233440Y-75708000D01*
X151184157Y-75460235D01*
X151043809Y-75250191D01*
X150833765Y-75109843D01*
X150586000Y-75060560D01*
X146086000Y-75060560D01*
X145838235Y-75109843D01*
X145628191Y-75250191D01*
X145487843Y-75460235D01*
X145438560Y-75708000D01*
X145438560Y-77197000D01*
X145082126Y-77197000D01*
X144701720Y-77354569D01*
X144589952Y-77466337D01*
X144479711Y-77466337D01*
X144387280Y-77373906D01*
X144006874Y-77216337D01*
X143595126Y-77216337D01*
X143214720Y-77373906D01*
X143020714Y-77567912D01*
X142733440Y-77280638D01*
X142733440Y-75708000D01*
X142684157Y-75460235D01*
X142543809Y-75250191D01*
X142333765Y-75109843D01*
X142086000Y-75060560D01*
X137631598Y-75060560D01*
X138984032Y-73708126D01*
X143491000Y-73708126D01*
X143491000Y-74119874D01*
X143648569Y-74500280D01*
X143939720Y-74791431D01*
X144320126Y-74949000D01*
X144731874Y-74949000D01*
X145112280Y-74791431D01*
X145403431Y-74500280D01*
X145561000Y-74119874D01*
X145561000Y-73708126D01*
X145403431Y-73327720D01*
X145286000Y-73210289D01*
X145286000Y-73203264D01*
X145449809Y-73093809D01*
X145539013Y-72960306D01*
X145553673Y-72995698D01*
X145732301Y-73174327D01*
X145965690Y-73271000D01*
X146206250Y-73271000D01*
X146365000Y-73112250D01*
X146365000Y-72313000D01*
X146619000Y-72313000D01*
X146619000Y-73112250D01*
X146777750Y-73271000D01*
X147018310Y-73271000D01*
X147251699Y-73174327D01*
X147430327Y-72995698D01*
X147527000Y-72762309D01*
X147527000Y-72471750D01*
X147368250Y-72313000D01*
X146619000Y-72313000D01*
X146365000Y-72313000D01*
X146345000Y-72313000D01*
X146345000Y-72059000D01*
X146365000Y-72059000D01*
X146365000Y-71259750D01*
X146619000Y-71259750D01*
X146619000Y-72059000D01*
X147368250Y-72059000D01*
X147527000Y-71900250D01*
X147527000Y-71609691D01*
X147430327Y-71376302D01*
X147251699Y-71197673D01*
X147018310Y-71101000D01*
X146777750Y-71101000D01*
X146619000Y-71259750D01*
X146365000Y-71259750D01*
X146279469Y-71174219D01*
X146399809Y-71093809D01*
X146540157Y-70883765D01*
X146589440Y-70636000D01*
X146589440Y-69736000D01*
X146540157Y-69488235D01*
X146399809Y-69278191D01*
X146302000Y-69212837D01*
X146302000Y-66441387D01*
X146581444Y-66325638D01*
X147097638Y-65809444D01*
X147377000Y-65135004D01*
X147377000Y-64404996D01*
X147238833Y-64071431D01*
X161849000Y-64071431D01*
X161849000Y-64960569D01*
X162189259Y-65782026D01*
X162817974Y-66410741D01*
X163639431Y-66751000D01*
X164528569Y-66751000D01*
X165350026Y-66410741D01*
X165978741Y-65782026D01*
X166319000Y-64960569D01*
X166319000Y-64071431D01*
X165978741Y-63249974D01*
X165350026Y-62621259D01*
X164528569Y-62281000D01*
X163639431Y-62281000D01*
X162817974Y-62621259D01*
X162189259Y-63249974D01*
X161849000Y-64071431D01*
X147238833Y-64071431D01*
X147097638Y-63730556D01*
X146581444Y-63214362D01*
X145907004Y-62935000D01*
X145176996Y-62935000D01*
X144502556Y-63214362D01*
X143986362Y-63730556D01*
X143707000Y-64404996D01*
X143707000Y-65135004D01*
X143986362Y-65809444D01*
X144502556Y-66325638D01*
X144782001Y-66441388D01*
X144782000Y-69212836D01*
X144684191Y-69278191D01*
X144543843Y-69488235D01*
X144494560Y-69736000D01*
X144494560Y-70636000D01*
X144543843Y-70883765D01*
X144680684Y-71088560D01*
X144192000Y-71088560D01*
X143944235Y-71137843D01*
X143734191Y-71278191D01*
X143593843Y-71488235D01*
X143544560Y-71736000D01*
X143544560Y-72636000D01*
X143593843Y-72883765D01*
X143734191Y-73093809D01*
X143766000Y-73115064D01*
X143766000Y-73210289D01*
X143648569Y-73327720D01*
X143491000Y-73708126D01*
X138984032Y-73708126D01*
X139450411Y-73241747D01*
X139515953Y-73197953D01*
X139559747Y-73132411D01*
X139559749Y-73132409D01*
X139623787Y-73036569D01*
X139689454Y-72938292D01*
X139724312Y-72763051D01*
X139742191Y-72789809D01*
X139952235Y-72930157D01*
X140200000Y-72979440D01*
X140700000Y-72979440D01*
X140947765Y-72930157D01*
X141157809Y-72789809D01*
X141298157Y-72579765D01*
X141347440Y-72332000D01*
X141347440Y-71432000D01*
X141302000Y-71203555D01*
X141302000Y-66617440D01*
X141742000Y-66617440D01*
X141989765Y-66568157D01*
X142199809Y-66427809D01*
X142340157Y-66217765D01*
X142389440Y-65970000D01*
X142389440Y-63570000D01*
X142340157Y-63322235D01*
X142199809Y-63112191D01*
X141989765Y-62971843D01*
X141742000Y-62922560D01*
X139342000Y-62922560D01*
X139094235Y-62971843D01*
X138884191Y-63112191D01*
X138743843Y-63322235D01*
X138694560Y-63570000D01*
X138694560Y-65970000D01*
X138743843Y-66217765D01*
X138884191Y-66427809D01*
X139094235Y-66568157D01*
X139342000Y-66617440D01*
X139782000Y-66617440D01*
X139782001Y-70947591D01*
X139742191Y-70974191D01*
X139700000Y-71037334D01*
X139657809Y-70974191D01*
X139447765Y-70833843D01*
X139200000Y-70784560D01*
X138700000Y-70784560D01*
X138452235Y-70833843D01*
X138242191Y-70974191D01*
X138101843Y-71184235D01*
X138052560Y-71432000D01*
X138052560Y-72332000D01*
X138067041Y-72404801D01*
X134627590Y-75844253D01*
X134562048Y-75888047D01*
X134518254Y-75953589D01*
X134518251Y-75953592D01*
X134388546Y-76147709D01*
X134327622Y-76454000D01*
X134343001Y-76531317D01*
X134343000Y-79121000D01*
X132011802Y-79121000D01*
X130683000Y-77792199D01*
X130683000Y-71057517D01*
X131010088Y-71057517D01*
X131078077Y-71298460D01*
X131597171Y-71483201D01*
X132147448Y-71455230D01*
X132525923Y-71298460D01*
X132593912Y-71057517D01*
X131802000Y-70265605D01*
X131010088Y-71057517D01*
X130683000Y-71057517D01*
X130683000Y-70836295D01*
X130830483Y-70877912D01*
X131622395Y-70086000D01*
X131981605Y-70086000D01*
X132773517Y-70877912D01*
X133014460Y-70809923D01*
X133199201Y-70290829D01*
X133171230Y-69740552D01*
X133014460Y-69362077D01*
X132773517Y-69294088D01*
X131981605Y-70086000D01*
X131622395Y-70086000D01*
X130830483Y-69294088D01*
X130683000Y-69335705D01*
X130683000Y-69114483D01*
X131010088Y-69114483D01*
X131802000Y-69906395D01*
X132593912Y-69114483D01*
X132525923Y-68873540D01*
X132006829Y-68688799D01*
X131456552Y-68716770D01*
X131078077Y-68873540D01*
X131010088Y-69114483D01*
X130683000Y-69114483D01*
X130683000Y-67925687D01*
X131017460Y-68260147D01*
X131526506Y-68471000D01*
X132077494Y-68471000D01*
X132586540Y-68260147D01*
X132976147Y-67870540D01*
X133187000Y-67361494D01*
X133187000Y-66810506D01*
X132976147Y-66301460D01*
X132586540Y-65911853D01*
X132077494Y-65701000D01*
X131526506Y-65701000D01*
X131017460Y-65911853D01*
X130683000Y-66246313D01*
X130683000Y-64901000D01*
X130726678Y-64901000D01*
X131511380Y-64575966D01*
X132111966Y-63975380D01*
X132437000Y-63190678D01*
X132437000Y-62341322D01*
X132111966Y-61556620D01*
X131511380Y-60956034D01*
X130726678Y-60631000D01*
X130683000Y-60631000D01*
X130683000Y-60400000D01*
X167946000Y-60400000D01*
X167946001Y-118162000D01*
X107898000Y-118162000D01*
X107898000Y-113601431D01*
X109779000Y-113601431D01*
X109779000Y-114490569D01*
X110119259Y-115312026D01*
X110747974Y-115940741D01*
X111569431Y-116281000D01*
X112458569Y-116281000D01*
X113280026Y-115940741D01*
X113908741Y-115312026D01*
X114209574Y-114585750D01*
X115946000Y-114585750D01*
X115946000Y-115776310D01*
X116042673Y-116009699D01*
X116221302Y-116188327D01*
X116454691Y-116285000D01*
X117570250Y-116285000D01*
X117729000Y-116126250D01*
X117729000Y-114427000D01*
X117983000Y-114427000D01*
X117983000Y-116126250D01*
X118141750Y-116285000D01*
X119257309Y-116285000D01*
X119490698Y-116188327D01*
X119669327Y-116009699D01*
X119766000Y-115776310D01*
X119766000Y-114585750D01*
X119607250Y-114427000D01*
X117983000Y-114427000D01*
X117729000Y-114427000D01*
X116104750Y-114427000D01*
X115946000Y-114585750D01*
X114209574Y-114585750D01*
X114249000Y-114490569D01*
X114249000Y-113601431D01*
X113926849Y-112823690D01*
X115946000Y-112823690D01*
X115946000Y-114014250D01*
X116104750Y-114173000D01*
X117729000Y-114173000D01*
X117729000Y-112473750D01*
X117983000Y-112473750D01*
X117983000Y-114173000D01*
X119607250Y-114173000D01*
X119766000Y-114014250D01*
X119766000Y-112823690D01*
X119669327Y-112590301D01*
X119490698Y-112411673D01*
X119257309Y-112315000D01*
X118141750Y-112315000D01*
X117983000Y-112473750D01*
X117729000Y-112473750D01*
X117570250Y-112315000D01*
X116454691Y-112315000D01*
X116221302Y-112411673D01*
X116042673Y-112590301D01*
X115946000Y-112823690D01*
X113926849Y-112823690D01*
X113908741Y-112779974D01*
X113280026Y-112151259D01*
X112458569Y-111811000D01*
X111569431Y-111811000D01*
X110747974Y-112151259D01*
X110119259Y-112779974D01*
X109779000Y-113601431D01*
X107898000Y-113601431D01*
X107898000Y-108235750D01*
X116313000Y-108235750D01*
X116313000Y-108451310D01*
X116409673Y-108684699D01*
X116588302Y-108863327D01*
X116821691Y-108960000D01*
X117062250Y-108960000D01*
X117221000Y-108801250D01*
X117221000Y-108077000D01*
X116471750Y-108077000D01*
X116313000Y-108235750D01*
X107898000Y-108235750D01*
X107898000Y-106457750D01*
X116313000Y-106457750D01*
X116313000Y-106673310D01*
X116409673Y-106906699D01*
X116563975Y-107061000D01*
X116409673Y-107215301D01*
X116313000Y-107448690D01*
X116313000Y-107664250D01*
X116471750Y-107823000D01*
X117221000Y-107823000D01*
X117221000Y-107098750D01*
X117183250Y-107061000D01*
X117221000Y-107023250D01*
X117221000Y-106299000D01*
X116471750Y-106299000D01*
X116313000Y-106457750D01*
X107898000Y-106457750D01*
X107898000Y-105670690D01*
X116313000Y-105670690D01*
X116313000Y-105886250D01*
X116471750Y-106045000D01*
X117221000Y-106045000D01*
X117221000Y-105320750D01*
X117189250Y-105289000D01*
X117233000Y-105245250D01*
X117233000Y-104521000D01*
X116483750Y-104521000D01*
X116325000Y-104679750D01*
X116325000Y-104895310D01*
X116421673Y-105128699D01*
X116569975Y-105277000D01*
X116409673Y-105437301D01*
X116313000Y-105670690D01*
X107898000Y-105670690D01*
X107898000Y-103892690D01*
X116325000Y-103892690D01*
X116325000Y-104108250D01*
X116483750Y-104267000D01*
X117233000Y-104267000D01*
X117233000Y-103542750D01*
X117074250Y-103384000D01*
X116833691Y-103384000D01*
X116600302Y-103480673D01*
X116421673Y-103659301D01*
X116325000Y-103892690D01*
X107898000Y-103892690D01*
X107898000Y-102647750D01*
X111287000Y-102647750D01*
X111287000Y-103088309D01*
X111383673Y-103321698D01*
X111562301Y-103500327D01*
X111795690Y-103597000D01*
X112236250Y-103597000D01*
X112395000Y-103438250D01*
X112395000Y-102489000D01*
X112649000Y-102489000D01*
X112649000Y-103438250D01*
X112807750Y-103597000D01*
X113248310Y-103597000D01*
X113481699Y-103500327D01*
X113660327Y-103321698D01*
X113757000Y-103088309D01*
X113757000Y-102647750D01*
X113598250Y-102489000D01*
X112649000Y-102489000D01*
X112395000Y-102489000D01*
X111445750Y-102489000D01*
X111287000Y-102647750D01*
X107898000Y-102647750D01*
X107898000Y-80407691D01*
X111437000Y-80407691D01*
X111437000Y-80500250D01*
X111595750Y-80659000D01*
X112395000Y-80659000D01*
X112395000Y-80057750D01*
X112649000Y-80057750D01*
X112649000Y-80659000D01*
X113448250Y-80659000D01*
X113607000Y-80500250D01*
X113607000Y-80407691D01*
X113510327Y-80174302D01*
X113331699Y-79995673D01*
X113098310Y-79899000D01*
X112807750Y-79899000D01*
X112649000Y-80057750D01*
X112395000Y-80057750D01*
X112236250Y-79899000D01*
X111945690Y-79899000D01*
X111712301Y-79995673D01*
X111533673Y-80174302D01*
X111437000Y-80407691D01*
X107898000Y-80407691D01*
X107898000Y-64071431D01*
X109779000Y-64071431D01*
X109779000Y-64960569D01*
X110119259Y-65782026D01*
X110747974Y-66410741D01*
X111569431Y-66751000D01*
X112458569Y-66751000D01*
X113280026Y-66410741D01*
X113908741Y-65782026D01*
X114249000Y-64960569D01*
X114249000Y-64071431D01*
X113908741Y-63249974D01*
X113280026Y-62621259D01*
X112458569Y-62281000D01*
X111569431Y-62281000D01*
X110747974Y-62621259D01*
X110119259Y-63249974D01*
X109779000Y-64071431D01*
X107898000Y-64071431D01*
X107898000Y-60400000D01*
X129675507Y-60400000D01*
X129677321Y-60713843D01*
G36*
X135763000Y-115443000D02*
X135783000Y-115443000D01*
X135783000Y-115697000D01*
X135763000Y-115697000D01*
X135763000Y-115717000D01*
X135509000Y-115717000D01*
X135509000Y-115697000D01*
X135489000Y-115697000D01*
X135489000Y-115443000D01*
X135509000Y-115443000D01*
X135509000Y-115423000D01*
X135763000Y-115423000D01*
X135763000Y-115443000D01*
X135763000Y-115443000D01*
G37*
X135763000Y-115443000D02*
X135783000Y-115443000D01*
X135783000Y-115697000D01*
X135763000Y-115697000D01*
X135763000Y-115717000D01*
X135509000Y-115717000D01*
X135509000Y-115697000D01*
X135489000Y-115697000D01*
X135489000Y-115443000D01*
X135509000Y-115443000D01*
X135509000Y-115423000D01*
X135763000Y-115423000D01*
X135763000Y-115443000D01*
G36*
X153164001Y-106098146D02*
X153149112Y-106172998D01*
X153208097Y-106469535D01*
X153328933Y-106650378D01*
X153376072Y-106720927D01*
X153439528Y-106763327D01*
X154632854Y-107956653D01*
X153353058Y-107956653D01*
X153235627Y-107839222D01*
X152855221Y-107681653D01*
X152443473Y-107681653D01*
X152063067Y-107839222D01*
X151771916Y-108130373D01*
X151614347Y-108510779D01*
X151614347Y-108922527D01*
X151771916Y-109302933D01*
X152063067Y-109594084D01*
X152443473Y-109751653D01*
X152855221Y-109751653D01*
X153235627Y-109594084D01*
X153353058Y-109476653D01*
X154967852Y-109476653D01*
X157203296Y-111712098D01*
X157188191Y-111722191D01*
X157047843Y-111932235D01*
X157038816Y-111977619D01*
X157026625Y-111959375D01*
X156535418Y-111631161D01*
X156102256Y-111545000D01*
X155809744Y-111545000D01*
X155376582Y-111631161D01*
X154885375Y-111959375D01*
X154686000Y-112257761D01*
X154486625Y-111959375D01*
X153995418Y-111631161D01*
X153562256Y-111545000D01*
X153269744Y-111545000D01*
X152836582Y-111631161D01*
X152345375Y-111959375D01*
X152132157Y-112278478D01*
X152071183Y-112148642D01*
X151642924Y-111758355D01*
X151232890Y-111588524D01*
X151003000Y-111709845D01*
X151003000Y-112903000D01*
X151023000Y-112903000D01*
X151023000Y-113157000D01*
X151003000Y-113157000D01*
X151003000Y-115443000D01*
X151023000Y-115443000D01*
X151023000Y-115697000D01*
X151003000Y-115697000D01*
X151003000Y-115717000D01*
X150749000Y-115717000D01*
X150749000Y-115697000D01*
X148463000Y-115697000D01*
X148463000Y-115717000D01*
X148209000Y-115717000D01*
X148209000Y-115697000D01*
X145923000Y-115697000D01*
X145923000Y-115717000D01*
X145669000Y-115717000D01*
X145669000Y-115697000D01*
X145649000Y-115697000D01*
X145649000Y-115443000D01*
X145669000Y-115443000D01*
X145669000Y-115423000D01*
X145923000Y-115423000D01*
X145923000Y-115443000D01*
X148209000Y-115443000D01*
X148209000Y-115423000D01*
X148463000Y-115423000D01*
X148463000Y-115443000D01*
X150749000Y-115443000D01*
X150749000Y-113157000D01*
X150729000Y-113157000D01*
X150729000Y-112903000D01*
X150749000Y-112903000D01*
X150749000Y-111709845D01*
X150519110Y-111588524D01*
X150109076Y-111758355D01*
X149680817Y-112148642D01*
X149619843Y-112278478D01*
X149406625Y-111959375D01*
X149371000Y-111935571D01*
X149371000Y-110903613D01*
X149374540Y-110902147D01*
X149764147Y-110512540D01*
X149975000Y-110003494D01*
X149975000Y-109452506D01*
X149764147Y-108943460D01*
X149475000Y-108654313D01*
X149475000Y-106538578D01*
X150846148Y-105167431D01*
X151208280Y-105017431D01*
X151499431Y-104726280D01*
X151657000Y-104345874D01*
X151657000Y-103934126D01*
X151499431Y-103553720D01*
X151208280Y-103262569D01*
X150827874Y-103105000D01*
X150416126Y-103105000D01*
X150035720Y-103262569D01*
X149860000Y-103438289D01*
X149684280Y-103262569D01*
X149303874Y-103105000D01*
X149137802Y-103105000D01*
X149029802Y-102997000D01*
X153164001Y-102997000D01*
X153164001Y-106098146D01*
X153164001Y-106098146D01*
G37*
X153164001Y-106098146D02*
X153149112Y-106172998D01*
X153208097Y-106469535D01*
X153328933Y-106650378D01*
X153376072Y-106720927D01*
X153439528Y-106763327D01*
X154632854Y-107956653D01*
X153353058Y-107956653D01*
X153235627Y-107839222D01*
X152855221Y-107681653D01*
X152443473Y-107681653D01*
X152063067Y-107839222D01*
X151771916Y-108130373D01*
X151614347Y-108510779D01*
X151614347Y-108922527D01*
X151771916Y-109302933D01*
X152063067Y-109594084D01*
X152443473Y-109751653D01*
X152855221Y-109751653D01*
X153235627Y-109594084D01*
X153353058Y-109476653D01*
X154967852Y-109476653D01*
X157203296Y-111712098D01*
X157188191Y-111722191D01*
X157047843Y-111932235D01*
X157038816Y-111977619D01*
X157026625Y-111959375D01*
X156535418Y-111631161D01*
X156102256Y-111545000D01*
X155809744Y-111545000D01*
X155376582Y-111631161D01*
X154885375Y-111959375D01*
X154686000Y-112257761D01*
X154486625Y-111959375D01*
X153995418Y-111631161D01*
X153562256Y-111545000D01*
X153269744Y-111545000D01*
X152836582Y-111631161D01*
X152345375Y-111959375D01*
X152132157Y-112278478D01*
X152071183Y-112148642D01*
X151642924Y-111758355D01*
X151232890Y-111588524D01*
X151003000Y-111709845D01*
X151003000Y-112903000D01*
X151023000Y-112903000D01*
X151023000Y-113157000D01*
X151003000Y-113157000D01*
X151003000Y-115443000D01*
X151023000Y-115443000D01*
X151023000Y-115697000D01*
X151003000Y-115697000D01*
X151003000Y-115717000D01*
X150749000Y-115717000D01*
X150749000Y-115697000D01*
X148463000Y-115697000D01*
X148463000Y-115717000D01*
X148209000Y-115717000D01*
X148209000Y-115697000D01*
X145923000Y-115697000D01*
X145923000Y-115717000D01*
X145669000Y-115717000D01*
X145669000Y-115697000D01*
X145649000Y-115697000D01*
X145649000Y-115443000D01*
X145669000Y-115443000D01*
X145669000Y-115423000D01*
X145923000Y-115423000D01*
X145923000Y-115443000D01*
X148209000Y-115443000D01*
X148209000Y-115423000D01*
X148463000Y-115423000D01*
X148463000Y-115443000D01*
X150749000Y-115443000D01*
X150749000Y-113157000D01*
X150729000Y-113157000D01*
X150729000Y-112903000D01*
X150749000Y-112903000D01*
X150749000Y-111709845D01*
X150519110Y-111588524D01*
X150109076Y-111758355D01*
X149680817Y-112148642D01*
X149619843Y-112278478D01*
X149406625Y-111959375D01*
X149371000Y-111935571D01*
X149371000Y-110903613D01*
X149374540Y-110902147D01*
X149764147Y-110512540D01*
X149975000Y-110003494D01*
X149975000Y-109452506D01*
X149764147Y-108943460D01*
X149475000Y-108654313D01*
X149475000Y-106538578D01*
X150846148Y-105167431D01*
X151208280Y-105017431D01*
X151499431Y-104726280D01*
X151657000Y-104345874D01*
X151657000Y-103934126D01*
X151499431Y-103553720D01*
X151208280Y-103262569D01*
X150827874Y-103105000D01*
X150416126Y-103105000D01*
X150035720Y-103262569D01*
X149860000Y-103438289D01*
X149684280Y-103262569D01*
X149303874Y-103105000D01*
X149137802Y-103105000D01*
X149029802Y-102997000D01*
X153164001Y-102997000D01*
X153164001Y-106098146D01*
G36*
X133260066Y-110013001D02*
X133260067Y-110013001D01*
X133362001Y-110033277D01*
X133463935Y-110013001D01*
X134254938Y-110013001D01*
X134461853Y-110512540D01*
X134601001Y-110651688D01*
X134601000Y-111935571D01*
X134565375Y-111959375D01*
X134352157Y-112278478D01*
X134291183Y-112148642D01*
X133862924Y-111758355D01*
X133452890Y-111588524D01*
X133223000Y-111709845D01*
X133223000Y-112903000D01*
X133243000Y-112903000D01*
X133243000Y-113157000D01*
X133223000Y-113157000D01*
X133223000Y-113177000D01*
X132969000Y-113177000D01*
X132969000Y-113157000D01*
X130683000Y-113157000D01*
X130683000Y-113177000D01*
X130429000Y-113177000D01*
X130429000Y-113157000D01*
X129235181Y-113157000D01*
X129114514Y-113386892D01*
X129360817Y-113911358D01*
X129785786Y-114298647D01*
X129485375Y-114499375D01*
X129218675Y-114898520D01*
X128293000Y-113972845D01*
X128293000Y-113454711D01*
X128385431Y-113362280D01*
X128543000Y-112981874D01*
X128543000Y-112673108D01*
X129114514Y-112673108D01*
X129235181Y-112903000D01*
X130429000Y-112903000D01*
X130429000Y-111709845D01*
X130683000Y-111709845D01*
X130683000Y-112903000D01*
X132969000Y-112903000D01*
X132969000Y-111709845D01*
X132739110Y-111588524D01*
X132329076Y-111758355D01*
X131900817Y-112148642D01*
X131826000Y-112307954D01*
X131751183Y-112148642D01*
X131322924Y-111758355D01*
X130912890Y-111588524D01*
X130683000Y-111709845D01*
X130429000Y-111709845D01*
X130199110Y-111588524D01*
X129789076Y-111758355D01*
X129360817Y-112148642D01*
X129114514Y-112673108D01*
X128543000Y-112673108D01*
X128543000Y-112570126D01*
X128538167Y-112558458D01*
X128625934Y-112541000D01*
X128625935Y-112541000D01*
X128927837Y-112480948D01*
X129270193Y-112252193D01*
X129327937Y-112165773D01*
X131492711Y-110001000D01*
X133199733Y-110001000D01*
X133260066Y-110013001D01*
X133260066Y-110013001D01*
G37*
X133260066Y-110013001D02*
X133260067Y-110013001D01*
X133362001Y-110033277D01*
X133463935Y-110013001D01*
X134254938Y-110013001D01*
X134461853Y-110512540D01*
X134601001Y-110651688D01*
X134601000Y-111935571D01*
X134565375Y-111959375D01*
X134352157Y-112278478D01*
X134291183Y-112148642D01*
X133862924Y-111758355D01*
X133452890Y-111588524D01*
X133223000Y-111709845D01*
X133223000Y-112903000D01*
X133243000Y-112903000D01*
X133243000Y-113157000D01*
X133223000Y-113157000D01*
X133223000Y-113177000D01*
X132969000Y-113177000D01*
X132969000Y-113157000D01*
X130683000Y-113157000D01*
X130683000Y-113177000D01*
X130429000Y-113177000D01*
X130429000Y-113157000D01*
X129235181Y-113157000D01*
X129114514Y-113386892D01*
X129360817Y-113911358D01*
X129785786Y-114298647D01*
X129485375Y-114499375D01*
X129218675Y-114898520D01*
X128293000Y-113972845D01*
X128293000Y-113454711D01*
X128385431Y-113362280D01*
X128543000Y-112981874D01*
X128543000Y-112673108D01*
X129114514Y-112673108D01*
X129235181Y-112903000D01*
X130429000Y-112903000D01*
X130429000Y-111709845D01*
X130683000Y-111709845D01*
X130683000Y-112903000D01*
X132969000Y-112903000D01*
X132969000Y-111709845D01*
X132739110Y-111588524D01*
X132329076Y-111758355D01*
X131900817Y-112148642D01*
X131826000Y-112307954D01*
X131751183Y-112148642D01*
X131322924Y-111758355D01*
X130912890Y-111588524D01*
X130683000Y-111709845D01*
X130429000Y-111709845D01*
X130199110Y-111588524D01*
X129789076Y-111758355D01*
X129360817Y-112148642D01*
X129114514Y-112673108D01*
X128543000Y-112673108D01*
X128543000Y-112570126D01*
X128538167Y-112558458D01*
X128625934Y-112541000D01*
X128625935Y-112541000D01*
X128927837Y-112480948D01*
X129270193Y-112252193D01*
X129327937Y-112165773D01*
X131492711Y-110001000D01*
X133199733Y-110001000D01*
X133260066Y-110013001D01*
G36*
X123320560Y-108924718D02*
X123320560Y-109162000D01*
X123369843Y-109409765D01*
X123458001Y-109541701D01*
X123458001Y-110173149D01*
X123443112Y-110248000D01*
X123502097Y-110544537D01*
X123626763Y-110731112D01*
X123670072Y-110795929D01*
X123733527Y-110838329D01*
X124123671Y-111228472D01*
X124166071Y-111291929D01*
X124417463Y-111459904D01*
X124639148Y-111504000D01*
X124639153Y-111504000D01*
X124714000Y-111518888D01*
X124788847Y-111504000D01*
X125463289Y-111504000D01*
X124664730Y-112302560D01*
X122931000Y-112302560D01*
X122683235Y-112351843D01*
X122473191Y-112492191D01*
X122332843Y-112702235D01*
X122301411Y-112860254D01*
X121713000Y-112271843D01*
X121713000Y-110879047D01*
X121720191Y-110889809D01*
X121930235Y-111030157D01*
X122178000Y-111079440D01*
X122678000Y-111079440D01*
X122925765Y-111030157D01*
X123135809Y-110889809D01*
X123276157Y-110679765D01*
X123325440Y-110432000D01*
X123325440Y-109532000D01*
X123276157Y-109284235D01*
X123213000Y-109189715D01*
X123213000Y-108817157D01*
X123320560Y-108924718D01*
X123320560Y-108924718D01*
G37*
X123320560Y-108924718D02*
X123320560Y-109162000D01*
X123369843Y-109409765D01*
X123458001Y-109541701D01*
X123458001Y-110173149D01*
X123443112Y-110248000D01*
X123502097Y-110544537D01*
X123626763Y-110731112D01*
X123670072Y-110795929D01*
X123733527Y-110838329D01*
X124123671Y-111228472D01*
X124166071Y-111291929D01*
X124417463Y-111459904D01*
X124639148Y-111504000D01*
X124639153Y-111504000D01*
X124714000Y-111518888D01*
X124788847Y-111504000D01*
X125463289Y-111504000D01*
X124664730Y-112302560D01*
X122931000Y-112302560D01*
X122683235Y-112351843D01*
X122473191Y-112492191D01*
X122332843Y-112702235D01*
X122301411Y-112860254D01*
X121713000Y-112271843D01*
X121713000Y-110879047D01*
X121720191Y-110889809D01*
X121930235Y-111030157D01*
X122178000Y-111079440D01*
X122678000Y-111079440D01*
X122925765Y-111030157D01*
X123135809Y-110889809D01*
X123276157Y-110679765D01*
X123325440Y-110432000D01*
X123325440Y-109532000D01*
X123276157Y-109284235D01*
X123213000Y-109189715D01*
X123213000Y-108817157D01*
X123320560Y-108924718D01*
G36*
X144248347Y-103080527D02*
X144405916Y-103460933D01*
X144697067Y-103752084D01*
X145077473Y-103909653D01*
X145489221Y-103909653D01*
X145869627Y-103752084D01*
X145990455Y-103631256D01*
X147301000Y-104941802D01*
X147301000Y-105107874D01*
X147458569Y-105488280D01*
X147749720Y-105779431D01*
X147779644Y-105791826D01*
X147756348Y-105826691D01*
X147687663Y-106172000D01*
X147705001Y-106259165D01*
X147705000Y-108654313D01*
X147415853Y-108943460D01*
X147205000Y-109452506D01*
X147205000Y-110003494D01*
X147301001Y-110235261D01*
X147301000Y-111935571D01*
X147265375Y-111959375D01*
X147066000Y-112257761D01*
X146866625Y-111959375D01*
X146831000Y-111935571D01*
X146831000Y-110235259D01*
X146927000Y-110003494D01*
X146927000Y-109452506D01*
X146716147Y-108943460D01*
X146326540Y-108553853D01*
X145817494Y-108343000D01*
X145266506Y-108343000D01*
X144757460Y-108553853D01*
X144367853Y-108943460D01*
X144157000Y-109452506D01*
X144157000Y-110003494D01*
X144367853Y-110512540D01*
X144757460Y-110902147D01*
X144761001Y-110903614D01*
X144761000Y-111935571D01*
X144725375Y-111959375D01*
X144526000Y-112257761D01*
X144326625Y-111959375D01*
X143835418Y-111631161D01*
X143402256Y-111545000D01*
X143109744Y-111545000D01*
X142889593Y-111588791D01*
X142322331Y-111021530D01*
X142279929Y-110958071D01*
X142028537Y-110790096D01*
X141806852Y-110746000D01*
X141806847Y-110746000D01*
X141732000Y-110731112D01*
X141657153Y-110746000D01*
X140522802Y-110746000D01*
X139284999Y-109508198D01*
X139284999Y-107603543D01*
X139553744Y-107657000D01*
X139846256Y-107657000D01*
X140279418Y-107570839D01*
X140770625Y-107242625D01*
X140970000Y-106944239D01*
X141169375Y-107242625D01*
X141660582Y-107570839D01*
X142093744Y-107657000D01*
X142386256Y-107657000D01*
X142819418Y-107570839D01*
X143310625Y-107242625D01*
X143523843Y-106923522D01*
X143584817Y-107053358D01*
X144013076Y-107443645D01*
X144423110Y-107613476D01*
X144653000Y-107492155D01*
X144653000Y-106299000D01*
X144907000Y-106299000D01*
X144907000Y-107492155D01*
X145136890Y-107613476D01*
X145546924Y-107443645D01*
X145975183Y-107053358D01*
X146221486Y-106528892D01*
X146100819Y-106299000D01*
X144907000Y-106299000D01*
X144653000Y-106299000D01*
X144633000Y-106299000D01*
X144633000Y-106045000D01*
X144653000Y-106045000D01*
X144653000Y-104851845D01*
X144907000Y-104851845D01*
X144907000Y-106045000D01*
X146100819Y-106045000D01*
X146221486Y-105815108D01*
X145975183Y-105290642D01*
X145546924Y-104900355D01*
X145136890Y-104730524D01*
X144907000Y-104851845D01*
X144653000Y-104851845D01*
X144423110Y-104730524D01*
X144013076Y-104900355D01*
X143584817Y-105290642D01*
X143523843Y-105420478D01*
X143310625Y-105101375D01*
X142819418Y-104773161D01*
X142386256Y-104687000D01*
X142093744Y-104687000D01*
X141873592Y-104730791D01*
X141698523Y-104555722D01*
X141810280Y-104509431D01*
X142101431Y-104218280D01*
X142259000Y-103837874D01*
X142259000Y-103623196D01*
X142572280Y-103493431D01*
X142863431Y-103202280D01*
X142948461Y-102997000D01*
X144248347Y-102997000D01*
X144248347Y-103080527D01*
X144248347Y-103080527D01*
G37*
X144248347Y-103080527D02*
X144405916Y-103460933D01*
X144697067Y-103752084D01*
X145077473Y-103909653D01*
X145489221Y-103909653D01*
X145869627Y-103752084D01*
X145990455Y-103631256D01*
X147301000Y-104941802D01*
X147301000Y-105107874D01*
X147458569Y-105488280D01*
X147749720Y-105779431D01*
X147779644Y-105791826D01*
X147756348Y-105826691D01*
X147687663Y-106172000D01*
X147705001Y-106259165D01*
X147705000Y-108654313D01*
X147415853Y-108943460D01*
X147205000Y-109452506D01*
X147205000Y-110003494D01*
X147301001Y-110235261D01*
X147301000Y-111935571D01*
X147265375Y-111959375D01*
X147066000Y-112257761D01*
X146866625Y-111959375D01*
X146831000Y-111935571D01*
X146831000Y-110235259D01*
X146927000Y-110003494D01*
X146927000Y-109452506D01*
X146716147Y-108943460D01*
X146326540Y-108553853D01*
X145817494Y-108343000D01*
X145266506Y-108343000D01*
X144757460Y-108553853D01*
X144367853Y-108943460D01*
X144157000Y-109452506D01*
X144157000Y-110003494D01*
X144367853Y-110512540D01*
X144757460Y-110902147D01*
X144761001Y-110903614D01*
X144761000Y-111935571D01*
X144725375Y-111959375D01*
X144526000Y-112257761D01*
X144326625Y-111959375D01*
X143835418Y-111631161D01*
X143402256Y-111545000D01*
X143109744Y-111545000D01*
X142889593Y-111588791D01*
X142322331Y-111021530D01*
X142279929Y-110958071D01*
X142028537Y-110790096D01*
X141806852Y-110746000D01*
X141806847Y-110746000D01*
X141732000Y-110731112D01*
X141657153Y-110746000D01*
X140522802Y-110746000D01*
X139284999Y-109508198D01*
X139284999Y-107603543D01*
X139553744Y-107657000D01*
X139846256Y-107657000D01*
X140279418Y-107570839D01*
X140770625Y-107242625D01*
X140970000Y-106944239D01*
X141169375Y-107242625D01*
X141660582Y-107570839D01*
X142093744Y-107657000D01*
X142386256Y-107657000D01*
X142819418Y-107570839D01*
X143310625Y-107242625D01*
X143523843Y-106923522D01*
X143584817Y-107053358D01*
X144013076Y-107443645D01*
X144423110Y-107613476D01*
X144653000Y-107492155D01*
X144653000Y-106299000D01*
X144907000Y-106299000D01*
X144907000Y-107492155D01*
X145136890Y-107613476D01*
X145546924Y-107443645D01*
X145975183Y-107053358D01*
X146221486Y-106528892D01*
X146100819Y-106299000D01*
X144907000Y-106299000D01*
X144653000Y-106299000D01*
X144633000Y-106299000D01*
X144633000Y-106045000D01*
X144653000Y-106045000D01*
X144653000Y-104851845D01*
X144907000Y-104851845D01*
X144907000Y-106045000D01*
X146100819Y-106045000D01*
X146221486Y-105815108D01*
X145975183Y-105290642D01*
X145546924Y-104900355D01*
X145136890Y-104730524D01*
X144907000Y-104851845D01*
X144653000Y-104851845D01*
X144423110Y-104730524D01*
X144013076Y-104900355D01*
X143584817Y-105290642D01*
X143523843Y-105420478D01*
X143310625Y-105101375D01*
X142819418Y-104773161D01*
X142386256Y-104687000D01*
X142093744Y-104687000D01*
X141873592Y-104730791D01*
X141698523Y-104555722D01*
X141810280Y-104509431D01*
X142101431Y-104218280D01*
X142259000Y-103837874D01*
X142259000Y-103623196D01*
X142572280Y-103493431D01*
X142863431Y-103202280D01*
X142948461Y-102997000D01*
X144248347Y-102997000D01*
X144248347Y-103080527D01*
G36*
X163141863Y-87517574D02*
X163030191Y-87592191D01*
X162889843Y-87802235D01*
X162840560Y-88050000D01*
X162840560Y-89750000D01*
X162889843Y-89997765D01*
X163030191Y-90207809D01*
X163240235Y-90348157D01*
X163285619Y-90357184D01*
X163267375Y-90369375D01*
X162939161Y-90860582D01*
X162823908Y-91440000D01*
X162939161Y-92019418D01*
X163267375Y-92510625D01*
X163586478Y-92723843D01*
X163456642Y-92784817D01*
X163066355Y-93213076D01*
X162896524Y-93623110D01*
X163017845Y-93853000D01*
X164211000Y-93853000D01*
X164211000Y-93833000D01*
X164465000Y-93833000D01*
X164465000Y-93853000D01*
X164485000Y-93853000D01*
X164485000Y-94107000D01*
X164465000Y-94107000D01*
X164465000Y-94127000D01*
X164211000Y-94127000D01*
X164211000Y-94107000D01*
X163017845Y-94107000D01*
X162896524Y-94336890D01*
X163066355Y-94746924D01*
X163456642Y-95175183D01*
X163586478Y-95236157D01*
X163267375Y-95449375D01*
X162939161Y-95940582D01*
X162823908Y-96520000D01*
X162939161Y-97099418D01*
X163267375Y-97590625D01*
X163565761Y-97790000D01*
X163267375Y-97989375D01*
X162939161Y-98480582D01*
X162832020Y-99019219D01*
X162558000Y-98745199D01*
X162558000Y-95953711D01*
X162675431Y-95836280D01*
X162833000Y-95455874D01*
X162833000Y-95044126D01*
X162675431Y-94663720D01*
X162384280Y-94372569D01*
X162003874Y-94215000D01*
X161592126Y-94215000D01*
X161211720Y-94372569D01*
X160920569Y-94663720D01*
X160763000Y-95044126D01*
X160763000Y-95455874D01*
X160920569Y-95836280D01*
X161038000Y-95953711D01*
X161038001Y-98985148D01*
X161023112Y-99060000D01*
X161082097Y-99356537D01*
X161202605Y-99536889D01*
X161250072Y-99607929D01*
X161313528Y-99650329D01*
X162896791Y-101233593D01*
X162823908Y-101600000D01*
X162939161Y-102179418D01*
X163267375Y-102670625D01*
X163493924Y-102822000D01*
X162893774Y-102822000D01*
X162814000Y-102806132D01*
X162683369Y-102832116D01*
X162497954Y-102868997D01*
X162230023Y-103048023D01*
X162184834Y-103115653D01*
X160257664Y-105042824D01*
X160190034Y-105088013D01*
X160144845Y-105155643D01*
X160011008Y-105355944D01*
X159948142Y-105671990D01*
X159964011Y-105751768D01*
X159964011Y-110121209D01*
X155700000Y-105857199D01*
X155700000Y-99622738D01*
X155748097Y-99864537D01*
X155868178Y-100044250D01*
X155916072Y-100115929D01*
X155979528Y-100158329D01*
X157054791Y-101233592D01*
X156981908Y-101600000D01*
X157097161Y-102179418D01*
X157425375Y-102670625D01*
X157916582Y-102998839D01*
X158349744Y-103085000D01*
X158642256Y-103085000D01*
X159075418Y-102998839D01*
X159566625Y-102670625D01*
X159894839Y-102179418D01*
X160010092Y-101600000D01*
X159894839Y-101020582D01*
X159566625Y-100529375D01*
X159268239Y-100330000D01*
X159566625Y-100130625D01*
X159894839Y-99639418D01*
X160010092Y-99060000D01*
X159894839Y-98480582D01*
X159566625Y-97989375D01*
X159268239Y-97790000D01*
X159566625Y-97590625D01*
X159894839Y-97099418D01*
X160010092Y-96520000D01*
X159894839Y-95940582D01*
X159566625Y-95449375D01*
X159268239Y-95250000D01*
X159566625Y-95050625D01*
X159894839Y-94559418D01*
X160010092Y-93980000D01*
X159894839Y-93400582D01*
X159566625Y-92909375D01*
X159268239Y-92710000D01*
X159566625Y-92510625D01*
X159894839Y-92019418D01*
X160010092Y-91440000D01*
X159894839Y-90860582D01*
X159566625Y-90369375D01*
X159544967Y-90354904D01*
X159705698Y-90288327D01*
X159884327Y-90109699D01*
X159981000Y-89876310D01*
X159981000Y-89185750D01*
X159822250Y-89027000D01*
X158623000Y-89027000D01*
X158623000Y-89047000D01*
X158369000Y-89047000D01*
X158369000Y-89027000D01*
X157169750Y-89027000D01*
X157011000Y-89185750D01*
X157011000Y-89876310D01*
X157107673Y-90109699D01*
X157286302Y-90288327D01*
X157447033Y-90354904D01*
X157425375Y-90369375D01*
X157097161Y-90860582D01*
X156981908Y-91440000D01*
X157054791Y-91806407D01*
X156785454Y-92075743D01*
X156664627Y-91954916D01*
X156284221Y-91797347D01*
X155872473Y-91797347D01*
X155492067Y-91954916D01*
X155321000Y-92125983D01*
X155321000Y-88204710D01*
X155602020Y-87923690D01*
X157011000Y-87923690D01*
X157011000Y-88614250D01*
X157169750Y-88773000D01*
X158369000Y-88773000D01*
X158369000Y-87573750D01*
X158623000Y-87573750D01*
X158623000Y-88773000D01*
X159822250Y-88773000D01*
X159981000Y-88614250D01*
X159981000Y-87923690D01*
X159884327Y-87690301D01*
X159705698Y-87511673D01*
X159472309Y-87415000D01*
X158781750Y-87415000D01*
X158623000Y-87573750D01*
X158369000Y-87573750D01*
X158210250Y-87415000D01*
X157519691Y-87415000D01*
X157286302Y-87511673D01*
X157107673Y-87690301D01*
X157011000Y-87923690D01*
X155602020Y-87923690D01*
X157400711Y-86125000D01*
X161749290Y-86125000D01*
X163141863Y-87517574D01*
X163141863Y-87517574D01*
G37*
X163141863Y-87517574D02*
X163030191Y-87592191D01*
X162889843Y-87802235D01*
X162840560Y-88050000D01*
X162840560Y-89750000D01*
X162889843Y-89997765D01*
X163030191Y-90207809D01*
X163240235Y-90348157D01*
X163285619Y-90357184D01*
X163267375Y-90369375D01*
X162939161Y-90860582D01*
X162823908Y-91440000D01*
X162939161Y-92019418D01*
X163267375Y-92510625D01*
X163586478Y-92723843D01*
X163456642Y-92784817D01*
X163066355Y-93213076D01*
X162896524Y-93623110D01*
X163017845Y-93853000D01*
X164211000Y-93853000D01*
X164211000Y-93833000D01*
X164465000Y-93833000D01*
X164465000Y-93853000D01*
X164485000Y-93853000D01*
X164485000Y-94107000D01*
X164465000Y-94107000D01*
X164465000Y-94127000D01*
X164211000Y-94127000D01*
X164211000Y-94107000D01*
X163017845Y-94107000D01*
X162896524Y-94336890D01*
X163066355Y-94746924D01*
X163456642Y-95175183D01*
X163586478Y-95236157D01*
X163267375Y-95449375D01*
X162939161Y-95940582D01*
X162823908Y-96520000D01*
X162939161Y-97099418D01*
X163267375Y-97590625D01*
X163565761Y-97790000D01*
X163267375Y-97989375D01*
X162939161Y-98480582D01*
X162832020Y-99019219D01*
X162558000Y-98745199D01*
X162558000Y-95953711D01*
X162675431Y-95836280D01*
X162833000Y-95455874D01*
X162833000Y-95044126D01*
X162675431Y-94663720D01*
X162384280Y-94372569D01*
X162003874Y-94215000D01*
X161592126Y-94215000D01*
X161211720Y-94372569D01*
X160920569Y-94663720D01*
X160763000Y-95044126D01*
X160763000Y-95455874D01*
X160920569Y-95836280D01*
X161038000Y-95953711D01*
X161038001Y-98985148D01*
X161023112Y-99060000D01*
X161082097Y-99356537D01*
X161202605Y-99536889D01*
X161250072Y-99607929D01*
X161313528Y-99650329D01*
X162896791Y-101233593D01*
X162823908Y-101600000D01*
X162939161Y-102179418D01*
X163267375Y-102670625D01*
X163493924Y-102822000D01*
X162893774Y-102822000D01*
X162814000Y-102806132D01*
X162683369Y-102832116D01*
X162497954Y-102868997D01*
X162230023Y-103048023D01*
X162184834Y-103115653D01*
X160257664Y-105042824D01*
X160190034Y-105088013D01*
X160144845Y-105155643D01*
X160011008Y-105355944D01*
X159948142Y-105671990D01*
X159964011Y-105751768D01*
X159964011Y-110121209D01*
X155700000Y-105857199D01*
X155700000Y-99622738D01*
X155748097Y-99864537D01*
X155868178Y-100044250D01*
X155916072Y-100115929D01*
X155979528Y-100158329D01*
X157054791Y-101233592D01*
X156981908Y-101600000D01*
X157097161Y-102179418D01*
X157425375Y-102670625D01*
X157916582Y-102998839D01*
X158349744Y-103085000D01*
X158642256Y-103085000D01*
X159075418Y-102998839D01*
X159566625Y-102670625D01*
X159894839Y-102179418D01*
X160010092Y-101600000D01*
X159894839Y-101020582D01*
X159566625Y-100529375D01*
X159268239Y-100330000D01*
X159566625Y-100130625D01*
X159894839Y-99639418D01*
X160010092Y-99060000D01*
X159894839Y-98480582D01*
X159566625Y-97989375D01*
X159268239Y-97790000D01*
X159566625Y-97590625D01*
X159894839Y-97099418D01*
X160010092Y-96520000D01*
X159894839Y-95940582D01*
X159566625Y-95449375D01*
X159268239Y-95250000D01*
X159566625Y-95050625D01*
X159894839Y-94559418D01*
X160010092Y-93980000D01*
X159894839Y-93400582D01*
X159566625Y-92909375D01*
X159268239Y-92710000D01*
X159566625Y-92510625D01*
X159894839Y-92019418D01*
X160010092Y-91440000D01*
X159894839Y-90860582D01*
X159566625Y-90369375D01*
X159544967Y-90354904D01*
X159705698Y-90288327D01*
X159884327Y-90109699D01*
X159981000Y-89876310D01*
X159981000Y-89185750D01*
X159822250Y-89027000D01*
X158623000Y-89027000D01*
X158623000Y-89047000D01*
X158369000Y-89047000D01*
X158369000Y-89027000D01*
X157169750Y-89027000D01*
X157011000Y-89185750D01*
X157011000Y-89876310D01*
X157107673Y-90109699D01*
X157286302Y-90288327D01*
X157447033Y-90354904D01*
X157425375Y-90369375D01*
X157097161Y-90860582D01*
X156981908Y-91440000D01*
X157054791Y-91806407D01*
X156785454Y-92075743D01*
X156664627Y-91954916D01*
X156284221Y-91797347D01*
X155872473Y-91797347D01*
X155492067Y-91954916D01*
X155321000Y-92125983D01*
X155321000Y-88204710D01*
X155602020Y-87923690D01*
X157011000Y-87923690D01*
X157011000Y-88614250D01*
X157169750Y-88773000D01*
X158369000Y-88773000D01*
X158369000Y-87573750D01*
X158623000Y-87573750D01*
X158623000Y-88773000D01*
X159822250Y-88773000D01*
X159981000Y-88614250D01*
X159981000Y-87923690D01*
X159884327Y-87690301D01*
X159705698Y-87511673D01*
X159472309Y-87415000D01*
X158781750Y-87415000D01*
X158623000Y-87573750D01*
X158369000Y-87573750D01*
X158210250Y-87415000D01*
X157519691Y-87415000D01*
X157286302Y-87511673D01*
X157107673Y-87690301D01*
X157011000Y-87923690D01*
X155602020Y-87923690D01*
X157400711Y-86125000D01*
X161749290Y-86125000D01*
X163141863Y-87517574D01*
G36*
X125843000Y-108585000D02*
X125865000Y-108585000D01*
X125865000Y-108839000D01*
X125843000Y-108839000D01*
X125843000Y-109638250D01*
X125928974Y-109724224D01*
X125669199Y-109984000D01*
X125028802Y-109984000D01*
X124978000Y-109933199D01*
X124978000Y-109570026D01*
X125108302Y-109700327D01*
X125341691Y-109797000D01*
X125434250Y-109797000D01*
X125593000Y-109638250D01*
X125593000Y-108839000D01*
X125571000Y-108839000D01*
X125571000Y-108585000D01*
X125593000Y-108585000D01*
X125593000Y-108565000D01*
X125843000Y-108565000D01*
X125843000Y-108585000D01*
X125843000Y-108585000D01*
G37*
X125843000Y-108585000D02*
X125865000Y-108585000D01*
X125865000Y-108839000D01*
X125843000Y-108839000D01*
X125843000Y-109638250D01*
X125928974Y-109724224D01*
X125669199Y-109984000D01*
X125028802Y-109984000D01*
X124978000Y-109933199D01*
X124978000Y-109570026D01*
X125108302Y-109700327D01*
X125341691Y-109797000D01*
X125434250Y-109797000D01*
X125593000Y-109638250D01*
X125593000Y-108839000D01*
X125571000Y-108839000D01*
X125571000Y-108585000D01*
X125593000Y-108585000D01*
X125593000Y-108565000D01*
X125843000Y-108565000D01*
X125843000Y-108585000D01*
G36*
X121643000Y-103754000D02*
X121529750Y-103754000D01*
X121371000Y-103912750D01*
X121371000Y-104587000D01*
X121391000Y-104587000D01*
X121391000Y-104691560D01*
X121097000Y-104691560D01*
X121097000Y-104587000D01*
X121117000Y-104587000D01*
X121117000Y-103912750D01*
X120958250Y-103754000D01*
X120673000Y-103754000D01*
X120673000Y-102940157D01*
X120990717Y-102622440D01*
X121328000Y-102622440D01*
X121575765Y-102573157D01*
X121643001Y-102528231D01*
X121643000Y-103754000D01*
X121643000Y-103754000D01*
G37*
X121643000Y-103754000D02*
X121529750Y-103754000D01*
X121371000Y-103912750D01*
X121371000Y-104587000D01*
X121391000Y-104587000D01*
X121391000Y-104691560D01*
X121097000Y-104691560D01*
X121097000Y-104587000D01*
X121117000Y-104587000D01*
X121117000Y-103912750D01*
X120958250Y-103754000D01*
X120673000Y-103754000D01*
X120673000Y-102940157D01*
X120990717Y-102622440D01*
X121328000Y-102622440D01*
X121575765Y-102573157D01*
X121643001Y-102528231D01*
X121643000Y-103754000D01*
G36*
X127997000Y-99320000D02*
X127817750Y-99320000D01*
X127659000Y-99478750D01*
X127659000Y-100203000D01*
X127679000Y-100203000D01*
X127679000Y-100457000D01*
X127659000Y-100457000D01*
X127659000Y-101181250D01*
X127817750Y-101340000D01*
X128058309Y-101340000D01*
X128272001Y-101251486D01*
X128272000Y-102202514D01*
X128058309Y-102114000D01*
X127817750Y-102114000D01*
X127659000Y-102272750D01*
X127659000Y-102997000D01*
X127679000Y-102997000D01*
X127679000Y-103251000D01*
X127659000Y-103251000D01*
X127659000Y-103271000D01*
X127462745Y-103271000D01*
X127385000Y-103083307D01*
X127385000Y-102997000D01*
X127405000Y-102997000D01*
X127405000Y-102272750D01*
X127246250Y-102114000D01*
X127005691Y-102114000D01*
X126772302Y-102210673D01*
X126593673Y-102389301D01*
X126507641Y-102597000D01*
X126373440Y-102597000D01*
X126373440Y-102166000D01*
X126324157Y-101918235D01*
X126236000Y-101786300D01*
X126236000Y-100615750D01*
X126497000Y-100615750D01*
X126497000Y-100831310D01*
X126593673Y-101064699D01*
X126772302Y-101243327D01*
X127005691Y-101340000D01*
X127246250Y-101340000D01*
X127405000Y-101181250D01*
X127405000Y-100457000D01*
X126655750Y-100457000D01*
X126497000Y-100615750D01*
X126236000Y-100615750D01*
X126236000Y-100271711D01*
X126353431Y-100154280D01*
X126488294Y-99828690D01*
X126497000Y-99828690D01*
X126497000Y-100044250D01*
X126655750Y-100203000D01*
X127405000Y-100203000D01*
X127405000Y-99478750D01*
X127246250Y-99320000D01*
X127005691Y-99320000D01*
X126772302Y-99416673D01*
X126593673Y-99595301D01*
X126497000Y-99828690D01*
X126488294Y-99828690D01*
X126511000Y-99773874D01*
X126511000Y-99362126D01*
X126490237Y-99312000D01*
X127997000Y-99312000D01*
X127997000Y-99320000D01*
X127997000Y-99320000D01*
G37*
X127997000Y-99320000D02*
X127817750Y-99320000D01*
X127659000Y-99478750D01*
X127659000Y-100203000D01*
X127679000Y-100203000D01*
X127679000Y-100457000D01*
X127659000Y-100457000D01*
X127659000Y-101181250D01*
X127817750Y-101340000D01*
X128058309Y-101340000D01*
X128272001Y-101251486D01*
X128272000Y-102202514D01*
X128058309Y-102114000D01*
X127817750Y-102114000D01*
X127659000Y-102272750D01*
X127659000Y-102997000D01*
X127679000Y-102997000D01*
X127679000Y-103251000D01*
X127659000Y-103251000D01*
X127659000Y-103271000D01*
X127462745Y-103271000D01*
X127385000Y-103083307D01*
X127385000Y-102997000D01*
X127405000Y-102997000D01*
X127405000Y-102272750D01*
X127246250Y-102114000D01*
X127005691Y-102114000D01*
X126772302Y-102210673D01*
X126593673Y-102389301D01*
X126507641Y-102597000D01*
X126373440Y-102597000D01*
X126373440Y-102166000D01*
X126324157Y-101918235D01*
X126236000Y-101786300D01*
X126236000Y-100615750D01*
X126497000Y-100615750D01*
X126497000Y-100831310D01*
X126593673Y-101064699D01*
X126772302Y-101243327D01*
X127005691Y-101340000D01*
X127246250Y-101340000D01*
X127405000Y-101181250D01*
X127405000Y-100457000D01*
X126655750Y-100457000D01*
X126497000Y-100615750D01*
X126236000Y-100615750D01*
X126236000Y-100271711D01*
X126353431Y-100154280D01*
X126488294Y-99828690D01*
X126497000Y-99828690D01*
X126497000Y-100044250D01*
X126655750Y-100203000D01*
X127405000Y-100203000D01*
X127405000Y-99478750D01*
X127246250Y-99320000D01*
X127005691Y-99320000D01*
X126772302Y-99416673D01*
X126593673Y-99595301D01*
X126497000Y-99828690D01*
X126488294Y-99828690D01*
X126511000Y-99773874D01*
X126511000Y-99362126D01*
X126490237Y-99312000D01*
X127997000Y-99312000D01*
X127997000Y-99320000D01*
G04 #@! TD*
M02*
