M48
;DRILL file {KiCad (5.0.2)-1} date 2019-03-06 11:00:30 PM
;FORMAT={3:3/ absolute / metric / suppress leading zeros}
FMAT,2
METRIC,TZ
T1C0.400
T2C1.000
T3C1.470
T4C3.000
T5C3.200
%
G90
G05
T1
X107950Y-67564
X107950Y-72898
X107950Y-79248
X107950Y-85090
X107950Y-90678
X107950Y-96266
X107950Y-102108
X107950Y-107950
X107950Y-113792
X114046Y-60452
X114808Y-94742
X116078Y-103378
X116332Y-118110
X119380Y-94742
X119888Y-60452
X121158Y-103124
X123444Y-84582
X123698Y-110998
X123957Y-100589
X124206Y-118110
X125476Y-87122
X125476Y-99568
X125476Y-109982
X126238Y-60452
X126492Y-103632
X127508Y-109728
X127508Y-112776
X128016Y-101854
X128524Y-86868
X129032Y-99277
X130556Y-94488
X130810Y-82550
X130810Y-100330
X131064Y-84494
X131821Y-94737
X131826Y-118110
X132334Y-60452
X132583Y-100589
X132842Y-81026
X133858Y-87122
X134366Y-78486
X134366Y-89408
X134620Y-85344
X134874Y-100584
X135890Y-103632
X136786Y-84970
X136906Y-79756
X137419Y-103129
X137922Y-82042
X138430Y-85344
X138938Y-60452
X139446Y-118110
X140208Y-94996
X140716Y-91440
X141224Y-103632
X141478Y-88900
X141478Y-90678
X141478Y-93472
X141986Y-102616
X142494Y-89662
X143002Y-90678
X143510Y-84074
X143801Y-78251
X144272Y-88900
X144272Y-92964
X144272Y-97028
X144526Y-73914
X145283Y-102875
X145288Y-60452
X145288Y-78232
X145796Y-88900
X146050Y-90424
X146558Y-85344
X146558Y-94234
X146558Y-96012
X146558Y-118110
X146812Y-92710
X147066Y-91186
X147320Y-97282
X148336Y-104902
X149098Y-85344
X149098Y-104140
X149352Y-86868
X150622Y-101346
X150622Y-104140
X150876Y-81026
X150876Y-97282
X151638Y-102616
X151892Y-60452
X151892Y-79248
X152146Y-97282
X152400Y-89408
X152649Y-108717
X152654Y-81026
X152654Y-90678
X152654Y-118110
X152908Y-101150
X152908Y-104902
X153162Y-92456
X153670Y-86360
X153924Y-97028
X154178Y-92202
X154940Y-97536
X155194Y-83058
X156078Y-92832
X159004Y-60452
X159766Y-118110
X161798Y-95250
X162814Y-83820
X167894Y-67056
X167894Y-72898
X167894Y-78232
X167894Y-84074
X167894Y-90424
X167894Y-97790
X167894Y-105918
X167894Y-111760
T2
X128802Y-67086
X128802Y-70086
X131802Y-67086
X131802Y-70086
X130556Y-113030
X130556Y-115570
X133096Y-113030
X133096Y-115570
X135636Y-113030
X135636Y-115570
X138176Y-113030
X138176Y-115570
X140716Y-113030
X140716Y-115570
X143256Y-113030
X143256Y-115570
X145796Y-113030
X145796Y-115570
X148336Y-113030
X148336Y-115570
X150876Y-113030
X150876Y-115570
X153416Y-113030
X153416Y-115570
X155956Y-113030
X155956Y-115570
X158496Y-113030
X158496Y-115570
X158496Y-88900
X158496Y-91440
X158496Y-93980
X158496Y-96520
X158496Y-99060
X158496Y-101600
X132080Y-106172
X134620Y-106172
X137160Y-106172
X139700Y-106172
X142240Y-106172
X144780Y-106172
X164338Y-88900
X164338Y-91440
X164338Y-93980
X164338Y-96520
X164338Y-99060
X164338Y-101600
X116840Y-83312
X116840Y-85852
X116840Y-88392
X116840Y-90932
X116840Y-93472
X116840Y-96012
X116840Y-98552
X116840Y-101092
T3
X140542Y-64770
X145542Y-64770
T4
X130302Y-62766
T5
X112014Y-114046
X112014Y-64516
X164084Y-114046
X164084Y-64516
T0
M30
