G04 #@! TF.GenerationSoftware,KiCad,Pcbnew,(5.0.2)-1*
G04 #@! TF.CreationDate,2019-03-06T23:00:33-07:00*
G04 #@! TF.ProjectId,AndromedaV3,416e6472-6f6d-4656-9461-56332e6b6963,rev?*
G04 #@! TF.SameCoordinates,Original*
G04 #@! TF.FileFunction,Copper,L2,Bot*
G04 #@! TF.FilePolarity,Positive*
%FSLAX46Y46*%
G04 Gerber Fmt 4.6, Leading zero omitted, Abs format (unit mm)*
G04 Created by KiCad (PCBNEW (5.0.2)-1) date 2019-03-06 11:00:33 PM*
%MOMM*%
%LPD*%
G01*
G04 APERTURE LIST*
G04 #@! TA.AperFunction,ComponentPad*
%ADD10R,2.400000X2.400000*%
G04 #@! TD*
G04 #@! TA.AperFunction,ComponentPad*
%ADD11C,2.400000*%
G04 #@! TD*
G04 #@! TA.AperFunction,ComponentPad*
%ADD12R,1.700000X1.700000*%
G04 #@! TD*
G04 #@! TA.AperFunction,ComponentPad*
%ADD13O,1.700000X1.700000*%
G04 #@! TD*
G04 #@! TA.AperFunction,ComponentPad*
%ADD14C,1.500000*%
G04 #@! TD*
G04 #@! TA.AperFunction,ViaPad*
%ADD15C,0.800000*%
G04 #@! TD*
G04 #@! TA.AperFunction,Conductor*
%ADD16C,0.250000*%
G04 #@! TD*
G04 #@! TA.AperFunction,Conductor*
%ADD17C,0.300000*%
G04 #@! TD*
G04 #@! TA.AperFunction,Conductor*
%ADD18C,0.500000*%
G04 #@! TD*
G04 #@! TA.AperFunction,Conductor*
%ADD19C,0.350000*%
G04 #@! TD*
G04 #@! TA.AperFunction,Conductor*
%ADD20C,0.254000*%
G04 #@! TD*
G04 APERTURE END LIST*
D10*
G04 #@! TO.P,J1,1*
G04 #@! TO.N,Net-(J1-Pad1)*
X140542000Y-64770000D03*
D11*
G04 #@! TO.P,J1,2*
G04 #@! TO.N,Net-(J1-Pad2)*
X145542000Y-64770000D03*
G04 #@! TD*
D12*
G04 #@! TO.P,J2,1*
G04 #@! TO.N,+3V3*
X116840000Y-83312000D03*
D13*
G04 #@! TO.P,J2,2*
G04 #@! TO.N,AG_~CS*
X116840000Y-85852000D03*
G04 #@! TO.P,J2,3*
G04 #@! TO.N,SPI1_SCK*
X116840000Y-88392000D03*
G04 #@! TO.P,J2,4*
G04 #@! TO.N,SPI1_MISO*
X116840000Y-90932000D03*
G04 #@! TO.P,J2,5*
G04 #@! TO.N,SPI1_MOSI*
X116840000Y-93472000D03*
G04 #@! TO.P,J2,6*
G04 #@! TO.N,MAG_~CS*
X116840000Y-96012000D03*
G04 #@! TO.P,J2,7*
G04 #@! TO.N,UART3_TX*
X116840000Y-98552000D03*
G04 #@! TO.P,J2,8*
G04 #@! TO.N,UART3_RX*
X116840000Y-101092000D03*
G04 #@! TD*
D12*
G04 #@! TO.P,J3,1*
G04 #@! TO.N,Accel_~CS*
X132080000Y-106172000D03*
D13*
G04 #@! TO.P,J3,2*
G04 #@! TO.N,SPI2_SCK*
X134620000Y-106172000D03*
G04 #@! TO.P,J3,3*
G04 #@! TO.N,SPI2_MISO*
X137160000Y-106172000D03*
G04 #@! TO.P,J3,4*
G04 #@! TO.N,SPI2_MOSI*
X139700000Y-106172000D03*
G04 #@! TO.P,J3,5*
G04 #@! TO.N,BARO_~CS*
X142240000Y-106172000D03*
G04 #@! TO.P,J3,6*
G04 #@! TO.N,GND*
X144780000Y-106172000D03*
G04 #@! TD*
D12*
G04 #@! TO.P,J4,1*
G04 #@! TO.N,GND*
X158496000Y-88900000D03*
D13*
G04 #@! TO.P,J4,2*
G04 #@! TO.N,SD2_~CS*
X158496000Y-91440000D03*
G04 #@! TO.P,J4,3*
G04 #@! TO.N,SPI3_MOSI*
X158496000Y-93980000D03*
G04 #@! TO.P,J4,4*
G04 #@! TO.N,SPI3_MISO*
X158496000Y-96520000D03*
G04 #@! TO.P,J4,5*
G04 #@! TO.N,SPI3_SCK*
X158496000Y-99060000D03*
G04 #@! TO.P,J4,6*
G04 #@! TO.N,SD1_~CS*
X158496000Y-101600000D03*
G04 #@! TD*
D12*
G04 #@! TO.P,J5,1*
G04 #@! TO.N,+3V3*
X164338000Y-88900000D03*
D13*
G04 #@! TO.P,J5,2*
G04 #@! TO.N,SWCLK*
X164338000Y-91440000D03*
G04 #@! TO.P,J5,3*
G04 #@! TO.N,GND*
X164338000Y-93980000D03*
G04 #@! TO.P,J5,4*
G04 #@! TO.N,SWDIO*
X164338000Y-96520000D03*
G04 #@! TO.P,J5,5*
G04 #@! TO.N,NRST*
X164338000Y-99060000D03*
G04 #@! TO.P,J5,6*
G04 #@! TO.N,SWO*
X164338000Y-101600000D03*
G04 #@! TD*
D14*
G04 #@! TO.P,J6,1*
G04 #@! TO.N,LAUNCH*
X128802000Y-67086000D03*
G04 #@! TO.P,J6,2*
G04 #@! TO.N,UART2_TX*
X131802000Y-67086000D03*
G04 #@! TO.P,J6,3*
G04 #@! TO.N,UART2_RX*
X128802000Y-70086000D03*
G04 #@! TO.P,J6,4*
G04 #@! TO.N,GND*
X131802000Y-70086000D03*
G04 #@! TD*
D13*
G04 #@! TO.P,J7,24*
G04 #@! TO.N,RECOVERY_2*
X130556000Y-115570000D03*
G04 #@! TO.P,J7,12*
G04 #@! TO.N,GND*
X130556000Y-113030000D03*
G04 #@! TO.P,J7,23*
G04 #@! TO.N,RECOVERY_1*
X133096000Y-115570000D03*
G04 #@! TO.P,J7,11*
G04 #@! TO.N,GND*
X133096000Y-113030000D03*
G04 #@! TO.P,J7,22*
X135636000Y-115570000D03*
G04 #@! TO.P,J7,10*
G04 #@! TO.N,+BATT*
X135636000Y-113030000D03*
G04 #@! TO.P,J7,21*
G04 #@! TO.N,+3V3*
X138176000Y-115570000D03*
G04 #@! TO.P,J7,9*
G04 #@! TO.N,Net-(J7-Pad9)*
X138176000Y-113030000D03*
G04 #@! TO.P,J7,20*
G04 #@! TO.N,UART4_RX*
X140716000Y-115570000D03*
G04 #@! TO.P,J7,8*
G04 #@! TO.N,ADC2*
X140716000Y-113030000D03*
G04 #@! TO.P,J7,19*
G04 #@! TO.N,UART4_TX*
X143256000Y-115570000D03*
G04 #@! TO.P,J7,7*
G04 #@! TO.N,ADC1*
X143256000Y-113030000D03*
G04 #@! TO.P,J7,18*
G04 #@! TO.N,GND*
X145796000Y-115570000D03*
G04 #@! TO.P,J7,6*
G04 #@! TO.N,+5V*
X145796000Y-113030000D03*
G04 #@! TO.P,J7,17*
G04 #@! TO.N,GND*
X148336000Y-115570000D03*
G04 #@! TO.P,J7,5*
G04 #@! TO.N,+3V3*
X148336000Y-113030000D03*
G04 #@! TO.P,J7,16*
G04 #@! TO.N,GND*
X150876000Y-115570000D03*
G04 #@! TO.P,J7,4*
X150876000Y-113030000D03*
G04 #@! TO.P,J7,15*
G04 #@! TO.N,+5V*
X153416000Y-115570000D03*
G04 #@! TO.P,J7,3*
G04 #@! TO.N,PROPULSION3*
X153416000Y-113030000D03*
G04 #@! TO.P,J7,14*
G04 #@! TO.N,UART1_RX*
X155956000Y-115570000D03*
G04 #@! TO.P,J7,2*
G04 #@! TO.N,PROPULSION2*
X155956000Y-113030000D03*
G04 #@! TO.P,J7,13*
G04 #@! TO.N,UART1_TX*
X158496000Y-115570000D03*
D12*
G04 #@! TO.P,J7,1*
G04 #@! TO.N,PROPULSION1*
X158496000Y-113030000D03*
G04 #@! TD*
D15*
G04 #@! TO.N,GND*
X107950000Y-107950000D03*
X107950000Y-102108000D03*
X107950000Y-96266000D03*
X107950000Y-90678000D03*
X107950000Y-85090000D03*
X107950000Y-79248000D03*
X107950000Y-72898000D03*
X107950000Y-67564000D03*
X151892000Y-79248000D03*
X147066000Y-91186000D03*
X152400000Y-89408000D03*
X130810000Y-100330000D03*
X152908000Y-101149999D03*
X151638000Y-102616000D03*
X152908000Y-104902000D03*
X128016000Y-101854000D03*
X121158000Y-103124000D03*
X116078000Y-103378000D03*
X125476000Y-109982000D03*
X123698000Y-110998000D03*
X149352000Y-86868000D03*
X136906000Y-79756000D03*
X134366000Y-78486000D03*
X131064000Y-84494000D03*
X130810000Y-82550000D03*
X114046000Y-60452000D03*
X119888000Y-60452000D03*
X126238000Y-60452000D03*
X132334000Y-60452000D03*
X138938000Y-60452000D03*
X145288000Y-60452000D03*
X151892000Y-60452000D03*
X159004000Y-60452000D03*
X167894000Y-67056000D03*
X167894000Y-72898000D03*
X167894000Y-78232000D03*
X167894000Y-84074000D03*
X167894000Y-90424000D03*
X167894000Y-97790000D03*
X167894000Y-105918000D03*
X167894000Y-111760000D03*
X159766000Y-118110000D03*
X152654000Y-118110000D03*
X146558000Y-118110000D03*
X139446000Y-118110000D03*
X131826000Y-118110000D03*
X124206000Y-118110000D03*
X116332000Y-118110000D03*
X107950000Y-113792000D03*
X146050000Y-90424000D03*
X145796000Y-88900000D03*
X144272000Y-88900000D03*
X142494000Y-89662000D03*
X143002000Y-90678000D03*
X141478000Y-93472000D03*
X140208000Y-94996000D03*
X144272000Y-97028000D03*
X146558000Y-96012000D03*
X146558000Y-94234000D03*
X144272000Y-92964000D03*
G04 #@! TO.N,+5V*
X127508000Y-109728000D03*
X127508000Y-112776000D03*
X129032000Y-99277000D03*
X125476000Y-99568000D03*
X128524000Y-86868000D03*
X125476000Y-87122000D03*
G04 #@! TO.N,+3V3*
X150622000Y-101346000D03*
X150622000Y-104140000D03*
X123444000Y-84582000D03*
X134620000Y-85344000D03*
X137922000Y-82042000D03*
X143801000Y-78251337D03*
X145288000Y-78232000D03*
X150876000Y-81026000D03*
X152654000Y-81026000D03*
X134366000Y-89408000D03*
X133858000Y-87122000D03*
X152146000Y-97282000D03*
X152654000Y-90678000D03*
X155194000Y-83058000D03*
X153670000Y-86360000D03*
G04 #@! TO.N,UART2_RX*
X132842000Y-81026000D03*
X136786011Y-84970011D03*
G04 #@! TO.N,UART2_TX*
X138430000Y-85344000D03*
G04 #@! TO.N,LAUNCH*
X141478000Y-88900000D03*
G04 #@! TO.N,SWCLK*
X150876000Y-97282000D03*
G04 #@! TO.N,SWDIO*
X147320000Y-97282000D03*
G04 #@! TO.N,NRST*
X162814000Y-83820000D03*
X143510000Y-84074000D03*
G04 #@! TO.N,SWO*
X161798000Y-95250000D03*
X156078347Y-92832347D03*
G04 #@! TO.N,RECOVERY_2*
X141986000Y-102616000D03*
G04 #@! TO.N,RECOVERY_1*
X141224000Y-103632000D03*
G04 #@! TO.N,UART4_RX*
X140716000Y-91440000D03*
G04 #@! TO.N,ADC2*
X131821347Y-94737347D03*
X135890000Y-103632000D03*
G04 #@! TO.N,UART4_TX*
X141478000Y-90678000D03*
G04 #@! TO.N,ADC1*
X130556000Y-94488000D03*
X132583347Y-100588653D03*
X134874000Y-100584000D03*
X137418653Y-103128653D03*
G04 #@! TO.N,PROPULSION3*
X145283347Y-102874653D03*
G04 #@! TO.N,UART1_RX*
X154178000Y-92202000D03*
X154940000Y-97536000D03*
G04 #@! TO.N,PROPULSION2*
X149098000Y-104140000D03*
G04 #@! TO.N,UART1_TX*
X153162000Y-92456000D03*
X153924000Y-97028000D03*
G04 #@! TO.N,PROPULSION1*
X148336000Y-104902000D03*
X152649347Y-108716653D03*
G04 #@! TO.N,Fan_ctrl*
X146812000Y-92710000D03*
X144526000Y-73914000D03*
G04 #@! TO.N,LED1*
X114808000Y-94742000D03*
X119380000Y-94742000D03*
G04 #@! TO.N,Net-(C6-Pad1)*
X123956653Y-100588653D03*
X126492000Y-103632000D03*
G04 #@! TO.N,Net-(R6-Pad2)*
X146558000Y-85344000D03*
X149098000Y-85344000D03*
G04 #@! TD*
D16*
G04 #@! TO.N,GND*
X107950000Y-107950000D02*
X107950000Y-102108000D01*
X107950000Y-96266000D02*
X107950000Y-90678000D01*
X107950000Y-85090000D02*
X107950000Y-79248000D01*
X107950000Y-72898000D02*
X107950000Y-67564000D01*
X152908000Y-101149999D02*
X152908000Y-104902000D01*
X130810000Y-100330000D02*
X130810000Y-101346000D01*
X130810000Y-101346000D02*
X130302000Y-101854000D01*
X130302000Y-101854000D02*
X128016000Y-101854000D01*
X121158000Y-103124000D02*
X120396000Y-102362000D01*
X120396000Y-102362000D02*
X117094000Y-102362000D01*
X117094000Y-102362000D02*
X116078000Y-103378000D01*
X125476000Y-109982000D02*
X124460000Y-110998000D01*
X124460000Y-110998000D02*
X123698000Y-110998000D01*
X136906000Y-79756000D02*
X135636000Y-79756000D01*
X135636000Y-79756000D02*
X134366000Y-78486000D01*
X131064000Y-84494000D02*
X131064000Y-82804000D01*
X131064000Y-82804000D02*
X130810000Y-82550000D01*
X114046000Y-60452000D02*
X119888000Y-60452000D01*
X126238000Y-60452000D02*
X132334000Y-60452000D01*
X138938000Y-60452000D02*
X145288000Y-60452000D01*
X151892000Y-60452000D02*
X159004000Y-60452000D01*
X167894000Y-67056000D02*
X167894000Y-72898000D01*
X167894000Y-78232000D02*
X167894000Y-84074000D01*
X167894000Y-90424000D02*
X167894000Y-97790000D01*
X167894000Y-105918000D02*
X167894000Y-111760000D01*
X159766000Y-118110000D02*
X152654000Y-118110000D01*
X146558000Y-118110000D02*
X139446000Y-118110000D01*
X131826000Y-118110000D02*
X124206000Y-118110000D01*
X116332000Y-118110000D02*
X110490000Y-118110000D01*
X110490000Y-118110000D02*
X107950000Y-115570000D01*
X107950000Y-115570000D02*
X107950000Y-113792000D01*
X147066000Y-91186000D02*
X146812000Y-91186000D01*
X146812000Y-91186000D02*
X146050000Y-90424000D01*
X145796000Y-88900000D02*
X144272000Y-88900000D01*
X142494000Y-89662000D02*
X142494000Y-90170000D01*
X142494000Y-90170000D02*
X143002000Y-90678000D01*
X140912315Y-93472000D02*
X140208000Y-94176315D01*
X141478000Y-93472000D02*
X140912315Y-93472000D01*
X140208000Y-94176315D02*
X140208000Y-94996000D01*
X144272000Y-97028000D02*
X145542000Y-97028000D01*
X145542000Y-97028000D02*
X146558000Y-96012000D01*
X146558000Y-94234000D02*
X145288000Y-92964000D01*
X145288000Y-92964000D02*
X144272000Y-92964000D01*
D17*
G04 #@! TO.N,+5V*
X146645999Y-113879999D02*
X145796000Y-113030000D01*
X146996001Y-114230001D02*
X146645999Y-113879999D01*
X152076001Y-114230001D02*
X146996001Y-114230001D01*
X153416000Y-115570000D02*
X152076001Y-114230001D01*
X127508000Y-109728000D02*
X127508000Y-112776000D01*
D16*
X129032000Y-99277000D02*
X129032000Y-98711315D01*
X129032000Y-98711315D02*
X129032000Y-87884000D01*
X129032000Y-87884000D02*
X129032000Y-87376000D01*
X129032000Y-87376000D02*
X128778000Y-87122000D01*
X128778000Y-87122000D02*
X128524000Y-86868000D01*
X125476000Y-99568000D02*
X125476000Y-87122000D01*
D18*
G04 #@! TO.N,+3V3*
X150622000Y-104140000D02*
X150622000Y-101346000D01*
X123444000Y-84582000D02*
X124206000Y-85344000D01*
X124206000Y-85344000D02*
X134620000Y-85344000D01*
D17*
X138321999Y-81642001D02*
X138321999Y-80626001D01*
X137922000Y-82042000D02*
X138321999Y-81642001D01*
X138321999Y-80626001D02*
X140696663Y-78251337D01*
X140696663Y-78251337D02*
X143801000Y-78251337D01*
X145288000Y-78232000D02*
X146558000Y-79502000D01*
X146558000Y-79502000D02*
X149352000Y-79502000D01*
X149352000Y-79502000D02*
X150876000Y-81026000D01*
D16*
X134366000Y-89408000D02*
X133858000Y-88900000D01*
X133858000Y-88900000D02*
X133858000Y-87122000D01*
X152146000Y-97282000D02*
X152146000Y-91186000D01*
X152146000Y-91186000D02*
X152654000Y-90678000D01*
D19*
X152654000Y-81026000D02*
X153416000Y-81026000D01*
X153416000Y-81026000D02*
X155194000Y-82804000D01*
X155194000Y-82804000D02*
X155194000Y-83058000D01*
D16*
G04 #@! TO.N,UART2_RX*
X134112000Y-82296000D02*
X132842000Y-81026000D01*
X136786011Y-84970011D02*
X134112000Y-82296000D01*
G04 #@! TO.N,UART2_TX*
X133386999Y-68670999D02*
X131802000Y-67086000D01*
X138430000Y-85344000D02*
X133386999Y-80300999D01*
X133386999Y-80300999D02*
X133386999Y-68670999D01*
G04 #@! TO.N,LAUNCH*
X128052001Y-67835999D02*
X128802000Y-67086000D01*
X127726999Y-68161001D02*
X128052001Y-67835999D01*
X127726999Y-77180999D02*
X127726999Y-68161001D01*
X139446000Y-88900000D02*
X127726999Y-77180999D01*
X141478000Y-88900000D02*
X139446000Y-88900000D01*
G04 #@! TO.N,SWCLK*
X162814000Y-92964000D02*
X164338000Y-91440000D01*
X162814000Y-96774000D02*
X162814000Y-92964000D01*
X150876000Y-99314000D02*
X151384000Y-99822000D01*
X150876000Y-97282000D02*
X150876000Y-99314000D01*
X151384000Y-99822000D02*
X155956000Y-99822000D01*
X155956000Y-99822000D02*
X157988000Y-97790000D01*
X157988000Y-97790000D02*
X161798000Y-97790000D01*
X161798000Y-97790000D02*
X162814000Y-96774000D01*
G04 #@! TO.N,SWDIO*
X163488001Y-97369999D02*
X164338000Y-96520000D01*
X147320000Y-97282000D02*
X149098000Y-97282000D01*
X149098000Y-97282000D02*
X149860000Y-98044000D01*
X149860000Y-98044000D02*
X149860000Y-99314000D01*
X149860000Y-99314000D02*
X150970999Y-100424999D01*
X150970999Y-100424999D02*
X160433001Y-100424999D01*
X160433001Y-100424999D02*
X163488001Y-97369999D01*
G04 #@! TO.N,NRST*
X162814000Y-83820000D02*
X143764000Y-83820000D01*
X143764000Y-83820000D02*
X143510000Y-84074000D01*
G04 #@! TO.N,SWO*
X161798000Y-94742000D02*
X159860999Y-92804999D01*
X161798000Y-95250000D02*
X161798000Y-94742000D01*
X159860999Y-92804999D02*
X156105695Y-92804999D01*
X156105695Y-92804999D02*
X156078347Y-92832347D01*
G04 #@! TO.N,RECOVERY_2*
X131405999Y-114720001D02*
X130556000Y-115570000D01*
X131731001Y-114394999D02*
X131405999Y-114720001D01*
X131731001Y-112655997D02*
X131731001Y-114394999D01*
X135795001Y-105797997D02*
X135795001Y-108591997D01*
X138976998Y-102616000D02*
X135795001Y-105797997D01*
X135795001Y-108591997D02*
X131731001Y-112655997D01*
X141986000Y-102616000D02*
X138976998Y-102616000D01*
G04 #@! TO.N,RECOVERY_1*
X141224000Y-103632000D02*
X140208000Y-104648000D01*
X139484998Y-104648000D02*
X138430000Y-105702998D01*
X140208000Y-104648000D02*
X139484998Y-104648000D01*
X134271001Y-114394999D02*
X133945999Y-114720001D01*
X136010003Y-114394999D02*
X134271001Y-114394999D01*
X136811001Y-113594001D02*
X136010003Y-114394999D01*
X136811001Y-108260001D02*
X136811001Y-113594001D01*
X138430000Y-106641002D02*
X136811001Y-108260001D01*
X133945999Y-114720001D02*
X133096000Y-115570000D01*
X138430000Y-105702998D02*
X138430000Y-106641002D01*
G04 #@! TO.N,UART4_RX*
X141565999Y-114720001D02*
X140716000Y-115570000D01*
X141891001Y-114394999D02*
X141565999Y-114720001D01*
X141891001Y-112465999D02*
X141891001Y-114394999D01*
X141064999Y-105569001D02*
X141064999Y-111639997D01*
X141064999Y-111639997D02*
X141891001Y-112465999D01*
X142748000Y-103886000D02*
X141064999Y-105569001D01*
X142748000Y-93472000D02*
X142748000Y-103886000D01*
X140716000Y-91440000D02*
X142748000Y-93472000D01*
G04 #@! TO.N,ADC2*
X131821347Y-94737347D02*
X131064000Y-95494694D01*
X131064000Y-95494694D02*
X131064000Y-98044000D01*
X131064000Y-98044000D02*
X135890000Y-102870000D01*
X135890000Y-102870000D02*
X135890000Y-103632000D01*
G04 #@! TO.N,UART4_TX*
X141478000Y-90678000D02*
X143198010Y-92398010D01*
X143198010Y-92398010D02*
X143198010Y-105391008D01*
X144105999Y-114720001D02*
X143256000Y-115570000D01*
X143198010Y-105391008D02*
X143604999Y-105797997D01*
X143604999Y-105797997D02*
X143604999Y-111639997D01*
X143604999Y-111639997D02*
X144431001Y-112465999D01*
X144431001Y-114394999D02*
X144105999Y-114720001D01*
X144431001Y-112465999D02*
X144431001Y-114394999D01*
G04 #@! TO.N,ADC1*
X130556000Y-94488000D02*
X130556000Y-96831002D01*
X130556000Y-96831002D02*
X130556000Y-97536000D01*
X130556000Y-97536000D02*
X130556000Y-98561306D01*
X130556000Y-98561306D02*
X132583347Y-100588653D01*
X134874000Y-100584000D02*
X137418653Y-103128653D01*
G04 #@! TO.N,PROPULSION3*
X153416000Y-111007306D02*
X153416000Y-113030000D01*
X145283347Y-102874653D02*
X153416000Y-111007306D01*
G04 #@! TO.N,UART1_RX*
X154178000Y-92202000D02*
X154940000Y-92964000D01*
X154940000Y-92964000D02*
X154940000Y-97536000D01*
G04 #@! TO.N,PROPULSION2*
X155956000Y-110998000D02*
X155956000Y-113030000D01*
X149098000Y-104140000D02*
X155956000Y-110998000D01*
G04 #@! TO.N,UART1_TX*
X153162000Y-92456000D02*
X153924000Y-93218000D01*
X153924000Y-93218000D02*
X153924000Y-97028000D01*
G04 #@! TO.N,PROPULSION1*
X148336000Y-104902000D02*
X152150653Y-108716653D01*
X152150653Y-108716653D02*
X152649347Y-108716653D01*
G04 #@! TO.N,Fan_ctrl*
X144526000Y-81984998D02*
X144526000Y-73914000D01*
X142784999Y-83725999D02*
X144526000Y-81984998D01*
X146812000Y-92710000D02*
X142784999Y-88682999D01*
X142784999Y-88682999D02*
X142784999Y-83725999D01*
D17*
G04 #@! TO.N,LED1*
X117278001Y-94742000D02*
X114808000Y-94742000D01*
X119380000Y-94742000D02*
X117278001Y-94742000D01*
G04 #@! TO.N,Net-(C6-Pad1)*
X123956653Y-100588653D02*
X125988653Y-100588653D01*
X125988653Y-100588653D02*
X126492000Y-101092000D01*
X126492000Y-101092000D02*
X126492000Y-103632000D01*
D16*
G04 #@! TO.N,Net-(R6-Pad2)*
X146558000Y-85344000D02*
X149098000Y-85344000D01*
G04 #@! TD*
D20*
G04 #@! TO.N,GND*
G36*
X167946001Y-118162000D02*
X107898000Y-118162000D01*
X107898000Y-113601431D01*
X109779000Y-113601431D01*
X109779000Y-114490569D01*
X110119259Y-115312026D01*
X110747974Y-115940741D01*
X111569431Y-116281000D01*
X112458569Y-116281000D01*
X113280026Y-115940741D01*
X113908741Y-115312026D01*
X114249000Y-114490569D01*
X114249000Y-113601431D01*
X113908741Y-112779974D01*
X113280026Y-112151259D01*
X112458569Y-111811000D01*
X111569431Y-111811000D01*
X110747974Y-112151259D01*
X110119259Y-112779974D01*
X109779000Y-113601431D01*
X107898000Y-113601431D01*
X107898000Y-109522126D01*
X126473000Y-109522126D01*
X126473000Y-109933874D01*
X126630569Y-110314280D01*
X126723000Y-110406711D01*
X126723001Y-112097288D01*
X126630569Y-112189720D01*
X126473000Y-112570126D01*
X126473000Y-112981874D01*
X126630569Y-113362280D01*
X126921720Y-113653431D01*
X127302126Y-113811000D01*
X127713874Y-113811000D01*
X128094280Y-113653431D01*
X128385431Y-113362280D01*
X128543000Y-112981874D01*
X128543000Y-112673108D01*
X129114514Y-112673108D01*
X129235181Y-112903000D01*
X130429000Y-112903000D01*
X130429000Y-111709845D01*
X130199110Y-111588524D01*
X129789076Y-111758355D01*
X129360817Y-112148642D01*
X129114514Y-112673108D01*
X128543000Y-112673108D01*
X128543000Y-112570126D01*
X128385431Y-112189720D01*
X128293000Y-112097289D01*
X128293000Y-110406711D01*
X128385431Y-110314280D01*
X128543000Y-109933874D01*
X128543000Y-109522126D01*
X128385431Y-109141720D01*
X128094280Y-108850569D01*
X127713874Y-108693000D01*
X127302126Y-108693000D01*
X126921720Y-108850569D01*
X126630569Y-109141720D01*
X126473000Y-109522126D01*
X107898000Y-109522126D01*
X107898000Y-94536126D01*
X113773000Y-94536126D01*
X113773000Y-94947874D01*
X113930569Y-95328280D01*
X114221720Y-95619431D01*
X114602126Y-95777000D01*
X115013874Y-95777000D01*
X115394280Y-95619431D01*
X115406407Y-95607304D01*
X115325908Y-96012000D01*
X115441161Y-96591418D01*
X115769375Y-97082625D01*
X116067761Y-97282000D01*
X115769375Y-97481375D01*
X115441161Y-97972582D01*
X115325908Y-98552000D01*
X115441161Y-99131418D01*
X115769375Y-99622625D01*
X116067761Y-99822000D01*
X115769375Y-100021375D01*
X115441161Y-100512582D01*
X115325908Y-101092000D01*
X115441161Y-101671418D01*
X115769375Y-102162625D01*
X116260582Y-102490839D01*
X116693744Y-102577000D01*
X116986256Y-102577000D01*
X117419418Y-102490839D01*
X117910625Y-102162625D01*
X118238839Y-101671418D01*
X118354092Y-101092000D01*
X118238839Y-100512582D01*
X117910625Y-100021375D01*
X117612239Y-99822000D01*
X117910625Y-99622625D01*
X118238839Y-99131418D01*
X118354092Y-98552000D01*
X118238839Y-97972582D01*
X117910625Y-97481375D01*
X117612239Y-97282000D01*
X117910625Y-97082625D01*
X118238839Y-96591418D01*
X118354092Y-96012000D01*
X118257620Y-95527000D01*
X118701289Y-95527000D01*
X118793720Y-95619431D01*
X119174126Y-95777000D01*
X119585874Y-95777000D01*
X119966280Y-95619431D01*
X120257431Y-95328280D01*
X120415000Y-94947874D01*
X120415000Y-94536126D01*
X120257431Y-94155720D01*
X119966280Y-93864569D01*
X119585874Y-93707000D01*
X119174126Y-93707000D01*
X118793720Y-93864569D01*
X118701289Y-93957000D01*
X118257620Y-93957000D01*
X118354092Y-93472000D01*
X118238839Y-92892582D01*
X117910625Y-92401375D01*
X117612239Y-92202000D01*
X117910625Y-92002625D01*
X118238839Y-91511418D01*
X118354092Y-90932000D01*
X118238839Y-90352582D01*
X117910625Y-89861375D01*
X117612239Y-89662000D01*
X117910625Y-89462625D01*
X118238839Y-88971418D01*
X118354092Y-88392000D01*
X118238839Y-87812582D01*
X117910625Y-87321375D01*
X117612239Y-87122000D01*
X117910625Y-86922625D01*
X118238839Y-86431418D01*
X118354092Y-85852000D01*
X118238839Y-85272582D01*
X117910625Y-84781375D01*
X117892381Y-84769184D01*
X117937765Y-84760157D01*
X118147809Y-84619809D01*
X118288157Y-84409765D01*
X118294848Y-84376126D01*
X122409000Y-84376126D01*
X122409000Y-84787874D01*
X122566569Y-85168280D01*
X122857720Y-85459431D01*
X123219852Y-85609431D01*
X123518577Y-85908156D01*
X123567951Y-85982049D01*
X123641844Y-86031423D01*
X123641845Y-86031424D01*
X123772744Y-86118888D01*
X123860690Y-86177652D01*
X124118835Y-86229000D01*
X124118839Y-86229000D01*
X124206000Y-86246337D01*
X124293161Y-86229000D01*
X124927307Y-86229000D01*
X124889720Y-86244569D01*
X124598569Y-86535720D01*
X124441000Y-86916126D01*
X124441000Y-87327874D01*
X124598569Y-87708280D01*
X124716001Y-87825712D01*
X124716000Y-98864289D01*
X124598569Y-98981720D01*
X124441000Y-99362126D01*
X124441000Y-99669000D01*
X124162527Y-99553653D01*
X123750779Y-99553653D01*
X123370373Y-99711222D01*
X123079222Y-100002373D01*
X122921653Y-100382779D01*
X122921653Y-100794527D01*
X123079222Y-101174933D01*
X123370373Y-101466084D01*
X123750779Y-101623653D01*
X124162527Y-101623653D01*
X124542933Y-101466084D01*
X124635364Y-101373653D01*
X125663496Y-101373653D01*
X125707000Y-101417158D01*
X125707001Y-102953288D01*
X125614569Y-103045720D01*
X125457000Y-103426126D01*
X125457000Y-103837874D01*
X125614569Y-104218280D01*
X125905720Y-104509431D01*
X126286126Y-104667000D01*
X126697874Y-104667000D01*
X127078280Y-104509431D01*
X127369431Y-104218280D01*
X127527000Y-103837874D01*
X127527000Y-103426126D01*
X127369431Y-103045720D01*
X127277000Y-102953289D01*
X127277000Y-101169310D01*
X127292378Y-101091999D01*
X127277000Y-101014688D01*
X127277000Y-101014684D01*
X127231454Y-100785708D01*
X127105288Y-100596888D01*
X127101749Y-100591591D01*
X127101747Y-100591589D01*
X127057953Y-100526047D01*
X126992411Y-100482253D01*
X126598402Y-100088245D01*
X126554606Y-100022700D01*
X126439728Y-99945940D01*
X126511000Y-99773874D01*
X126511000Y-99362126D01*
X126353431Y-98981720D01*
X126236000Y-98864289D01*
X126236000Y-87825711D01*
X126353431Y-87708280D01*
X126511000Y-87327874D01*
X126511000Y-86916126D01*
X126353431Y-86535720D01*
X126062280Y-86244569D01*
X126024693Y-86229000D01*
X127699289Y-86229000D01*
X127646569Y-86281720D01*
X127489000Y-86662126D01*
X127489000Y-87073874D01*
X127646569Y-87454280D01*
X127937720Y-87745431D01*
X128272000Y-87883894D01*
X128272000Y-87958851D01*
X128272001Y-87958856D01*
X128272000Y-98573289D01*
X128154569Y-98690720D01*
X127997000Y-99071126D01*
X127997000Y-99482874D01*
X128154569Y-99863280D01*
X128445720Y-100154431D01*
X128826126Y-100312000D01*
X129237874Y-100312000D01*
X129618280Y-100154431D01*
X129909431Y-99863280D01*
X130067000Y-99482874D01*
X130067000Y-99148609D01*
X130071528Y-99151635D01*
X131548347Y-100628455D01*
X131548347Y-100794527D01*
X131705916Y-101174933D01*
X131997067Y-101466084D01*
X132377473Y-101623653D01*
X132789221Y-101623653D01*
X133169627Y-101466084D01*
X133290455Y-101345256D01*
X135006228Y-103061030D01*
X134855000Y-103426126D01*
X134855000Y-103837874D01*
X135012569Y-104218280D01*
X135303720Y-104509431D01*
X135684126Y-104667000D01*
X135851197Y-104667000D01*
X135526492Y-104991705D01*
X135199418Y-104773161D01*
X134766256Y-104687000D01*
X134473744Y-104687000D01*
X134040582Y-104773161D01*
X133549375Y-105101375D01*
X133537184Y-105119619D01*
X133528157Y-105074235D01*
X133387809Y-104864191D01*
X133177765Y-104723843D01*
X132930000Y-104674560D01*
X131230000Y-104674560D01*
X130982235Y-104723843D01*
X130772191Y-104864191D01*
X130631843Y-105074235D01*
X130582560Y-105322000D01*
X130582560Y-107022000D01*
X130631843Y-107269765D01*
X130772191Y-107479809D01*
X130982235Y-107620157D01*
X131230000Y-107669440D01*
X132930000Y-107669440D01*
X133177765Y-107620157D01*
X133387809Y-107479809D01*
X133528157Y-107269765D01*
X133537184Y-107224381D01*
X133549375Y-107242625D01*
X134040582Y-107570839D01*
X134473744Y-107657000D01*
X134766256Y-107657000D01*
X135035002Y-107603543D01*
X135035002Y-108277194D01*
X131443739Y-111868458D01*
X131322924Y-111758355D01*
X130912890Y-111588524D01*
X130683000Y-111709845D01*
X130683000Y-112903000D01*
X130703000Y-112903000D01*
X130703000Y-113157000D01*
X130683000Y-113157000D01*
X130683000Y-113177000D01*
X130429000Y-113177000D01*
X130429000Y-113157000D01*
X129235181Y-113157000D01*
X129114514Y-113386892D01*
X129360817Y-113911358D01*
X129785786Y-114298647D01*
X129485375Y-114499375D01*
X129157161Y-114990582D01*
X129041908Y-115570000D01*
X129157161Y-116149418D01*
X129485375Y-116640625D01*
X129976582Y-116968839D01*
X130409744Y-117055000D01*
X130702256Y-117055000D01*
X131135418Y-116968839D01*
X131626625Y-116640625D01*
X131826000Y-116342239D01*
X132025375Y-116640625D01*
X132516582Y-116968839D01*
X132949744Y-117055000D01*
X133242256Y-117055000D01*
X133675418Y-116968839D01*
X134166625Y-116640625D01*
X134379843Y-116321522D01*
X134440817Y-116451358D01*
X134869076Y-116841645D01*
X135279110Y-117011476D01*
X135509000Y-116890155D01*
X135509000Y-115697000D01*
X135489000Y-115697000D01*
X135489000Y-115443000D01*
X135509000Y-115443000D01*
X135509000Y-115423000D01*
X135763000Y-115423000D01*
X135763000Y-115443000D01*
X135783000Y-115443000D01*
X135783000Y-115697000D01*
X135763000Y-115697000D01*
X135763000Y-116890155D01*
X135992890Y-117011476D01*
X136402924Y-116841645D01*
X136831183Y-116451358D01*
X136892157Y-116321522D01*
X137105375Y-116640625D01*
X137596582Y-116968839D01*
X138029744Y-117055000D01*
X138322256Y-117055000D01*
X138755418Y-116968839D01*
X139246625Y-116640625D01*
X139446000Y-116342239D01*
X139645375Y-116640625D01*
X140136582Y-116968839D01*
X140569744Y-117055000D01*
X140862256Y-117055000D01*
X141295418Y-116968839D01*
X141786625Y-116640625D01*
X141986000Y-116342239D01*
X142185375Y-116640625D01*
X142676582Y-116968839D01*
X143109744Y-117055000D01*
X143402256Y-117055000D01*
X143835418Y-116968839D01*
X144326625Y-116640625D01*
X144539843Y-116321522D01*
X144600817Y-116451358D01*
X145029076Y-116841645D01*
X145439110Y-117011476D01*
X145669000Y-116890155D01*
X145669000Y-115697000D01*
X145923000Y-115697000D01*
X145923000Y-116890155D01*
X146152890Y-117011476D01*
X146562924Y-116841645D01*
X146991183Y-116451358D01*
X147066000Y-116292046D01*
X147140817Y-116451358D01*
X147569076Y-116841645D01*
X147979110Y-117011476D01*
X148209000Y-116890155D01*
X148209000Y-115697000D01*
X148463000Y-115697000D01*
X148463000Y-116890155D01*
X148692890Y-117011476D01*
X149102924Y-116841645D01*
X149531183Y-116451358D01*
X149606000Y-116292046D01*
X149680817Y-116451358D01*
X150109076Y-116841645D01*
X150519110Y-117011476D01*
X150749000Y-116890155D01*
X150749000Y-115697000D01*
X148463000Y-115697000D01*
X148209000Y-115697000D01*
X145923000Y-115697000D01*
X145669000Y-115697000D01*
X145649000Y-115697000D01*
X145649000Y-115443000D01*
X145669000Y-115443000D01*
X145669000Y-115423000D01*
X145923000Y-115423000D01*
X145923000Y-115443000D01*
X148209000Y-115443000D01*
X148209000Y-115423000D01*
X148463000Y-115423000D01*
X148463000Y-115443000D01*
X150749000Y-115443000D01*
X150749000Y-115423000D01*
X151003000Y-115423000D01*
X151003000Y-115443000D01*
X151023000Y-115443000D01*
X151023000Y-115697000D01*
X151003000Y-115697000D01*
X151003000Y-116890155D01*
X151232890Y-117011476D01*
X151642924Y-116841645D01*
X152071183Y-116451358D01*
X152132157Y-116321522D01*
X152345375Y-116640625D01*
X152836582Y-116968839D01*
X153269744Y-117055000D01*
X153562256Y-117055000D01*
X153995418Y-116968839D01*
X154486625Y-116640625D01*
X154686000Y-116342239D01*
X154885375Y-116640625D01*
X155376582Y-116968839D01*
X155809744Y-117055000D01*
X156102256Y-117055000D01*
X156535418Y-116968839D01*
X157026625Y-116640625D01*
X157226000Y-116342239D01*
X157425375Y-116640625D01*
X157916582Y-116968839D01*
X158349744Y-117055000D01*
X158642256Y-117055000D01*
X159075418Y-116968839D01*
X159566625Y-116640625D01*
X159894839Y-116149418D01*
X160010092Y-115570000D01*
X159894839Y-114990582D01*
X159566625Y-114499375D01*
X159548381Y-114487184D01*
X159593765Y-114478157D01*
X159803809Y-114337809D01*
X159944157Y-114127765D01*
X159993440Y-113880000D01*
X159993440Y-113601431D01*
X161849000Y-113601431D01*
X161849000Y-114490569D01*
X162189259Y-115312026D01*
X162817974Y-115940741D01*
X163639431Y-116281000D01*
X164528569Y-116281000D01*
X165350026Y-115940741D01*
X165978741Y-115312026D01*
X166319000Y-114490569D01*
X166319000Y-113601431D01*
X165978741Y-112779974D01*
X165350026Y-112151259D01*
X164528569Y-111811000D01*
X163639431Y-111811000D01*
X162817974Y-112151259D01*
X162189259Y-112779974D01*
X161849000Y-113601431D01*
X159993440Y-113601431D01*
X159993440Y-112180000D01*
X159944157Y-111932235D01*
X159803809Y-111722191D01*
X159593765Y-111581843D01*
X159346000Y-111532560D01*
X157646000Y-111532560D01*
X157398235Y-111581843D01*
X157188191Y-111722191D01*
X157047843Y-111932235D01*
X157038816Y-111977619D01*
X157026625Y-111959375D01*
X156716000Y-111751822D01*
X156716000Y-111072848D01*
X156730888Y-110998000D01*
X156716000Y-110923152D01*
X156716000Y-110923148D01*
X156671904Y-110701463D01*
X156503929Y-110450071D01*
X156440473Y-110407671D01*
X151096523Y-105063722D01*
X151208280Y-105017431D01*
X151499431Y-104726280D01*
X151657000Y-104345874D01*
X151657000Y-103934126D01*
X151507000Y-103571993D01*
X151507000Y-101914007D01*
X151657000Y-101551874D01*
X151657000Y-101184999D01*
X157064457Y-101184999D01*
X156981908Y-101600000D01*
X157097161Y-102179418D01*
X157425375Y-102670625D01*
X157916582Y-102998839D01*
X158349744Y-103085000D01*
X158642256Y-103085000D01*
X159075418Y-102998839D01*
X159566625Y-102670625D01*
X159894839Y-102179418D01*
X160010092Y-101600000D01*
X159927543Y-101184999D01*
X160358154Y-101184999D01*
X160433001Y-101199887D01*
X160507848Y-101184999D01*
X160507853Y-101184999D01*
X160729538Y-101140903D01*
X160980930Y-100972928D01*
X161023332Y-100909469D01*
X162832020Y-99100782D01*
X162939161Y-99639418D01*
X163267375Y-100130625D01*
X163565761Y-100330000D01*
X163267375Y-100529375D01*
X162939161Y-101020582D01*
X162823908Y-101600000D01*
X162939161Y-102179418D01*
X163267375Y-102670625D01*
X163758582Y-102998839D01*
X164191744Y-103085000D01*
X164484256Y-103085000D01*
X164917418Y-102998839D01*
X165408625Y-102670625D01*
X165736839Y-102179418D01*
X165852092Y-101600000D01*
X165736839Y-101020582D01*
X165408625Y-100529375D01*
X165110239Y-100330000D01*
X165408625Y-100130625D01*
X165736839Y-99639418D01*
X165852092Y-99060000D01*
X165736839Y-98480582D01*
X165408625Y-97989375D01*
X165110239Y-97790000D01*
X165408625Y-97590625D01*
X165736839Y-97099418D01*
X165852092Y-96520000D01*
X165736839Y-95940582D01*
X165408625Y-95449375D01*
X165089522Y-95236157D01*
X165219358Y-95175183D01*
X165609645Y-94746924D01*
X165779476Y-94336890D01*
X165658155Y-94107000D01*
X164465000Y-94107000D01*
X164465000Y-94127000D01*
X164211000Y-94127000D01*
X164211000Y-94107000D01*
X164191000Y-94107000D01*
X164191000Y-93853000D01*
X164211000Y-93853000D01*
X164211000Y-93833000D01*
X164465000Y-93833000D01*
X164465000Y-93853000D01*
X165658155Y-93853000D01*
X165779476Y-93623110D01*
X165609645Y-93213076D01*
X165219358Y-92784817D01*
X165089522Y-92723843D01*
X165408625Y-92510625D01*
X165736839Y-92019418D01*
X165852092Y-91440000D01*
X165736839Y-90860582D01*
X165408625Y-90369375D01*
X165390381Y-90357184D01*
X165435765Y-90348157D01*
X165645809Y-90207809D01*
X165786157Y-89997765D01*
X165835440Y-89750000D01*
X165835440Y-88050000D01*
X165786157Y-87802235D01*
X165645809Y-87592191D01*
X165435765Y-87451843D01*
X165188000Y-87402560D01*
X163488000Y-87402560D01*
X163240235Y-87451843D01*
X163030191Y-87592191D01*
X162889843Y-87802235D01*
X162840560Y-88050000D01*
X162840560Y-89750000D01*
X162889843Y-89997765D01*
X163030191Y-90207809D01*
X163240235Y-90348157D01*
X163285619Y-90357184D01*
X163267375Y-90369375D01*
X162939161Y-90860582D01*
X162823908Y-91440000D01*
X162896791Y-91806407D01*
X162329528Y-92373671D01*
X162266072Y-92416071D01*
X162223672Y-92479527D01*
X162223671Y-92479528D01*
X162098097Y-92667463D01*
X162039112Y-92964000D01*
X162054001Y-93038852D01*
X162054001Y-93923199D01*
X160451330Y-92320529D01*
X160408928Y-92257070D01*
X160157536Y-92089095D01*
X159935851Y-92044999D01*
X159935846Y-92044999D01*
X159884562Y-92034798D01*
X159894839Y-92019418D01*
X160010092Y-91440000D01*
X159894839Y-90860582D01*
X159566625Y-90369375D01*
X159544967Y-90354904D01*
X159705698Y-90288327D01*
X159884327Y-90109699D01*
X159981000Y-89876310D01*
X159981000Y-89185750D01*
X159822250Y-89027000D01*
X158623000Y-89027000D01*
X158623000Y-89047000D01*
X158369000Y-89047000D01*
X158369000Y-89027000D01*
X157169750Y-89027000D01*
X157011000Y-89185750D01*
X157011000Y-89876310D01*
X157107673Y-90109699D01*
X157286302Y-90288327D01*
X157447033Y-90354904D01*
X157425375Y-90369375D01*
X157097161Y-90860582D01*
X156981908Y-91440000D01*
X157097161Y-92019418D01*
X157114254Y-92044999D01*
X156754710Y-92044999D01*
X156664627Y-91954916D01*
X156284221Y-91797347D01*
X155872473Y-91797347D01*
X155492067Y-91954916D01*
X155248892Y-92198091D01*
X155213000Y-92162198D01*
X155213000Y-91996126D01*
X155055431Y-91615720D01*
X154764280Y-91324569D01*
X154383874Y-91167000D01*
X153972126Y-91167000D01*
X153591720Y-91324569D01*
X153457970Y-91458319D01*
X153372708Y-91423003D01*
X153531431Y-91264280D01*
X153689000Y-90883874D01*
X153689000Y-90472126D01*
X153531431Y-90091720D01*
X153240280Y-89800569D01*
X152859874Y-89643000D01*
X152448126Y-89643000D01*
X152067720Y-89800569D01*
X151776569Y-90091720D01*
X151619000Y-90472126D01*
X151619000Y-90624087D01*
X151598072Y-90638071D01*
X151555672Y-90701527D01*
X151555671Y-90701528D01*
X151430097Y-90889463D01*
X151371112Y-91186000D01*
X151386001Y-91260852D01*
X151386000Y-96372973D01*
X151081874Y-96247000D01*
X150670126Y-96247000D01*
X150289720Y-96404569D01*
X149998569Y-96695720D01*
X149877883Y-96987082D01*
X149688331Y-96797530D01*
X149645929Y-96734071D01*
X149394537Y-96566096D01*
X149172852Y-96522000D01*
X149172847Y-96522000D01*
X149098000Y-96507112D01*
X149023153Y-96522000D01*
X148023711Y-96522000D01*
X147906280Y-96404569D01*
X147525874Y-96247000D01*
X147114126Y-96247000D01*
X146733720Y-96404569D01*
X146442569Y-96695720D01*
X146285000Y-97076126D01*
X146285000Y-97487874D01*
X146442569Y-97868280D01*
X146733720Y-98159431D01*
X147114126Y-98317000D01*
X147525874Y-98317000D01*
X147906280Y-98159431D01*
X148023711Y-98042000D01*
X148783199Y-98042000D01*
X149100000Y-98358802D01*
X149100001Y-99239149D01*
X149085112Y-99314000D01*
X149100001Y-99388852D01*
X149132782Y-99553653D01*
X149144097Y-99610537D01*
X149211373Y-99711222D01*
X149312072Y-99861929D01*
X149375528Y-99904329D01*
X149987744Y-100516545D01*
X149744569Y-100759720D01*
X149587000Y-101140126D01*
X149587000Y-101551874D01*
X149737001Y-101914009D01*
X149737000Y-103315289D01*
X149684280Y-103262569D01*
X149303874Y-103105000D01*
X148892126Y-103105000D01*
X148511720Y-103262569D01*
X148220569Y-103553720D01*
X148082661Y-103886661D01*
X147749720Y-104024569D01*
X147628892Y-104145397D01*
X146318347Y-102834852D01*
X146318347Y-102668779D01*
X146160778Y-102288373D01*
X145869627Y-101997222D01*
X145489221Y-101839653D01*
X145077473Y-101839653D01*
X144697067Y-101997222D01*
X144405916Y-102288373D01*
X144248347Y-102668779D01*
X144248347Y-103080527D01*
X144405916Y-103460933D01*
X144697067Y-103752084D01*
X145077473Y-103909653D01*
X145243546Y-103909653D01*
X152656000Y-111322108D01*
X152656000Y-111751822D01*
X152345375Y-111959375D01*
X152132157Y-112278478D01*
X152071183Y-112148642D01*
X151642924Y-111758355D01*
X151232890Y-111588524D01*
X151003000Y-111709845D01*
X151003000Y-112903000D01*
X151023000Y-112903000D01*
X151023000Y-113157000D01*
X151003000Y-113157000D01*
X151003000Y-113177000D01*
X150749000Y-113177000D01*
X150749000Y-113157000D01*
X150729000Y-113157000D01*
X150729000Y-112903000D01*
X150749000Y-112903000D01*
X150749000Y-111709845D01*
X150519110Y-111588524D01*
X150109076Y-111758355D01*
X149680817Y-112148642D01*
X149619843Y-112278478D01*
X149406625Y-111959375D01*
X148915418Y-111631161D01*
X148482256Y-111545000D01*
X148189744Y-111545000D01*
X147756582Y-111631161D01*
X147265375Y-111959375D01*
X147066000Y-112257761D01*
X146866625Y-111959375D01*
X146375418Y-111631161D01*
X145942256Y-111545000D01*
X145649744Y-111545000D01*
X145216582Y-111631161D01*
X144889508Y-111849705D01*
X144364999Y-111325196D01*
X144364999Y-107589407D01*
X144423110Y-107613476D01*
X144653000Y-107492155D01*
X144653000Y-106299000D01*
X144907000Y-106299000D01*
X144907000Y-107492155D01*
X145136890Y-107613476D01*
X145546924Y-107443645D01*
X145975183Y-107053358D01*
X146221486Y-106528892D01*
X146100819Y-106299000D01*
X144907000Y-106299000D01*
X144653000Y-106299000D01*
X144633000Y-106299000D01*
X144633000Y-106045000D01*
X144653000Y-106045000D01*
X144653000Y-104851845D01*
X144907000Y-104851845D01*
X144907000Y-106045000D01*
X146100819Y-106045000D01*
X146221486Y-105815108D01*
X145975183Y-105290642D01*
X145546924Y-104900355D01*
X145136890Y-104730524D01*
X144907000Y-104851845D01*
X144653000Y-104851845D01*
X144423110Y-104730524D01*
X144013076Y-104900355D01*
X143958010Y-104950539D01*
X143958010Y-92472856D01*
X143972898Y-92398009D01*
X143958010Y-92323162D01*
X143958010Y-92323158D01*
X143913914Y-92101473D01*
X143847866Y-92002625D01*
X143788339Y-91913536D01*
X143788337Y-91913534D01*
X143745939Y-91850081D01*
X143682486Y-91807683D01*
X142513000Y-90638198D01*
X142513000Y-90472126D01*
X142355431Y-90091720D01*
X142064280Y-89800569D01*
X142036350Y-89789000D01*
X142064280Y-89777431D01*
X142355431Y-89486280D01*
X142401722Y-89374523D01*
X145777000Y-92749803D01*
X145777000Y-92915874D01*
X145934569Y-93296280D01*
X146225720Y-93587431D01*
X146606126Y-93745000D01*
X147017874Y-93745000D01*
X147398280Y-93587431D01*
X147689431Y-93296280D01*
X147847000Y-92915874D01*
X147847000Y-92504126D01*
X147689431Y-92123720D01*
X147398280Y-91832569D01*
X147017874Y-91675000D01*
X146851803Y-91675000D01*
X143544999Y-88368198D01*
X143544999Y-87923690D01*
X157011000Y-87923690D01*
X157011000Y-88614250D01*
X157169750Y-88773000D01*
X158369000Y-88773000D01*
X158369000Y-87573750D01*
X158623000Y-87573750D01*
X158623000Y-88773000D01*
X159822250Y-88773000D01*
X159981000Y-88614250D01*
X159981000Y-87923690D01*
X159884327Y-87690301D01*
X159705698Y-87511673D01*
X159472309Y-87415000D01*
X158781750Y-87415000D01*
X158623000Y-87573750D01*
X158369000Y-87573750D01*
X158210250Y-87415000D01*
X157519691Y-87415000D01*
X157286302Y-87511673D01*
X157107673Y-87690301D01*
X157011000Y-87923690D01*
X143544999Y-87923690D01*
X143544999Y-85109000D01*
X143715874Y-85109000D01*
X144096280Y-84951431D01*
X144387431Y-84660280D01*
X144420684Y-84580000D01*
X145858289Y-84580000D01*
X145680569Y-84757720D01*
X145523000Y-85138126D01*
X145523000Y-85549874D01*
X145680569Y-85930280D01*
X145971720Y-86221431D01*
X146352126Y-86379000D01*
X146763874Y-86379000D01*
X147144280Y-86221431D01*
X147261711Y-86104000D01*
X148394289Y-86104000D01*
X148511720Y-86221431D01*
X148892126Y-86379000D01*
X149303874Y-86379000D01*
X149684280Y-86221431D01*
X149751585Y-86154126D01*
X152635000Y-86154126D01*
X152635000Y-86565874D01*
X152792569Y-86946280D01*
X153083720Y-87237431D01*
X153464126Y-87395000D01*
X153875874Y-87395000D01*
X154256280Y-87237431D01*
X154547431Y-86946280D01*
X154705000Y-86565874D01*
X154705000Y-86154126D01*
X154547431Y-85773720D01*
X154256280Y-85482569D01*
X153875874Y-85325000D01*
X153464126Y-85325000D01*
X153083720Y-85482569D01*
X152792569Y-85773720D01*
X152635000Y-86154126D01*
X149751585Y-86154126D01*
X149975431Y-85930280D01*
X150133000Y-85549874D01*
X150133000Y-85138126D01*
X149975431Y-84757720D01*
X149797711Y-84580000D01*
X162110289Y-84580000D01*
X162227720Y-84697431D01*
X162608126Y-84855000D01*
X163019874Y-84855000D01*
X163400280Y-84697431D01*
X163691431Y-84406280D01*
X163849000Y-84025874D01*
X163849000Y-83614126D01*
X163691431Y-83233720D01*
X163400280Y-82942569D01*
X163019874Y-82785000D01*
X162608126Y-82785000D01*
X162227720Y-82942569D01*
X162110289Y-83060000D01*
X156229000Y-83060000D01*
X156229000Y-82852126D01*
X156071431Y-82471720D01*
X155780280Y-82180569D01*
X155670687Y-82135174D01*
X154045168Y-80509656D01*
X153999977Y-80442023D01*
X153732046Y-80262997D01*
X153495774Y-80216000D01*
X153495773Y-80216000D01*
X153416000Y-80200132D01*
X153336227Y-80216000D01*
X153307711Y-80216000D01*
X153240280Y-80148569D01*
X152859874Y-79991000D01*
X152448126Y-79991000D01*
X152067720Y-80148569D01*
X151776569Y-80439720D01*
X151765000Y-80467650D01*
X151753431Y-80439720D01*
X151462280Y-80148569D01*
X151081874Y-79991000D01*
X150951158Y-79991000D01*
X149961748Y-79001591D01*
X149917953Y-78936047D01*
X149658292Y-78762546D01*
X149429316Y-78717000D01*
X149429312Y-78717000D01*
X149352000Y-78701622D01*
X149274688Y-78717000D01*
X146883158Y-78717000D01*
X146323000Y-78156843D01*
X146323000Y-78026126D01*
X146165431Y-77645720D01*
X145874280Y-77354569D01*
X145493874Y-77197000D01*
X145286000Y-77197000D01*
X145286000Y-74617711D01*
X145403431Y-74500280D01*
X145561000Y-74119874D01*
X145561000Y-73708126D01*
X145403431Y-73327720D01*
X145112280Y-73036569D01*
X144731874Y-72879000D01*
X144320126Y-72879000D01*
X143939720Y-73036569D01*
X143648569Y-73327720D01*
X143491000Y-73708126D01*
X143491000Y-74119874D01*
X143648569Y-74500280D01*
X143766001Y-74617712D01*
X143766001Y-77216337D01*
X143595126Y-77216337D01*
X143214720Y-77373906D01*
X143122289Y-77466337D01*
X140773974Y-77466337D01*
X140696662Y-77450959D01*
X140619350Y-77466337D01*
X140619347Y-77466337D01*
X140390371Y-77511883D01*
X140196254Y-77641588D01*
X140196252Y-77641590D01*
X140130710Y-77685384D01*
X140086916Y-77750926D01*
X137821589Y-80016254D01*
X137756047Y-80060048D01*
X137712253Y-80125590D01*
X137712250Y-80125593D01*
X137582545Y-80319710D01*
X137521621Y-80626001D01*
X137537000Y-80703317D01*
X137537000Y-81081196D01*
X137335720Y-81164569D01*
X137044569Y-81455720D01*
X136887000Y-81836126D01*
X136887000Y-82247874D01*
X137044569Y-82628280D01*
X137335720Y-82919431D01*
X137716126Y-83077000D01*
X138127874Y-83077000D01*
X138508280Y-82919431D01*
X138799431Y-82628280D01*
X138957000Y-82247874D01*
X138957000Y-82104617D01*
X139061453Y-81948293D01*
X139106999Y-81719317D01*
X139106999Y-81719314D01*
X139122377Y-81642002D01*
X139106999Y-81564690D01*
X139106999Y-80951158D01*
X141021821Y-79036337D01*
X143122289Y-79036337D01*
X143214720Y-79128768D01*
X143595126Y-79286337D01*
X143766000Y-79286337D01*
X143766000Y-81670196D01*
X142300527Y-83135670D01*
X142237071Y-83178070D01*
X142194671Y-83241526D01*
X142194670Y-83241527D01*
X142069096Y-83429462D01*
X142010111Y-83725999D01*
X142025000Y-83800851D01*
X142024999Y-88006298D01*
X141683874Y-87865000D01*
X141272126Y-87865000D01*
X140891720Y-88022569D01*
X140774289Y-88140000D01*
X139760802Y-88140000D01*
X137420267Y-85799466D01*
X137475504Y-85744229D01*
X137552569Y-85930280D01*
X137843720Y-86221431D01*
X138224126Y-86379000D01*
X138635874Y-86379000D01*
X139016280Y-86221431D01*
X139307431Y-85930280D01*
X139465000Y-85549874D01*
X139465000Y-85138126D01*
X139307431Y-84757720D01*
X139016280Y-84466569D01*
X138635874Y-84309000D01*
X138469803Y-84309000D01*
X134146999Y-79986198D01*
X134146999Y-68745845D01*
X134161887Y-68670998D01*
X134146999Y-68596151D01*
X134146999Y-68596147D01*
X134102903Y-68374462D01*
X133934928Y-68123070D01*
X133871472Y-68080670D01*
X133176835Y-67386034D01*
X133187000Y-67361494D01*
X133187000Y-66810506D01*
X132976147Y-66301460D01*
X132586540Y-65911853D01*
X132077494Y-65701000D01*
X131526506Y-65701000D01*
X131017460Y-65911853D01*
X130627853Y-66301460D01*
X130417000Y-66810506D01*
X130417000Y-67361494D01*
X130627853Y-67870540D01*
X131017460Y-68260147D01*
X131526506Y-68471000D01*
X132077494Y-68471000D01*
X132102034Y-68460835D01*
X132508558Y-68867360D01*
X132006829Y-68688799D01*
X131456552Y-68716770D01*
X131078077Y-68873540D01*
X131010088Y-69114483D01*
X131802000Y-69906395D01*
X131816143Y-69892253D01*
X131995748Y-70071858D01*
X131981605Y-70086000D01*
X131995748Y-70100143D01*
X131816143Y-70279748D01*
X131802000Y-70265605D01*
X131010088Y-71057517D01*
X131078077Y-71298460D01*
X131597171Y-71483201D01*
X132147448Y-71455230D01*
X132525923Y-71298460D01*
X132593911Y-71057519D01*
X132627000Y-71090608D01*
X132626999Y-79994781D01*
X132255720Y-80148569D01*
X132012545Y-80391744D01*
X128486999Y-76866198D01*
X128486999Y-71454636D01*
X128526506Y-71471000D01*
X129077494Y-71471000D01*
X129586540Y-71260147D01*
X129976147Y-70870540D01*
X130187000Y-70361494D01*
X130187000Y-69881171D01*
X130404799Y-69881171D01*
X130432770Y-70431448D01*
X130589540Y-70809923D01*
X130830483Y-70877912D01*
X131622395Y-70086000D01*
X130830483Y-69294088D01*
X130589540Y-69362077D01*
X130404799Y-69881171D01*
X130187000Y-69881171D01*
X130187000Y-69810506D01*
X129976147Y-69301460D01*
X129586540Y-68911853D01*
X129077494Y-68701000D01*
X128526506Y-68701000D01*
X128486999Y-68717364D01*
X128486999Y-68475802D01*
X128501966Y-68460835D01*
X128526506Y-68471000D01*
X129077494Y-68471000D01*
X129586540Y-68260147D01*
X129976147Y-67870540D01*
X130187000Y-67361494D01*
X130187000Y-66810506D01*
X129976147Y-66301460D01*
X129586540Y-65911853D01*
X129077494Y-65701000D01*
X128526506Y-65701000D01*
X128017460Y-65911853D01*
X127627853Y-66301460D01*
X127417000Y-66810506D01*
X127417000Y-67361494D01*
X127427165Y-67386034D01*
X127242527Y-67570672D01*
X127179071Y-67613072D01*
X127136671Y-67676528D01*
X127136670Y-67676529D01*
X127011096Y-67864464D01*
X126952111Y-68161001D01*
X126967000Y-68235853D01*
X126966999Y-77106152D01*
X126952111Y-77180999D01*
X126966999Y-77255846D01*
X126966999Y-77255850D01*
X127011095Y-77477535D01*
X127179070Y-77728928D01*
X127242529Y-77771330D01*
X133930198Y-84459000D01*
X124572579Y-84459000D01*
X124471431Y-84357852D01*
X124321431Y-83995720D01*
X124030280Y-83704569D01*
X123649874Y-83547000D01*
X123238126Y-83547000D01*
X122857720Y-83704569D01*
X122566569Y-83995720D01*
X122409000Y-84376126D01*
X118294848Y-84376126D01*
X118337440Y-84162000D01*
X118337440Y-82462000D01*
X118288157Y-82214235D01*
X118147809Y-82004191D01*
X117937765Y-81863843D01*
X117690000Y-81814560D01*
X115990000Y-81814560D01*
X115742235Y-81863843D01*
X115532191Y-82004191D01*
X115391843Y-82214235D01*
X115342560Y-82462000D01*
X115342560Y-84162000D01*
X115391843Y-84409765D01*
X115532191Y-84619809D01*
X115742235Y-84760157D01*
X115787619Y-84769184D01*
X115769375Y-84781375D01*
X115441161Y-85272582D01*
X115325908Y-85852000D01*
X115441161Y-86431418D01*
X115769375Y-86922625D01*
X116067761Y-87122000D01*
X115769375Y-87321375D01*
X115441161Y-87812582D01*
X115325908Y-88392000D01*
X115441161Y-88971418D01*
X115769375Y-89462625D01*
X116067761Y-89662000D01*
X115769375Y-89861375D01*
X115441161Y-90352582D01*
X115325908Y-90932000D01*
X115441161Y-91511418D01*
X115769375Y-92002625D01*
X116067761Y-92202000D01*
X115769375Y-92401375D01*
X115441161Y-92892582D01*
X115325908Y-93472000D01*
X115406407Y-93876696D01*
X115394280Y-93864569D01*
X115013874Y-93707000D01*
X114602126Y-93707000D01*
X114221720Y-93864569D01*
X113930569Y-94155720D01*
X113773000Y-94536126D01*
X107898000Y-94536126D01*
X107898000Y-64071431D01*
X109779000Y-64071431D01*
X109779000Y-64960569D01*
X110119259Y-65782026D01*
X110747974Y-66410741D01*
X111569431Y-66751000D01*
X112458569Y-66751000D01*
X113280026Y-66410741D01*
X113908741Y-65782026D01*
X114249000Y-64960569D01*
X114249000Y-64071431D01*
X113908741Y-63249974D01*
X113280026Y-62621259D01*
X112604200Y-62341322D01*
X128167000Y-62341322D01*
X128167000Y-63190678D01*
X128492034Y-63975380D01*
X129092620Y-64575966D01*
X129877322Y-64901000D01*
X130726678Y-64901000D01*
X131511380Y-64575966D01*
X132111966Y-63975380D01*
X132279879Y-63570000D01*
X138694560Y-63570000D01*
X138694560Y-65970000D01*
X138743843Y-66217765D01*
X138884191Y-66427809D01*
X139094235Y-66568157D01*
X139342000Y-66617440D01*
X141742000Y-66617440D01*
X141989765Y-66568157D01*
X142199809Y-66427809D01*
X142340157Y-66217765D01*
X142389440Y-65970000D01*
X142389440Y-64404996D01*
X143707000Y-64404996D01*
X143707000Y-65135004D01*
X143986362Y-65809444D01*
X144502556Y-66325638D01*
X145176996Y-66605000D01*
X145907004Y-66605000D01*
X146581444Y-66325638D01*
X147097638Y-65809444D01*
X147377000Y-65135004D01*
X147377000Y-64404996D01*
X147238833Y-64071431D01*
X161849000Y-64071431D01*
X161849000Y-64960569D01*
X162189259Y-65782026D01*
X162817974Y-66410741D01*
X163639431Y-66751000D01*
X164528569Y-66751000D01*
X165350026Y-66410741D01*
X165978741Y-65782026D01*
X166319000Y-64960569D01*
X166319000Y-64071431D01*
X165978741Y-63249974D01*
X165350026Y-62621259D01*
X164528569Y-62281000D01*
X163639431Y-62281000D01*
X162817974Y-62621259D01*
X162189259Y-63249974D01*
X161849000Y-64071431D01*
X147238833Y-64071431D01*
X147097638Y-63730556D01*
X146581444Y-63214362D01*
X145907004Y-62935000D01*
X145176996Y-62935000D01*
X144502556Y-63214362D01*
X143986362Y-63730556D01*
X143707000Y-64404996D01*
X142389440Y-64404996D01*
X142389440Y-63570000D01*
X142340157Y-63322235D01*
X142199809Y-63112191D01*
X141989765Y-62971843D01*
X141742000Y-62922560D01*
X139342000Y-62922560D01*
X139094235Y-62971843D01*
X138884191Y-63112191D01*
X138743843Y-63322235D01*
X138694560Y-63570000D01*
X132279879Y-63570000D01*
X132437000Y-63190678D01*
X132437000Y-62341322D01*
X132111966Y-61556620D01*
X131511380Y-60956034D01*
X130726678Y-60631000D01*
X129877322Y-60631000D01*
X129092620Y-60956034D01*
X128492034Y-61556620D01*
X128167000Y-62341322D01*
X112604200Y-62341322D01*
X112458569Y-62281000D01*
X111569431Y-62281000D01*
X110747974Y-62621259D01*
X110119259Y-63249974D01*
X109779000Y-64071431D01*
X107898000Y-64071431D01*
X107898000Y-60400000D01*
X167946000Y-60400000D01*
X167946001Y-118162000D01*
X167946001Y-118162000D01*
G37*
X167946001Y-118162000D02*
X107898000Y-118162000D01*
X107898000Y-113601431D01*
X109779000Y-113601431D01*
X109779000Y-114490569D01*
X110119259Y-115312026D01*
X110747974Y-115940741D01*
X111569431Y-116281000D01*
X112458569Y-116281000D01*
X113280026Y-115940741D01*
X113908741Y-115312026D01*
X114249000Y-114490569D01*
X114249000Y-113601431D01*
X113908741Y-112779974D01*
X113280026Y-112151259D01*
X112458569Y-111811000D01*
X111569431Y-111811000D01*
X110747974Y-112151259D01*
X110119259Y-112779974D01*
X109779000Y-113601431D01*
X107898000Y-113601431D01*
X107898000Y-109522126D01*
X126473000Y-109522126D01*
X126473000Y-109933874D01*
X126630569Y-110314280D01*
X126723000Y-110406711D01*
X126723001Y-112097288D01*
X126630569Y-112189720D01*
X126473000Y-112570126D01*
X126473000Y-112981874D01*
X126630569Y-113362280D01*
X126921720Y-113653431D01*
X127302126Y-113811000D01*
X127713874Y-113811000D01*
X128094280Y-113653431D01*
X128385431Y-113362280D01*
X128543000Y-112981874D01*
X128543000Y-112673108D01*
X129114514Y-112673108D01*
X129235181Y-112903000D01*
X130429000Y-112903000D01*
X130429000Y-111709845D01*
X130199110Y-111588524D01*
X129789076Y-111758355D01*
X129360817Y-112148642D01*
X129114514Y-112673108D01*
X128543000Y-112673108D01*
X128543000Y-112570126D01*
X128385431Y-112189720D01*
X128293000Y-112097289D01*
X128293000Y-110406711D01*
X128385431Y-110314280D01*
X128543000Y-109933874D01*
X128543000Y-109522126D01*
X128385431Y-109141720D01*
X128094280Y-108850569D01*
X127713874Y-108693000D01*
X127302126Y-108693000D01*
X126921720Y-108850569D01*
X126630569Y-109141720D01*
X126473000Y-109522126D01*
X107898000Y-109522126D01*
X107898000Y-94536126D01*
X113773000Y-94536126D01*
X113773000Y-94947874D01*
X113930569Y-95328280D01*
X114221720Y-95619431D01*
X114602126Y-95777000D01*
X115013874Y-95777000D01*
X115394280Y-95619431D01*
X115406407Y-95607304D01*
X115325908Y-96012000D01*
X115441161Y-96591418D01*
X115769375Y-97082625D01*
X116067761Y-97282000D01*
X115769375Y-97481375D01*
X115441161Y-97972582D01*
X115325908Y-98552000D01*
X115441161Y-99131418D01*
X115769375Y-99622625D01*
X116067761Y-99822000D01*
X115769375Y-100021375D01*
X115441161Y-100512582D01*
X115325908Y-101092000D01*
X115441161Y-101671418D01*
X115769375Y-102162625D01*
X116260582Y-102490839D01*
X116693744Y-102577000D01*
X116986256Y-102577000D01*
X117419418Y-102490839D01*
X117910625Y-102162625D01*
X118238839Y-101671418D01*
X118354092Y-101092000D01*
X118238839Y-100512582D01*
X117910625Y-100021375D01*
X117612239Y-99822000D01*
X117910625Y-99622625D01*
X118238839Y-99131418D01*
X118354092Y-98552000D01*
X118238839Y-97972582D01*
X117910625Y-97481375D01*
X117612239Y-97282000D01*
X117910625Y-97082625D01*
X118238839Y-96591418D01*
X118354092Y-96012000D01*
X118257620Y-95527000D01*
X118701289Y-95527000D01*
X118793720Y-95619431D01*
X119174126Y-95777000D01*
X119585874Y-95777000D01*
X119966280Y-95619431D01*
X120257431Y-95328280D01*
X120415000Y-94947874D01*
X120415000Y-94536126D01*
X120257431Y-94155720D01*
X119966280Y-93864569D01*
X119585874Y-93707000D01*
X119174126Y-93707000D01*
X118793720Y-93864569D01*
X118701289Y-93957000D01*
X118257620Y-93957000D01*
X118354092Y-93472000D01*
X118238839Y-92892582D01*
X117910625Y-92401375D01*
X117612239Y-92202000D01*
X117910625Y-92002625D01*
X118238839Y-91511418D01*
X118354092Y-90932000D01*
X118238839Y-90352582D01*
X117910625Y-89861375D01*
X117612239Y-89662000D01*
X117910625Y-89462625D01*
X118238839Y-88971418D01*
X118354092Y-88392000D01*
X118238839Y-87812582D01*
X117910625Y-87321375D01*
X117612239Y-87122000D01*
X117910625Y-86922625D01*
X118238839Y-86431418D01*
X118354092Y-85852000D01*
X118238839Y-85272582D01*
X117910625Y-84781375D01*
X117892381Y-84769184D01*
X117937765Y-84760157D01*
X118147809Y-84619809D01*
X118288157Y-84409765D01*
X118294848Y-84376126D01*
X122409000Y-84376126D01*
X122409000Y-84787874D01*
X122566569Y-85168280D01*
X122857720Y-85459431D01*
X123219852Y-85609431D01*
X123518577Y-85908156D01*
X123567951Y-85982049D01*
X123641844Y-86031423D01*
X123641845Y-86031424D01*
X123772744Y-86118888D01*
X123860690Y-86177652D01*
X124118835Y-86229000D01*
X124118839Y-86229000D01*
X124206000Y-86246337D01*
X124293161Y-86229000D01*
X124927307Y-86229000D01*
X124889720Y-86244569D01*
X124598569Y-86535720D01*
X124441000Y-86916126D01*
X124441000Y-87327874D01*
X124598569Y-87708280D01*
X124716001Y-87825712D01*
X124716000Y-98864289D01*
X124598569Y-98981720D01*
X124441000Y-99362126D01*
X124441000Y-99669000D01*
X124162527Y-99553653D01*
X123750779Y-99553653D01*
X123370373Y-99711222D01*
X123079222Y-100002373D01*
X122921653Y-100382779D01*
X122921653Y-100794527D01*
X123079222Y-101174933D01*
X123370373Y-101466084D01*
X123750779Y-101623653D01*
X124162527Y-101623653D01*
X124542933Y-101466084D01*
X124635364Y-101373653D01*
X125663496Y-101373653D01*
X125707000Y-101417158D01*
X125707001Y-102953288D01*
X125614569Y-103045720D01*
X125457000Y-103426126D01*
X125457000Y-103837874D01*
X125614569Y-104218280D01*
X125905720Y-104509431D01*
X126286126Y-104667000D01*
X126697874Y-104667000D01*
X127078280Y-104509431D01*
X127369431Y-104218280D01*
X127527000Y-103837874D01*
X127527000Y-103426126D01*
X127369431Y-103045720D01*
X127277000Y-102953289D01*
X127277000Y-101169310D01*
X127292378Y-101091999D01*
X127277000Y-101014688D01*
X127277000Y-101014684D01*
X127231454Y-100785708D01*
X127105288Y-100596888D01*
X127101749Y-100591591D01*
X127101747Y-100591589D01*
X127057953Y-100526047D01*
X126992411Y-100482253D01*
X126598402Y-100088245D01*
X126554606Y-100022700D01*
X126439728Y-99945940D01*
X126511000Y-99773874D01*
X126511000Y-99362126D01*
X126353431Y-98981720D01*
X126236000Y-98864289D01*
X126236000Y-87825711D01*
X126353431Y-87708280D01*
X126511000Y-87327874D01*
X126511000Y-86916126D01*
X126353431Y-86535720D01*
X126062280Y-86244569D01*
X126024693Y-86229000D01*
X127699289Y-86229000D01*
X127646569Y-86281720D01*
X127489000Y-86662126D01*
X127489000Y-87073874D01*
X127646569Y-87454280D01*
X127937720Y-87745431D01*
X128272000Y-87883894D01*
X128272000Y-87958851D01*
X128272001Y-87958856D01*
X128272000Y-98573289D01*
X128154569Y-98690720D01*
X127997000Y-99071126D01*
X127997000Y-99482874D01*
X128154569Y-99863280D01*
X128445720Y-100154431D01*
X128826126Y-100312000D01*
X129237874Y-100312000D01*
X129618280Y-100154431D01*
X129909431Y-99863280D01*
X130067000Y-99482874D01*
X130067000Y-99148609D01*
X130071528Y-99151635D01*
X131548347Y-100628455D01*
X131548347Y-100794527D01*
X131705916Y-101174933D01*
X131997067Y-101466084D01*
X132377473Y-101623653D01*
X132789221Y-101623653D01*
X133169627Y-101466084D01*
X133290455Y-101345256D01*
X135006228Y-103061030D01*
X134855000Y-103426126D01*
X134855000Y-103837874D01*
X135012569Y-104218280D01*
X135303720Y-104509431D01*
X135684126Y-104667000D01*
X135851197Y-104667000D01*
X135526492Y-104991705D01*
X135199418Y-104773161D01*
X134766256Y-104687000D01*
X134473744Y-104687000D01*
X134040582Y-104773161D01*
X133549375Y-105101375D01*
X133537184Y-105119619D01*
X133528157Y-105074235D01*
X133387809Y-104864191D01*
X133177765Y-104723843D01*
X132930000Y-104674560D01*
X131230000Y-104674560D01*
X130982235Y-104723843D01*
X130772191Y-104864191D01*
X130631843Y-105074235D01*
X130582560Y-105322000D01*
X130582560Y-107022000D01*
X130631843Y-107269765D01*
X130772191Y-107479809D01*
X130982235Y-107620157D01*
X131230000Y-107669440D01*
X132930000Y-107669440D01*
X133177765Y-107620157D01*
X133387809Y-107479809D01*
X133528157Y-107269765D01*
X133537184Y-107224381D01*
X133549375Y-107242625D01*
X134040582Y-107570839D01*
X134473744Y-107657000D01*
X134766256Y-107657000D01*
X135035002Y-107603543D01*
X135035002Y-108277194D01*
X131443739Y-111868458D01*
X131322924Y-111758355D01*
X130912890Y-111588524D01*
X130683000Y-111709845D01*
X130683000Y-112903000D01*
X130703000Y-112903000D01*
X130703000Y-113157000D01*
X130683000Y-113157000D01*
X130683000Y-113177000D01*
X130429000Y-113177000D01*
X130429000Y-113157000D01*
X129235181Y-113157000D01*
X129114514Y-113386892D01*
X129360817Y-113911358D01*
X129785786Y-114298647D01*
X129485375Y-114499375D01*
X129157161Y-114990582D01*
X129041908Y-115570000D01*
X129157161Y-116149418D01*
X129485375Y-116640625D01*
X129976582Y-116968839D01*
X130409744Y-117055000D01*
X130702256Y-117055000D01*
X131135418Y-116968839D01*
X131626625Y-116640625D01*
X131826000Y-116342239D01*
X132025375Y-116640625D01*
X132516582Y-116968839D01*
X132949744Y-117055000D01*
X133242256Y-117055000D01*
X133675418Y-116968839D01*
X134166625Y-116640625D01*
X134379843Y-116321522D01*
X134440817Y-116451358D01*
X134869076Y-116841645D01*
X135279110Y-117011476D01*
X135509000Y-116890155D01*
X135509000Y-115697000D01*
X135489000Y-115697000D01*
X135489000Y-115443000D01*
X135509000Y-115443000D01*
X135509000Y-115423000D01*
X135763000Y-115423000D01*
X135763000Y-115443000D01*
X135783000Y-115443000D01*
X135783000Y-115697000D01*
X135763000Y-115697000D01*
X135763000Y-116890155D01*
X135992890Y-117011476D01*
X136402924Y-116841645D01*
X136831183Y-116451358D01*
X136892157Y-116321522D01*
X137105375Y-116640625D01*
X137596582Y-116968839D01*
X138029744Y-117055000D01*
X138322256Y-117055000D01*
X138755418Y-116968839D01*
X139246625Y-116640625D01*
X139446000Y-116342239D01*
X139645375Y-116640625D01*
X140136582Y-116968839D01*
X140569744Y-117055000D01*
X140862256Y-117055000D01*
X141295418Y-116968839D01*
X141786625Y-116640625D01*
X141986000Y-116342239D01*
X142185375Y-116640625D01*
X142676582Y-116968839D01*
X143109744Y-117055000D01*
X143402256Y-117055000D01*
X143835418Y-116968839D01*
X144326625Y-116640625D01*
X144539843Y-116321522D01*
X144600817Y-116451358D01*
X145029076Y-116841645D01*
X145439110Y-117011476D01*
X145669000Y-116890155D01*
X145669000Y-115697000D01*
X145923000Y-115697000D01*
X145923000Y-116890155D01*
X146152890Y-117011476D01*
X146562924Y-116841645D01*
X146991183Y-116451358D01*
X147066000Y-116292046D01*
X147140817Y-116451358D01*
X147569076Y-116841645D01*
X147979110Y-117011476D01*
X148209000Y-116890155D01*
X148209000Y-115697000D01*
X148463000Y-115697000D01*
X148463000Y-116890155D01*
X148692890Y-117011476D01*
X149102924Y-116841645D01*
X149531183Y-116451358D01*
X149606000Y-116292046D01*
X149680817Y-116451358D01*
X150109076Y-116841645D01*
X150519110Y-117011476D01*
X150749000Y-116890155D01*
X150749000Y-115697000D01*
X148463000Y-115697000D01*
X148209000Y-115697000D01*
X145923000Y-115697000D01*
X145669000Y-115697000D01*
X145649000Y-115697000D01*
X145649000Y-115443000D01*
X145669000Y-115443000D01*
X145669000Y-115423000D01*
X145923000Y-115423000D01*
X145923000Y-115443000D01*
X148209000Y-115443000D01*
X148209000Y-115423000D01*
X148463000Y-115423000D01*
X148463000Y-115443000D01*
X150749000Y-115443000D01*
X150749000Y-115423000D01*
X151003000Y-115423000D01*
X151003000Y-115443000D01*
X151023000Y-115443000D01*
X151023000Y-115697000D01*
X151003000Y-115697000D01*
X151003000Y-116890155D01*
X151232890Y-117011476D01*
X151642924Y-116841645D01*
X152071183Y-116451358D01*
X152132157Y-116321522D01*
X152345375Y-116640625D01*
X152836582Y-116968839D01*
X153269744Y-117055000D01*
X153562256Y-117055000D01*
X153995418Y-116968839D01*
X154486625Y-116640625D01*
X154686000Y-116342239D01*
X154885375Y-116640625D01*
X155376582Y-116968839D01*
X155809744Y-117055000D01*
X156102256Y-117055000D01*
X156535418Y-116968839D01*
X157026625Y-116640625D01*
X157226000Y-116342239D01*
X157425375Y-116640625D01*
X157916582Y-116968839D01*
X158349744Y-117055000D01*
X158642256Y-117055000D01*
X159075418Y-116968839D01*
X159566625Y-116640625D01*
X159894839Y-116149418D01*
X160010092Y-115570000D01*
X159894839Y-114990582D01*
X159566625Y-114499375D01*
X159548381Y-114487184D01*
X159593765Y-114478157D01*
X159803809Y-114337809D01*
X159944157Y-114127765D01*
X159993440Y-113880000D01*
X159993440Y-113601431D01*
X161849000Y-113601431D01*
X161849000Y-114490569D01*
X162189259Y-115312026D01*
X162817974Y-115940741D01*
X163639431Y-116281000D01*
X164528569Y-116281000D01*
X165350026Y-115940741D01*
X165978741Y-115312026D01*
X166319000Y-114490569D01*
X166319000Y-113601431D01*
X165978741Y-112779974D01*
X165350026Y-112151259D01*
X164528569Y-111811000D01*
X163639431Y-111811000D01*
X162817974Y-112151259D01*
X162189259Y-112779974D01*
X161849000Y-113601431D01*
X159993440Y-113601431D01*
X159993440Y-112180000D01*
X159944157Y-111932235D01*
X159803809Y-111722191D01*
X159593765Y-111581843D01*
X159346000Y-111532560D01*
X157646000Y-111532560D01*
X157398235Y-111581843D01*
X157188191Y-111722191D01*
X157047843Y-111932235D01*
X157038816Y-111977619D01*
X157026625Y-111959375D01*
X156716000Y-111751822D01*
X156716000Y-111072848D01*
X156730888Y-110998000D01*
X156716000Y-110923152D01*
X156716000Y-110923148D01*
X156671904Y-110701463D01*
X156503929Y-110450071D01*
X156440473Y-110407671D01*
X151096523Y-105063722D01*
X151208280Y-105017431D01*
X151499431Y-104726280D01*
X151657000Y-104345874D01*
X151657000Y-103934126D01*
X151507000Y-103571993D01*
X151507000Y-101914007D01*
X151657000Y-101551874D01*
X151657000Y-101184999D01*
X157064457Y-101184999D01*
X156981908Y-101600000D01*
X157097161Y-102179418D01*
X157425375Y-102670625D01*
X157916582Y-102998839D01*
X158349744Y-103085000D01*
X158642256Y-103085000D01*
X159075418Y-102998839D01*
X159566625Y-102670625D01*
X159894839Y-102179418D01*
X160010092Y-101600000D01*
X159927543Y-101184999D01*
X160358154Y-101184999D01*
X160433001Y-101199887D01*
X160507848Y-101184999D01*
X160507853Y-101184999D01*
X160729538Y-101140903D01*
X160980930Y-100972928D01*
X161023332Y-100909469D01*
X162832020Y-99100782D01*
X162939161Y-99639418D01*
X163267375Y-100130625D01*
X163565761Y-100330000D01*
X163267375Y-100529375D01*
X162939161Y-101020582D01*
X162823908Y-101600000D01*
X162939161Y-102179418D01*
X163267375Y-102670625D01*
X163758582Y-102998839D01*
X164191744Y-103085000D01*
X164484256Y-103085000D01*
X164917418Y-102998839D01*
X165408625Y-102670625D01*
X165736839Y-102179418D01*
X165852092Y-101600000D01*
X165736839Y-101020582D01*
X165408625Y-100529375D01*
X165110239Y-100330000D01*
X165408625Y-100130625D01*
X165736839Y-99639418D01*
X165852092Y-99060000D01*
X165736839Y-98480582D01*
X165408625Y-97989375D01*
X165110239Y-97790000D01*
X165408625Y-97590625D01*
X165736839Y-97099418D01*
X165852092Y-96520000D01*
X165736839Y-95940582D01*
X165408625Y-95449375D01*
X165089522Y-95236157D01*
X165219358Y-95175183D01*
X165609645Y-94746924D01*
X165779476Y-94336890D01*
X165658155Y-94107000D01*
X164465000Y-94107000D01*
X164465000Y-94127000D01*
X164211000Y-94127000D01*
X164211000Y-94107000D01*
X164191000Y-94107000D01*
X164191000Y-93853000D01*
X164211000Y-93853000D01*
X164211000Y-93833000D01*
X164465000Y-93833000D01*
X164465000Y-93853000D01*
X165658155Y-93853000D01*
X165779476Y-93623110D01*
X165609645Y-93213076D01*
X165219358Y-92784817D01*
X165089522Y-92723843D01*
X165408625Y-92510625D01*
X165736839Y-92019418D01*
X165852092Y-91440000D01*
X165736839Y-90860582D01*
X165408625Y-90369375D01*
X165390381Y-90357184D01*
X165435765Y-90348157D01*
X165645809Y-90207809D01*
X165786157Y-89997765D01*
X165835440Y-89750000D01*
X165835440Y-88050000D01*
X165786157Y-87802235D01*
X165645809Y-87592191D01*
X165435765Y-87451843D01*
X165188000Y-87402560D01*
X163488000Y-87402560D01*
X163240235Y-87451843D01*
X163030191Y-87592191D01*
X162889843Y-87802235D01*
X162840560Y-88050000D01*
X162840560Y-89750000D01*
X162889843Y-89997765D01*
X163030191Y-90207809D01*
X163240235Y-90348157D01*
X163285619Y-90357184D01*
X163267375Y-90369375D01*
X162939161Y-90860582D01*
X162823908Y-91440000D01*
X162896791Y-91806407D01*
X162329528Y-92373671D01*
X162266072Y-92416071D01*
X162223672Y-92479527D01*
X162223671Y-92479528D01*
X162098097Y-92667463D01*
X162039112Y-92964000D01*
X162054001Y-93038852D01*
X162054001Y-93923199D01*
X160451330Y-92320529D01*
X160408928Y-92257070D01*
X160157536Y-92089095D01*
X159935851Y-92044999D01*
X159935846Y-92044999D01*
X159884562Y-92034798D01*
X159894839Y-92019418D01*
X160010092Y-91440000D01*
X159894839Y-90860582D01*
X159566625Y-90369375D01*
X159544967Y-90354904D01*
X159705698Y-90288327D01*
X159884327Y-90109699D01*
X159981000Y-89876310D01*
X159981000Y-89185750D01*
X159822250Y-89027000D01*
X158623000Y-89027000D01*
X158623000Y-89047000D01*
X158369000Y-89047000D01*
X158369000Y-89027000D01*
X157169750Y-89027000D01*
X157011000Y-89185750D01*
X157011000Y-89876310D01*
X157107673Y-90109699D01*
X157286302Y-90288327D01*
X157447033Y-90354904D01*
X157425375Y-90369375D01*
X157097161Y-90860582D01*
X156981908Y-91440000D01*
X157097161Y-92019418D01*
X157114254Y-92044999D01*
X156754710Y-92044999D01*
X156664627Y-91954916D01*
X156284221Y-91797347D01*
X155872473Y-91797347D01*
X155492067Y-91954916D01*
X155248892Y-92198091D01*
X155213000Y-92162198D01*
X155213000Y-91996126D01*
X155055431Y-91615720D01*
X154764280Y-91324569D01*
X154383874Y-91167000D01*
X153972126Y-91167000D01*
X153591720Y-91324569D01*
X153457970Y-91458319D01*
X153372708Y-91423003D01*
X153531431Y-91264280D01*
X153689000Y-90883874D01*
X153689000Y-90472126D01*
X153531431Y-90091720D01*
X153240280Y-89800569D01*
X152859874Y-89643000D01*
X152448126Y-89643000D01*
X152067720Y-89800569D01*
X151776569Y-90091720D01*
X151619000Y-90472126D01*
X151619000Y-90624087D01*
X151598072Y-90638071D01*
X151555672Y-90701527D01*
X151555671Y-90701528D01*
X151430097Y-90889463D01*
X151371112Y-91186000D01*
X151386001Y-91260852D01*
X151386000Y-96372973D01*
X151081874Y-96247000D01*
X150670126Y-96247000D01*
X150289720Y-96404569D01*
X149998569Y-96695720D01*
X149877883Y-96987082D01*
X149688331Y-96797530D01*
X149645929Y-96734071D01*
X149394537Y-96566096D01*
X149172852Y-96522000D01*
X149172847Y-96522000D01*
X149098000Y-96507112D01*
X149023153Y-96522000D01*
X148023711Y-96522000D01*
X147906280Y-96404569D01*
X147525874Y-96247000D01*
X147114126Y-96247000D01*
X146733720Y-96404569D01*
X146442569Y-96695720D01*
X146285000Y-97076126D01*
X146285000Y-97487874D01*
X146442569Y-97868280D01*
X146733720Y-98159431D01*
X147114126Y-98317000D01*
X147525874Y-98317000D01*
X147906280Y-98159431D01*
X148023711Y-98042000D01*
X148783199Y-98042000D01*
X149100000Y-98358802D01*
X149100001Y-99239149D01*
X149085112Y-99314000D01*
X149100001Y-99388852D01*
X149132782Y-99553653D01*
X149144097Y-99610537D01*
X149211373Y-99711222D01*
X149312072Y-99861929D01*
X149375528Y-99904329D01*
X149987744Y-100516545D01*
X149744569Y-100759720D01*
X149587000Y-101140126D01*
X149587000Y-101551874D01*
X149737001Y-101914009D01*
X149737000Y-103315289D01*
X149684280Y-103262569D01*
X149303874Y-103105000D01*
X148892126Y-103105000D01*
X148511720Y-103262569D01*
X148220569Y-103553720D01*
X148082661Y-103886661D01*
X147749720Y-104024569D01*
X147628892Y-104145397D01*
X146318347Y-102834852D01*
X146318347Y-102668779D01*
X146160778Y-102288373D01*
X145869627Y-101997222D01*
X145489221Y-101839653D01*
X145077473Y-101839653D01*
X144697067Y-101997222D01*
X144405916Y-102288373D01*
X144248347Y-102668779D01*
X144248347Y-103080527D01*
X144405916Y-103460933D01*
X144697067Y-103752084D01*
X145077473Y-103909653D01*
X145243546Y-103909653D01*
X152656000Y-111322108D01*
X152656000Y-111751822D01*
X152345375Y-111959375D01*
X152132157Y-112278478D01*
X152071183Y-112148642D01*
X151642924Y-111758355D01*
X151232890Y-111588524D01*
X151003000Y-111709845D01*
X151003000Y-112903000D01*
X151023000Y-112903000D01*
X151023000Y-113157000D01*
X151003000Y-113157000D01*
X151003000Y-113177000D01*
X150749000Y-113177000D01*
X150749000Y-113157000D01*
X150729000Y-113157000D01*
X150729000Y-112903000D01*
X150749000Y-112903000D01*
X150749000Y-111709845D01*
X150519110Y-111588524D01*
X150109076Y-111758355D01*
X149680817Y-112148642D01*
X149619843Y-112278478D01*
X149406625Y-111959375D01*
X148915418Y-111631161D01*
X148482256Y-111545000D01*
X148189744Y-111545000D01*
X147756582Y-111631161D01*
X147265375Y-111959375D01*
X147066000Y-112257761D01*
X146866625Y-111959375D01*
X146375418Y-111631161D01*
X145942256Y-111545000D01*
X145649744Y-111545000D01*
X145216582Y-111631161D01*
X144889508Y-111849705D01*
X144364999Y-111325196D01*
X144364999Y-107589407D01*
X144423110Y-107613476D01*
X144653000Y-107492155D01*
X144653000Y-106299000D01*
X144907000Y-106299000D01*
X144907000Y-107492155D01*
X145136890Y-107613476D01*
X145546924Y-107443645D01*
X145975183Y-107053358D01*
X146221486Y-106528892D01*
X146100819Y-106299000D01*
X144907000Y-106299000D01*
X144653000Y-106299000D01*
X144633000Y-106299000D01*
X144633000Y-106045000D01*
X144653000Y-106045000D01*
X144653000Y-104851845D01*
X144907000Y-104851845D01*
X144907000Y-106045000D01*
X146100819Y-106045000D01*
X146221486Y-105815108D01*
X145975183Y-105290642D01*
X145546924Y-104900355D01*
X145136890Y-104730524D01*
X144907000Y-104851845D01*
X144653000Y-104851845D01*
X144423110Y-104730524D01*
X144013076Y-104900355D01*
X143958010Y-104950539D01*
X143958010Y-92472856D01*
X143972898Y-92398009D01*
X143958010Y-92323162D01*
X143958010Y-92323158D01*
X143913914Y-92101473D01*
X143847866Y-92002625D01*
X143788339Y-91913536D01*
X143788337Y-91913534D01*
X143745939Y-91850081D01*
X143682486Y-91807683D01*
X142513000Y-90638198D01*
X142513000Y-90472126D01*
X142355431Y-90091720D01*
X142064280Y-89800569D01*
X142036350Y-89789000D01*
X142064280Y-89777431D01*
X142355431Y-89486280D01*
X142401722Y-89374523D01*
X145777000Y-92749803D01*
X145777000Y-92915874D01*
X145934569Y-93296280D01*
X146225720Y-93587431D01*
X146606126Y-93745000D01*
X147017874Y-93745000D01*
X147398280Y-93587431D01*
X147689431Y-93296280D01*
X147847000Y-92915874D01*
X147847000Y-92504126D01*
X147689431Y-92123720D01*
X147398280Y-91832569D01*
X147017874Y-91675000D01*
X146851803Y-91675000D01*
X143544999Y-88368198D01*
X143544999Y-87923690D01*
X157011000Y-87923690D01*
X157011000Y-88614250D01*
X157169750Y-88773000D01*
X158369000Y-88773000D01*
X158369000Y-87573750D01*
X158623000Y-87573750D01*
X158623000Y-88773000D01*
X159822250Y-88773000D01*
X159981000Y-88614250D01*
X159981000Y-87923690D01*
X159884327Y-87690301D01*
X159705698Y-87511673D01*
X159472309Y-87415000D01*
X158781750Y-87415000D01*
X158623000Y-87573750D01*
X158369000Y-87573750D01*
X158210250Y-87415000D01*
X157519691Y-87415000D01*
X157286302Y-87511673D01*
X157107673Y-87690301D01*
X157011000Y-87923690D01*
X143544999Y-87923690D01*
X143544999Y-85109000D01*
X143715874Y-85109000D01*
X144096280Y-84951431D01*
X144387431Y-84660280D01*
X144420684Y-84580000D01*
X145858289Y-84580000D01*
X145680569Y-84757720D01*
X145523000Y-85138126D01*
X145523000Y-85549874D01*
X145680569Y-85930280D01*
X145971720Y-86221431D01*
X146352126Y-86379000D01*
X146763874Y-86379000D01*
X147144280Y-86221431D01*
X147261711Y-86104000D01*
X148394289Y-86104000D01*
X148511720Y-86221431D01*
X148892126Y-86379000D01*
X149303874Y-86379000D01*
X149684280Y-86221431D01*
X149751585Y-86154126D01*
X152635000Y-86154126D01*
X152635000Y-86565874D01*
X152792569Y-86946280D01*
X153083720Y-87237431D01*
X153464126Y-87395000D01*
X153875874Y-87395000D01*
X154256280Y-87237431D01*
X154547431Y-86946280D01*
X154705000Y-86565874D01*
X154705000Y-86154126D01*
X154547431Y-85773720D01*
X154256280Y-85482569D01*
X153875874Y-85325000D01*
X153464126Y-85325000D01*
X153083720Y-85482569D01*
X152792569Y-85773720D01*
X152635000Y-86154126D01*
X149751585Y-86154126D01*
X149975431Y-85930280D01*
X150133000Y-85549874D01*
X150133000Y-85138126D01*
X149975431Y-84757720D01*
X149797711Y-84580000D01*
X162110289Y-84580000D01*
X162227720Y-84697431D01*
X162608126Y-84855000D01*
X163019874Y-84855000D01*
X163400280Y-84697431D01*
X163691431Y-84406280D01*
X163849000Y-84025874D01*
X163849000Y-83614126D01*
X163691431Y-83233720D01*
X163400280Y-82942569D01*
X163019874Y-82785000D01*
X162608126Y-82785000D01*
X162227720Y-82942569D01*
X162110289Y-83060000D01*
X156229000Y-83060000D01*
X156229000Y-82852126D01*
X156071431Y-82471720D01*
X155780280Y-82180569D01*
X155670687Y-82135174D01*
X154045168Y-80509656D01*
X153999977Y-80442023D01*
X153732046Y-80262997D01*
X153495774Y-80216000D01*
X153495773Y-80216000D01*
X153416000Y-80200132D01*
X153336227Y-80216000D01*
X153307711Y-80216000D01*
X153240280Y-80148569D01*
X152859874Y-79991000D01*
X152448126Y-79991000D01*
X152067720Y-80148569D01*
X151776569Y-80439720D01*
X151765000Y-80467650D01*
X151753431Y-80439720D01*
X151462280Y-80148569D01*
X151081874Y-79991000D01*
X150951158Y-79991000D01*
X149961748Y-79001591D01*
X149917953Y-78936047D01*
X149658292Y-78762546D01*
X149429316Y-78717000D01*
X149429312Y-78717000D01*
X149352000Y-78701622D01*
X149274688Y-78717000D01*
X146883158Y-78717000D01*
X146323000Y-78156843D01*
X146323000Y-78026126D01*
X146165431Y-77645720D01*
X145874280Y-77354569D01*
X145493874Y-77197000D01*
X145286000Y-77197000D01*
X145286000Y-74617711D01*
X145403431Y-74500280D01*
X145561000Y-74119874D01*
X145561000Y-73708126D01*
X145403431Y-73327720D01*
X145112280Y-73036569D01*
X144731874Y-72879000D01*
X144320126Y-72879000D01*
X143939720Y-73036569D01*
X143648569Y-73327720D01*
X143491000Y-73708126D01*
X143491000Y-74119874D01*
X143648569Y-74500280D01*
X143766001Y-74617712D01*
X143766001Y-77216337D01*
X143595126Y-77216337D01*
X143214720Y-77373906D01*
X143122289Y-77466337D01*
X140773974Y-77466337D01*
X140696662Y-77450959D01*
X140619350Y-77466337D01*
X140619347Y-77466337D01*
X140390371Y-77511883D01*
X140196254Y-77641588D01*
X140196252Y-77641590D01*
X140130710Y-77685384D01*
X140086916Y-77750926D01*
X137821589Y-80016254D01*
X137756047Y-80060048D01*
X137712253Y-80125590D01*
X137712250Y-80125593D01*
X137582545Y-80319710D01*
X137521621Y-80626001D01*
X137537000Y-80703317D01*
X137537000Y-81081196D01*
X137335720Y-81164569D01*
X137044569Y-81455720D01*
X136887000Y-81836126D01*
X136887000Y-82247874D01*
X137044569Y-82628280D01*
X137335720Y-82919431D01*
X137716126Y-83077000D01*
X138127874Y-83077000D01*
X138508280Y-82919431D01*
X138799431Y-82628280D01*
X138957000Y-82247874D01*
X138957000Y-82104617D01*
X139061453Y-81948293D01*
X139106999Y-81719317D01*
X139106999Y-81719314D01*
X139122377Y-81642002D01*
X139106999Y-81564690D01*
X139106999Y-80951158D01*
X141021821Y-79036337D01*
X143122289Y-79036337D01*
X143214720Y-79128768D01*
X143595126Y-79286337D01*
X143766000Y-79286337D01*
X143766000Y-81670196D01*
X142300527Y-83135670D01*
X142237071Y-83178070D01*
X142194671Y-83241526D01*
X142194670Y-83241527D01*
X142069096Y-83429462D01*
X142010111Y-83725999D01*
X142025000Y-83800851D01*
X142024999Y-88006298D01*
X141683874Y-87865000D01*
X141272126Y-87865000D01*
X140891720Y-88022569D01*
X140774289Y-88140000D01*
X139760802Y-88140000D01*
X137420267Y-85799466D01*
X137475504Y-85744229D01*
X137552569Y-85930280D01*
X137843720Y-86221431D01*
X138224126Y-86379000D01*
X138635874Y-86379000D01*
X139016280Y-86221431D01*
X139307431Y-85930280D01*
X139465000Y-85549874D01*
X139465000Y-85138126D01*
X139307431Y-84757720D01*
X139016280Y-84466569D01*
X138635874Y-84309000D01*
X138469803Y-84309000D01*
X134146999Y-79986198D01*
X134146999Y-68745845D01*
X134161887Y-68670998D01*
X134146999Y-68596151D01*
X134146999Y-68596147D01*
X134102903Y-68374462D01*
X133934928Y-68123070D01*
X133871472Y-68080670D01*
X133176835Y-67386034D01*
X133187000Y-67361494D01*
X133187000Y-66810506D01*
X132976147Y-66301460D01*
X132586540Y-65911853D01*
X132077494Y-65701000D01*
X131526506Y-65701000D01*
X131017460Y-65911853D01*
X130627853Y-66301460D01*
X130417000Y-66810506D01*
X130417000Y-67361494D01*
X130627853Y-67870540D01*
X131017460Y-68260147D01*
X131526506Y-68471000D01*
X132077494Y-68471000D01*
X132102034Y-68460835D01*
X132508558Y-68867360D01*
X132006829Y-68688799D01*
X131456552Y-68716770D01*
X131078077Y-68873540D01*
X131010088Y-69114483D01*
X131802000Y-69906395D01*
X131816143Y-69892253D01*
X131995748Y-70071858D01*
X131981605Y-70086000D01*
X131995748Y-70100143D01*
X131816143Y-70279748D01*
X131802000Y-70265605D01*
X131010088Y-71057517D01*
X131078077Y-71298460D01*
X131597171Y-71483201D01*
X132147448Y-71455230D01*
X132525923Y-71298460D01*
X132593911Y-71057519D01*
X132627000Y-71090608D01*
X132626999Y-79994781D01*
X132255720Y-80148569D01*
X132012545Y-80391744D01*
X128486999Y-76866198D01*
X128486999Y-71454636D01*
X128526506Y-71471000D01*
X129077494Y-71471000D01*
X129586540Y-71260147D01*
X129976147Y-70870540D01*
X130187000Y-70361494D01*
X130187000Y-69881171D01*
X130404799Y-69881171D01*
X130432770Y-70431448D01*
X130589540Y-70809923D01*
X130830483Y-70877912D01*
X131622395Y-70086000D01*
X130830483Y-69294088D01*
X130589540Y-69362077D01*
X130404799Y-69881171D01*
X130187000Y-69881171D01*
X130187000Y-69810506D01*
X129976147Y-69301460D01*
X129586540Y-68911853D01*
X129077494Y-68701000D01*
X128526506Y-68701000D01*
X128486999Y-68717364D01*
X128486999Y-68475802D01*
X128501966Y-68460835D01*
X128526506Y-68471000D01*
X129077494Y-68471000D01*
X129586540Y-68260147D01*
X129976147Y-67870540D01*
X130187000Y-67361494D01*
X130187000Y-66810506D01*
X129976147Y-66301460D01*
X129586540Y-65911853D01*
X129077494Y-65701000D01*
X128526506Y-65701000D01*
X128017460Y-65911853D01*
X127627853Y-66301460D01*
X127417000Y-66810506D01*
X127417000Y-67361494D01*
X127427165Y-67386034D01*
X127242527Y-67570672D01*
X127179071Y-67613072D01*
X127136671Y-67676528D01*
X127136670Y-67676529D01*
X127011096Y-67864464D01*
X126952111Y-68161001D01*
X126967000Y-68235853D01*
X126966999Y-77106152D01*
X126952111Y-77180999D01*
X126966999Y-77255846D01*
X126966999Y-77255850D01*
X127011095Y-77477535D01*
X127179070Y-77728928D01*
X127242529Y-77771330D01*
X133930198Y-84459000D01*
X124572579Y-84459000D01*
X124471431Y-84357852D01*
X124321431Y-83995720D01*
X124030280Y-83704569D01*
X123649874Y-83547000D01*
X123238126Y-83547000D01*
X122857720Y-83704569D01*
X122566569Y-83995720D01*
X122409000Y-84376126D01*
X118294848Y-84376126D01*
X118337440Y-84162000D01*
X118337440Y-82462000D01*
X118288157Y-82214235D01*
X118147809Y-82004191D01*
X117937765Y-81863843D01*
X117690000Y-81814560D01*
X115990000Y-81814560D01*
X115742235Y-81863843D01*
X115532191Y-82004191D01*
X115391843Y-82214235D01*
X115342560Y-82462000D01*
X115342560Y-84162000D01*
X115391843Y-84409765D01*
X115532191Y-84619809D01*
X115742235Y-84760157D01*
X115787619Y-84769184D01*
X115769375Y-84781375D01*
X115441161Y-85272582D01*
X115325908Y-85852000D01*
X115441161Y-86431418D01*
X115769375Y-86922625D01*
X116067761Y-87122000D01*
X115769375Y-87321375D01*
X115441161Y-87812582D01*
X115325908Y-88392000D01*
X115441161Y-88971418D01*
X115769375Y-89462625D01*
X116067761Y-89662000D01*
X115769375Y-89861375D01*
X115441161Y-90352582D01*
X115325908Y-90932000D01*
X115441161Y-91511418D01*
X115769375Y-92002625D01*
X116067761Y-92202000D01*
X115769375Y-92401375D01*
X115441161Y-92892582D01*
X115325908Y-93472000D01*
X115406407Y-93876696D01*
X115394280Y-93864569D01*
X115013874Y-93707000D01*
X114602126Y-93707000D01*
X114221720Y-93864569D01*
X113930569Y-94155720D01*
X113773000Y-94536126D01*
X107898000Y-94536126D01*
X107898000Y-64071431D01*
X109779000Y-64071431D01*
X109779000Y-64960569D01*
X110119259Y-65782026D01*
X110747974Y-66410741D01*
X111569431Y-66751000D01*
X112458569Y-66751000D01*
X113280026Y-66410741D01*
X113908741Y-65782026D01*
X114249000Y-64960569D01*
X114249000Y-64071431D01*
X113908741Y-63249974D01*
X113280026Y-62621259D01*
X112604200Y-62341322D01*
X128167000Y-62341322D01*
X128167000Y-63190678D01*
X128492034Y-63975380D01*
X129092620Y-64575966D01*
X129877322Y-64901000D01*
X130726678Y-64901000D01*
X131511380Y-64575966D01*
X132111966Y-63975380D01*
X132279879Y-63570000D01*
X138694560Y-63570000D01*
X138694560Y-65970000D01*
X138743843Y-66217765D01*
X138884191Y-66427809D01*
X139094235Y-66568157D01*
X139342000Y-66617440D01*
X141742000Y-66617440D01*
X141989765Y-66568157D01*
X142199809Y-66427809D01*
X142340157Y-66217765D01*
X142389440Y-65970000D01*
X142389440Y-64404996D01*
X143707000Y-64404996D01*
X143707000Y-65135004D01*
X143986362Y-65809444D01*
X144502556Y-66325638D01*
X145176996Y-66605000D01*
X145907004Y-66605000D01*
X146581444Y-66325638D01*
X147097638Y-65809444D01*
X147377000Y-65135004D01*
X147377000Y-64404996D01*
X147238833Y-64071431D01*
X161849000Y-64071431D01*
X161849000Y-64960569D01*
X162189259Y-65782026D01*
X162817974Y-66410741D01*
X163639431Y-66751000D01*
X164528569Y-66751000D01*
X165350026Y-66410741D01*
X165978741Y-65782026D01*
X166319000Y-64960569D01*
X166319000Y-64071431D01*
X165978741Y-63249974D01*
X165350026Y-62621259D01*
X164528569Y-62281000D01*
X163639431Y-62281000D01*
X162817974Y-62621259D01*
X162189259Y-63249974D01*
X161849000Y-64071431D01*
X147238833Y-64071431D01*
X147097638Y-63730556D01*
X146581444Y-63214362D01*
X145907004Y-62935000D01*
X145176996Y-62935000D01*
X144502556Y-63214362D01*
X143986362Y-63730556D01*
X143707000Y-64404996D01*
X142389440Y-64404996D01*
X142389440Y-63570000D01*
X142340157Y-63322235D01*
X142199809Y-63112191D01*
X141989765Y-62971843D01*
X141742000Y-62922560D01*
X139342000Y-62922560D01*
X139094235Y-62971843D01*
X138884191Y-63112191D01*
X138743843Y-63322235D01*
X138694560Y-63570000D01*
X132279879Y-63570000D01*
X132437000Y-63190678D01*
X132437000Y-62341322D01*
X132111966Y-61556620D01*
X131511380Y-60956034D01*
X130726678Y-60631000D01*
X129877322Y-60631000D01*
X129092620Y-60956034D01*
X128492034Y-61556620D01*
X128167000Y-62341322D01*
X112604200Y-62341322D01*
X112458569Y-62281000D01*
X111569431Y-62281000D01*
X110747974Y-62621259D01*
X110119259Y-63249974D01*
X109779000Y-64071431D01*
X107898000Y-64071431D01*
X107898000Y-60400000D01*
X167946000Y-60400000D01*
X167946001Y-118162000D01*
G36*
X133223000Y-112903000D02*
X133243000Y-112903000D01*
X133243000Y-113157000D01*
X133223000Y-113157000D01*
X133223000Y-113177000D01*
X132969000Y-113177000D01*
X132969000Y-113157000D01*
X132949000Y-113157000D01*
X132949000Y-112903000D01*
X132969000Y-112903000D01*
X132969000Y-112883000D01*
X133223000Y-112883000D01*
X133223000Y-112903000D01*
X133223000Y-112903000D01*
G37*
X133223000Y-112903000D02*
X133243000Y-112903000D01*
X133243000Y-113157000D01*
X133223000Y-113157000D01*
X133223000Y-113177000D01*
X132969000Y-113177000D01*
X132969000Y-113157000D01*
X132949000Y-113157000D01*
X132949000Y-112903000D01*
X132969000Y-112903000D01*
X132969000Y-112883000D01*
X133223000Y-112883000D01*
X133223000Y-112903000D01*
G36*
X138855670Y-89384472D02*
X138898071Y-89447929D01*
X139149463Y-89615904D01*
X139371148Y-89660000D01*
X139371152Y-89660000D01*
X139445999Y-89674888D01*
X139520846Y-89660000D01*
X140774289Y-89660000D01*
X140891720Y-89777431D01*
X140919650Y-89789000D01*
X140891720Y-89800569D01*
X140600569Y-90091720D01*
X140462661Y-90424661D01*
X140129720Y-90562569D01*
X139838569Y-90853720D01*
X139681000Y-91234126D01*
X139681000Y-91645874D01*
X139838569Y-92026280D01*
X140129720Y-92317431D01*
X140510126Y-92475000D01*
X140676199Y-92475000D01*
X141988000Y-93786802D01*
X141988001Y-101581000D01*
X141780126Y-101581000D01*
X141399720Y-101738569D01*
X141282289Y-101856000D01*
X139051844Y-101856000D01*
X138976997Y-101841112D01*
X138902150Y-101856000D01*
X138902146Y-101856000D01*
X138680461Y-101900096D01*
X138680459Y-101900097D01*
X138680460Y-101900097D01*
X138492524Y-102025671D01*
X138492522Y-102025673D01*
X138429069Y-102068071D01*
X138386671Y-102131524D01*
X138135953Y-102382242D01*
X138004933Y-102251222D01*
X137624527Y-102093653D01*
X137458455Y-102093653D01*
X135909000Y-100544199D01*
X135909000Y-100378126D01*
X135751431Y-99997720D01*
X135460280Y-99706569D01*
X135079874Y-99549000D01*
X134668126Y-99549000D01*
X134287720Y-99706569D01*
X134044545Y-99949744D01*
X131824000Y-97729199D01*
X131824000Y-95809496D01*
X131861149Y-95772347D01*
X132027221Y-95772347D01*
X132407627Y-95614778D01*
X132698778Y-95323627D01*
X132856347Y-94943221D01*
X132856347Y-94531473D01*
X132698778Y-94151067D01*
X132407627Y-93859916D01*
X132027221Y-93702347D01*
X131615473Y-93702347D01*
X131345772Y-93814061D01*
X131142280Y-93610569D01*
X130761874Y-93453000D01*
X130350126Y-93453000D01*
X129969720Y-93610569D01*
X129792000Y-93788289D01*
X129792000Y-87450846D01*
X129806888Y-87375999D01*
X129792000Y-87301152D01*
X129792000Y-87301148D01*
X129747904Y-87079463D01*
X129579929Y-86828071D01*
X129559000Y-86814087D01*
X129559000Y-86662126D01*
X129401431Y-86281720D01*
X129348711Y-86229000D01*
X133309307Y-86229000D01*
X133271720Y-86244569D01*
X132980569Y-86535720D01*
X132823000Y-86916126D01*
X132823000Y-87327874D01*
X132980569Y-87708280D01*
X133098001Y-87825712D01*
X133098000Y-88825153D01*
X133083112Y-88900000D01*
X133098000Y-88974847D01*
X133098000Y-88974851D01*
X133142096Y-89196536D01*
X133310071Y-89447929D01*
X133331000Y-89461913D01*
X133331000Y-89613874D01*
X133488569Y-89994280D01*
X133779720Y-90285431D01*
X134160126Y-90443000D01*
X134571874Y-90443000D01*
X134952280Y-90285431D01*
X135243431Y-89994280D01*
X135401000Y-89613874D01*
X135401000Y-89202126D01*
X135243431Y-88821720D01*
X134952280Y-88530569D01*
X134618000Y-88392106D01*
X134618000Y-87825711D01*
X134735431Y-87708280D01*
X134893000Y-87327874D01*
X134893000Y-86916126D01*
X134735431Y-86535720D01*
X134578711Y-86379000D01*
X134825874Y-86379000D01*
X135206280Y-86221431D01*
X135449455Y-85978256D01*
X138855670Y-89384472D01*
X138855670Y-89384472D01*
G37*
X138855670Y-89384472D02*
X138898071Y-89447929D01*
X139149463Y-89615904D01*
X139371148Y-89660000D01*
X139371152Y-89660000D01*
X139445999Y-89674888D01*
X139520846Y-89660000D01*
X140774289Y-89660000D01*
X140891720Y-89777431D01*
X140919650Y-89789000D01*
X140891720Y-89800569D01*
X140600569Y-90091720D01*
X140462661Y-90424661D01*
X140129720Y-90562569D01*
X139838569Y-90853720D01*
X139681000Y-91234126D01*
X139681000Y-91645874D01*
X139838569Y-92026280D01*
X140129720Y-92317431D01*
X140510126Y-92475000D01*
X140676199Y-92475000D01*
X141988000Y-93786802D01*
X141988001Y-101581000D01*
X141780126Y-101581000D01*
X141399720Y-101738569D01*
X141282289Y-101856000D01*
X139051844Y-101856000D01*
X138976997Y-101841112D01*
X138902150Y-101856000D01*
X138902146Y-101856000D01*
X138680461Y-101900096D01*
X138680459Y-101900097D01*
X138680460Y-101900097D01*
X138492524Y-102025671D01*
X138492522Y-102025673D01*
X138429069Y-102068071D01*
X138386671Y-102131524D01*
X138135953Y-102382242D01*
X138004933Y-102251222D01*
X137624527Y-102093653D01*
X137458455Y-102093653D01*
X135909000Y-100544199D01*
X135909000Y-100378126D01*
X135751431Y-99997720D01*
X135460280Y-99706569D01*
X135079874Y-99549000D01*
X134668126Y-99549000D01*
X134287720Y-99706569D01*
X134044545Y-99949744D01*
X131824000Y-97729199D01*
X131824000Y-95809496D01*
X131861149Y-95772347D01*
X132027221Y-95772347D01*
X132407627Y-95614778D01*
X132698778Y-95323627D01*
X132856347Y-94943221D01*
X132856347Y-94531473D01*
X132698778Y-94151067D01*
X132407627Y-93859916D01*
X132027221Y-93702347D01*
X131615473Y-93702347D01*
X131345772Y-93814061D01*
X131142280Y-93610569D01*
X130761874Y-93453000D01*
X130350126Y-93453000D01*
X129969720Y-93610569D01*
X129792000Y-93788289D01*
X129792000Y-87450846D01*
X129806888Y-87375999D01*
X129792000Y-87301152D01*
X129792000Y-87301148D01*
X129747904Y-87079463D01*
X129579929Y-86828071D01*
X129559000Y-86814087D01*
X129559000Y-86662126D01*
X129401431Y-86281720D01*
X129348711Y-86229000D01*
X133309307Y-86229000D01*
X133271720Y-86244569D01*
X132980569Y-86535720D01*
X132823000Y-86916126D01*
X132823000Y-87327874D01*
X132980569Y-87708280D01*
X133098001Y-87825712D01*
X133098000Y-88825153D01*
X133083112Y-88900000D01*
X133098000Y-88974847D01*
X133098000Y-88974851D01*
X133142096Y-89196536D01*
X133310071Y-89447929D01*
X133331000Y-89461913D01*
X133331000Y-89613874D01*
X133488569Y-89994280D01*
X133779720Y-90285431D01*
X134160126Y-90443000D01*
X134571874Y-90443000D01*
X134952280Y-90285431D01*
X135243431Y-89994280D01*
X135401000Y-89613874D01*
X135401000Y-89202126D01*
X135243431Y-88821720D01*
X134952280Y-88530569D01*
X134618000Y-88392106D01*
X134618000Y-87825711D01*
X134735431Y-87708280D01*
X134893000Y-87327874D01*
X134893000Y-86916126D01*
X134735431Y-86535720D01*
X134578711Y-86379000D01*
X134825874Y-86379000D01*
X135206280Y-86221431D01*
X135449455Y-85978256D01*
X138855670Y-89384472D01*
G04 #@! TD*
M02*
